<svg width="40" height="62" viewBox="0 0 40 62" fill="none" xmlns="http://www.w3.org/2000/svg">
<path d="M2 60L5.23469 56.3032C6.15251 55.2543 6.98477 54.1335 7.72348 52.9515L8.56094 51.6116C9.45416 50.1824 10.1173 48.6218 10.526 46.9868L10.5736 46.7966C11.0059 45.0673 11.1265 43.2747 10.9296 41.5031V41.5031C10.6915 39.3596 9.99379 37.2927 8.88418 35.4433L8.17231 34.2569C7.14088 32.5378 6.41266 30.6542 6.0195 28.6884L6.00145 28.5982C5.53591 26.2705 5.56144 23.8713 6.07638 21.554V21.554C6.43268 19.9507 7.01874 18.4072 7.8164 16.9714L8.51663 15.711C9.44233 14.0447 10.542 12.4812 11.7972 11.0467L12.0397 10.7695C13.6888 8.88493 15.564 7.21094 17.623 5.78551L23.0909 2" stroke="white" stroke-width="3" stroke-linecap="round"/>
<path d="M17.8183 59.341L19.7046 54.0002M15.841 15.182L18.4774 11.8865M21.7729 48.7956L22.2378 47.1765C22.3666 46.7278 22.432 46.2633 22.432 45.7966V44.182M17.2046 32.0002L15.182 29.0229M21.7729 40.2274C21.2046 37.5002 19.7046 36.0002 19.7046 36.0002M13.8638 24.4092L13.7483 22.661C13.7193 22.2224 13.7483 21.7818 13.8345 21.3508L14.2046 19.5002M21.7729 7.93196L25.0683 5.29559" stroke="white" stroke-linecap="round"/>
<path d="M31 59.9998L34.2955 52.0907L34.7377 50.8745C36.1384 47.0226 35.8936 42.7641 34.0606 39.0981V39.0981C33.3431 37.6632 32.399 36.3532 31.2645 35.2188L27.7046 31.6589L23.7239 27.6782C23.303 27.2572 22.9246 26.7958 22.5944 26.3004V26.3004C21.2275 24.25 20.7569 21.7305 21.2914 19.3249L21.4276 18.7121C21.6564 17.6825 22.0389 16.6932 22.5622 15.7774L23.0384 14.944C23.9462 13.3554 25.1066 11.9253 26.4741 10.7097L27.4956 9.80171C29.3818 8.1251 31.5092 6.74146 33.8067 5.69717L37.591 3.97705" stroke="white" stroke-width="3" stroke-linecap="round"/>
</svg>
