<svg width="47" height="49" viewBox="0 0 47 49" fill="none" xmlns="http://www.w3.org/2000/svg">
<path fill-rule="evenodd" clip-rule="evenodd" d="M1.89757 37.8268L6.65865 24.5L1.89757 11.1732L0.710767 7.85116C0.0995791 6.14037 1.90171 4.56663 3.51459 5.40268L6.84462 7.12882L33.982 21.1957L36.9312 22.7244C38.3707 23.4705 38.3707 25.5295 36.9312 26.2756L33.982 27.8043L6.84462 41.8712L3.51459 43.5973C1.90171 44.4334 0.0995806 42.8596 0.710768 41.1488L1.89757 37.8268ZM10.8817 22.6076L6.03231 11.1732L29.5034 22.705C30.9942 23.4374 30.9942 25.5626 29.5034 26.2951L6.03232 37.8268L10.8817 26.3924L11.5577 24.5L10.8817 22.6076ZM47 2.00001C47 0.895437 46.1046 5.57039e-06 45 9.43337e-06L44.7895 9.44257e-06C43.6849 1.33055e-05 42.7895 0.895441 42.7895 2.00001L42.7895 24.5L42.7895 47C42.7895 48.1046 43.6849 49 44.7895 49L45 49C46.1046 49 47 48.1046 47 47L47 24.5L47 2.00001Z" fill="#E0DFDF"/>
</svg>
