<svg width="26" height="38" viewBox="0 0 26 38" fill="none" xmlns="http://www.w3.org/2000/svg">
<path fill-rule="evenodd" clip-rule="evenodd" d="M8.35714 0L6.5 2.11111H1.85714H0V3.8V4.22222V5.91111H1.85714H24.1429H26V4.22222V3.8V2.11111H24.1429H19.5L17.6429 0H8.35714ZM20.8 11.1841H5.2V34.2H20.8V11.1841ZM5.2 7.38406H1.85714V11.1841V34.2V38H5.2H20.8H24.1429V34.2V11.1841V7.38406H20.8H5.2ZM9.65746 12.1368H7.05746V33.2479H9.65746V12.1368ZM11.699 12.1368H14.299V33.2479H11.699V12.1368ZM18.9429 12.1368H16.3429V33.2479H18.9429V12.1368Z" fill="white"/>
</svg>
