<svg width="74" height="64" viewBox="0 0 74 64" fill="none" xmlns="http://www.w3.org/2000/svg">
<rect x="2" y="14.1221" width="69.3878" height="47.8776" rx="2" stroke="white" stroke-width="4"/>
<path d="M26.5715 46.9909V30.2822C26.5715 28.8612 28.0118 27.8935 29.3273 28.4305L48.8208 36.387C50.449 37.0516 50.4886 39.3429 48.8842 40.0632L29.3907 48.8154C28.0674 49.4096 26.5715 48.4415 26.5715 46.9909Z" stroke="white" stroke-width="3" stroke-linecap="round"/>
<path d="M19.3528 0.853075C18.7194 -0.0518234 17.4723 -0.271893 16.5674 0.361536C15.6625 0.994965 15.4425 2.24203 16.0759 3.14692L19.3528 0.853075ZM16.0759 3.14692L24.933 15.8L28.21 13.5061L19.3528 0.853075L16.0759 3.14692Z" fill="white"/>
<path d="M55.0055 3C55.5578 2.04341 55.23 0.820234 54.2734 0.267949C53.3169 -0.284336 52.0937 0.0434146 51.5414 1L55.0055 3ZM51.5414 1L43.8189 14.3758L47.283 16.3758L55.0055 3L51.5414 1Z" fill="white"/>
</svg>
