<svg width="46" height="46" viewBox="0 0 46 46" fill="none" xmlns="http://www.w3.org/2000/svg">
<path d="M21.268 3C22.0378 1.66667 23.9622 1.66667 24.732 3L41.1865 31.5C41.9563 32.8333 40.9941 34.5 39.4545 34.5H6.54552C5.00592 34.5 4.04367 32.8333 4.81347 31.5L21.268 3Z" fill="#E3DB0E"/>
<path d="M24.128 25.104L22.048 25.338L22.048 12L24.128 12L24.128 25.104ZM24.466 28.822C24.466 29.2207 24.336 29.55 24.076 29.81C23.7987 30.0873 23.4607 30.226 23.062 30.226C22.646 30.226 22.2993 30.0873 22.022 29.81C21.7273 29.55 21.58 29.2207 21.58 28.822C21.58 28.4233 21.7273 28.0853 22.022 27.808C22.2993 27.548 22.646 27.418 23.062 27.418C23.4607 27.418 23.7987 27.548 24.076 27.808C24.336 28.0853 24.466 28.4233 24.466 28.822Z" fill="black"/>
</svg>
