<svg width="24" height="24" viewBox="0 0 24 24" fill="none" xmlns="http://www.w3.org/2000/svg">
<path fill-rule="evenodd" clip-rule="evenodd" d="M1.00524 1.00524C1.6789 0.331586 2.7711 0.331586 3.44476 1.00524L12 9.56048L20.5552 1.00524C21.2289 0.331586 22.3211 0.331586 22.9948 1.00524C23.6684 1.6789 23.6684 2.7711 22.9948 3.44476L14.4395 12L22.9948 20.5552C23.6684 21.2289 23.6684 22.3211 22.9948 22.9948C22.3211 23.6684 21.2289 23.6684 20.5552 22.9948L12 14.4395L3.44476 22.9948C2.7711 23.6684 1.6789 23.6684 1.00524 22.9948C0.331586 22.3211 0.331586 21.2289 1.00524 20.5552L9.56048 12L1.00524 3.44476C0.331586 2.7711 0.331586 1.6789 1.00524 1.00524Z" fill="#A9A9A9"/>
</svg>
