<svg width="61" height="61" viewBox="0 0 61 61" fill="none" xmlns="http://www.w3.org/2000/svg">
<mask id="path-1-inside-1_205_3493" fill="white">
<path fill-rule="evenodd" clip-rule="evenodd" d="M33.9946 10.0977L34.3926 12.8837L36.9808 13.9889C38.297 14.5509 39.533 15.2686 40.6656 16.1201L42.9178 17.8133L45.5327 16.7637L50.3144 14.8444L53.5523 20.4526L49.5017 23.6321L47.2899 25.3683L47.6245 28.1602C47.7082 28.8591 47.7516 29.5723 47.7516 30.2978C47.7516 31.0224 47.7084 31.7348 47.6248 32.4328L47.2906 35.2243L49.5021 36.9602L53.5554 40.1418L50.3175 45.75L45.5348 43.8303L42.9196 42.7806L40.6672 44.4743C39.5342 45.3263 38.2976 46.0445 36.9808 46.6068L34.3925 47.7119L33.9945 50.498L33.2663 55.5952H26.7905L26.0624 50.498L25.6644 47.7119L23.0761 46.6068C21.7596 46.0446 20.5232 45.3267 19.3904 44.4749L17.1382 42.7814L14.5231 43.8311L9.73938 45.7512L6.50148 40.143L10.5549 36.9613L12.7665 35.2253L12.4322 32.4337C12.3485 31.7354 12.3053 31.0227 12.3053 30.2978C12.3053 29.5737 12.3485 28.8618 12.4319 28.1642L12.7658 25.373L10.5545 23.6373L6.49837 20.4534L9.73627 14.8452L14.5213 16.7659L17.1367 17.8156L19.3891 16.1218C20.5222 15.2696 21.7591 14.5512 23.076 13.9889L25.6643 12.8837L26.0623 10.0977L26.7905 5H33.2663L33.9946 10.0977ZM60.0506 21.7081L52.4763 8.58893L43.6702 12.1236C42.2198 11.0332 40.6347 10.1124 38.9443 9.39056L37.6028 0H22.4541L21.1125 9.39055C19.421 10.1128 17.835 11.0344 16.3838 12.1257L7.57438 8.58969L0 21.7089L7.4673 27.5703C7.36033 28.4646 7.30529 29.3748 7.30529 30.2978C7.30529 31.2219 7.36045 32.133 7.46765 33.0282L0.00311216 38.8875L7.57749 52.0067L16.3856 48.4713C17.8363 49.562 19.4218 50.4831 21.1126 51.2051L22.4541 60.5952H37.6028L38.9443 51.2051C40.6355 50.483 42.2214 49.5616 43.6723 48.4705L52.4794 52.0055L60.0538 38.8863L52.5893 33.0271C52.6965 32.1323 52.7516 31.2215 52.7516 30.2978C52.7516 29.373 52.6963 28.4611 52.5889 27.5652L60.0506 21.7081ZM37.1473 30.2975C37.1473 34.2292 33.96 37.4165 30.0283 37.4165C26.0966 37.4165 22.9093 34.2292 22.9093 30.2975C22.9093 26.3658 26.0966 23.1785 30.0283 23.1785C33.96 23.1785 37.1473 26.3658 37.1473 30.2975ZM42.1473 30.2975C42.1473 36.9907 36.7214 42.4165 30.0283 42.4165C23.3351 42.4165 17.9093 36.9907 17.9093 30.2975C17.9093 23.6044 23.3351 18.1785 30.0283 18.1785C36.7214 18.1785 42.1473 23.6044 42.1473 30.2975Z"/>
</mask>
<path d="M34.3926 12.8837L29.4428 13.5908L29.8408 16.3769L32.4291 17.4821L34.3926 12.8837ZM33.9946 10.0977L38.9443 9.39056L38.9443 9.39055L33.9946 10.0977ZM36.9808 13.9889L35.0174 18.5872L35.0174 18.5872L36.9808 13.9889ZM40.6656 16.1201L43.6702 12.1236V12.1236L40.6656 16.1201ZM42.9178 17.8133L39.9132 21.8099L42.1654 23.5031L44.7803 22.4535L42.9178 17.8133ZM45.5327 16.7637L43.6702 12.1236L45.5327 16.7637ZM50.3144 14.8444L54.6445 12.3444L52.4763 8.58893L48.4519 10.2043L50.3144 14.8444ZM53.5523 20.4526L56.6395 24.3857L60.0506 21.7081L57.8824 17.9526L53.5523 20.4526ZM49.5017 23.6321L46.4145 19.6991L46.4145 19.6991L49.5017 23.6321ZM47.2899 25.3683L44.2026 21.4353L41.9908 23.1714L42.3254 25.9633L47.2899 25.3683ZM47.6245 28.1602L42.66 28.7552L42.66 28.7552L47.6245 28.1602ZM47.6248 32.4328L42.6602 31.8385V31.8385L47.6248 32.4328ZM47.2906 35.2243L42.3261 34.63L41.9919 37.4214L44.2034 39.1573L47.2906 35.2243ZM49.5021 36.9602L52.5893 33.0271H52.5893L49.5021 36.9602ZM53.5554 40.1418L57.8855 42.6418L60.0538 38.8863L56.6426 36.2088L53.5554 40.1418ZM50.3175 45.75L48.455 50.3902L52.4794 52.0055L54.6476 48.25L50.3175 45.75ZM45.5348 43.8303L43.6723 48.4705H43.6723L45.5348 43.8303ZM42.9196 42.7806L44.7821 38.1404L42.1668 37.0907L39.9145 38.7844L42.9196 42.7806ZM40.6672 44.4743L43.6723 48.4705H43.6723L40.6672 44.4743ZM36.9808 46.6068L38.9443 51.2051H38.9443L36.9808 46.6068ZM34.3925 47.7119L32.4291 43.1136L29.8408 44.2188L29.4428 47.0048L34.3925 47.7119ZM33.9945 50.498L29.0448 49.7909L33.9945 50.498ZM33.2663 55.5952V60.5952H37.6028L38.2161 56.3023L33.2663 55.5952ZM26.7905 55.5952L21.8408 56.3023L22.4541 60.5952H26.7905V55.5952ZM26.0624 50.498L31.0121 49.7909L26.0624 50.498ZM25.6644 47.7119L30.6141 47.0048L30.2161 44.2188L27.6278 43.1136L25.6644 47.7119ZM23.0761 46.6068L25.0395 42.0084L23.0761 46.6068ZM19.3904 44.4749L22.3953 40.4786H22.3953L19.3904 44.4749ZM17.1382 42.7814L20.143 38.7851L17.8908 37.0916L15.2757 38.1413L17.1382 42.7814ZM14.5231 43.8311L16.3856 48.4713H16.3856L14.5231 43.8311ZM9.73938 45.7512L5.40925 48.2512L7.57749 52.0067L11.6019 50.3914L9.73938 45.7512ZM6.50148 40.143L3.41423 36.21L0.00311104 38.8875L2.17135 42.643L6.50148 40.143ZM10.5549 36.9613L13.6421 40.8943H13.6421L10.5549 36.9613ZM12.7665 35.2253L15.8537 39.1583L18.0653 37.4224L17.731 34.6308L12.7665 35.2253ZM12.4322 32.4337L7.46765 33.0282L12.4322 32.4337ZM12.4319 28.1642L7.4673 27.5703V27.5703L12.4319 28.1642ZM12.7658 25.373L17.7304 25.9669L18.0643 23.1757L15.853 21.44L12.7658 25.373ZM10.5545 23.6373L13.6418 19.7042L13.6418 19.7042L10.5545 23.6373ZM6.49837 20.4534L2.16824 17.9534L8.25436e-07 21.7089L3.41112 24.3865L6.49837 20.4534ZM9.73627 14.8452L11.5988 10.205L7.57438 8.58968L5.40614 12.3452L9.73627 14.8452ZM14.5213 16.7659L16.3838 12.1257L16.3838 12.1257L14.5213 16.7659ZM17.1367 17.8156L15.2742 22.4558L17.8896 23.5056L20.142 21.8117L17.1367 17.8156ZM19.3891 16.1218L22.3943 20.1178L19.3891 16.1218ZM23.076 13.9889L25.0395 18.5872L23.076 13.9889ZM25.6643 12.8837L27.6278 17.4821L30.216 16.3769L30.614 13.5908L25.6643 12.8837ZM26.0623 10.0977L21.1125 9.39055V9.39056L26.0623 10.0977ZM26.7905 5V0H22.4541L21.8408 4.29289L26.7905 5ZM33.2663 5L38.2161 4.29289L37.6028 0H33.2663V5ZM52.4763 8.58893L56.8064 6.08893L54.6382 2.33343L50.6138 3.94876L52.4763 8.58893ZM60.0506 21.7081L63.1379 25.6412L66.549 22.9636L64.3808 19.2081L60.0506 21.7081ZM43.6702 12.1236L40.6656 16.1201L42.9178 17.8133L45.5327 16.7637L43.6702 12.1236ZM38.9443 9.39056L33.9946 10.0977L34.3926 12.8837L36.9808 13.9889L38.9443 9.39056ZM37.6028 0L42.5526 -0.707108L41.9393 -5H37.6028V0ZM22.4541 0V-5H18.1176L17.5043 -0.707106L22.4541 0ZM21.1125 9.39055L23.076 13.9889L25.6643 12.8837L26.0623 10.0977L21.1125 9.39055ZM16.3838 12.1257L14.5213 16.7659L17.1367 17.8156L19.3891 16.1218L16.3838 12.1257ZM7.57438 8.58969L9.43688 3.94952L5.41249 2.33419L3.24425 6.08969L7.57438 8.58969ZM0 21.7089L-4.33013 19.2089L-6.49837 22.9644L-3.08725 25.642L0 21.7089ZM7.4673 27.5703L12.4319 28.1642L12.7658 25.373L10.5545 23.6373L7.4673 27.5703ZM7.46765 33.0282L10.5549 36.9613L12.7665 35.2253L12.4322 32.4337L7.46765 33.0282ZM0.00311216 38.8875L-3.08413 34.9545L-6.49525 37.632L-4.32701 41.3875L0.00311216 38.8875ZM7.57749 52.0067L3.24736 54.5067L5.4156 58.2622L9.43999 56.6469L7.57749 52.0067ZM16.3856 48.4713L19.3904 44.4749L17.1382 42.7814L14.5231 43.8311L16.3856 48.4713ZM21.1126 51.2051L26.0624 50.498L25.6644 47.7119L23.0761 46.6068L21.1126 51.2051ZM22.4541 60.5952L17.5043 61.3023L18.1176 65.5952H22.4541V60.5952ZM37.6028 60.5952V65.5952H41.9393L42.5526 61.3023L37.6028 60.5952ZM38.9443 51.2051L36.9808 46.6068L34.3925 47.7119L33.9945 50.498L38.9443 51.2051ZM43.6723 48.4705L45.5348 43.8303L42.9196 42.7806L40.6672 44.4743L43.6723 48.4705ZM52.4794 52.0055L50.6169 56.6457L54.6413 58.261L56.8095 54.5055L52.4794 52.0055ZM60.0538 38.8863L64.3839 41.3863L66.5521 37.6308L63.141 34.9533L60.0538 38.8863ZM52.5893 33.0271L47.6248 32.4328L47.2906 35.2243L49.5021 36.9602L52.5893 33.0271ZM52.5889 27.5652L49.5017 23.6321L47.2899 25.3683L47.6245 28.1602L52.5889 27.5652ZM39.3423 12.1766L38.9443 9.39056L29.0448 10.8048L29.4428 13.5908L39.3423 12.1766ZM38.9443 9.39056L36.3561 8.28537L32.4291 17.4821L35.0174 18.5872L38.9443 9.39056ZM43.6702 12.1236C42.2198 11.0332 40.6347 10.1124 38.9443 9.39055L35.0174 18.5872C35.9592 18.9894 36.8462 19.5041 37.661 20.1166L43.6702 12.1236ZM45.9224 13.8168L43.6702 12.1236L37.661 20.1166L39.9132 21.8099L45.9224 13.8168ZM43.6702 12.1236L41.0553 13.1732L44.7803 22.4535L47.3952 21.4039L43.6702 12.1236ZM48.4519 10.2043L43.6702 12.1236L47.3952 21.4039L52.1769 19.4846L48.4519 10.2043ZM57.8824 17.9526L54.6445 12.3444L45.9843 17.3444L49.2222 22.9526L57.8824 17.9526ZM52.5889 27.5652L56.6395 24.3857L50.465 16.5196L46.4145 19.6991L52.5889 27.5652ZM50.3771 29.3014L52.589 27.5652L46.4145 19.6991L44.2026 21.4353L50.3771 29.3014ZM52.5889 27.5652L52.2543 24.7733L42.3254 25.9633L42.66 28.7552L52.5889 27.5652ZM52.7516 30.2978C52.7516 29.373 52.6963 28.4611 52.5889 27.5652L42.66 28.7552C42.7202 29.2571 42.7516 29.7716 42.7516 30.2978H52.7516ZM52.5893 33.0271C52.6965 32.1323 52.7516 31.2215 52.7516 30.2978H42.7516C42.7516 30.8234 42.7202 31.3373 42.6602 31.8385L52.5893 33.0271ZM52.2552 35.8186L52.5893 33.0271L42.6602 31.8385L42.3261 34.63L52.2552 35.8186ZM52.5893 33.0271L50.3779 31.2912L44.2034 39.1573L46.4149 40.8932L52.5893 33.0271ZM56.6426 36.2088L52.5893 33.0271L46.4148 40.8932L50.4681 44.0749L56.6426 36.2088ZM54.6476 48.25L57.8855 42.6418L49.2253 37.6418L45.9874 43.25L54.6476 48.25ZM43.6723 48.4705L48.455 50.3902L52.18 41.1099L47.3973 39.1902L43.6723 48.4705ZM41.0571 47.4207L43.6723 48.4705L47.3973 39.1902L44.7821 38.1404L41.0571 47.4207ZM43.6723 48.4705L45.9246 46.7768L39.9145 38.7844L37.6622 40.4781L43.6723 48.4705ZM38.9443 51.2051C40.6355 50.483 42.2214 49.5616 43.6723 48.4705L37.6622 40.4781C36.8471 41.091 35.9596 41.6061 35.0173 42.0084L38.9443 51.2051ZM36.356 52.3103L38.9443 51.2051L35.0173 42.0084L32.4291 43.1136L36.356 52.3103ZM38.9443 51.2051L39.3423 48.419L29.4428 47.0048L29.0448 49.7909L38.9443 51.2051ZM38.2161 56.3023L38.9443 51.2051L29.0448 49.7909L28.3166 54.8881L38.2161 56.3023ZM26.7905 60.5952H33.2663V50.5952H26.7905V60.5952ZM21.1126 51.2051L21.8408 56.3023L31.7403 54.8881L31.0121 49.7909L21.1126 51.2051ZM20.7146 48.419L21.1126 51.2051L31.0121 49.7909L30.6141 47.0048L20.7146 48.419ZM21.1126 51.2051L23.7009 52.3103L27.6278 43.1136L25.0395 42.0084L21.1126 51.2051ZM16.3856 48.4713C17.8363 49.562 19.4218 50.4831 21.1126 51.2051L25.0395 42.0084C24.0975 41.6062 23.2102 41.0913 22.3953 40.4786L16.3856 48.4713ZM14.1333 46.7778L16.3856 48.4713L22.3953 40.4786L20.143 38.7851L14.1333 46.7778ZM16.3856 48.4713L19.0007 47.4216L15.2757 38.1413L12.6606 39.1909L16.3856 48.4713ZM11.6019 50.3914L16.3856 48.4713L12.6606 39.1909L7.87688 41.1111L11.6019 50.3914ZM2.17135 42.643L5.40925 48.2512L14.0695 43.2512L10.8316 37.643L2.17135 42.643ZM7.46765 33.0282L3.41423 36.21L9.58872 44.0761L13.6421 40.8943L7.46765 33.0282ZM9.67924 31.2922L7.46765 33.0282L13.6421 40.8943L15.8537 39.1583L9.67924 31.2922ZM7.46765 33.0282L7.80196 35.8198L17.731 34.6308L17.3967 31.8392L7.46765 33.0282ZM7.30529 30.2978C7.30529 31.2219 7.36045 32.133 7.46765 33.0282L17.3967 31.8392C17.3367 31.3377 17.3053 30.8236 17.3053 30.2978H7.30529ZM7.4673 27.5703C7.36033 28.4646 7.30529 29.3748 7.30529 30.2978H17.3053C17.3053 29.7726 17.3366 29.2591 17.3965 28.7581L7.4673 27.5703ZM7.80119 24.7791L7.4673 27.5703L17.3965 28.7581L17.7304 25.9669L7.80119 24.7791ZM7.4673 27.5703L9.67855 29.3061L15.853 21.44L13.6418 19.7042L7.4673 27.5703ZM3.41112 24.3865L7.4673 27.5703L13.6418 19.7042L9.58561 16.5203L3.41112 24.3865ZM5.40614 12.3452L2.16824 17.9534L10.8285 22.9534L14.0664 17.3452L5.40614 12.3452ZM16.3838 12.1257L11.5988 10.205L7.87377 19.4853L12.6588 21.406L16.3838 12.1257ZM18.9992 13.1755L16.3838 12.1257L12.6588 21.406L15.2742 22.4558L18.9992 13.1755ZM16.3838 12.1257L14.1315 13.8196L20.142 21.8117L22.3943 20.1178L16.3838 12.1257ZM21.1125 9.39055C19.421 10.1128 17.835 11.0344 16.3838 12.1257L22.3943 20.1178C23.2095 19.5048 24.0971 18.9897 25.0395 18.5872L21.1125 9.39055ZM23.7008 8.28537L21.1125 9.39055L25.0395 18.5872L27.6278 17.4821L23.7008 8.28537ZM21.1125 9.39056L20.7145 12.1766L30.614 13.5908L31.012 10.8048L21.1125 9.39056ZM21.8408 4.29289L21.1125 9.39055L31.012 10.8048L31.7403 5.70711L21.8408 4.29289ZM33.2663 0H26.7905V10H33.2663V0ZM38.9443 9.39055L38.2161 4.29289L28.3166 5.70711L29.0448 10.8048L38.9443 9.39055ZM48.1461 11.0889L55.7205 24.2081L64.3808 19.2081L56.8064 6.08893L48.1461 11.0889ZM45.5327 16.7637L54.3388 13.2291L50.6138 3.94876L41.8077 7.48341L45.5327 16.7637ZM36.9808 13.9889C38.297 14.5509 39.533 15.2686 40.6656 16.1201L46.6748 8.12703C44.9066 6.79771 42.9725 5.67384 40.9078 4.79221L36.9808 13.9889ZM32.6531 0.707108L33.9946 10.0977L43.8941 8.68345L42.5526 -0.707108L32.6531 0.707108ZM22.4541 5H37.6028V-5H22.4541V5ZM26.0623 10.0977L27.4038 0.707106L17.5043 -0.707106L16.1628 8.68345L26.0623 10.0977ZM19.3891 16.1218C20.5222 15.2696 21.7591 14.5512 23.076 13.9889L19.1491 4.79221C17.083 5.67441 15.1477 6.79917 13.3786 8.12962L19.3891 16.1218ZM5.71188 13.2298L14.5213 16.7659L18.2463 7.48553L9.43688 3.94952L5.71188 13.2298ZM4.33013 24.2089L11.9045 11.0897L3.24425 6.08969L-4.33013 19.2089L4.33013 24.2089ZM10.5545 23.6373L3.08725 17.7758L-3.08725 25.642L4.38005 31.5034L10.5545 23.6373ZM12.3053 30.2978C12.3053 29.5737 12.3485 28.8618 12.4319 28.1642L2.50269 26.9765C2.3722 28.0673 2.30529 29.1758 2.30529 30.2978H12.3053ZM12.4322 32.4337C12.3485 31.7354 12.3053 31.0227 12.3053 30.2978H2.30529C2.30529 31.421 2.37235 32.5307 2.50312 33.6228L12.4322 32.4337ZM3.09036 42.8206L10.5549 36.9613L4.3804 29.0952L-3.08413 34.9545L3.09036 42.8206ZM11.9076 49.5067L4.33324 36.3875L-4.32701 41.3875L3.24736 54.5067L11.9076 49.5067ZM14.5231 43.8311L5.71499 47.3666L9.43999 56.6469L18.2481 53.1114L14.5231 43.8311ZM23.0761 46.6068C21.7596 46.0446 20.5232 45.3267 19.3904 44.4749L13.3807 52.4676C15.1493 53.7974 17.0839 54.9216 19.1491 55.8035L23.0761 46.6068ZM27.4038 59.8881L26.0624 50.498L16.1629 51.9122L17.5043 61.3023L27.4038 59.8881ZM37.6028 55.5952H22.4541V65.5952H37.6028V55.5952ZM33.9945 50.498L32.6531 59.8881L42.5526 61.3023L43.894 51.9122L33.9945 50.498ZM40.6672 44.4743C39.5342 45.3263 38.2976 46.0445 36.9808 46.6068L40.9077 55.8035C42.9735 54.9214 44.9085 53.7968 46.6774 52.4667L40.6672 44.4743ZM54.3419 47.3654L45.5348 43.8303L41.8098 53.1106L50.6169 56.6457L54.3419 47.3654ZM55.7236 36.3863L48.1493 49.5055L56.8095 54.5055L64.3839 41.3863L55.7236 36.3863ZM49.5021 36.9602L56.9665 42.8194L63.141 34.9533L55.6766 29.0941L49.5021 36.9602ZM47.7516 30.2978C47.7516 31.0224 47.7083 31.7348 47.6248 32.4328L57.5539 33.6214C57.6846 32.5298 57.7516 31.4206 57.7516 30.2978H47.7516ZM47.6245 28.1602C47.7082 28.8591 47.7516 29.5723 47.7516 30.2978H57.7516C57.7516 29.1737 57.6844 28.0631 57.5534 26.9702L47.6245 28.1602ZM56.9634 17.7751L49.5017 23.6321L55.6762 31.4982L63.1379 25.6412L56.9634 17.7751ZM30.0283 42.4165C36.7214 42.4165 42.1473 36.9907 42.1473 30.2975H32.1473C32.1473 31.4678 31.1986 32.4165 30.0283 32.4165V42.4165ZM17.9093 30.2975C17.9093 36.9907 23.3351 42.4165 30.0283 42.4165V32.4165C28.858 32.4165 27.9093 31.4678 27.9093 30.2975H17.9093ZM30.0283 18.1785C23.3351 18.1785 17.9093 23.6044 17.9093 30.2975H27.9093C27.9093 29.1272 28.858 28.1785 30.0283 28.1785V18.1785ZM42.1473 30.2975C42.1473 23.6044 36.7214 18.1785 30.0283 18.1785V28.1785C31.1986 28.1785 32.1473 29.1272 32.1473 30.2975H42.1473ZM30.0283 47.4165C39.4829 47.4165 47.1473 39.7521 47.1473 30.2975H37.1473C37.1473 34.2292 33.96 37.4165 30.0283 37.4165V47.4165ZM12.9093 30.2975C12.9093 39.7521 20.5737 47.4165 30.0283 47.4165V37.4165C26.0966 37.4165 22.9093 34.2292 22.9093 30.2975H12.9093ZM30.0283 13.1785C20.5737 13.1785 12.9093 20.843 12.9093 30.2975H22.9093C22.9093 26.3658 26.0966 23.1785 30.0283 23.1785V13.1785ZM47.1473 30.2975C47.1473 20.843 39.4829 13.1785 30.0283 13.1785V23.1785C33.96 23.1785 37.1473 26.3658 37.1473 30.2975H47.1473Z" fill="white" mask="url(#path-1-inside-1_205_3493)"/>
</svg>
