<svg width="63" height="64" viewBox="0 0 63 64" fill="none" xmlns="http://www.w3.org/2000/svg">
<path d="M18.4287 6.22857V6.22857C26.8198 2.87213 36.1805 2.87213 44.5716 6.22857V6.22857" stroke="#DF3712" stroke-width="7" stroke-linecap="round"/>
<path d="M18 58V58C26.8107 60.6106 36.1893 60.6106 45 58V58" stroke="#DF3712" stroke-width="7" stroke-linecap="round"/>
<path d="M6.22857 46.3145V46.3145C2.87213 37.9234 2.87213 28.5627 6.22857 20.1716V20.1716" stroke="#DF3712" stroke-width="7" stroke-linecap="round"/>
<path d="M56.7714 20.1719V20.1719C60.1279 28.563 60.1279 37.9236 56.7714 46.3147V46.3147" stroke="#DF3712" stroke-width="7" stroke-linecap="round"/>
<path d="M24 19V19C28.8146 17.0742 34.1854 17.0742 39 19V19" stroke="#DF3712" stroke-width="7" stroke-linecap="round"/>
<path d="M24 45V45C28.8146 46.9258 34.1854 46.9258 39 45V45" stroke="#DF3712" stroke-width="7" stroke-linecap="round"/>
<path d="M46 25V25C47.9157 29.4701 47.9157 34.5299 46 39V39" stroke="#DF3712" stroke-width="7" stroke-linecap="round"/>
<path d="M18 25V25C15.5214 29.3376 15.5214 34.6624 18 39V39" stroke="#DF3712" stroke-width="7" stroke-linecap="round"/>
<circle cx="31.681" cy="32.681" r="6.68095" fill="white"/>
</svg>
