<svg width="49" height="47" viewBox="0 0 49 47" fill="none" xmlns="http://www.w3.org/2000/svg">
<path fill-rule="evenodd" clip-rule="evenodd" d="M37.8268 45.1024L24.5 40.3414L11.1732 45.1024L7.85115 46.2892C6.14037 46.9004 4.56662 45.0983 5.40267 43.4854L7.12881 40.1554L21.1957 13.018L22.7244 10.0688C23.4705 8.62935 25.5295 8.62935 26.2756 10.0688L27.8043 13.018L41.8712 40.1554L43.5973 43.4854C44.4334 45.0983 42.8596 46.9004 41.1488 46.2892L37.8268 45.1024ZM22.6076 36.1183L11.1732 40.9677L22.705 17.4966C23.4374 16.0058 25.5626 16.0058 26.295 17.4966L37.8268 40.9677L26.3924 36.1183L24.5 35.4423L22.6076 36.1183ZM2 -2.94173e-07C0.895432 -3.90738e-07 3.03314e-07 0.895435 4.02145e-06 2.00001L4.00304e-06 2.21053C7.72118e-06 3.31509 0.895435 4.21052 2 4.21052L24.5 4.21052L47 4.21053C48.1046 4.21053 49 3.31509 49 2.21052L49 2C49 0.895435 48.1046 3.73642e-06 47 3.63985e-06L24.5 1.67284e-06L2 -2.94173e-07Z" fill="#E0DFDF"/>
</svg>
