<svg width="50" height="50" viewBox="0 0 50 50" fill="none" xmlns="http://www.w3.org/2000/svg">
<circle cx="25" cy="25" r="25" fill="white"/>
<path d="M21.4361 26.296C21.4361 25.46 21.6261 24.8013 22.0061 24.32C22.3861 23.8133 22.8295 23.408 23.3361 23.104C23.8681 22.7747 24.4381 22.4707 25.0461 22.192C25.6795 21.888 26.2621 21.546 26.7941 21.166C27.3515 20.7607 27.8075 20.2667 28.1621 19.684C28.5168 19.076 28.6941 18.2907 28.6941 17.328C28.6941 16.036 28.2888 15.0227 27.4781 14.288C26.6675 13.5533 25.5781 13.186 24.2101 13.186C23.8301 13.186 23.4628 13.2113 23.1081 13.262C22.7788 13.3127 22.1708 13.4773 21.2841 13.756L20.5241 10.83C21.5881 10.5007 22.3608 10.3107 22.8421 10.26C23.3235 10.184 23.8681 10.146 24.4761 10.146C25.5655 10.146 26.5661 10.3107 27.4781 10.64C28.4155 10.9693 29.2261 11.4253 29.9101 12.008C30.5941 12.5907 31.1261 13.3127 31.5061 14.174C31.9115 15.01 32.1141 15.9347 32.1141 16.948C32.1141 18.1893 31.9241 19.2153 31.5441 20.026C31.1641 20.8367 30.6955 21.5207 30.1381 22.078C29.5808 22.61 28.9601 23.066 28.2761 23.446C27.6175 23.8007 27.0095 24.13 26.4521 24.434C25.8948 24.7127 25.4261 25.0167 25.0461 25.346C24.6661 25.65 24.4761 26.068 24.4761 26.6V31.084H21.4361V26.296ZM20.6761 35.758C20.6761 35.15 20.8915 34.6307 21.3221 34.2C21.7528 33.744 22.2848 33.516 22.9181 33.516C23.5768 33.516 24.1341 33.744 24.5901 34.2C25.0461 34.6307 25.2741 35.15 25.2741 35.758C25.2741 36.3913 25.0461 36.9233 24.5901 37.354C24.1341 37.7847 23.5768 38 22.9181 38C22.2848 38 21.7528 37.7847 21.3221 37.354C20.8915 36.9233 20.6761 36.3913 20.6761 35.758Z" fill="black"/>
</svg>
