<svg width="79" height="79" viewBox="0 0 79 79" fill="none" xmlns="http://www.w3.org/2000/svg">
<path fill-rule="evenodd" clip-rule="evenodd" d="M63.1772 53.1514C61.9379 52.6469 61.3242 51.2405 61.8065 50.0101C65.1948 41.365 63.319 31.0711 56.237 23.9891C46.7494 14.5015 31.5045 14.3639 22.1866 23.6819C15.2313 30.6372 13.541 40.8989 17.0859 49.6066C17.5904 50.8458 17.002 52.2414 15.7716 52.7237C14.5412 53.2059 13.1348 52.5922 12.6303 51.3529C8.38082 40.9147 10.3987 28.5982 18.7509 20.2461C29.9324 9.06459 48.2262 9.22966 59.6114 20.6148C68.1156 29.119 70.3561 41.4739 66.2943 51.8371C65.8121 53.0675 64.4165 53.6559 63.1772 53.1514Z" fill="#E0DFDF"/>
<path d="M39.1864 42.484L35.6929 38.374C35.5164 38.1663 35.5387 37.8556 35.7431 37.6752L49.7172 25.3451C50.1515 24.9619 50.781 25.5004 50.4696 25.9888L39.989 42.429C39.8082 42.7127 39.4043 42.7404 39.1864 42.484Z" fill="#E0DFDF"/>
</svg>
