<?xml version="1.0" standalone="no"?>
<!DOCTYPE svg PUBLIC "-//W3C//DTD SVG 1.1//EN" "http://www.w3.org/Graphics/SVG/1.1/DTD/svg11.dtd"><svg class="icon"
    width="200px" height="200.00px" viewBox="120 120 780 780" version="1.1" xmlns="http://www.w3.org/2000/svg">
    <path
        d="M298.7 469.3c-94.1 0-170.7-76.6-170.7-170.7S204.6 128 298.7 128s170.7 76.6 170.7 170.7-76.6 170.6-170.7 170.6z m0-256c-47.1 0-85.3 38.3-85.3 85.3s38.3 85.3 85.3 85.3 85.3-38.3 85.3-85.3-38.3-85.3-85.3-85.3zM725.3 896c-94.1 0-170.7-76.5-170.7-170.7s76.5-170.7 170.7-170.7S896 631.2 896 725.3 819.5 896 725.3 896z m0-256c-47 0-85.3 38.3-85.3 85.3s38.3 85.3 85.3 85.3 85.3-38.3 85.3-85.3c0.1-47-38.2-85.3-85.3-85.3zM512 853.3c-188.2 0-341.3-153.1-341.3-341.3 0-23.6 19.1-42.7 42.7-42.7S256 488.4 256 512c0 141.2 114.8 256 256 256 23.6 0 42.7 19.1 42.7 42.7s-19.1 42.6-42.7 42.6zM810.7 554.7c-23.6 0-42.7-19.1-42.7-42.7 0-141.2-114.8-256-256-256-23.6 0-42.7-19.1-42.7-42.7s19.1-42.7 42.7-42.7c188.2 0 341.3 153.1 341.3 341.3 0 23.7-19.1 42.8-42.6 42.8z" />
</svg>