<svg width="64" height="66" viewBox="0 0 64 66" fill="none" xmlns="http://www.w3.org/2000/svg">
<path d="M40.4706 55.5273H12.1992L20.6946 62.5529C23.5214 64.8906 27.5757 65.0063 30.5312 62.8337L40.4706 55.5273Z" stroke="white" stroke-width="3" stroke-linecap="round"/>
<path d="M25.6667 9.05353C0.422293 9.05353 2.83316 33.6028 7.74816 45.308C7.89449 45.6565 7.83737 46.0508 7.59725 46.3427L2.34527 52.727C1.80852 53.3795 2.27266 54.3623 3.11753 54.3623H50.2748C51.1809 54.3623 51.6199 53.2537 50.9594 52.6334L44.2618 46.3422C43.9574 46.0562 43.8698 45.596 44.0277 45.2095C55.9715 15.9749 37.0926 8.11658 25.6667 9.05353Z" fill="white" stroke="white" stroke-width="3"/>
<path d="M12.582 10.2345C17.1161 4.02054 28.9048 -4.67893 39.7866 10.2345" stroke="white" stroke-width="3" stroke-linecap="round"/>
<circle cx="44" cy="14" r="11" fill="#FF2E00"/>
<path d="M45.3281 6.85938V21H43.5508V8.69531H43.4727L40.0352 10.9805V9.20312L43.5508 6.85938H45.3281Z" fill="white"/>
</svg>
