<svg width="95" height="95" viewBox="0 0 95 95" fill="none" xmlns="http://www.w3.org/2000/svg">
<circle cx="47.5" cy="47.5" r="47.5" fill="#3C3737"/>
<path d="M16.9844 56.2188V53.3281L29.7188 33.7188H34.0547V53.1328H38V56.2188H34.0547V62H30.6953V56.2188H16.9844ZM20.7734 53.1328H30.6953V38.1719H30.3438L20.7734 52.8984V53.1328ZM51.8672 62.3906C46.75 62.3906 42.8828 59.2266 42.6875 54.8906H46.0859C46.3594 57.4297 48.8203 59.3047 51.8672 59.3047C55.5391 59.3047 58.1953 56.6094 58.1953 53.0547C58.1953 49.3828 55.4219 46.6875 51.6328 46.6484C49.25 46.6094 47.4141 47.3516 46.3594 49.1875H42.9609L44.9531 33.7188H60.2656V36.8438H47.8828L46.8281 45.125H47.1016C48.3516 44.1484 50.2656 43.4844 52.2578 43.4844C57.6484 43.4844 61.6328 47.4688 61.6328 52.9766C61.6328 58.4453 57.4922 62.3906 51.8672 62.3906ZM72.4141 46.2188C68.8984 46.2188 66.0469 43.3672 66.0469 39.8906C66.0469 36.3359 68.8984 33.4844 72.4141 33.4844C75.9297 33.4844 78.7812 36.3359 78.7812 39.8906C78.7812 43.3672 75.9297 46.2188 72.4141 46.2188ZM72.4141 43.4453C74.3672 43.4453 75.9688 41.8438 75.9688 39.8906C75.9688 37.8984 74.3672 36.2969 72.4141 36.2969C70.4219 36.2969 68.8203 37.8984 68.8203 39.8906C68.8203 41.8438 70.4219 43.4453 72.4141 43.4453Z" fill="white"/>
</svg>
