<svg width="95" height="95" viewBox="0 0 95 95" fill="none" xmlns="http://www.w3.org/2000/svg">
<circle cx="47.5" cy="47.5" r="47.5" fill="#3C3737"/>
<path d="M27.6094 62.3906C21.9844 62.3906 17.9609 59.3828 17.7656 54.8906H21.3203C21.5156 57.5859 24.2109 59.2656 27.5703 59.2656C31.2812 59.2656 34.0156 57.2344 34.0156 54.3047C34.0156 51.2188 31.5547 49.0312 27.1406 49.0312H24.8359V45.9453H27.1406C30.5781 45.9453 32.9609 44.0312 32.9609 41.1016C32.9609 38.2891 30.8906 36.375 27.6875 36.375C24.6797 36.375 21.9062 38.0547 21.75 40.8281H18.3516C18.5469 36.3359 22.6875 33.3281 27.7266 33.3281C33.1172 33.3281 36.3984 36.8438 36.3594 40.9062C36.3984 44.1094 34.5234 46.4922 31.5547 47.3125V47.5078C35.2266 48.0938 37.4922 50.7109 37.4531 54.3047C37.4922 58.9531 33.2344 62.3906 27.6094 62.3906ZM51.7891 62.3906C45.5 62.3906 41.9062 57.1172 41.9062 47.8594C41.9062 38.6797 45.5781 33.3281 51.7891 33.3281C58 33.3281 61.6719 38.6797 61.6719 47.8594C61.6719 57.1172 58.0391 62.3906 51.7891 62.3906ZM51.7891 59.2656C55.8516 59.2656 58.2344 55.1641 58.2344 47.8594C58.2344 40.5547 55.8516 36.375 51.7891 36.375C47.7266 36.375 45.3047 40.5547 45.3047 47.8594C45.3047 55.1641 47.6875 59.2656 51.7891 59.2656ZM72.2578 46.2188C68.7422 46.2188 65.8906 43.3672 65.8906 39.8906C65.8906 36.3359 68.7422 33.4844 72.2578 33.4844C75.7734 33.4844 78.625 36.3359 78.625 39.8906C78.625 43.3672 75.7734 46.2188 72.2578 46.2188ZM72.2578 43.4453C74.2109 43.4453 75.8125 41.8438 75.8125 39.8906C75.8125 37.8984 74.2109 36.2969 72.2578 36.2969C70.2656 36.2969 68.6641 37.8984 68.6641 39.8906C68.6641 41.8438 70.2656 43.4453 72.2578 43.4453Z" fill="white"/>
</svg>
