<svg width="42" height="37" viewBox="0 0 42 37" fill="none" xmlns="http://www.w3.org/2000/svg">
<path d="M24.0117 1H18.0088V3.9405V7.37109L12.3737 13.7198C9.85981 16.5521 9.78865 20.795 12.2062 23.71C13.6637 25.4674 15.8282 26.4843 18.1114 26.4843H23.207C25.3261 26.4843 27.3607 25.6538 28.8744 24.1708C32.0132 21.0958 32.1272 16.0789 29.1314 12.8645L24.0117 7.37109V3.9405V1Z" stroke="white" stroke-width="2"/>
<path d="M10.0039 1.48828L13.9875 6.77997" stroke="white" stroke-width="2" stroke-linecap="round"/>
<path d="M21.0117 29.4258L21.0117 36.0009" stroke="white" stroke-width="2" stroke-linecap="round"/>
<path d="M32.0625 1.48828L28.0149 6.73316" stroke="white" stroke-width="2" stroke-linecap="round"/>
<path d="M1 14.7227L7.46759 16.4791" stroke="white" stroke-width="2" stroke-linecap="round"/>
<path d="M41 13.7422L35.0157 16.7189" stroke="white" stroke-width="2" stroke-linecap="round"/>
<path d="M3 29.9023L8.39729 25.9942" stroke="white" stroke-width="2" stroke-linecap="round"/>
<path d="M33.0156 25.0156L37.3372 30.0463" stroke="white" stroke-width="2" stroke-linecap="round"/>
</svg>
