<svg width="65" height="27" viewBox="0 0 65 27" fill="none" xmlns="http://www.w3.org/2000/svg">
<rect x="19.7422" y="2.0625" width="3.0929" height="5.56721" fill="white"/>
<rect x="19.7422" y="18.1445" width="3.0929" height="5.56721" fill="white"/>
<rect x="29.6289" y="6.08398" width="3.0929" height="5.56721" transform="rotate(56.2404 29.6289 6.08398)" fill="white"/>
<rect x="11.3398" y="8.50586" width="3.0929" height="5.56721" transform="rotate(-56.4251 11.3398 8.50586)" fill="white"/>
<rect x="31.6797" y="16.1562" width="3.0929" height="5.56721" transform="rotate(118.436 31.6797 16.1562)" fill="white"/>
<rect x="16.0593" y="15.1095" width="2.0929" height="4.56721" transform="rotate(57.0565 16.0593 15.1095)" stroke="white"/>
<rect x="1" y="1" width="62.9512" height="24.8052" rx="1" stroke="white" stroke-width="2"/>
<path d="M52.2872 6.3C51.8872 6.2 51.4706 6.10833 51.0372 6.025C50.6539 5.94167 50.2122 5.875 49.7122 5.825C49.2289 5.75833 48.7206 5.725 48.1872 5.725C46.9539 5.725 46.0706 5.91667 45.5372 6.3C45.0039 6.66667 44.7372 7.24167 44.7372 8.025C44.7539 8.64167 44.9789 9.16667 45.4122 9.6C45.8456 10.0167 46.3872 10.4083 47.0372 10.775C47.6872 11.125 48.3956 11.475 49.1622 11.825C49.9456 12.1583 50.6622 12.55 51.3122 13C51.9622 13.4333 52.5039 13.95 52.9372 14.55C53.3872 15.1333 53.6122 15.85 53.6122 16.7C53.6122 17.6833 53.3956 18.475 52.9622 19.075C52.5456 19.675 52.0122 20.1417 51.3622 20.475C50.7122 20.8083 49.9956 21.0333 49.2122 21.15C48.4456 21.2667 47.7122 21.325 47.0122 21.325C46.3456 21.325 45.7372 21.2833 45.1872 21.2C44.6372 21.1167 44.1622 21.025 43.7622 20.925C43.2956 20.8083 42.8706 20.675 42.4872 20.525L42.9872 18.5C43.3706 18.6667 43.7789 18.8083 44.2122 18.925C44.5956 19.025 45.0206 19.1167 45.4872 19.2C45.9706 19.2833 46.4789 19.325 47.0122 19.325C47.6622 19.325 48.2539 19.2833 48.7872 19.2C49.3372 19.1167 49.8122 18.9833 50.2122 18.8C50.6122 18.6167 50.9206 18.375 51.1372 18.075C51.3706 17.775 51.4872 17.4083 51.4872 16.975C51.4706 16.325 51.2539 15.8 50.8372 15.4C50.4372 14.9833 49.8956 14.5917 49.2122 14.225C48.5456 13.8417 47.8206 13.475 47.0372 13.125C46.2706 12.775 45.5622 12.375 44.9122 11.925C44.2622 11.475 43.7122 10.9417 43.2622 10.325C42.8289 9.70833 42.6122 8.94167 42.6122 8.025C42.6122 7.49167 42.7039 6.96667 42.8872 6.45C43.0706 5.93333 43.3789 5.475 43.8122 5.075C44.2622 4.675 44.8372 4.35 45.5372 4.1C46.2539 3.85 47.1372 3.725 48.1872 3.725C48.7872 3.725 49.3539 3.75833 49.8872 3.825C50.4372 3.875 50.9122 3.93333 51.3122 4C51.7789 4.08333 52.2206 4.175 52.6372 4.275L52.2872 6.3Z" fill="white"/>
</svg>
