<?xml version="1.0" standalone="no"?><!DOCTYPE svg PUBLIC "-//W3C//DTD SVG 1.1//EN" "http://www.w3.org/Graphics/SVG/1.1/DTD/svg11.dtd"><svg t="1609816656889" class="icon" viewBox="0 0 1024 1024" version="1.1" xmlns="http://www.w3.org/2000/svg" p-id="12856" xmlns:xlink="http://www.w3.org/1999/xlink" width="200" height="200"><defs><style type="text/css"></style></defs><path d="M213.622154 102.872615c198.971077-147.771077 503.808-114.057846 665.915077 73.412923 167.778462 179.121231 171.559385 481.595077 8.507077 664.812308-148.716308 180.224-427.559385 229.691077-629.208616 112.009846C113.270154 874.653538 22.212923 720.738462 0 559.419077v-78.611692c14.651077-148.873846 89.639385-291.918769 213.622154-377.93477M77.193846 407.236923c94.995692 3.150769 190.306462 5.041231 285.144616 1.575385-23.000615 66.638769-34.500923 149.819077 13.863384 208.423384 56.241231 74.358154 176.600615 84.125538 243.554462 18.904616 66.953846-54.980923 65.220923-156.908308 27.726769-228.273231 94.523077 5.356308 189.518769 2.048 284.199385 0.157538-40.802462-187.785846-220.553846-332.091077-412.120616-335.084307C317.282462 62.227692 123.510154 210.944 77.193846 407.236923m-12.288 99.564308c-8.034462 222.286769 175.812923 431.182769 399.044923 444.888615 1.732923-100.982154-32.610462-202.121846-94.838154-281.521231-74.200615-92.002462-187.313231-150.134154-304.206769-163.367384m627.160616 106.496c-82.707692 91.372308-126.345846 213.149538-140.209231 334.296615C773.671385 938.456615 956.888615 722.471385 945.230769 503.177846c-94.838154 0.472615-189.046154 39.384615-253.164307 110.119385z" p-id="12857"></path><path d="M477.971692 383.606154c84.283077-24.733538 173.449846 58.604308 159.586462 144.147692-7.089231 89.009231-116.736 147.771077-193.457231 99.091692-102.872615-48.994462-79.872-224.019692 33.870769-243.239384z" p-id="12858"></path></svg>