<svg id="图层_1" data-name="图层 1" xmlns="http://www.w3.org/2000/svg" viewBox="0 0 283.48 283.48"><defs><style>.cls-1{fill:#126612;}.cls-2{fill:#0b9b0b;}.cls-3{fill:#d6d7d8;}.cls-4{fill:#4dff4d;}.cls-5{fill:#067006;}</style></defs><path class="cls-1" d="M232.25,278.77c-10.47,0-20.72-.25-31.09,2.56a60.94,60.94,0,0,0-42.33,42.34c-2.81,10.37-2.56,20.62-2.56,31.08v131.5c0,10.47-.25,20.72,2.56,31.09a60.94,60.94,0,0,0,42.34,42.33c10.37,2.81,20.62,2.56,31.08,2.56h131.5c10.47,0,20.72.25,31.09-2.56a60.94,60.94,0,0,0,42.33-42.34c2.81-10.37,2.56-20.62,2.56-31.08V354.75c0-10.47.25-20.72-2.56-31.09a60.94,60.94,0,0,0-42.34-42.33c-10.37-2.81-20.62-2.56-31.08-2.56ZM379.39,501.89a115.09,115.09,0,1,1,33.72-81.39A115,115,0,0,1,379.39,501.89Z" transform="translate(-156.26 -278.76)"/><path class="cls-2" d="M357.1,420.5A59.1,59.1,0,1,1,298,361.4,59.1,59.1,0,0,1,357.1,420.5ZM298,358.61a61.89,61.89,0,1,0,61.89,61.89A61.89,61.89,0,0,0,298,358.61Z" transform="translate(-156.26 -278.76)"/><path class="cls-3" d="M353.52,420.5A55.52,55.52,0,1,1,298,365,55.52,55.52,0,0,1,353.52,420.5Zm-99.47,6.39a44.41,44.41,0,0,1,58.69-48.29,3.47,3.47,0,1,0,2.31-6.54,51.35,51.35,0,0,0-67.87,55.84,3.47,3.47,0,1,0,6.87-1Z" transform="translate(-156.26 -278.76)"/><path class="cls-3" d="M365.51,454.52h3.19a34,34,0,0,0,0-68h-3.19a1.42,1.42,0,0,0-1.28,2c.31.64.62,1.3.91,2a2.83,2.83,0,0,0,2.59,1.68h1a28.35,28.35,0,1,1,0,56.7h-1a2.83,2.83,0,0,0-2.59,1.68c-.29.65-.6,1.31-.91,2A1.42,1.42,0,0,0,365.51,454.52Z" transform="translate(-156.26 -278.76)"/><path class="cls-3" d="M354.53,469.1v5.26a2.83,2.83,0,0,0,2.83,2.83H368.7a56.69,56.69,0,0,0,0-113.38H357.36a2.83,2.83,0,0,0-2.83,2.83v5.26a4,4,0,0,0,.92,2.65q1.71,2.15,3.26,4.41a4.25,4.25,0,0,0,3.51,1.85h6.48a39.69,39.69,0,0,1,0,79.37h-6.48a4.26,4.26,0,0,0-3.51,1.86q-1.54,2.26-3.26,4.41A4,4,0,0,0,354.53,469.1Z" transform="translate(-156.26 -278.76)"/><path class="cls-3" d="M230.16,454.52H227a34,34,0,0,1,0-68h3.19a1.42,1.42,0,0,1,1.27,2c-.31.64-.61,1.3-.9,2a2.83,2.83,0,0,1-2.59,1.68h-1a28.35,28.35,0,1,0,0,56.7h1a2.83,2.83,0,0,1,2.59,1.68c.29.65.59,1.31.9,2A1.42,1.42,0,0,1,230.16,454.52Z" transform="translate(-156.26 -278.76)"/><path class="cls-3" d="M241.14,469.1v5.26a2.83,2.83,0,0,1-2.83,2.83H227a56.69,56.69,0,1,1,0-113.38h11.34a2.83,2.83,0,0,1,2.83,2.83v5.26a4,4,0,0,1-.93,2.65C239.07,376,238,377.45,237,379a4.24,4.24,0,0,1-3.51,1.85H227a39.69,39.69,0,1,0,0,79.37h6.47A4.25,4.25,0,0,1,237,462c1,1.51,2.12,3,3.26,4.41A4,4,0,0,1,241.14,469.1Z" transform="translate(-156.26 -278.76)"/><circle class="cls-4" cx="194.49" cy="317.15" r="8.5" transform="translate(-322.06 -54.37) rotate(-44.04)"/><path class="cls-5" d="M326.7,391.63a2,2,0,0,0,2.89,0l2.89-2.89a2,2,0,0,0-2.89-2.88l-2.89,2.88A2.06,2.06,0,0,0,326.7,391.63Z" transform="translate(-156.26 -278.76)"/><path class="cls-5" d="M338.66,420.5a2,2,0,0,0,2,2h4.09a2,2,0,0,0,0-4.08H340.7A2,2,0,0,0,338.66,420.5Z" transform="translate(-156.26 -278.76)"/><path class="cls-5" d="M326.7,449.37a2.06,2.06,0,0,0,0,2.89l2.89,2.88a2,2,0,0,0,2.89-2.88l-2.89-2.89A2,2,0,0,0,326.7,449.37Z" transform="translate(-156.26 -278.76)"/><path class="cls-5" d="M297.83,461.33a2,2,0,0,0-2,2v4.08a2,2,0,0,0,4.08,0v-4.08A2,2,0,0,0,297.83,461.33Z" transform="translate(-156.26 -278.76)"/><path class="cls-5" d="M269,449.37a2,2,0,0,0-2.88,0l-2.89,2.89a2,2,0,0,0,2.89,2.88l2.88-2.88A2,2,0,0,0,269,449.37Z" transform="translate(-156.26 -278.76)"/><path class="cls-5" d="M257,420.5a2,2,0,0,0-2-2h-4.08a2,2,0,1,0,0,4.08H255A2,2,0,0,0,257,420.5Z" transform="translate(-156.26 -278.76)"/><path class="cls-5" d="M269,391.63a2,2,0,0,0,0-2.89l-2.88-2.88a2,2,0,0,0-2.89,2.88l2.89,2.89A2,2,0,0,0,269,391.63Z" transform="translate(-156.26 -278.76)"/><path class="cls-5" d="M297.83,379.67a2,2,0,0,0,2-2v-4.08a2,2,0,1,0-4.08,0v4.08A2,2,0,0,0,297.83,379.67Z" transform="translate(-156.26 -278.76)"/></svg>