<svg width="65" height="76" viewBox="0 0 65 76" fill="none" xmlns="http://www.w3.org/2000/svg">
<path d="M14.333 34.3113L18.6334 24.6355C18.9293 23.9697 19.815 23.8337 20.297 24.38L25.7412 30.5501C26.1947 31.0641 27.0192 30.9797 27.3593 30.3846L35.737 15.7236C36.104 15.0814 37.017 15.0461 37.4325 15.658L50.0983 34.3113" stroke="white" stroke-width="4" stroke-linecap="round"/>
<path d="M10.2045 72.687L33.7036 48.013C33.9006 47.8061 34.2307 47.8061 34.4277 48.013L57.9268 72.687C58.2299 73.0053 58.0043 73.5318 57.5647 73.5318H10.5666C10.127 73.5318 9.90133 73.0053 10.2045 72.687Z" stroke="white" stroke-width="4" stroke-linecap="round"/>
<path d="M50.0982 46.3983H61.431C61.9833 46.3983 62.431 45.9506 62.431 45.3983V3C62.431 2.44772 61.9833 2 61.431 2H3C2.44772 2 2 2.44772 2 3V45.3983C2 45.9506 2.44772 46.3983 3 46.3983H18.0327" stroke="white" stroke-width="4" stroke-linecap="round"/>
</svg>
