<svg width="364" height="190" viewBox="0 0 364 190" fill="none" xmlns="http://www.w3.org/2000/svg">
<path d="M320.562 54.9741C315.649 54.9834 309.934 49.9011 307.692 47.3589L272.923 102.938C275.978 122.081 291.012 120.729 298.147 117.66L320.562 54.9741Z" fill="white" stroke="black" stroke-width="0.5"/>
<path d="M359.042 44.7619C359.042 69.344 339.016 89.2738 314.311 89.2738C289.605 89.2738 269.58 69.344 269.58 44.7619C269.58 20.1798 289.605 0.25 314.311 0.25C339.016 0.25 359.042 20.1798 359.042 44.7619Z" stroke="white" stroke-width="0.5"/>
<path d="M355.23 44.7622C355.23 67.2503 336.91 85.4817 314.31 85.4817C291.71 85.4817 273.391 67.2503 273.391 44.7622C273.391 22.274 291.71 4.04258 314.31 4.04258C336.91 4.04258 355.23 22.274 355.23 44.7622Z" stroke="white" stroke-width="0.3"/>
<path d="M343.396 44.7619C343.396 60.7453 330.375 73.7044 314.311 73.7044C298.246 73.7044 285.225 60.7453 285.225 44.7619C285.225 28.7785 298.246 15.8193 314.311 15.8193C330.375 15.8193 343.396 28.7785 343.396 44.7619Z" stroke="white" stroke-width="0.5"/>
<path d="M333.617 44.7615C333.617 55.3707 324.975 63.9732 314.31 63.9732C303.646 63.9732 295.003 55.3707 295.003 44.7615C295.003 34.1523 303.646 25.5498 314.31 25.5498C324.975 25.5498 333.617 34.1523 333.617 44.7615Z" fill="white" stroke="black" stroke-width="0.5"/>
<rect width="22.5073" height="106.692" transform="matrix(0.94973 0.319894 -0.38191 0.922024 298.206 46.4004)" fill="url(#paint0_linear_1028_13160)" fill-opacity="0.8"/>
<path d="M260.073 168.568L289.037 154.653L247.902 141.131L260.073 168.568Z" fill="url(#paint1_linear_1028_13160)" fill-opacity="0.8"/>
<path d="M43.4379 54.9741C48.3512 54.9834 54.0653 49.9011 56.3081 47.3589L91.0766 102.938C88.0221 122.081 72.9881 120.729 65.8529 117.66L43.4379 54.9741Z" fill="white" stroke="black" stroke-width="0.5"/>
<path d="M4.95805 44.7619C4.95805 69.344 24.9837 89.2738 49.6891 89.2738C74.3945 89.2738 94.4202 69.344 94.4202 44.7619C94.4202 20.1798 74.3945 0.25 49.6891 0.25C24.9837 0.25 4.95805 20.1798 4.95805 44.7619Z" stroke="white" stroke-width="0.5"/>
<path d="M8.76971 44.7622C8.76971 67.2503 27.0894 85.4817 49.6894 85.4817C72.2894 85.4817 90.609 67.2503 90.609 44.7622C90.609 22.274 72.2894 4.04258 49.6894 4.04258C27.0894 4.04258 8.76971 22.274 8.76971 44.7622Z" stroke="white" stroke-width="0.3"/>
<path d="M20.6035 44.7619C20.6035 60.7453 33.6243 73.7044 49.6889 73.7044C65.7536 73.7044 78.7744 60.7453 78.7744 44.7619C78.7744 28.7785 65.7536 15.8193 49.6889 15.8193C33.6243 15.8193 20.6035 28.7785 20.6035 44.7619Z" stroke="white" stroke-width="0.5"/>
<path d="M30.3824 44.7615C30.3824 55.3707 39.0252 63.9732 49.6894 63.9732C60.3535 63.9732 68.9963 55.3707 68.9963 44.7615C68.9963 34.1523 60.3535 25.5498 49.6894 25.5498C39.0252 25.5498 30.3824 34.1523 30.3824 44.7615Z" fill="white" stroke="black" stroke-width="0.5"/>
<rect width="22.5073" height="106.692" transform="matrix(-0.94973 0.319894 0.38191 0.922024 65.7942 46.4004)" fill="url(#paint2_linear_1028_13160)" fill-opacity="0.8"/>
<path d="M103.927 168.568L74.9631 154.653L116.098 141.131L103.927 168.568Z" fill="url(#paint3_linear_1028_13160)" fill-opacity="0.8"/>
<defs>
<linearGradient id="paint0_linear_1028_13160" x1="11.2537" y1="0" x2="11.2537" y2="106.692" gradientUnits="userSpaceOnUse">
<stop stop-color="white"/>
<stop offset="1" stop-color="#00C2FF"/>
</linearGradient>
<linearGradient id="paint1_linear_1028_13160" x1="260.073" y1="168.568" x2="267.025" y2="147.417" gradientUnits="userSpaceOnUse">
<stop stop-color="white"/>
<stop offset="1" stop-color="#00C2FF"/>
</linearGradient>
<linearGradient id="paint2_linear_1028_13160" x1="11.2537" y1="0" x2="11.2537" y2="106.692" gradientUnits="userSpaceOnUse">
<stop stop-color="white"/>
<stop offset="1" stop-color="#00C2FF"/>
</linearGradient>
<linearGradient id="paint3_linear_1028_13160" x1="103.927" y1="168.568" x2="96.975" y2="147.417" gradientUnits="userSpaceOnUse">
<stop stop-color="white"/>
<stop offset="1" stop-color="#00C2FF"/>
</linearGradient>
</defs>
</svg>
