<svg width="272" height="192" viewBox="0 0 272 192" fill="none" xmlns="http://www.w3.org/2000/svg">
<path d="M94.5742 19H92.7383L97.9141 4.85938H99.7695L104.945 19H103.09L101.684 15.0156H96L94.5742 19ZM96.5273 13.4727H101.137L98.8906 7.14453H98.7734L96.5273 13.4727ZM108.617 4.85938V19H106.859V4.85938H108.617ZM116.156 8.39453V9.80078H113.93V15.9531C113.93 17.3203 114.594 17.5352 115.316 17.5352C115.629 17.5352 116.059 17.5156 116.312 17.4961V19.0586C116.059 19.0977 115.629 19.1367 115.141 19.1367C113.734 19.1367 112.23 18.2578 112.23 16.3828V9.80078H110.629V8.39453H112.23V5.85547H113.93V8.39453H116.156ZM118.324 19V8.39453H120.004V19H118.324ZM119.164 6.63672C118.52 6.63672 117.992 6.14844 117.992 5.52344C117.992 4.89844 118.52 4.41016 119.164 4.41016C119.809 4.41016 120.355 4.89844 120.355 5.52344C120.355 6.14844 119.809 6.63672 119.164 6.63672ZM127.309 8.39453V9.80078H125.082V15.9531C125.082 17.3203 125.746 17.5352 126.469 17.5352C126.781 17.5352 127.211 17.5156 127.465 17.4961V19.0586C127.211 19.0977 126.781 19.1367 126.293 19.1367C124.887 19.1367 123.383 18.2578 123.383 16.3828V9.80078H121.781V8.39453H123.383V5.85547H125.082V8.39453H127.309ZM136.176 14.6445V8.39453H137.836V19H136.176V17.2031H136.059C135.551 18.2773 134.516 19.1367 132.914 19.1367C130.902 19.1367 129.477 17.8281 129.477 15.1328V8.39453H131.156V15.0156C131.156 16.5391 132.113 17.5156 133.461 17.5156C134.652 17.5156 136.176 16.6172 136.176 14.6445ZM144.535 19.2148C141.898 19.2148 140.023 17.0859 140.023 13.7266C140.023 10.3672 141.898 8.25781 144.555 8.25781C146.605 8.25781 147.27 9.50781 147.621 10.0742H147.738V4.85938H149.438V19H147.797V17.3789H147.621C147.25 17.9648 146.566 19.2148 144.535 19.2148ZM144.77 17.7109C146.703 17.7109 147.797 16.0703 147.797 13.6875C147.797 11.3438 146.742 9.76172 144.77 9.76172C142.738 9.76172 141.723 11.4805 141.723 13.6875C141.723 15.9531 142.758 17.7109 144.77 17.7109ZM156.801 19.2148C153.734 19.2148 151.84 17.0469 151.84 13.7852C151.84 10.5234 153.754 8.25781 156.645 8.25781C158.871 8.25781 161.215 9.625 161.215 13.5508V14.2539H153.52C153.598 16.5 154.906 17.7305 156.801 17.7305C158.07 17.7305 158.871 17.1836 159.262 16.5195H161.059C160.551 18.1211 158.988 19.2148 156.801 19.2148ZM153.539 12.8281H159.516C159.516 11.0508 158.383 9.74219 156.645 9.74219C154.809 9.74219 153.637 11.1875 153.539 12.8281ZM172.543 18.043V14.2539H168.773V12.6719H172.543V8.90234H174.125V12.6719H177.914V14.2539H174.125V18.043H172.543Z" fill="white"/>
<path d="M96.5176 187H94.6816L99.8574 172.859H101.713L106.889 187H105.033L103.627 183.016H97.9434L96.5176 187ZM98.4707 181.473H103.08L100.834 175.145H100.717L98.4707 181.473ZM110.561 172.859V187H108.803V172.859H110.561ZM118.1 176.395V177.801H115.873V183.953C115.873 185.32 116.537 185.535 117.26 185.535C117.572 185.535 118.002 185.516 118.256 185.496V187.059C118.002 187.098 117.572 187.137 117.084 187.137C115.678 187.137 114.174 186.258 114.174 184.383V177.801H112.572V176.395H114.174V173.855H115.873V176.395H118.1ZM120.268 187V176.395H121.947V187H120.268ZM121.107 174.637C120.463 174.637 119.936 174.148 119.936 173.523C119.936 172.898 120.463 172.41 121.107 172.41C121.752 172.41 122.299 172.898 122.299 173.523C122.299 174.148 121.752 174.637 121.107 174.637ZM129.252 176.395V177.801H127.025V183.953C127.025 185.32 127.689 185.535 128.412 185.535C128.725 185.535 129.154 185.516 129.408 185.496V187.059C129.154 187.098 128.725 187.137 128.236 187.137C126.83 187.137 125.326 186.258 125.326 184.383V177.801H123.725V176.395H125.326V173.855H127.025V176.395H129.252ZM138.119 182.645V176.395H139.779V187H138.119V185.203H138.002C137.494 186.277 136.459 187.137 134.857 187.137C132.846 187.137 131.42 185.828 131.42 183.133V176.395H133.1V183.016C133.1 184.539 134.057 185.516 135.404 185.516C136.596 185.516 138.119 184.617 138.119 182.645ZM146.479 187.215C143.842 187.215 141.967 185.086 141.967 181.727C141.967 178.367 143.842 176.258 146.498 176.258C148.549 176.258 149.213 177.508 149.564 178.074H149.682V172.859H151.381V187H149.74V185.379H149.564C149.193 185.965 148.51 187.215 146.479 187.215ZM146.713 185.711C148.646 185.711 149.74 184.07 149.74 181.688C149.74 179.344 148.686 177.762 146.713 177.762C144.682 177.762 143.666 179.48 143.666 181.688C143.666 183.953 144.701 185.711 146.713 185.711ZM158.744 187.215C155.678 187.215 153.783 185.047 153.783 181.785C153.783 178.523 155.697 176.258 158.588 176.258C160.814 176.258 163.158 177.625 163.158 181.551V182.254H155.463C155.541 184.5 156.85 185.73 158.744 185.73C160.014 185.73 160.814 185.184 161.205 184.52H163.002C162.494 186.121 160.932 187.215 158.744 187.215ZM155.482 180.828H161.459C161.459 179.051 160.326 177.742 158.588 177.742C156.752 177.742 155.58 179.188 155.482 180.828ZM176.439 180.184V181.727H170.248V180.184H176.439Z" fill="white"/>
<path d="M214.746 91V76.8594H219.551C222.871 76.8594 224.375 78.6953 224.375 81.2148C224.375 83.0801 223.535 84.5547 221.738 85.1797L224.922 91H222.871L219.922 85.4922C219.805 85.5117 219.688 85.5117 219.57 85.5117H216.504V91H214.746ZM216.504 83.9102H219.492C221.738 83.9102 222.637 82.8945 222.637 81.2148C222.637 79.5156 221.738 78.4219 219.473 78.4219H216.504V83.9102ZM230.918 91.2148C228.027 91.2148 226.074 89.0469 226.074 85.7461C226.074 82.4453 228.027 80.2578 230.918 80.2578C233.789 80.2578 235.723 82.4453 235.723 85.7461C235.723 89.0469 233.789 91.2148 230.918 91.2148ZM230.918 89.7305C233.047 89.7305 234.043 87.8555 234.043 85.7461C234.043 83.6367 233.047 81.7422 230.918 81.7422C228.75 81.7422 227.754 83.6367 227.754 85.7461C227.754 87.8555 228.75 89.7305 230.918 89.7305ZM242.559 80.3945V81.8008H240.332V87.9531C240.332 89.3203 240.996 89.5352 241.719 89.5352C242.031 89.5352 242.461 89.5156 242.715 89.4961V91.0586C242.461 91.0977 242.031 91.1367 241.543 91.1367C240.137 91.1367 238.633 90.2578 238.633 88.3828V81.8008H237.031V80.3945H238.633V77.8555H240.332V80.3945H242.559ZM244.219 87.9922C244.219 85.5508 246.367 85.0039 248.203 84.8672C248.877 84.8184 250.596 84.7305 251.074 84.7109V83.8516C251.074 82.5039 250.273 81.7227 248.672 81.7227C247.324 81.7227 246.523 82.3477 246.289 83.1484H244.531C244.746 81.4492 246.406 80.2578 248.75 80.2578C250.137 80.2578 252.734 80.668 252.734 84.0078V91H251.074V89.5547H250.996C250.645 90.2773 249.668 91.2539 247.832 91.2539C245.82 91.2539 244.219 90.0625 244.219 87.9922ZM245.898 88.0703C245.898 89.1836 246.836 89.75 248.125 89.75C250.02 89.75 251.074 88.4805 251.074 87.1523V86.0781C250.576 86.1172 248.906 86.2441 248.398 86.2734C246.875 86.3711 245.898 86.918 245.898 88.0703ZM260.059 80.3945V81.8008H257.832V87.9531C257.832 89.3203 258.496 89.5352 259.219 89.5352C259.531 89.5352 259.961 89.5156 260.215 89.4961V91.0586C259.961 91.0977 259.531 91.1367 259.043 91.1367C257.637 91.1367 256.133 90.2578 256.133 88.3828V81.8008H254.531V80.3945H256.133V77.8555H257.832V80.3945H260.059ZM266.562 91.2148C263.496 91.2148 261.602 89.0469 261.602 85.7852C261.602 82.5234 263.516 80.2578 266.406 80.2578C268.633 80.2578 270.977 81.625 270.977 85.5508V86.2539H263.281C263.359 88.5 264.668 89.7305 266.562 89.7305C267.832 89.7305 268.633 89.1836 269.023 88.5195H270.82C270.312 90.1211 268.75 91.2148 266.562 91.2148ZM263.301 84.8281H269.277C269.277 83.0508 268.145 81.7422 266.406 81.7422C264.57 81.7422 263.398 83.1875 263.301 84.8281ZM220.986 125V110.859H225.791C229.111 110.859 230.615 112.695 230.615 115.215C230.615 117.08 229.775 118.555 227.979 119.18L231.162 125H229.111L226.162 119.492C226.045 119.512 225.928 119.512 225.811 119.512H222.744V125H220.986ZM222.744 117.91H225.732C227.979 117.91 228.877 116.895 228.877 115.215C228.877 113.516 227.979 112.422 225.713 112.422H222.744V117.91ZM232.939 125V114.395H234.619V125H232.939ZM233.779 112.637C233.135 112.637 232.607 112.148 232.607 111.523C232.607 110.898 233.135 110.41 233.779 110.41C234.424 110.41 234.971 110.898 234.971 111.523C234.971 112.148 234.424 112.637 233.779 112.637ZM241.592 129.199C239.033 129.199 237.295 128.086 237.1 126.113H238.857C239.092 127.188 240.088 127.734 241.592 127.734C243.408 127.734 244.521 126.953 244.521 125.195V123.047H244.385C244.033 123.633 243.35 124.844 241.299 124.844C238.721 124.844 236.787 122.891 236.787 119.551C236.787 116.289 238.662 114.258 241.318 114.258C243.369 114.258 244.033 115.508 244.424 116.074H244.561V114.395H246.201V125.293C246.201 128.027 244.17 129.199 241.592 129.199ZM241.533 123.34C243.467 123.34 244.561 121.953 244.561 119.609C244.561 117.344 243.506 115.762 241.533 115.762C239.502 115.762 238.486 117.48 238.486 119.609C238.486 121.816 239.521 123.34 241.533 123.34ZM250.557 118.633V125H248.877V110.859H250.557V116.055H250.693C251.182 114.961 252.139 114.258 253.818 114.258C255.986 114.258 257.432 115.547 257.432 118.262V125H255.752V118.379C255.752 116.719 254.834 115.762 253.311 115.762C251.729 115.762 250.557 116.797 250.557 118.633ZM264.756 114.395V115.801H262.529V121.953C262.529 123.32 263.193 123.535 263.916 123.535C264.229 123.535 264.658 123.516 264.912 123.496V125.059C264.658 125.098 264.229 125.137 263.74 125.137C262.334 125.137 260.83 124.258 260.83 122.383V115.801H259.229V114.395H260.83V111.855H262.529V114.395H264.756Z" fill="white"/>
<path d="M1.74609 92V77.8594H6.55078C9.87109 77.8594 11.375 79.6953 11.375 82.2148C11.375 84.0801 10.5352 85.5547 8.73828 86.1797L11.9219 92H9.87109L6.92188 86.4922C6.80469 86.5117 6.6875 86.5117 6.57031 86.5117H3.50391V92H1.74609ZM3.50391 84.9102H6.49219C8.73828 84.9102 9.63672 83.8945 9.63672 82.2148C9.63672 80.5156 8.73828 79.4219 6.47266 79.4219H3.50391V84.9102ZM17.918 92.2148C15.0273 92.2148 13.0742 90.0469 13.0742 86.7461C13.0742 83.4453 15.0273 81.2578 17.918 81.2578C20.7891 81.2578 22.7227 83.4453 22.7227 86.7461C22.7227 90.0469 20.7891 92.2148 17.918 92.2148ZM17.918 90.7305C20.0469 90.7305 21.043 88.8555 21.043 86.7461C21.043 84.6367 20.0469 82.7422 17.918 82.7422C15.75 82.7422 14.7539 84.6367 14.7539 86.7461C14.7539 88.8555 15.75 90.7305 17.918 90.7305ZM29.5586 81.3945V82.8008H27.332V88.9531C27.332 90.3203 27.9961 90.5352 28.7188 90.5352C29.0312 90.5352 29.4609 90.5156 29.7148 90.4961V92.0586C29.4609 92.0977 29.0312 92.1367 28.543 92.1367C27.1367 92.1367 25.6328 91.2578 25.6328 89.3828V82.8008H24.0312V81.3945H25.6328V78.8555H27.332V81.3945H29.5586ZM31.2188 88.9922C31.2188 86.5508 33.3672 86.0039 35.2031 85.8672C35.877 85.8184 37.5957 85.7305 38.0742 85.7109V84.8516C38.0742 83.5039 37.2734 82.7227 35.6719 82.7227C34.3242 82.7227 33.5234 83.3477 33.2891 84.1484H31.5312C31.7461 82.4492 33.4062 81.2578 35.75 81.2578C37.1367 81.2578 39.7344 81.668 39.7344 85.0078V92H38.0742V90.5547H37.9961C37.6445 91.2773 36.668 92.2539 34.832 92.2539C32.8203 92.2539 31.2188 91.0625 31.2188 88.9922ZM32.8984 89.0703C32.8984 90.1836 33.8359 90.75 35.125 90.75C37.0195 90.75 38.0742 89.4805 38.0742 88.1523V87.0781C37.5762 87.1172 35.9062 87.2441 35.3984 87.2734C33.875 87.3711 32.8984 87.918 32.8984 89.0703ZM47.0586 81.3945V82.8008H44.832V88.9531C44.832 90.3203 45.4961 90.5352 46.2188 90.5352C46.5312 90.5352 46.9609 90.5156 47.2148 90.4961V92.0586C46.9609 92.0977 46.5312 92.1367 46.043 92.1367C44.6367 92.1367 43.1328 91.2578 43.1328 89.3828V82.8008H41.5312V81.3945H43.1328V78.8555H44.832V81.3945H47.0586ZM53.5625 92.2148C50.4961 92.2148 48.6016 90.0469 48.6016 86.7852C48.6016 83.5234 50.5156 81.2578 53.4062 81.2578C55.6328 81.2578 57.9766 82.625 57.9766 86.5508V87.2539H50.2812C50.3594 89.5 51.668 90.7305 53.5625 90.7305C54.832 90.7305 55.6328 90.1836 56.0234 89.5195H57.8203C57.3125 91.1211 55.75 92.2148 53.5625 92.2148ZM50.3008 85.8281H56.2773C56.2773 84.0508 55.1445 82.7422 53.4062 82.7422C51.5703 82.7422 50.3984 84.1875 50.3008 85.8281ZM13.4355 126V111.859H15.1934V124.438H21.7559V126H13.4355ZM28.3379 126.215C25.2715 126.215 23.377 124.047 23.377 120.785C23.377 117.523 25.291 115.258 28.1816 115.258C30.4082 115.258 32.752 116.625 32.752 120.551V121.254H25.0566C25.1348 123.5 26.4434 124.73 28.3379 124.73C29.6074 124.73 30.4082 124.184 30.7988 123.52H32.5957C32.0879 125.121 30.5254 126.215 28.3379 126.215ZM25.0762 119.828H31.0527C31.0527 118.051 29.9199 116.742 28.1816 116.742C26.3457 116.742 25.1738 118.188 25.0762 119.828ZM39.6855 115.395V116.801H37.3418V126H35.6426V116.801H33.9434V115.395H35.6426V113.949C35.6426 112.23 36.7949 111.195 38.6699 111.195C39.0801 111.195 39.5684 111.254 39.9199 111.312V112.816C39.5684 112.758 39.2559 112.738 39.041 112.738C37.8691 112.738 37.3418 113.227 37.3418 114.32V115.395H39.6855ZM46.3066 115.395V116.801H44.0801V122.953C44.0801 124.32 44.7441 124.535 45.4668 124.535C45.7793 124.535 46.209 124.516 46.4629 124.496V126.059C46.209 126.098 45.7793 126.137 45.291 126.137C43.8848 126.137 42.3809 125.258 42.3809 123.383V116.801H40.7793V115.395H42.3809V112.855H44.0801V115.395H46.3066Z" fill="white"/>
<path d="M190.542 96.4813C190.542 127.585 166.241 152.736 136.34 152.736C106.438 152.736 82.1367 127.585 82.1367 96.4813C82.1367 65.3779 106.438 40.2266 136.34 40.2266C166.241 40.2266 190.542 65.3779 190.542 96.4813Z" stroke="#A7A7A7" stroke-width="2"/>
<path d="M140.631 49.4703L139.503 49.279L139.498 50.4751L139.466 57.5313C139.465 57.6894 139.34 57.8209 139.189 57.8216L132.742 57.8536C132.598 57.8543 132.485 57.7358 132.485 57.5854L132.517 50.5291L132.523 49.3104L131.376 49.5162L125.786 50.5188C125.688 50.5363 125.595 50.4964 125.539 50.4215C125.483 50.3462 125.468 50.2395 125.508 50.1415L135.878 25.2316C135.923 25.1234 136.025 25.0549 136.132 25.0544C136.237 25.0538 136.328 25.1178 136.367 25.2142L146.512 50.0223C146.549 50.112 146.537 50.2224 146.473 50.3082C146.409 50.3942 146.307 50.4337 146.212 50.4175L140.631 49.4703Z" fill="#FCA600" stroke="black" stroke-width="2"/>
<path d="M132.014 140.406L133.146 140.571L133.124 139.375L132.993 132.32C132.99 132.162 133.112 132.028 133.263 132.024L139.708 131.843C139.852 131.839 139.967 131.955 139.97 132.105L140.101 139.16L140.124 140.379L141.266 140.147L146.831 139.015C146.928 138.996 147.022 139.033 147.08 139.107C147.138 139.181 147.156 139.287 147.117 139.386L137.325 164.529C137.283 164.638 137.182 164.709 137.075 164.712C136.97 164.715 136.878 164.653 136.836 164.557L126.122 139.99C126.083 139.901 126.092 139.79 126.154 139.703C126.217 139.616 126.317 139.574 126.413 139.588L132.014 140.406Z" fill="#FCA600" stroke="black" stroke-width="2"/>
<path d="M90.0343 91.6851L89.7761 92.9752L91.0335 92.9167L97.7714 92.6031C97.8443 92.5997 97.8816 92.6252 97.9005 92.645C97.9193 92.6647 97.9437 92.7038 97.9405 92.7801L98.9162 92.8255L97.9405 92.7801L97.6539 99.5319C97.6458 99.7218 97.469 99.9071 97.2876 99.9155L90.5497 100.229L89.4947 100.278L89.6237 101.376L90.3064 107.182C90.317 107.272 90.2777 107.415 90.1532 107.519L90.763 108.318L90.1532 107.519C90.0299 107.622 89.9098 107.618 89.8553 107.595L66.5735 97.9586C66.5453 97.9469 66.5274 97.9299 66.5149 97.9091C66.502 97.8878 66.4884 97.8511 66.4908 97.7949C66.496 97.6708 66.5817 97.5182 66.7296 97.4458L90.9233 85.5993C91.0519 85.5363 91.1391 85.5729 91.1685 85.5965C91.1852 85.6098 91.1995 85.6288 91.2092 85.6576C91.2191 85.6871 91.2254 85.7326 91.2135 85.7923L90.0343 91.6851Z" fill="#FCA600" stroke="black" stroke-width="2"/>
<path d="M181.738 101.492L181.913 100.31L180.77 100.312L174.032 100.329C173.881 100.329 173.755 100.199 173.753 100.041L173.677 93.29C173.675 93.1393 173.788 93.0195 173.932 93.0191L180.67 93.0025L181.833 92.9996L181.629 91.8005L180.631 85.9537C180.614 85.8515 180.651 85.7535 180.723 85.6942C180.795 85.6346 180.897 85.6179 180.99 85.6598L204.85 96.3421C204.953 96.3883 205.019 96.494 205.02 96.6065C205.021 96.7168 204.961 96.8126 204.869 96.8547L181.252 107.654C181.166 107.693 181.061 107.682 180.979 107.616C180.897 107.549 180.858 107.443 180.873 107.344L181.738 101.492Z" fill="#FCA600" stroke="black" stroke-width="2"/>
<ellipse cx="135.808" cy="96.4867" rx="18.5779" ry="19.4555" fill="white"/>
</svg>
