<svg width="74" height="64" viewBox="0 0 74 64" fill="none" xmlns="http://www.w3.org/2000/svg">
<rect x="2" y="14.1211" width="69.3878" height="47.8776" rx="2" stroke="white" stroke-width="4"/>
<path d="M26.5713 46.9899V30.2812C26.5713 28.8603 28.0115 27.8925 29.3271 28.4295L48.8206 36.386C50.4488 37.0506 50.4883 39.3419 48.884 40.0623L29.3905 48.8144C28.0671 49.4086 26.5713 48.4405 26.5713 46.9899Z" stroke="white" stroke-width="3" stroke-linecap="round"/>
<path d="M19.3528 0.853075C18.7194 -0.0518233 17.4723 -0.271893 16.5674 0.361536C15.6625 0.994965 15.4425 2.24203 16.0759 3.14692L19.3528 0.853075ZM16.0759 3.14692L24.933 15.8L28.21 13.5061L19.3528 0.853075L16.0759 3.14692Z" fill="white"/>
<path d="M55.0055 3C55.5578 2.04341 55.23 0.820234 54.2734 0.267949C53.3169 -0.284336 52.0937 0.0434147 51.5414 1L55.0055 3ZM51.5414 1L43.8189 14.3758L47.283 16.3758L55.0055 3L51.5414 1Z" fill="white"/>
</svg>
