<svg width="59" height="32" viewBox="0 0 59 32" fill="none" xmlns="http://www.w3.org/2000/svg">
<rect x="1.5" y="2.04688" width="56" height="27.6024" stroke="white" stroke-width="3"/>
<path d="M6.7383 10.0521H8.1783L14.6223 19.7901H14.6583C14.6343 19.4421 14.6163 19.0701 14.6043 18.6741C14.5803 18.3381 14.5623 17.9541 14.5503 17.5221C14.5503 17.0781 14.5503 16.6281 14.5503 16.1721V10.0521H15.9903V22.3281H14.5503L8.1063 12.5541H8.0703C8.0823 12.9141 8.1003 13.2921 8.1243 13.6881C8.1363 14.0361 8.1483 14.4261 8.1603 14.8581C8.1723 15.2901 8.1783 15.7341 8.1783 16.1901V22.3281H6.7383V10.0521ZM18.5 16.1901C18.5 15.0261 18.68 14.0421 19.04 13.2381C19.412 12.4341 19.88 11.7861 20.444 11.2941C21.02 10.8021 21.656 10.4481 22.352 10.2321C23.06 10.0041 23.75 9.89012 24.422 9.89012C25.094 9.89012 25.778 9.98612 26.474 10.1781C27.182 10.3581 27.818 10.6881 28.382 11.1681C28.958 11.6361 29.426 12.2781 29.786 13.0941C30.158 13.9101 30.344 14.9481 30.344 16.2081C30.344 17.3841 30.158 18.3741 29.786 19.1781C29.426 19.9821 28.958 20.6361 28.382 21.1401C27.818 21.6441 27.182 22.0101 26.474 22.2381C25.778 22.4541 25.094 22.5621 24.422 22.5621C23.75 22.5621 23.06 22.4541 22.352 22.2381C21.656 22.0221 21.02 21.6681 20.444 21.1761C19.88 20.6841 19.412 20.0301 19.04 19.2141C18.68 18.3981 18.5 17.3901 18.5 16.1901ZM28.634 16.2801C28.634 14.6601 28.256 13.4301 27.5 12.5901C26.756 11.7501 25.754 11.3301 24.494 11.3301C23.858 11.3301 23.276 11.4321 22.748 11.6361C22.232 11.8281 21.782 12.1221 21.398 12.5181C21.026 12.9141 20.732 13.4121 20.516 14.0121C20.312 14.6001 20.21 15.2961 20.21 16.1001C20.21 17.7201 20.582 18.9621 21.326 19.8261C22.082 20.6901 23.09 21.1221 24.35 21.1221C24.974 21.1221 25.55 21.0261 26.078 20.8341C26.606 20.6301 27.056 20.3241 27.428 19.9161C27.812 19.5081 28.106 19.0041 28.31 18.4041C28.526 17.8041 28.634 17.0961 28.634 16.2801ZM32.8418 10.0521H34.2818L40.7258 19.7901H40.7618C40.7378 19.4421 40.7198 19.0701 40.7078 18.6741C40.6838 18.3381 40.6658 17.9541 40.6538 17.5221C40.6538 17.0781 40.6538 16.6281 40.6538 16.1721V10.0521H42.0938V22.3281H40.6538L34.2098 12.5541H34.1738C34.1858 12.9141 34.2038 13.2921 34.2278 13.6881C34.2398 14.0361 34.2518 14.4261 34.2638 14.8581C34.2758 15.2901 34.2818 15.7341 34.2818 16.1901V22.3281H32.8418V10.0521ZM45.2695 10.0521H52.7935V11.4381H46.7815V15.3621H52.3615V16.7121H46.7815V20.9421H52.9735V22.3281H45.2695V10.0521Z" fill="white"/>
</svg>
