<svg width="237" height="189" viewBox="0 0 237 189" fill="none" xmlns="http://www.w3.org/2000/svg">
<path d="M77.7754 19V4.85938H86.291V6.42188H79.5332V11.1484H85.6465V12.6914H79.5332V19H77.7754ZM92.248 19.2148C89.3574 19.2148 87.4043 17.0469 87.4043 13.7461C87.4043 10.4453 89.3574 8.25781 92.248 8.25781C95.1191 8.25781 97.0527 10.4453 97.0527 13.7461C97.0527 17.0469 95.1191 19.2148 92.248 19.2148ZM92.248 17.7305C94.377 17.7305 95.373 15.8555 95.373 13.7461C95.373 11.6367 94.377 9.74219 92.248 9.74219C90.0801 9.74219 89.084 11.6367 89.084 13.7461C89.084 15.8555 90.0801 17.7305 92.248 17.7305ZM99.2598 19V8.39453H100.881V10.0156H100.998C101.389 8.94141 102.482 8.21875 103.732 8.21875C103.986 8.21875 104.416 8.23828 104.611 8.25781V9.95703C104.494 9.91797 104.025 9.83984 103.596 9.83984C102.072 9.83984 100.939 10.8945 100.939 12.3203V19H99.2598ZM108.811 19L105.588 8.39453H107.365L109.631 16.4805H109.729L111.975 8.39453H113.771L115.979 16.4414H116.096L118.361 8.39453H120.119L116.896 19H115.236L112.932 10.9141H112.775L110.49 19H108.811ZM121.467 15.9922C121.467 13.5508 123.615 13.0039 125.451 12.8672C126.125 12.8184 127.844 12.7305 128.322 12.7109V11.8516C128.322 10.5039 127.521 9.72266 125.92 9.72266C124.572 9.72266 123.771 10.3477 123.537 11.1484H121.779C121.994 9.44922 123.654 8.25781 125.998 8.25781C127.385 8.25781 129.982 8.66797 129.982 12.0078V19H128.322V17.5547H128.244C127.893 18.2773 126.916 19.2539 125.08 19.2539C123.068 19.2539 121.467 18.0625 121.467 15.9922ZM123.146 16.0703C123.146 17.1836 124.084 17.75 125.373 17.75C127.268 17.75 128.322 16.4805 128.322 15.1523V14.0781C127.824 14.1172 126.154 14.2441 125.646 14.2734C124.123 14.3711 123.146 14.918 123.146 16.0703ZM132.678 19V8.39453H134.299V10.0156H134.416C134.807 8.94141 135.9 8.21875 137.15 8.21875C137.404 8.21875 137.834 8.23828 138.029 8.25781V9.95703C137.912 9.91797 137.443 9.83984 137.014 9.83984C135.49 9.83984 134.357 10.8945 134.357 12.3203V19H132.678ZM143.322 19.2148C140.686 19.2148 138.811 17.0859 138.811 13.7266C138.811 10.3672 140.686 8.25781 143.342 8.25781C145.393 8.25781 146.057 9.50781 146.408 10.0742H146.525V4.85938H148.225V19H146.584V17.3789H146.408C146.037 17.9648 145.354 19.2148 143.322 19.2148ZM143.557 17.7109C145.49 17.7109 146.584 16.0703 146.584 13.6875C146.584 11.3438 145.529 9.76172 143.557 9.76172C141.525 9.76172 140.51 11.4805 140.51 13.6875C140.51 15.9531 141.545 17.7109 143.557 17.7109Z" fill="white"/>
<path d="M70.707 184V169.859H75.668C78.6367 169.859 80.0234 171.52 80.0234 173.609C80.0234 175.426 78.9492 176.246 77.7188 176.578V176.715C79.0273 176.793 80.5898 178.004 80.5898 180.25C80.5898 182.379 79.1836 184 75.8438 184H70.707ZM75.8242 182.438C78.0312 182.438 78.8906 181.461 78.8906 180.23C78.8906 178.785 77.7383 177.574 75.9219 177.574H72.4648V182.438H75.8242ZM75.6094 176.051C77.1328 176.051 78.3438 175.113 78.3438 173.629C78.3438 172.398 77.5234 171.422 75.668 171.422H72.4648V176.051H75.6094ZM82.3672 180.992C82.3672 178.551 84.5156 178.004 86.3516 177.867C87.0254 177.818 88.7441 177.73 89.2227 177.711V176.852C89.2227 175.504 88.4219 174.723 86.8203 174.723C85.4727 174.723 84.6719 175.348 84.4375 176.148H82.6797C82.8945 174.449 84.5547 173.258 86.8984 173.258C88.2852 173.258 90.8828 173.668 90.8828 177.008V184H89.2227V182.555H89.1445C88.793 183.277 87.8164 184.254 85.9805 184.254C83.9688 184.254 82.3672 183.062 82.3672 180.992ZM84.0469 181.07C84.0469 182.184 84.9844 182.75 86.2734 182.75C88.168 182.75 89.2227 181.48 89.2227 180.152V179.078C88.7246 179.117 87.0547 179.244 86.5469 179.273C85.0234 179.371 84.0469 179.918 84.0469 181.07ZM97.9141 184.215C94.9062 184.215 93.0703 181.93 93.0703 178.746C93.0703 175.523 94.9844 173.258 97.875 173.258C100.141 173.258 101.82 174.586 102.094 176.598H100.414C100.18 175.621 99.3203 174.742 97.9141 174.742C96.0195 174.742 94.75 176.305 94.75 178.688C94.75 181.148 95.9805 182.711 97.9141 182.711C99.1641 182.711 100.121 182.047 100.414 180.875H102.094C101.82 182.77 100.277 184.215 97.9141 184.215ZM104.164 184V169.859H105.844V178.082H106.039L110.629 173.395H112.699L108.227 177.926L113.031 184H110.902L106.977 179L105.844 180.035V184H104.164ZM116.879 184L113.656 173.395H115.434L117.699 181.48H117.797L120.043 173.395H121.84L124.047 181.441H124.164L126.43 173.395H128.188L124.965 184H123.305L121 175.914H120.844L118.559 184H116.879ZM129.535 180.992C129.535 178.551 131.684 178.004 133.52 177.867C134.193 177.818 135.912 177.73 136.391 177.711V176.852C136.391 175.504 135.59 174.723 133.988 174.723C132.641 174.723 131.84 175.348 131.605 176.148H129.848C130.062 174.449 131.723 173.258 134.066 173.258C135.453 173.258 138.051 173.668 138.051 177.008V184H136.391V182.555H136.312C135.961 183.277 134.984 184.254 133.148 184.254C131.137 184.254 129.535 183.062 129.535 180.992ZM131.215 181.07C131.215 182.184 132.152 182.75 133.441 182.75C135.336 182.75 136.391 181.48 136.391 180.152V179.078C135.893 179.117 134.223 179.244 133.715 179.273C132.191 179.371 131.215 179.918 131.215 181.07ZM140.746 184V173.395H142.367V175.016H142.484C142.875 173.941 143.969 173.219 145.219 173.219C145.473 173.219 145.902 173.238 146.098 173.258V174.957C145.98 174.918 145.512 174.84 145.082 174.84C143.559 174.84 142.426 175.895 142.426 177.32V184H140.746ZM151.391 184.215C148.754 184.215 146.879 182.086 146.879 178.727C146.879 175.367 148.754 173.258 151.41 173.258C153.461 173.258 154.125 174.508 154.477 175.074H154.594V169.859H156.293V184H154.652V182.379H154.477C154.105 182.965 153.422 184.215 151.391 184.215ZM151.625 182.711C153.559 182.711 154.652 181.07 154.652 178.688C154.652 176.344 153.598 174.762 151.625 174.762C149.594 174.762 148.578 176.48 148.578 178.688C148.578 180.953 149.613 182.711 151.625 182.711Z" fill="white"/>
<path d="M191.986 101V86.8594H196.791C200.111 86.8594 201.615 88.6953 201.615 91.2148C201.615 93.0801 200.775 94.5547 198.979 95.1797L202.162 101H200.111L197.162 95.4922C197.045 95.5117 196.928 95.5117 196.811 95.5117H193.744V101H191.986ZM193.744 93.9102H196.732C198.979 93.9102 199.877 92.8945 199.877 91.2148C199.877 89.5156 198.979 88.4219 196.713 88.4219H193.744V93.9102ZM203.939 101V90.3945H205.619V101H203.939ZM204.779 88.6367C204.135 88.6367 203.607 88.1484 203.607 87.5234C203.607 86.8984 204.135 86.4102 204.779 86.4102C205.424 86.4102 205.971 86.8984 205.971 87.5234C205.971 88.1484 205.424 88.6367 204.779 88.6367ZM212.592 105.199C210.033 105.199 208.295 104.086 208.1 102.113H209.857C210.092 103.188 211.088 103.734 212.592 103.734C214.408 103.734 215.521 102.953 215.521 101.195V99.0469H215.385C215.033 99.6328 214.35 100.844 212.299 100.844C209.721 100.844 207.787 98.8906 207.787 95.5508C207.787 92.2891 209.662 90.2578 212.318 90.2578C214.369 90.2578 215.033 91.5078 215.424 92.0742H215.561V90.3945H217.201V101.293C217.201 104.027 215.17 105.199 212.592 105.199ZM212.533 99.3398C214.467 99.3398 215.561 97.9531 215.561 95.6094C215.561 93.3438 214.506 91.7617 212.533 91.7617C210.502 91.7617 209.486 93.4805 209.486 95.6094C209.486 97.8164 210.521 99.3398 212.533 99.3398ZM221.557 94.6328V101H219.877V86.8594H221.557V92.0547H221.693C222.182 90.9609 223.139 90.2578 224.818 90.2578C226.986 90.2578 228.432 91.5469 228.432 94.2617V101H226.752V94.3789C226.752 92.7188 225.834 91.7617 224.311 91.7617C222.729 91.7617 221.557 92.7969 221.557 94.6328ZM235.756 90.3945V91.8008H233.529V97.9531C233.529 99.3203 234.193 99.5352 234.916 99.5352C235.229 99.5352 235.658 99.5156 235.912 99.4961V101.059C235.658 101.098 235.229 101.137 234.74 101.137C233.334 101.137 231.83 100.258 231.83 98.3828V91.8008H230.229V90.3945H231.83V87.8555H233.529V90.3945H235.756Z" fill="white"/>
<path d="M1.93555 101V86.8594H3.69336V99.4375H10.2559V101H1.93555ZM16.8379 101.215C13.7715 101.215 11.877 99.0469 11.877 95.7852C11.877 92.5234 13.791 90.2578 16.6816 90.2578C18.9082 90.2578 21.252 91.625 21.252 95.5508V96.2539H13.5566C13.6348 98.5 14.9434 99.7305 16.8379 99.7305C18.1074 99.7305 18.9082 99.1836 19.2988 98.5195H21.0957C20.5879 100.121 19.0254 101.215 16.8379 101.215ZM13.5762 94.8281H19.5527C19.5527 93.0508 18.4199 91.7422 16.6816 91.7422C14.8457 91.7422 13.6738 93.1875 13.5762 94.8281ZM28.1855 90.3945V91.8008H25.8418V101H24.1426V91.8008H22.4434V90.3945H24.1426V88.9492C24.1426 87.2305 25.2949 86.1953 27.1699 86.1953C27.5801 86.1953 28.0684 86.2539 28.4199 86.3125V87.8164C28.0684 87.7578 27.7559 87.7383 27.541 87.7383C26.3691 87.7383 25.8418 88.2266 25.8418 89.3203V90.3945H28.1855ZM34.8066 90.3945V91.8008H32.5801V97.9531C32.5801 99.3203 33.2441 99.5352 33.9668 99.5352C34.2793 99.5352 34.709 99.5156 34.9629 99.4961V101.059C34.709 101.098 34.2793 101.137 33.791 101.137C32.3848 101.137 30.8809 100.258 30.8809 98.3828V91.8008H29.2793V90.3945H30.8809V87.8555H32.5801V90.3945H34.8066Z" fill="white"/>
<path d="M167.542 93.4891C167.542 124.592 143.241 149.744 113.34 149.744C83.4383 149.744 59.1367 124.592 59.1367 93.4891C59.1367 62.3858 83.4383 37.2344 113.34 37.2344C143.241 37.2344 167.542 62.3858 167.542 93.4891Z" stroke="#A7A7A7" stroke-width="2"/>
<path d="M117.631 46.4703L116.503 46.279L116.498 47.4751L116.466 54.5313C116.465 54.6894 116.34 54.8209 116.189 54.8216L109.742 54.8536C109.598 54.8543 109.485 54.7358 109.485 54.5854L109.517 47.5291L109.523 46.3104L108.376 46.5162L102.786 47.5188C102.688 47.5363 102.595 47.4964 102.539 47.4215C102.483 47.3462 102.468 47.2395 102.508 47.1415L112.878 22.2316C112.923 22.1234 113.025 22.0549 113.132 22.0544C113.237 22.0538 113.328 22.1178 113.367 22.2142L123.512 47.0223C123.549 47.112 123.537 47.2224 123.473 47.3082C123.409 47.3942 123.307 47.4337 123.212 47.4175L117.631 46.4703Z" fill="#FCA600" stroke="black" stroke-width="2"/>
<path d="M109.014 137.414L110.146 137.579L110.124 136.383L109.993 129.328C109.99 129.17 110.112 129.036 110.263 129.032L116.708 128.851C116.852 128.847 116.967 128.963 116.97 129.113L117.101 136.168L117.124 137.387L118.266 137.155L123.831 136.023C123.928 136.003 124.022 136.041 124.08 136.115C124.138 136.189 124.156 136.295 124.117 136.394L114.325 161.537C114.283 161.646 114.182 161.717 114.075 161.72C113.97 161.722 113.878 161.661 113.836 161.565L103.122 136.998C103.083 136.909 103.092 136.798 103.154 136.711C103.217 136.624 103.317 136.582 103.413 136.596L109.014 137.414Z" fill="#FCA600" stroke="black" stroke-width="2"/>
<path d="M67.0343 88.6851L66.7761 89.9752L68.0335 89.9167L74.7714 89.6031C74.8443 89.5997 74.8816 89.6252 74.9005 89.645C74.9193 89.6647 74.9437 89.7038 74.9405 89.7801L75.9162 89.8255L74.9405 89.7801L74.6539 96.5319C74.6458 96.7218 74.469 96.9071 74.2876 96.9155L67.5497 97.2291L66.4947 97.2782L66.6237 98.3759L67.3064 104.182C67.317 104.272 67.2777 104.415 67.1532 104.519L67.763 105.318L67.1532 104.519C67.0299 104.622 66.9098 104.618 66.8553 104.595L43.5735 94.9586C43.5453 94.9469 43.5274 94.9299 43.5149 94.9091C43.502 94.8878 43.4884 94.8511 43.4908 94.7949C43.496 94.6708 43.5817 94.5182 43.7296 94.4458L67.9233 82.5993C68.0519 82.5363 68.1391 82.5729 68.1685 82.5965C68.1852 82.6098 68.1995 82.6288 68.2092 82.6576C68.2191 82.6871 68.2254 82.7326 68.2135 82.7923L67.0343 88.6851Z" fill="#FCA600" stroke="black" stroke-width="2"/>
<path d="M158.738 98.4922L158.913 97.3095L157.77 97.3124L151.032 97.329C150.881 97.3294 150.755 97.1992 150.753 97.0414L150.677 90.29C150.675 90.1393 150.788 90.0195 150.932 90.0191L157.67 90.0025L158.833 89.9996L158.629 88.8005L157.631 82.9537C157.614 82.8515 157.651 82.7535 157.723 82.6942C157.795 82.6346 157.897 82.6179 157.99 82.6598L181.85 93.3421C181.953 93.3883 182.019 93.494 182.02 93.6065C182.021 93.7168 181.961 93.8126 181.869 93.8547L158.252 104.654C158.166 104.693 158.061 104.682 157.979 104.616C157.897 104.549 157.858 104.443 157.873 104.344L158.738 98.4922Z" fill="#FCA600" stroke="black" stroke-width="2"/>
<ellipse cx="112.808" cy="93.4867" rx="18.5779" ry="19.4555" fill="white"/>
</svg>
