<svg width="27" height="25" viewBox="0 0 27 25" fill="none" xmlns="http://www.w3.org/2000/svg">
<path d="M5.01851 23.0646L1.13523 18.9225C1.04835 18.8298 1 18.7075 1 18.5805L1 1.50043C1 1.22429 1.22386 1.00043 1.5 1.00043L10.2222 1.00043C10.4984 1.00043 10.7222 1.22429 10.7222 1.50043L10.7222 3.08377L10.7222 3.27821C10.7222 3.55436 10.9461 3.77821 11.2222 3.77821L13.5 3.77821L15.7778 3.77821C16.0539 3.77821 16.2778 3.55436 16.2778 3.27821L16.2778 1.50044C16.2778 1.22429 16.5016 1.00044 16.7778 1.00044L25.5 1.00044C25.7761 1.00044 26 1.22429 26 1.50044L26 22.7227C26 22.9988 25.7761 23.2227 25.5 23.2227L5.38328 23.2227C5.24508 23.2227 5.11304 23.1655 5.01851 23.0646Z" stroke="white" stroke-width="2"/>
<path d="M5.16602 20.4453L7.94379 20.4453" stroke="white" stroke-width="2" stroke-linecap="round"/>
<path d="M3.77734 17.667L7.94401 17.667" stroke="white" stroke-width="2" stroke-linecap="round"/>
<path d="M3.77734 14.8896L7.94401 14.8896" stroke="white" stroke-width="2" stroke-linecap="round"/>
<path d="M3.77734 12.1113L7.94401 12.1113" stroke="white" stroke-width="2" stroke-linecap="round"/>
<path d="M3.77734 9.33398L7.94401 9.33398" stroke="white" stroke-width="2" stroke-linecap="round"/>
<path d="M3.77734 6.55566L7.94401 6.55566" stroke="white" stroke-width="2" stroke-linecap="round"/>
<path d="M3.77734 3.77832L7.94401 3.77832" stroke="white" stroke-width="2" stroke-linecap="round"/>
</svg>
