<svg width="67" height="37" viewBox="0 0 67 37" fill="none" xmlns="http://www.w3.org/2000/svg">
<rect width="67" height="37" rx="18" fill="#7B7B7B"/>
<path fill-rule="evenodd" clip-rule="evenodd" d="M32.1806 6V19.8889H34.8194V6H32.1806ZM23.8284 16.5762C24.2089 14.6633 25.148 12.9062 26.5271 11.5271L24.6612 9.66116C22.913 11.4093 21.7225 13.6366 21.2402 16.0614C20.7579 18.4861 21.0054 20.9995 21.9515 23.2835C22.8976 25.5676 24.4998 27.5198 26.5554 28.8934C28.611 30.2669 31.0277 31 33.5 31C35.9723 31 38.389 30.2669 40.4446 28.8934C42.5002 27.5199 44.1024 25.5676 45.0485 23.2835C45.9946 20.9995 46.2421 18.4861 45.7598 16.0614C45.2775 13.6366 44.087 11.4093 42.3388 9.66116L40.4729 11.5271C41.852 12.9062 42.7911 14.6633 43.1716 16.5762C43.5521 18.4891 43.3568 20.4718 42.6105 22.2737C41.8641 24.0756 40.6002 25.6157 38.9785 26.6992C37.3569 27.7828 35.4503 28.3611 33.5 28.3611C31.5497 28.3611 29.6431 27.7828 28.0215 26.6992C26.3998 25.6157 25.1359 24.0756 24.3895 22.2737C23.6432 20.4718 23.4479 18.4891 23.8284 16.5762Z" fill="white"/>
</svg>
