<svg id="GPS不可用" xmlns="http://www.w3.org/2000/svg" width="60" height="60" viewBox="0 0 30 30">
  <metadata><?xpacket begin="﻿" id="W5M0MpCehiHzreSzNTczkc9d"?>
<x:xmpmeta xmlns:x="adobe:ns:meta/" x:xmptk="Adobe XMP Core 5.6-c140 79.160451, 2017/05/06-01:08:21        ">
   <rdf:RDF xmlns:rdf="http://www.w3.org/1999/02/22-rdf-syntax-ns#">
      <rdf:Description rdf:about=""
            xmlns:xmp="http://ns.adobe.com/xap/1.0/">
         <xmp:CreatorTool>Adobe Photoshop CC (Macintosh)</xmp:CreatorTool>
      </rdf:Description>
   </rdf:RDF>
</x:xmpmeta>
                                                                                                    
                                                                                                    
                                                                                                    
                                                                                                    
                                                                                                    
                                                                                                    
                                                                                                    
                                                                                                    
                                                                                                    
                                                                                                    
                                                                                                    
                                                                                                    
                                                                                                    
                                                                                                    
                                                                                                    
                                                                                                    
                                                                                                    
                                                                                                    
                                                                                                    
                                                                                                    
                           
<?xpacket end="w"?></metadata>
<defs>
    <style>
      .cls-1 {
        fill: #fff;
      }

      .cls-1, .cls-2 {
        fill-rule: evenodd;
      }

      .cls-2 {
        fill: red;
      }
    </style>
  </defs>
  <path id="GPS星数" class="cls-1" d="M2645.53,2081.27l-2.26,2.26a1.587,1.587,0,0,1-2.26,0l-1.04-1.03a4.193,4.193,0,0,0,.03-0.5,7.989,7.989,0,0,0-2.75-6.03l1.5-1.51a1.606,1.606,0,0,1,2.26,0l4.52,4.54A1.6,1.6,0,0,1,2645.53,2081.27Zm-5.96-12.22-1.9.37-3.04-3.02,0.38-1.89,0.38-.38a1.093,1.093,0,0,1,1.52,0l3.04,3.03a1.062,1.062,0,0,1,0,1.51Zm-1.9,4.15-1.8,1.8a8,8,0,0,0-8.98.84c-0.21-1.76-.5-5.01.15-5.66l3.8-3.78a1.63,1.63,0,0,1,2.28,0l4.55,4.53A1.6,1.6,0,0,1,2637.67,2073.2Zm-10.25-5.67a1.6,1.6,0,0,1-2.27,0l-4.56-4.53a1.6,1.6,0,0,1,0-2.27l2.28-2.26a1.611,1.611,0,0,1,2.28,0l4.55,4.53a1.6,1.6,0,0,1,0,2.27Z" transform="translate(-2616 -2058)"/>
  <path id="GPS星数-2" data-name="GPS星数" class="cls-1" d="M2624.02,2081.66a10.92,10.92,0,0,1-.9-0.78,9.38,9.38,0,0,1-2.74-6.98l2.01-.05A7.523,7.523,0,0,1,2624.02,2081.66Zm0.55,3.3a8.008,8.008,0,0,0,1.79,2.71,13.03,13.03,0,0,1-10.37-13.29l2.01-.05a11.233,11.233,0,0,0,3.29,8.38A11.087,11.087,0,0,0,2624.57,2084.96Z" transform="translate(-2616 -2058)"/>
  <path id="椭圆_2219" data-name="椭圆 2219" class="cls-2" d="M2632,2088a6,6,0,1,1,6-6A6,6,0,0,1,2632,2088Zm3.54-8.12a1,1,0,0,0-1.42-1.42l-2.12,2.13-2.12-2.13a1,1,0,0,0-1.42,1.42l2.13,2.12-2.13,2.12a1,1,0,0,0,1.42,1.42l2.12-2.13,2.12,2.13a1,1,0,0,0,1.42-1.42l-2.13-2.12Z" transform="translate(-2616 -2058)"/>
</svg>
