<svg id="GPS星数" xmlns="http://www.w3.org/2000/svg" width="60" height="60" viewBox="0 0 30 30">
  <metadata><?xpacket begin="﻿" id="W5M0MpCehiHzreSzNTczkc9d"?>
<x:xmpmeta xmlns:x="adobe:ns:meta/" x:xmptk="Adobe XMP Core 5.6-c140 79.160451, 2017/05/06-01:08:21        ">
   <rdf:RDF xmlns:rdf="http://www.w3.org/1999/02/22-rdf-syntax-ns#">
      <rdf:Description rdf:about=""/>
   </rdf:RDF>
</x:xmpmeta>
                                                                                                    
                                                                                                    
                                                                                                    
                                                                                                    
                                                                                                    
                                                                                                    
                                                                                                    
                                                                                                    
                                                                                                    
                                                                                                    
                                                                                                    
                                                                                                    
                                                                                                    
                                                                                                    
                                                                                                    
                                                                                                    
                                                                                                    
                                                                                                    
                                                                                                    
                                                                                                    
                           
<?xpacket end="w"?></metadata>
<defs>
    <style>
      .cls-1 {
        fill: #fff;
        fill-rule: evenodd;
      }
    </style>
  </defs>
  <path id="GPS星数-2" data-name="GPS星数" class="cls-1" d="M2604.01,2083.53l-4.53-4.53a1.618,1.618,0,0,1,0-2.27l2.27-2.27a1.606,1.606,0,0,1,2.26,0l4.52,4.54a1.6,1.6,0,0,1,0,2.27l-2.26,2.26A1.587,1.587,0,0,1,2604.01,2083.53Zm-15.86-25.06,4.55,4.53a1.6,1.6,0,0,1,0,2.27l-2.28,2.27a1.618,1.618,0,0,1-2.27,0l-4.56-4.54a1.6,1.6,0,0,1,0-2.27l2.28-2.26A1.611,1.611,0,0,1,2588.15,2058.47Zm7.97,7.93,4.55,4.54a1.587,1.587,0,0,1,0,2.26l-3.8,3.78c-0.92.92-6.83,0-6.83,0s-0.9-5.9,0-6.8l3.8-3.78A1.63,1.63,0,0,1,2596.12,2066.4Zm3.79-2.27,3.04,3.03a1.062,1.062,0,0,1,0,1.51l-0.38.38-1.9.37-3.04-3.02,0.38-1.89,0.38-.38A1.093,1.093,0,0,1,2599.91,2064.13Zm-17.08,20.03a13.178,13.178,0,0,1-3.84-9.78l2.01-.05a11.233,11.233,0,0,0,3.29,8.38,11.385,11.385,0,0,0,8.41,3.28l-0.05,2a13.3,13.3,0,0,1-9.82-3.83h0Zm0,0,0.55-10.26,2.01-.05a7.5,7.5,0,0,0,7.8,7.77l-0.05,2a9.486,9.486,0,0,1-7.02-2.74,9.38,9.38,0,0,1-2.74-6.98h0Zm0,0" transform="translate(-2579 -2058)"/>
</svg>
