<svg id="GPS精度因子" xmlns="http://www.w3.org/2000/svg" width="58" height="60" viewBox="0 0 29 30">
  <metadata><?xpacket begin="﻿" id="W5M0MpCehiHzreSzNTczkc9d"?>
<x:xmpmeta xmlns:x="adobe:ns:meta/" x:xmptk="Adobe XMP Core 5.6-c140 79.160451, 2017/05/06-01:08:21        ">
   <rdf:RDF xmlns:rdf="http://www.w3.org/1999/02/22-rdf-syntax-ns#">
      <rdf:Description rdf:about=""/>
   </rdf:RDF>
</x:xmpmeta>
                                                                                                    
                                                                                                    
                                                                                                    
                                                                                                    
                                                                                                    
                                                                                                    
                                                                                                    
                                                                                                    
                                                                                                    
                                                                                                    
                                                                                                    
                                                                                                    
                                                                                                    
                                                                                                    
                                                                                                    
                                                                                                    
                                                                                                    
                                                                                                    
                                                                                                    
                                                                                                    
                           
<?xpacket end="w"?></metadata>
<defs>
    <style>
      .cls-1 {
        fill: #fff;
        fill-rule: evenodd;
      }
    </style>
  </defs>
  <path id="GPS星数" class="cls-1" d="M1490.15,10.467L1494.7,15a1.6,1.6,0,0,1,0,2.267l-2.28,2.267a1.606,1.606,0,0,1-2.27,0L1485.59,15a1.6,1.6,0,0,1,0-2.267l2.28-2.267A1.618,1.618,0,0,1,1490.15,10.467Zm7.97,7.934,4.55,4.534a1.6,1.6,0,0,1,0,2.267l-3.8,3.779c-0.92.921-6.83,0-6.83,0s-0.9-5.9,0-6.8l3.8-3.778A1.618,1.618,0,0,1,1498.12,18.4Zm3.79-2.267,3.04,3.023a1.064,1.064,0,0,1,0,1.511l-0.38.378-1.9.378-3.04-3.022,0.38-1.889,0.38-.378A1.078,1.078,0,0,1,1501.91,16.135ZM1484.83,36.16a13.167,13.167,0,0,1-3.84-9.776l2.01-.052a11.24,11.24,0,0,0,3.29,8.379,11.375,11.375,0,0,0,8.41,3.279l-0.05,2a13.28,13.28,0,0,1-9.82-3.827h0Zm0,0,0.55-10.258,2.01-.053a7.491,7.491,0,0,0,7.8,7.772l-0.05,2a9.5,9.5,0,0,1-7.02-2.733,9.39,9.39,0,0,1-2.74-6.982h0Zm0,0" transform="translate(-1481 -10)"/>
  <path id="圆角矩形_1291" data-name="圆角矩形 1291" class="cls-1" d="M1508,25h1a1,1,0,0,1,1,1V37a1,1,0,0,1-1,1h-1a1,1,0,0,1-1-1V26A1,1,0,0,1,1508,25Zm-0.5,10h1a0.5,0.5,0,0,1,0,1h-1A0.5,0.5,0,0,1,1507.5,35Zm0-2h1a0.5,0.5,0,0,1,0,1h-1A0.5,0.5,0,0,1,1507.5,33Zm0-4h1a0.5,0.5,0,0,1,0,1h-1A0.5,0.5,0,0,1,1507.5,29Zm0,2h1a0.5,0.5,0,0,1,0,1h-1A0.5,0.5,0,0,1,1507.5,31Zm0-4h1a0.5,0.5,0,0,1,0,1h-1A0.5,0.5,0,0,1,1507.5,27Z" transform="translate(-1481 -10)"/>
  <path id="圆角矩形_1291-2" data-name="圆角矩形 1291" class="cls-1" d="M1498,35h11a1,1,0,0,1,1,1v1a1,1,0,0,1-1,1h-11a1,1,0,0,1-1-1V36A1,1,0,0,1,1498,35Zm1.5,0a0.5,0.5,0,0,1,.5.5v1a0.5,0.5,0,0,1-1,0v-1A0.5,0.5,0,0,1,1499.5,35Zm2,0a0.5,0.5,0,0,1,.5.5v1a0.5,0.5,0,0,1-1,0v-1A0.5,0.5,0,0,1,1501.5,35Zm4,0a0.5,0.5,0,0,1,.5.5v1a0.5,0.5,0,0,1-1,0v-1A0.5,0.5,0,0,1,1505.5,35Zm-2,0a0.5,0.5,0,0,1,.5.5v1a0.5,0.5,0,0,1-1,0v-1A0.5,0.5,0,0,1,1503.5,35Z" transform="translate(-1481 -10)"/>
</svg>
