<svg width="42" height="41" viewBox="0 0 42 41" fill="none" xmlns="http://www.w3.org/2000/svg">
<path fill-rule="evenodd" clip-rule="evenodd" d="M32.423 39.4646L21 35.2987L9.57699 39.4646L7.38977 40.2623C5.68468 40.8841 4.09953 39.0961 4.92125 37.4778L6.11041 35.136L18.1677 11.3907L19.2167 9.32482C19.9577 7.86549 22.0423 7.86549 22.7833 9.32481L23.8323 11.3907L35.8896 35.136L37.0788 37.4779C37.9005 39.0961 36.3153 40.8841 34.6102 40.2623L32.423 39.4646ZM19.378 31.6036L9.57699 35.8467L19.1979 15.857C19.9247 14.3468 22.0753 14.3468 22.8021 15.857L32.423 35.8467L22.622 31.6036L21 31.012L19.378 31.6036ZM1.84211 -2.37472e-06C0.824742 -2.46366e-06 3.5749e-06 0.824738 6.01412e-06 1.84211V1.84211C8.45333e-06 2.85947 0.824745 3.6842 1.84211 3.6842L21 3.68421L40.1579 3.68421C41.1753 3.68421 42 2.85947 42 1.8421V1.8421C42 0.824738 41.1753 1.06389e-06 40.1579 9.74953e-07L21 -6.99884e-07L1.84211 -2.37472e-06Z" fill="white"/>
</svg>
