<svg width="37" height="34" viewBox="0 0 37 34" fill="none" xmlns="http://www.w3.org/2000/svg">
<rect x="28.0001" y="7.20987" width="4.13265" height="1.38459" transform="rotate(90 28.0001 7.20987)" fill="white" stroke="white" stroke-width="1.38459"/>
<rect x="28.0001" y="27.0712" width="4.13265" height="1.38459" transform="rotate(90 28.0001 27.0712)" fill="white" stroke="white" stroke-width="1.38459"/>
<path d="M36.0002 19.2065C36.0002 23.0251 32.0222 26.4824 26.6156 26.4824C21.2089 26.4824 17.231 23.0251 17.231 19.2065C17.231 15.388 21.2089 11.9307 26.6156 11.9307C32.0222 11.9307 36.0002 15.388 36.0002 19.2065Z" stroke="white" stroke-width="2"/>
<path d="M28.6923 33H1V5.8H7.28236V1H22.391V5.8H28.6923" stroke="white" stroke-width="2"/>
<path d="M6.80898 10.8271H15.9601C16.3219 10.8271 16.6152 11.1205 16.6152 11.4823C16.6152 11.8442 16.3219 12.1375 15.9601 12.1375H6.80898C6.44714 12.1375 6.15381 11.8442 6.15381 11.4823C6.15381 11.1205 6.44714 10.8271 6.80898 10.8271ZM7.23072 19.103H13.2006C13.1917 19.1156 13.1831 19.1277 13.1748 19.1393C13.025 19.3483 12.918 19.4775 12.837 19.5498C12.2193 20.1002 11.6865 20.4134 11.2722 20.4134H7.23072C6.86738 20.4134 6.57182 20.2951 6.38536 20.1465C6.20067 19.9994 6.15381 19.8555 6.15381 19.7582C6.15381 19.6609 6.20067 19.517 6.38536 19.3698C6.57182 19.2212 6.86738 19.103 7.23072 19.103ZM7.23072 26.2754H15.5383C15.9017 26.2754 16.1972 26.3936 16.3837 26.5422C16.5684 26.6894 16.6152 26.8333 16.6152 26.9306C16.6152 27.0279 16.5684 27.1718 16.3837 27.3189C16.1972 27.4676 15.9017 27.5858 15.5383 27.5858H7.23072C6.86738 27.5858 6.57183 27.4676 6.38536 27.3189C6.20068 27.1718 6.15381 27.0279 6.15381 26.9306C6.15381 26.8333 6.20068 26.6894 6.38536 26.5422C6.57183 26.3936 6.86738 26.2754 7.23072 26.2754Z" stroke="white" stroke-width="2"/>
<path d="M21.919 15.1796H23.239L25.069 20.5046L25.399 21.6896H25.414L25.759 20.5046L27.709 15.1796H28.969L26.044 22.7246H24.694L21.919 15.1796Z" fill="white"/>
</svg>
