<?xml version="1.0" standalone="no"?><!DOCTYPE svg PUBLIC "-//W3C//DTD SVG 1.1//EN" "http://www.w3.org/Graphics/SVG/1.1/DTD/svg11.dtd"><svg t="1608387235985" class="icon" viewBox="0 0 1024 1024" version="1.1" xmlns="http://www.w3.org/2000/svg" p-id="4316" xmlns:xlink="http://www.w3.org/1999/xlink" width="200" height="200"><defs><style type="text/css"></style></defs><path d="M512 298.85873161c-117.75990449 0-213.14126839 95.38136388-213.14126839 213.14126839S394.24009551 725.14126839 512 725.14126839 725.14126839 629.75990449 725.14126839 512 629.75990449 298.85873161 512 298.85873161zM139.00309254 671.85563907H32.43308281v213.14126839C32.43308281 943.61022549 80.38977451 991.56691719 139.00309254 991.56691719H352.14436093v-106.57000973H139.00309254V671.85563907z m0-532.85254653H352.14436093V32.43308281H139.00309254C80.38977451 32.43308281 32.43308281 80.38977451 32.43308281 139.00309254V352.14436093h106.57000973V139.00309254zM884.99690746 32.43308281H671.85563907v106.57000973h213.14126839V352.14436093H991.56691719V139.00309254C991.56691719 80.38977451 943.61022549 32.43308281 884.99690746 32.43308281z m0 852.56382465H671.85563907V991.56691719h213.14126839C943.61022549 991.56691719 991.56691719 943.61022549 991.56691719 884.99690746V671.85563907h-106.57000973v213.14126839z" p-id="4317"></path></svg>