<svg width="51" height="55" viewBox="0 0 51 55" fill="none" xmlns="http://www.w3.org/2000/svg">
<path d="M0.599558 7.75651L23.3235 42.038C23.7102 42.6213 24.5611 42.6372 24.9693 42.0687L49.6688 7.67331C49.9934 7.2212 49.8833 6.5871 49.4188 6.28033C32.4206 -4.94723 10.7197 1.31519 0.956675 6.34263C0.437077 6.6102 0.27665 7.26937 0.599558 7.75651Z" fill="url(#paint0_linear_599_2070)"/>
<path d="M10.307 52.6113L24.8063 17.3987C25.1438 16.579 26.3019 16.5712 26.6505 17.3863L33.8952 34.3291L41.1664 52.6417C41.4979 53.4765 40.646 54.2911 39.8268 53.9227L26.1238 47.76C25.8629 47.6426 25.5643 47.6426 25.3034 47.76L11.6419 53.9041C10.817 54.275 9.96266 53.4476 10.307 52.6113Z" fill="#727272"/>
<path d="M7.1224 32.8612C7.1224 31.7873 7.26161 30.8001 7.54002 29.8995C7.82127 28.9961 8.22184 28.1651 8.74172 27.4066H9.62809C9.42354 27.6879 9.23178 28.0344 9.0528 28.4464C8.87666 28.8555 8.72184 29.3058 8.58831 29.7972C8.45479 30.2859 8.34968 30.7915 8.27297 31.3143C8.19911 31.837 8.16218 32.3526 8.16218 32.8612C8.16218 33.5373 8.22752 34.2234 8.3582 34.9194C8.48888 35.6154 8.66502 36.2617 8.88661 36.8583C9.1082 37.4549 9.35536 37.9407 9.62809 38.3157H8.74172C8.22184 37.5572 7.82127 36.7276 7.54002 35.8271C7.26161 34.9237 7.1224 33.935 7.1224 32.8612Z" fill="#727272"/>
<path d="M44.3048 32.8612C44.3048 31.7873 44.1656 30.8001 43.8872 29.8995C43.606 28.9961 43.2054 28.1651 42.6855 27.4066H41.7992C42.0037 27.6879 42.1955 28.0344 42.3744 28.4464C42.5506 28.8555 42.7054 29.3058 42.8389 29.7972C42.9725 30.2859 43.0776 30.7915 43.1543 31.3143C43.2281 31.837 43.2651 32.3526 43.2651 32.8612C43.2651 33.5373 43.1997 34.2234 43.069 34.9194C42.9384 35.6154 42.7622 36.2617 42.5406 36.8583C42.319 37.4549 42.0719 37.9407 41.7992 38.3157H42.6855C43.2054 37.5572 43.606 36.7276 43.8872 35.8271C44.1656 34.9237 44.3048 33.935 44.3048 32.8612Z" fill="#727272"/>
<defs>
<linearGradient id="paint0_linear_599_2070" x1="25.1293" y1="0" x2="25.1293" y2="43.2457" gradientUnits="userSpaceOnUse">
<stop stop-color="#1F82DE"/>
<stop offset="0.55" stop-color="#201F1F"/>
</linearGradient>
</defs>
</svg>
