<svg width="47" height="44" viewBox="0 0 47 44" fill="none" xmlns="http://www.w3.org/2000/svg">
<rect x="1.5" y="1.5" width="44" height="41" stroke="white" stroke-width="3"/>
<rect x="0.622642" y="13.9058" width="45.7547" height="1.24528" stroke="white" stroke-width="1.24528"/>
<path fill-rule="evenodd" clip-rule="evenodd" d="M30.9204 8.30209C31.6035 8.30209 32.1573 7.74456 32.1573 7.05681C32.1573 6.36906 31.6035 5.81152 30.9204 5.81152C30.2373 5.81152 29.6836 6.36906 29.6836 7.05681C29.6836 7.74456 30.2373 8.30209 30.9204 8.30209ZM37.7231 7.05681C37.7231 7.74456 37.1693 8.30209 36.4862 8.30209C35.8031 8.30209 35.2494 7.74456 35.2494 7.05681C35.2494 6.36906 35.8031 5.81152 36.4862 5.81152C37.1693 5.81152 37.7231 6.36906 37.7231 7.05681ZM42.052 8.30209C42.7351 8.30209 43.2889 7.74456 43.2889 7.05681C43.2889 6.36906 42.7351 5.81152 42.052 5.81152C41.3689 5.81152 40.8152 6.36906 40.8152 7.05681C40.8152 7.74456 41.3689 8.30209 42.052 8.30209Z" fill="white"/>
</svg>
