<svg width="46" height="57" viewBox="0 0 46 57" fill="none" xmlns="http://www.w3.org/2000/svg">
<path d="M34.1079 47.5449H13.9141L18.0966 51.7064C21.0883 54.6831 25.8778 54.8238 29.0391 52.0279L34.1079 47.5449Z" stroke="white" stroke-width="3" stroke-linecap="round"/>
<path d="M22.4286 8.1289C0.551784 8.1289 2.58241 29.3522 6.83101 39.5507C6.97635 39.8996 6.91992 40.295 6.67982 40.5869L2.3452 45.8563C1.80847 46.5087 2.27262 47.4915 3.11748 47.4915H43.4749C44.3809 47.4915 44.8199 46.383 44.1595 45.7627L38.6491 40.5863C38.3447 40.3004 38.2569 39.841 38.4142 39.4542C48.7183 14.1266 32.3434 7.31583 22.4286 8.1289Z" stroke="white" stroke-width="3"/>
<path d="M13.2734 9.07648C16.5121 3.7364 24.9325 -3.73971 32.7053 9.07648" stroke="white" stroke-width="3" stroke-linecap="round"/>
</svg>
