<svg width="95" height="95" viewBox="0 0 95 95" fill="none" xmlns="http://www.w3.org/2000/svg">
<circle cx="47.5" cy="47.5" r="47.5" fill="#3C3737"/>
<path d="M27.7656 62.3906C22.8438 62.3125 17.4531 59.4219 17.4531 48.9531C17.4531 38.9531 21.5547 33.3281 28.1953 33.3281C33.1562 33.3281 36.6328 36.375 37.375 40.8281H33.8984C33.2344 38.3281 31.3594 36.4531 28.1953 36.4531C23.5469 36.4531 20.7734 40.4375 20.7734 47.2344H21.125C22.7656 44.8906 25.3438 43.4844 28.3906 43.4844C33.4297 43.4844 37.6094 47.3906 37.6094 52.8594C37.6094 58.1719 33.7031 62.4297 27.7656 62.3906ZM27.7656 59.3047C31.4375 59.3047 34.1719 56.4141 34.2109 52.8984C34.1719 49.4219 31.5547 46.5703 27.8438 46.5703C24.1328 46.5703 21.2812 49.5781 21.2422 52.9375C21.2422 56.2578 23.9766 59.3047 27.7656 59.3047ZM51.7109 62.3906C45.4219 62.3906 41.8281 57.1172 41.8281 47.8594C41.8281 38.6797 45.5 33.3281 51.7109 33.3281C57.9219 33.3281 61.5938 38.6797 61.5938 47.8594C61.5938 57.1172 57.9609 62.3906 51.7109 62.3906ZM51.7109 59.2656C55.7734 59.2656 58.1562 55.1641 58.1562 47.8594C58.1562 40.5547 55.7734 36.375 51.7109 36.375C47.6484 36.375 45.2266 40.5547 45.2266 47.8594C45.2266 55.1641 47.6094 59.2656 51.7109 59.2656ZM72.1797 46.2188C68.6641 46.2188 65.8125 43.3672 65.8125 39.8906C65.8125 36.3359 68.6641 33.4844 72.1797 33.4844C75.6953 33.4844 78.5469 36.3359 78.5469 39.8906C78.5469 43.3672 75.6953 46.2188 72.1797 46.2188ZM72.1797 43.4453C74.1328 43.4453 75.7344 41.8438 75.7344 39.8906C75.7344 37.8984 74.1328 36.2969 72.1797 36.2969C70.1875 36.2969 68.5859 37.8984 68.5859 39.8906C68.5859 41.8438 70.1875 43.4453 72.1797 43.4453Z" fill="white"/>
</svg>
