<svg width="80" height="43" viewBox="0 0 80 43" fill="none" xmlns="http://www.w3.org/2000/svg">
<path d="M11.4355 32H8.68164L16.4453 10.7891H19.2285L26.9922 32H24.209L22.0996 26.0234H13.5742L11.4355 32ZM14.3652 23.709H21.2793L17.9102 14.2168H17.7344L14.3652 23.709ZM32.0898 32L26.2891 10.7891H28.9551L33.3789 27.957H33.584L38.0664 10.7891H41.0254L45.5371 27.957H45.7129L50.1367 10.7891H52.8027L47.002 32H44.2773L39.6484 15.2129H39.4727L34.8145 32H32.0898ZM55.6152 32V10.7891H63.0566C67.5098 10.7891 69.5898 13.2793 69.5898 16.4141C69.5898 19.1387 67.9785 20.3691 66.1328 20.8672V21.0723C68.0957 21.1895 70.4395 23.0059 70.4395 26.375C70.4395 29.5684 68.3301 32 63.3203 32H55.6152ZM63.291 29.6562C66.6016 29.6562 67.8906 28.1914 67.8906 26.3457C67.8906 24.1777 66.1621 22.3613 63.4375 22.3613H58.252V29.6562H63.291ZM62.9688 20.0762C65.2539 20.0762 67.0703 18.6699 67.0703 16.4434C67.0703 14.5977 65.8398 13.1328 63.0566 13.1328H58.252V20.0762H62.9688Z" fill="white"/>
<rect x="4.5" y="2.5" width="71" height="38" rx="4.5" stroke="white"/>
</svg>
