<svg width="39" height="39" viewBox="0 0 39 39" fill="none" xmlns="http://www.w3.org/2000/svg">
<path fill-rule="evenodd" clip-rule="evenodd" d="M10.1784 10.1784C10.7495 9.60721 11.6755 9.60721 12.2466 10.1784L19.5 17.4317L26.7534 10.1784C27.3245 9.60721 28.2505 9.60721 28.8216 10.1784C29.3928 10.7495 29.3928 11.6755 28.8216 12.2466L21.5683 19.5L28.8216 26.7534C29.3928 27.3245 29.3928 28.2505 28.8216 28.8216C28.2505 29.3928 27.3245 29.3928 26.7534 28.8216L19.5 21.5683L12.2466 28.8216C11.6755 29.3928 10.7495 29.3928 10.1784 28.8216C9.60721 28.2505 9.60721 27.3245 10.1784 26.7534L17.4317 19.5L10.1784 12.2466C9.60721 11.6755 9.60721 10.7495 10.1784 10.1784Z" fill="#7B7B7B"/>
</svg>
