<svg width="46" height="46" viewBox="0 0 46 46" fill="none" xmlns="http://www.w3.org/2000/svg">
<path fill-rule="evenodd" clip-rule="evenodd" d="M12.0052 12.0052C12.6789 11.3316 13.7711 11.3316 14.4448 12.0052L23 20.5605L31.5552 12.0052C32.2289 11.3316 33.3211 11.3316 33.9948 12.0052C34.6684 12.6789 34.6684 13.7711 33.9948 14.4448L25.4395 23L33.9948 31.5552C34.6684 32.2289 34.6684 33.3211 33.9948 33.9948C33.3211 34.6684 32.2289 34.6684 31.5552 33.9948L23 25.4395L14.4448 33.9948C13.7711 34.6684 12.6789 34.6684 12.0052 33.9948C11.3316 33.3211 11.3316 32.2289 12.0052 31.5552L20.5605 23L12.0052 14.4448C11.3316 13.7711 11.3316 12.6789 12.0052 12.0052Z" fill="#7B7B7B"/>
</svg>
