<svg width="70" height="70" viewBox="0 0 70 70" fill="none" xmlns="http://www.w3.org/2000/svg">
<path d="M0 2V13.4254C0 14.53 0.895429 15.4254 2 15.4254H40.3161C41.849 15.4254 42.812 13.7719 42.0558 12.4386L35.5747 1.01321C35.2195 0.386975 34.5551 0 33.8351 0H2C0.895431 0 0 0.895431 0 2Z" fill="#FCA600"/>
<path d="M0 67.9999V10.2983C0 9.19377 0.89543 8.29834 2 8.29834H68C69.1046 8.29834 70 9.19377 70 10.2983V67.9999C70 69.1044 69.1046 69.9999 68 69.9999H2C0.895431 69.9999 0 69.1045 0 67.9999Z" fill="#FCA600"/>
</svg>
