<svg width="61" height="61" viewBox="0 0 61 61" fill="none" xmlns="http://www.w3.org/2000/svg">
<circle cx="30.5" cy="30.5" r="30.5" fill="#979797"/>
<path d="M7.75 23.075C7.86667 23.075 8.11667 23.075 8.5 23.075C8.88333 23.0583 9.31667 23.05 9.8 23.05C10.2833 23.05 10.7833 23.05 11.3 23.05C11.8167 23.0333 12.2667 23.025 12.65 23.025C15.4833 23.025 17.5833 23.7333 18.95 25.15C20.3167 26.55 21 28.6417 21 31.425C21 34.2083 20.3 36.3417 18.9 37.825C17.5 39.3083 15.3083 40.05 12.325 40.05C11.8083 40.05 11.3 40.0417 10.8 40.025C10.3167 40.025 9.86667 40.025 9.45 40.025C9.05 40.025 8.7 40.0167 8.4 40C8.1 40 7.88333 40 7.75 40V23.075ZM12.3 25.25C11.9167 25.25 11.5917 25.2583 11.325 25.275C11.075 25.275 10.875 25.275 10.725 25.275V37.8C10.9083 37.8167 11.1417 37.825 11.425 37.825C11.725 37.825 12.15 37.825 12.7 37.825C14.45 37.825 15.7333 37.3167 16.55 36.3C17.3667 35.2667 17.775 33.7333 17.775 31.7C17.775 30.7333 17.675 29.8583 17.475 29.075C17.2917 28.275 16.975 27.5917 16.525 27.025C16.0917 26.4583 15.525 26.025 14.825 25.725C14.1417 25.4083 13.3 25.25 12.3 25.25ZM23.8145 23.075H26.7895V40H23.8145V23.075ZM35.1592 22.85C35.7425 22.85 36.3008 22.9083 36.8342 23.025C37.3675 23.125 37.8508 23.25 38.2842 23.4C38.7342 23.5333 39.1092 23.675 39.4092 23.825C39.7258 23.975 39.9425 24.0917 40.0592 24.175L38.8342 26.325L38.5092 26.15C38.2925 26.0333 38.0092 25.9 37.6592 25.75C37.3092 25.6 36.9258 25.4667 36.5092 25.35C36.0925 25.2333 35.6925 25.175 35.3092 25.175C34.7092 25.175 34.1842 25.3167 33.7342 25.6C33.3008 25.8833 33.0842 26.325 33.0842 26.925C33.0842 27.675 33.3258 28.2917 33.8092 28.775C34.2925 29.2417 35.0508 29.675 36.0842 30.075C36.7508 30.3417 37.3425 30.625 37.8592 30.925C38.3925 31.2083 38.8425 31.5417 39.2092 31.925C39.5758 32.3083 39.8508 32.75 40.0342 33.25C40.2342 33.75 40.3342 34.35 40.3342 35.05C40.3342 35.6833 40.2092 36.3083 39.9592 36.925C39.7258 37.5417 39.3675 38.0917 38.8842 38.575C38.4175 39.0417 37.8342 39.425 37.1342 39.725C36.4342 40.0083 35.6258 40.15 34.7092 40.15C34.0592 40.15 33.4425 40.0833 32.8592 39.95C32.2758 39.8167 31.7425 39.6667 31.2592 39.5C30.7925 39.3167 30.3842 39.1333 30.0342 38.95C29.7008 38.7667 29.4508 38.625 29.2842 38.525L30.3342 36.225L30.7842 36.475C31.0842 36.6417 31.4508 36.825 31.8842 37.025C32.3175 37.225 32.7758 37.4083 33.2592 37.575C33.7425 37.7417 34.1592 37.825 34.5092 37.825C35.3925 37.825 36.0508 37.6083 36.4842 37.175C36.9175 36.7417 37.1342 36.1333 37.1342 35.35C37.1342 34.9833 37.0758 34.6667 36.9592 34.4C36.8425 34.1167 36.6758 33.875 36.4592 33.675C36.2425 33.475 35.9758 33.3 35.6592 33.15C35.3592 32.9833 35.0175 32.825 34.6342 32.675C33.8842 32.3583 33.2092 32.0417 32.6092 31.725C32.0258 31.4083 31.5258 31.05 31.1092 30.65C30.6925 30.2333 30.3758 29.7667 30.1592 29.25C29.9425 28.7167 29.8342 28.0833 29.8342 27.35C29.8342 26.7333 29.9675 26.1583 30.2342 25.625C30.5008 25.075 30.8675 24.6 31.3342 24.2C31.8008 23.7833 32.3592 23.4583 33.0092 23.225C33.6592 22.975 34.3758 22.85 35.1592 22.85ZM42.9551 23.075C43.0717 23.075 43.3384 23.075 43.7551 23.075C44.1717 23.0583 44.6384 23.05 45.1551 23.05C45.6717 23.05 46.1884 23.05 46.7051 23.05C47.2217 23.0333 47.6467 23.025 47.9801 23.025C50.0134 23.025 51.5134 23.4833 52.4801 24.4C53.4467 25.3 53.9301 26.5417 53.9301 28.125C53.9301 28.8917 53.7967 29.6 53.5301 30.25C53.2634 30.8833 52.8634 31.4333 52.3301 31.9C51.8134 32.3667 51.1634 32.7333 50.3801 33C49.6134 33.25 48.7134 33.375 47.6801 33.375H45.9301V40H42.9551V23.075ZM45.9301 31.15H47.8551C48.9051 31.15 49.6551 30.875 50.1051 30.325C50.5551 29.775 50.7801 29.075 50.7801 28.225C50.7801 27.8417 50.7301 27.4667 50.6301 27.1C50.5301 26.7333 50.3551 26.4083 50.1051 26.125C49.8717 25.825 49.5467 25.5917 49.1301 25.425C48.7301 25.2417 48.2217 25.15 47.6051 25.15C47.2384 25.15 46.9134 25.15 46.6301 25.15C46.3634 25.15 46.1301 25.1583 45.9301 25.175V31.15Z" fill="white"/>
</svg>
