<svg width="45" height="45" viewBox="0 0 45 45" fill="none" xmlns="http://www.w3.org/2000/svg">
<path fill-rule="evenodd" clip-rule="evenodd" d="M44.1813 0.325865C44.7693 0.726826 45.0796 1.42615 44.9824 2.13119L39.9824 38.3811C39.905 38.9418 39.5786 39.4375 39.0941 39.7301C38.6096 40.0226 38.0188 40.0806 37.4866 39.8879L25.4859 35.5428L20.3578 44.0896C19.9656 44.7432 19.2169 45.0943 18.4636 44.9779C17.7104 44.8615 17.1025 44.3007 16.926 43.5592L14.0297 31.3949L1.2367 26.763C0.546971 26.5132 0.066216 25.8842 0.00629229 25.1531C-0.0536313 24.422 0.318283 23.7231 0.958138 23.3644L42.2081 0.239476C42.8289 -0.10856 43.5932 -0.0750953 44.1813 0.325865ZM18.2482 32.9223L19.5087 38.2162L21.8931 34.242L18.2482 32.9223ZM19.0173 29.2125L40.4907 7.25109L36.5842 35.573L19.0173 29.2125ZM32.67 9.88567L15.1439 27.8101L6.36593 24.6319L32.67 9.88567Z" fill="white"/>
</svg>
