<svg width="65" height="65" viewBox="0 0 65 65" fill="none" xmlns="http://www.w3.org/2000/svg">
<path fill-rule="evenodd" clip-rule="evenodd" d="M55.0694 5.41667C52.5765 5.41667 50.5556 7.4376 50.5556 9.93056C50.5556 12.4235 52.5765 14.4444 55.0694 14.4444C57.5624 14.4444 59.5833 12.4235 59.5833 9.93056C59.5833 7.4376 57.5624 5.41667 55.0694 5.41667ZM45.5127 7.22222C46.6916 3.05409 50.5239 0 55.0694 0C60.5539 0 65 4.44606 65 9.93056C65 15.4151 60.5539 19.8611 55.0694 19.8611C50.5239 19.8611 46.6916 16.807 45.5127 12.6389H2.70833C1.21256 12.6389 0 11.4263 0 9.93056C0 8.43478 1.21256 7.22222 2.70833 7.22222H45.5127ZM18.0556 27.9861C15.5626 27.9861 13.5417 30.007 13.5417 32.5C13.5417 34.993 15.5626 37.0139 18.0556 37.0139C20.5485 37.0139 22.5694 34.993 22.5694 32.5C22.5694 30.007 20.5485 27.9861 18.0556 27.9861ZM8.49881 29.7917C9.67771 25.6235 13.51 22.5694 18.0556 22.5694C22.6011 22.5694 26.4334 25.6235 27.6123 29.7917H62.2917C63.7874 29.7917 65 31.0042 65 32.5C65 33.9958 63.7874 35.2083 62.2917 35.2083H27.6123C26.4334 39.3765 22.6011 42.4306 18.0556 42.4306C13.51 42.4306 9.67771 39.3765 8.49881 35.2083H2.70833C1.21256 35.2083 0 33.9958 0 32.5C0 31.0042 1.21256 29.7917 2.70833 29.7917H8.49881ZM38.8194 50.5556C36.3265 50.5556 34.3056 52.5765 34.3056 55.0694C34.3056 57.5624 36.3265 59.5833 38.8194 59.5833C41.3124 59.5833 43.3333 57.5624 43.3333 55.0694C43.3333 52.5765 41.3124 50.5556 38.8194 50.5556ZM29.2627 52.3611C30.4416 48.193 34.2739 45.1389 38.8194 45.1389C43.365 45.1389 47.1973 48.193 48.3762 52.3611H62.2917C63.7874 52.3611 65 53.5737 65 55.0694C65 56.5652 63.7874 57.7778 62.2917 57.7778H48.3762C47.1973 61.9459 43.365 65 38.8194 65C34.2739 65 30.4416 61.9459 29.2627 57.7778H2.70833C1.21256 57.7778 0 56.5652 0 55.0694C0 53.5737 1.21256 52.3611 2.70833 52.3611H29.2627Z" fill="white"/>
</svg>
