<svg width="97" height="81" viewBox="0 0 97 81" fill="none" xmlns="http://www.w3.org/2000/svg">
<rect width="97" height="81" rx="5" fill="#636363" fill-opacity="0.8"/>
<rect x="13" y="22.1221" width="69.3878" height="47.8776" rx="2" stroke="white" stroke-width="4"/>
<path d="M37.5715 54.9909V38.2822C37.5715 36.8612 39.0118 35.8935 40.3273 36.4305L59.8208 44.387C61.449 45.0516 61.4886 47.3429 59.8842 48.0632L40.3907 56.8154C39.0674 57.4096 37.5715 56.4415 37.5715 54.9909Z" stroke="white" stroke-width="3" stroke-linecap="round"/>
<path d="M30.3528 8.85308C29.7194 7.94818 28.4723 7.72811 27.5674 8.36154C26.6625 8.99497 26.4425 10.242 27.0759 11.1469L30.3528 8.85308ZM27.0759 11.1469L35.933 23.8L39.21 21.5061L30.3528 8.85308L27.0759 11.1469Z" fill="white"/>
<path d="M66.0055 11C66.5578 10.0434 66.23 8.82023 65.2734 8.26795C64.3169 7.71566 63.0937 8.04341 62.5414 9L66.0055 11ZM62.5414 9L54.8189 22.3758L58.283 24.3758L66.0055 11L62.5414 9Z" fill="white"/>
</svg>
