<svg width="28" height="28" viewBox="0 0 28 28" fill="none" xmlns="http://www.w3.org/2000/svg">
<path fill-rule="evenodd" clip-rule="evenodd" d="M26.1 14C26.1 20.6826 20.6826 26.1 14 26.1C7.31735 26.1 1.9 20.6826 1.9 14C1.9 7.31735 7.31735 1.9 14 1.9C20.6826 1.9 26.1 7.31735 26.1 14ZM28 14C28 21.732 21.732 28 14 28C6.26801 28 0 21.732 0 14C0 6.26801 6.26801 0 14 0C21.732 0 28 6.26801 28 14ZM14.0003 7.64054C12.2054 7.64054 10.7503 9.09561 10.7503 10.8905H8.85035C8.85035 8.04627 11.1561 5.74054 14.0003 5.74054C16.8446 5.74054 19.1503 8.04627 19.1503 10.8905C19.1503 13.0722 17.8065 14.1513 16.7949 14.9637L16.6963 15.043C15.6547 15.8819 14.9503 16.5049 14.9503 17.8905V18.5905H13.0503V17.8905C13.0503 15.5424 14.446 14.4157 15.5044 13.5633C16.584 12.6938 17.2503 12.1378 17.2503 10.8905C17.2503 9.09561 15.7953 7.64054 14.0003 7.64054ZM14.3299 20.9492H13.6699V21.6092H14.3299V20.9492ZM13.6699 19.9492H12.6699V20.9492V21.6092V22.6092H13.6699H14.3299H15.3299V21.6092V20.9492V19.9492H14.3299H13.6699Z" fill="#A7A7A7"/>
</svg>
