<svg width="50" height="50" viewBox="0 0 50 50" fill="none" xmlns="http://www.w3.org/2000/svg">
<circle cx="25" cy="25" r="25" fill="white"/>
<path d="M23.3633 30.8359C23.4023 25.6016 25.0039 24 27.6992 22.3594C29.3008 21.3828 30.5508 19.8203 30.5508 17.6328C30.5508 14.9766 28.4805 13.2969 25.9023 13.2969C23.6758 13.2969 21.4492 14.625 21.2148 17.8281H17.6602C17.8555 13.1016 21.4492 10.3281 25.9023 10.3281C30.7852 10.3281 33.9883 13.4922 33.9883 17.7891C33.9883 20.8359 32.543 22.9844 30.1211 24.4688C27.6992 25.9531 26.8008 27.4375 26.7227 30.8359V31.0312H23.3633V30.8359ZM25.1602 39.2344C23.793 39.2344 22.6211 38.1016 22.6602 36.6953C22.6211 35.3281 23.793 34.1953 25.1602 34.1953C26.5273 34.1953 27.6602 35.3281 27.6602 36.6953C27.6602 38.1016 26.5273 39.2344 25.1602 39.2344Z" fill="black"/>
</svg>
