<svg width="1450" height="67" viewBox="0 0 1450 67" fill="none" xmlns="http://www.w3.org/2000/svg">
<rect width="1450" height="67" rx="7" fill="white"/>
<path d="M52.3806 27.7807C52.3806 35.6535 45.9298 42.0614 37.9403 42.0614C29.9509 42.0614 23.5 35.6535 23.5 27.7807C23.5 19.9079 29.9509 13.5 37.9403 13.5C45.9298 13.5 52.3806 19.9079 52.3806 27.7807Z" stroke="#A7A7A7" stroke-width="3"/>
<path d="M48.5674 37.2493L62.0002 52.0001" stroke="#A7A7A7" stroke-width="3"/>
<path d="M1327.08 24.625C1326.26 20.7188 1322.9 18.6094 1319.19 18.6094C1314.07 18.6094 1310.09 22.5547 1310.09 29.8594C1310.09 37.1641 1314.07 41.1094 1319.19 41.1094C1322.9 41.1094 1326.22 39 1327.08 35.1328H1330.6C1329.58 40.9141 1324.93 44.3906 1319.19 44.3906C1311.92 44.3906 1306.69 38.8047 1306.69 29.8594C1306.69 20.9141 1311.92 15.3281 1319.19 15.3281C1324.89 15.3281 1329.54 18.7656 1330.6 24.625H1327.08ZM1334.07 37.9844C1334.07 33.1016 1338.37 32.0078 1342.04 31.7344C1343.39 31.6367 1346.83 31.4609 1347.78 31.4219V29.7031C1347.78 27.0078 1346.18 25.4453 1342.98 25.4453C1340.28 25.4453 1338.68 26.6953 1338.21 28.2969H1334.7C1335.13 24.8984 1338.45 22.5156 1343.14 22.5156C1345.91 22.5156 1351.1 23.3359 1351.1 30.0156V44H1347.78V41.1094H1347.63C1346.92 42.5547 1344.97 44.5078 1341.3 44.5078C1337.28 44.5078 1334.07 42.125 1334.07 37.9844ZM1337.43 38.1406C1337.43 40.3672 1339.31 41.5 1341.89 41.5C1345.67 41.5 1347.78 38.9609 1347.78 36.3047V34.1562C1346.79 34.2344 1343.45 34.4883 1342.43 34.5469C1339.39 34.7422 1337.43 35.8359 1337.43 38.1406ZM1359.85 31.2656V44H1356.5V22.7891H1359.74V26.1094H1360.01C1361.03 23.9609 1362.98 22.5156 1366.22 22.5156C1370.52 22.5156 1373.37 25.1328 1373.37 30.5234V44H1370.01V30.7578C1370.01 27.4766 1368.21 25.5234 1365.21 25.5234C1362.12 25.5234 1359.85 27.5938 1359.85 31.2656ZM1387.43 44.4297C1381.42 44.4297 1377.75 39.8594 1377.75 33.4922C1377.75 27.0469 1381.57 22.5156 1387.35 22.5156C1391.89 22.5156 1395.25 25.1719 1395.79 29.1953H1392.43C1391.96 27.2422 1390.25 25.4844 1387.43 25.4844C1383.64 25.4844 1381.1 28.6094 1381.1 33.375C1381.1 38.2969 1383.57 41.4219 1387.43 41.4219C1389.93 41.4219 1391.85 40.0938 1392.43 37.75H1395.79C1395.25 41.5391 1392.16 44.4297 1387.43 44.4297ZM1408.84 44.4297C1402.71 44.4297 1398.92 40.0938 1398.92 33.5703C1398.92 27.0469 1402.75 22.5156 1408.53 22.5156C1412.98 22.5156 1417.67 25.25 1417.67 33.1016V34.5078H1402.28C1402.43 39 1405.05 41.4609 1408.84 41.4609C1411.38 41.4609 1412.98 40.3672 1413.76 39.0391H1417.35C1416.34 42.2422 1413.21 44.4297 1408.84 44.4297ZM1402.32 31.6562H1414.27C1414.27 28.1016 1412 25.4844 1408.53 25.4844C1404.85 25.4844 1402.51 28.375 1402.32 31.6562ZM1425.4 15.7188V44H1422.04V15.7188H1425.4Z" fill="#3D71D7"/>
<path d="M117.289 25.8281C116.976 23.0547 114.437 21.4531 111.039 21.4531C107.289 21.4531 104.828 23.4062 104.828 26.1016C104.828 29.0703 108.148 30.1641 110.296 30.7109L113.109 31.4922C116.156 32.2734 121.117 34.0312 121.117 39.3047C121.117 43.9141 117.406 47.5078 110.843 47.5078C104.75 47.5078 100.96 44.3438 100.648 39.6562H104.242C104.554 42.8203 107.484 44.3047 110.843 44.3047C114.75 44.3047 117.679 42.3125 117.679 39.2266C117.679 36.4922 115.062 35.4375 112.093 34.5781L108.617 33.6406C104.164 32.3516 101.429 30.0859 101.429 26.2578C101.429 21.4922 105.687 18.3281 111.156 18.3281C116.625 18.3281 120.57 21.5312 120.726 25.8281H117.289ZM134.632 47.4297C128.5 47.4297 124.71 43.0938 124.71 36.5703C124.71 30.0469 128.539 25.5156 134.32 25.5156C138.773 25.5156 143.46 28.25 143.46 36.1016V37.5078H128.07C128.226 42 130.843 44.4609 134.632 44.4609C137.171 44.4609 138.773 43.3672 139.554 42.0391H143.148C142.132 45.2422 139.007 47.4297 134.632 47.4297ZM128.109 34.6562H140.062C140.062 31.1016 137.796 28.4844 134.32 28.4844C130.648 28.4844 128.304 31.375 128.109 34.6562ZM146.82 40.9844C146.82 36.1016 151.117 35.0078 154.789 34.7344C156.136 34.6367 159.574 34.4609 160.531 34.4219V32.7031C160.531 30.0078 158.929 28.4453 155.726 28.4453C153.031 28.4453 151.429 29.6953 150.96 31.2969H147.445C147.875 27.8984 151.195 25.5156 155.882 25.5156C158.656 25.5156 163.851 26.3359 163.851 33.0156V47H160.531V44.1094H160.375C159.671 45.5547 157.718 47.5078 154.046 47.5078C150.023 47.5078 146.82 45.125 146.82 40.9844ZM150.179 41.1406C150.179 43.3672 152.054 44.5 154.632 44.5C158.421 44.5 160.531 41.9609 160.531 39.3047V37.1562C159.535 37.2344 156.195 37.4883 155.179 37.5469C152.132 37.7422 150.179 38.8359 150.179 41.1406ZM169.242 47V25.7891H172.484V29.0312H172.718C173.5 26.8828 175.687 25.4375 178.187 25.4375C178.695 25.4375 179.554 25.4766 179.945 25.5156V28.9141C179.71 28.8359 178.773 28.6797 177.914 28.6797C174.867 28.6797 172.601 30.7891 172.601 33.6406V47H169.242ZM191.195 47.4297C185.179 47.4297 181.507 42.8594 181.507 36.4922C181.507 30.0469 185.335 25.5156 191.117 25.5156C195.648 25.5156 199.007 28.1719 199.554 32.1953H196.195C195.726 30.2422 194.007 28.4844 191.195 28.4844C187.406 28.4844 184.867 31.6094 184.867 36.375C184.867 41.2969 187.328 44.4219 191.195 44.4219C193.695 44.4219 195.609 43.0938 196.195 40.75H199.554C199.007 44.5391 195.921 47.4297 191.195 47.4297ZM207.054 34.2656V47H203.695V18.7188H207.054V29.1094H207.328C208.304 26.9219 210.218 25.5156 213.578 25.5156C217.914 25.5156 220.804 28.0938 220.804 33.5234V47H217.445V33.7578C217.445 30.4375 215.609 28.5234 212.562 28.5234C209.398 28.5234 207.054 30.5938 207.054 34.2656ZM236.664 18.7188H240.882L250.414 42H250.765L260.296 18.7188H264.515V47H261.195V25.6328H260.921L252.132 47H249.007L240.218 25.6328H239.984V47H236.664V18.7188ZM270.335 47V25.7891H273.695V47H270.335ZM272.015 22.2734C270.726 22.2734 269.671 21.2969 269.671 20.0469C269.671 18.7969 270.726 17.8203 272.015 17.8203C273.304 17.8203 274.398 18.7969 274.398 20.0469C274.398 21.2969 273.304 22.2734 272.015 22.2734ZM290.843 31.2969C290.375 29.5391 289.046 28.3672 286.546 28.3672C283.929 28.3672 282.054 29.7734 282.054 31.5703C282.054 32.9766 283.187 33.9531 285.687 34.5391L288.851 35.3203C292.64 36.2188 294.515 38.0938 294.515 41.0625C294.515 44.7344 291.507 47.4297 286.195 47.4297C281.429 47.4297 278.578 45.3203 278.031 41.4531H281.546C281.937 43.5234 283.46 44.5 286.117 44.5C289.125 44.5 291.039 43.25 291.039 41.2578C291.039 39.7734 289.984 38.7578 287.562 38.2109L284.359 37.4688C280.648 36.6094 278.695 34.5781 278.695 31.7656C278.695 28.1328 281.859 25.5156 286.546 25.5156C290.921 25.5156 293.695 27.8594 294.125 31.2969H290.843ZM310.687 31.2969C310.218 29.5391 308.89 28.3672 306.39 28.3672C303.773 28.3672 301.898 29.7734 301.898 31.5703C301.898 32.9766 303.031 33.9531 305.531 34.5391L308.695 35.3203C312.484 36.2188 314.359 38.0938 314.359 41.0625C314.359 44.7344 311.351 47.4297 306.039 47.4297C301.273 47.4297 298.421 45.3203 297.875 41.4531H301.39C301.781 43.5234 303.304 44.5 305.96 44.5C308.968 44.5 310.882 43.25 310.882 41.2578C310.882 39.7734 309.828 38.7578 307.406 38.2109L304.203 37.4688C300.492 36.6094 298.539 34.5781 298.539 31.7656C298.539 28.1328 301.703 25.5156 306.39 25.5156C310.765 25.5156 313.539 27.8594 313.968 31.2969H310.687ZM318.734 47V25.7891H322.093V47H318.734ZM320.414 22.2734C319.125 22.2734 318.07 21.2969 318.07 20.0469C318.07 18.7969 319.125 17.8203 320.414 17.8203C321.703 17.8203 322.796 18.7969 322.796 20.0469C322.796 21.2969 321.703 22.2734 320.414 22.2734ZM336.117 47.4297C330.335 47.4297 326.429 43.0938 326.429 36.4922C326.429 29.8906 330.335 25.5156 336.117 25.5156C341.859 25.5156 345.726 29.8906 345.726 36.4922C345.726 43.0938 341.859 47.4297 336.117 47.4297ZM336.117 44.4609C340.375 44.4609 342.367 40.7109 342.367 36.4922C342.367 32.2734 340.375 28.4844 336.117 28.4844C331.781 28.4844 329.789 32.2734 329.789 36.4922C329.789 40.7109 331.781 44.4609 336.117 44.4609ZM353.5 34.2656V47H350.14V25.7891H353.382V29.1094H353.656C354.671 26.9609 356.625 25.5156 359.867 25.5156C364.164 25.5156 367.015 28.1328 367.015 33.5234V47H363.656V33.7578C363.656 30.4766 361.859 28.5234 358.851 28.5234C355.765 28.5234 353.5 30.5938 353.5 34.2656Z" fill="#A7A7A7"/>
</svg>
