<svg width="85" height="85" viewBox="0 0 85 85" fill="none" xmlns="http://www.w3.org/2000/svg">
<circle cx="42.5" cy="42.5" r="42.5" fill="#7B7B7B"/>
<path d="M37.902 48L34.4296 53.0192H29V70.8654H58V53.0192H53.2859L49.098 48H43.5H37.902Z" stroke="#222020" stroke-width="3" stroke-linecap="round"/>
<circle cx="44.2257" cy="60.8009" r="6.30769" stroke="#222020" stroke-width="3"/>
<ellipse cx="54.1514" cy="56.232" rx="1.6768" ry="0.914616" fill="#222020"/>
<mask id="path-5-inside-1_875_18218" fill="white">
<rect x="34" y="12" width="14.6668" height="15" rx="1"/>
</mask>
<rect x="34" y="12" width="14.6668" height="15" rx="1" stroke="#222020" stroke-width="4" mask="url(#path-5-inside-1_875_18218)"/>
<path d="M53.9994 13.875L48.666 19.5L53.9994 23.25V13.875Z" stroke="#222020" stroke-width="2"/>
<path d="M25.7071 21.7071C26.0976 21.3166 26.0976 20.6834 25.7071 20.2929L19.3431 13.9289C18.9526 13.5384 18.3195 13.5384 17.9289 13.9289C17.5384 14.3195 17.5384 14.9526 17.9289 15.3431L23.5858 21L17.9289 26.6569C17.5384 27.0474 17.5384 27.6805 17.9289 28.0711C18.3195 28.4616 18.9526 28.4616 19.3431 28.0711L25.7071 21.7071ZM25 61H17V63H25V61ZM10 54V29H8V54H10ZM17 22H25V20H17V22ZM10 29C10 25.134 13.134 22 17 22V20C12.0294 20 8 24.0294 8 29H10ZM17 61C13.134 61 10 57.866 10 54H8C8 58.9706 12.0294 63 17 63V61Z" fill="#222020"/>
<path d="M61.2929 59.2929C60.9024 59.6834 60.9024 60.3166 61.2929 60.7071L67.6568 67.0711C68.0474 67.4616 68.6805 67.4616 69.0711 67.0711C69.4616 66.6805 69.4616 66.0474 69.0711 65.6569L63.4142 60L69.0711 54.3431C69.4616 53.9526 69.4616 53.3195 69.0711 52.9289C68.6805 52.5384 68.0474 52.5384 67.6569 52.9289L61.2929 59.2929ZM62 20L69 20L69 18L62 18L62 20ZM76 27L76 52L78 52L78 27L76 27ZM69 59L62 59L62 61L69 61L69 59ZM76 52C76 55.866 72.866 59 69 59L69 61C73.9706 61 78 56.9706 78 52L76 52ZM69 20C72.866 20 76 23.134 76 27L78 27C78 22.0294 73.9706 18 69 18L69 20Z" fill="#222020"/>
</svg>
