<svg width="85" height="85" viewBox="0 0 85 85" fill="none" xmlns="http://www.w3.org/2000/svg">
<circle cx="42.5" cy="42.5" r="42.5" fill="#A7A7A7"/>
<path d="M37.963 13L35.637 16.3621H32V28.3164H51.4257V16.3621H48.2679L45.4626 13H41.7128H37.963Z" stroke="#3C3737" stroke-width="2" stroke-linecap="round"/>
<circle cx="42.1992" cy="21.5737" r="4.22999" stroke="#3C3737" stroke-width="2"/>
<ellipse cx="48.8478" cy="18.5111" rx="1.1232" ry="0.612655" fill="#3C3737"/>
<mask id="path-5-inside-1_1077_6874" fill="white">
<rect x="25.3125" y="52" width="25.9417" height="18.8667" rx="1"/>
</mask>
<rect x="25.3125" y="52" width="25.9417" height="18.8667" rx="1" stroke="#3C3737" stroke-width="6" mask="url(#path-5-inside-1_1077_6874)"/>
<path d="M60.6872 54.3594L51.2539 61.4344L60.6872 66.151V54.3594Z" stroke="#3C3737" stroke-width="3"/>
<path d="M22.7071 23.7071C23.0976 23.3166 23.0976 22.6834 22.7071 22.2929L16.3431 15.9289C15.9526 15.5384 15.3195 15.5384 14.9289 15.9289C14.5384 16.3195 14.5384 16.9526 14.9289 17.3431L20.5858 23L14.9289 28.6569C14.5384 29.0474 14.5384 29.6805 14.9289 30.0711C15.3195 30.4616 15.9526 30.4616 16.3431 30.0711L22.7071 23.7071ZM22 63H15V65H22V63ZM8 56V31H6V56H8ZM15 24H22V22H15V24ZM8 31C8 27.134 11.134 24 15 24V22C10.0294 22 6 26.0294 6 31H8ZM15 63C11.134 63 8 59.866 8 56H6C6 60.9706 10.0294 65 15 65V63Z" fill="#3C3737"/>
<path d="M63.2929 61.2929C62.9024 61.6834 62.9024 62.3166 63.2929 62.7071L69.6568 69.0711C70.0474 69.4616 70.6805 69.4616 71.0711 69.0711C71.4616 68.6805 71.4616 68.0474 71.0711 67.6569L65.4142 62L71.0711 56.3431C71.4616 55.9526 71.4616 55.3195 71.0711 54.9289C70.6805 54.5384 70.0474 54.5384 69.6569 54.9289L63.2929 61.2929ZM64 22L70 22L70 20L64 20L64 22ZM77 29L77 54L79 54L79 29L77 29ZM70 61L64 61L64 63L70 63L70 61ZM77 54C77 57.866 73.866 61 70 61L70 63C74.9706 63 79 58.9706 79 54L77 54ZM70 22C73.866 22 77 25.134 77 29L79 29C79 24.0294 74.9706 20 70 20L70 22Z" fill="#3C3737"/>
</svg>
