<svg width="43" height="42" viewBox="0 0 43 42" fill="none" xmlns="http://www.w3.org/2000/svg">
<path fill-rule="evenodd" clip-rule="evenodd" d="M2.57785 32.423L6.7438 21L2.57785 9.577L1.78018 7.38977C1.15833 5.68468 2.94636 4.09953 4.56463 4.92125L6.90652 6.11041L30.6518 18.1677L32.7177 19.2167C34.177 19.9577 34.177 22.0423 32.7177 22.7833L30.6518 23.8323L6.90652 35.8896L4.56463 37.0788C2.94636 37.9005 1.15834 36.3153 1.78018 34.6102L2.57785 32.423ZM10.4389 19.378L6.19576 9.577L26.1855 19.1979C27.6956 19.9247 27.6956 22.0753 26.1855 22.8021L6.19576 32.423L10.4389 22.622L11.0305 21L10.4389 19.378ZM42.0425 1.84211C42.0425 0.824739 41.2177 7.6203e-07 40.2004 3.96671e-06V3.96671e-06C39.183 7.17137e-06 38.3583 0.824742 38.3583 1.8421L38.3583 21L38.3583 40.1579C38.3583 41.1753 39.183 42 40.2004 42V42C41.2177 42 42.0425 41.1753 42.0425 40.1579L42.0425 21L42.0425 1.84211Z" fill="white"/>
</svg>
