<svg width="36" height="37" viewBox="0 0 36 37" fill="none" xmlns="http://www.w3.org/2000/svg">
<path d="M7.79248 16.81L9.88658 12.624C10.1926 12.0124 11.0085 11.8815 11.4904 12.3668L13.7077 14.5992C14.1581 15.0527 14.9125 14.9731 15.2582 14.4355L19.2482 8.23222C19.6231 7.64932 20.4629 7.61529 20.8837 8.16594L27.4903 16.81" stroke="white" stroke-width="2" stroke-linecap="round"/>
<path d="M6.00362 35.1339L18.3193 23.6453C18.5114 23.4661 18.8094 23.4661 19.0015 23.6453L31.3172 35.1339C31.6491 35.4435 31.43 35.9996 30.9761 35.9996H6.34468C5.89081 35.9996 5.67173 35.4435 6.00362 35.1339Z" stroke="white" stroke-width="2" stroke-linecap="round"/>
<path d="M27.4902 22.7241H33.2826C33.8349 22.7241 34.2826 22.2764 34.2826 21.7241V2C34.2826 1.44772 33.8349 1 33.2826 1H2C1.44772 1 1 1.44772 1 2V21.7241C1 22.2764 1.44772 22.7241 2 22.7241H9.83007" stroke="white" stroke-width="2" stroke-linecap="round"/>
<ellipse cx="7.11339" cy="6.43144" rx="2.0377" ry="1.81034" fill="white"/>
</svg>
