<svg width="65" height="56" viewBox="0 0 65 56" fill="none" xmlns="http://www.w3.org/2000/svg">
<circle cx="20" cy="27.8179" r="6.54546" fill="white"/>
<path d="M60.5455 13.0908H4C2.89543 13.0908 2 13.9862 2 15.0908V51.9999C2 53.1045 2.89543 53.9999 4 53.9999H6.09091H10.3096C11.2025 53.9999 11.9873 53.408 12.2326 52.5494L14.6765 43.9959C14.9218 43.1373 15.7066 42.5454 16.5995 42.5454H32.2728H47.0196C47.9626 42.5454 48.7776 43.2042 48.9752 44.1263L50.7522 52.419C50.9498 53.3411 51.7647 53.9999 52.7078 53.9999H56.8182H60.5455C61.6501 53.9999 62.5455 53.1045 62.5455 51.9999V15.0908C62.5455 13.9863 61.6501 13.0908 60.5455 13.0908Z" stroke="white" stroke-width="4"/>
<circle cx="46.1819" cy="27.8179" r="6.54546" fill="white"/>
<rect x="16.7273" y="1.1416" width="3.84783" height="13.4066" rx="1.92392" transform="rotate(-17.2608 16.7273 1.1416)" fill="white"/>
<rect x="40.9644" y="0.0517578" width="3.84783" height="13.4066" rx="1.92392" transform="rotate(8.9149 40.9644 0.0517578)" fill="white"/>
</svg>
