<svg width="69" height="52" viewBox="0 0 69 52" fill="none" xmlns="http://www.w3.org/2000/svg">
<path d="M13.1035 22.9385L37.1954 48.8033L49.7859 35.5832L60.2275 24.3631C40.8765 14.4114 30.8042 16.1858 13.1035 22.9385Z" fill="url(#paint0_linear_209_1685)"/>
<path d="M18.1229 6.82771L23.1681 18.5504L22.7508 18.6354C19.5629 19.2845 16.6291 20.4741 14.1153 22.1372L13.7863 22.3549L4.41105 12.388L6.54527 10.9597C9.11224 9.24182 12.1232 8.02084 15.3992 7.36936L18.1229 6.82771Z" fill="url(#paint1_linear_209_1685)"/>
<path d="M35.1731 4.66602L35.7338 16.9329L34.6581 16.8873C31.7566 16.7642 28.9102 17.1381 26.252 17.9915L25.2664 18.3079L19.8744 6.67567L23.0638 5.63512C25.7852 4.74721 28.7065 4.36346 31.6839 4.50276L35.1731 4.66602Z" fill="url(#paint2_linear_209_1685)"/>
<path d="M51.6804 6.81002L47.5844 18.4999L46.3944 18.145C43.7543 17.3576 40.9886 17.0327 38.2194 17.1845L36.9712 17.2529L36.1689 4.9875L39.8202 4.77117C42.6607 4.60287 45.4991 4.93637 48.2037 5.75618L51.6804 6.81002Z" fill="url(#paint3_linear_209_1685)"/>
<path d="M67.0726 12.5642L58.8021 22.6334L58.0316 22.1666C55.6085 20.6989 52.8661 19.6648 49.938 19.115L49.0069 18.9401L52.7565 7.16642L56.0563 7.77108C59.0644 8.3223 61.8789 9.3835 64.3557 10.9003L67.0726 12.5642Z" fill="url(#paint4_linear_209_1685)"/>
<defs>
<linearGradient id="paint0_linear_209_1685" x1="42.0301" y1="20.7044" x2="39.6997" y2="49.0091" gradientUnits="userSpaceOnUse">
<stop offset="0.10228" stop-color="#031620"/>
<stop offset="0.795" stop-color="#08A1F7"/>
</linearGradient>
<linearGradient id="paint1_linear_209_1685" x1="10.1766" y1="9.33295" x2="15.0544" y2="20.451" gradientUnits="userSpaceOnUse">
<stop stop-color="#041620"/>
<stop offset="1" stop-color="#0889D2"/>
</linearGradient>
<linearGradient id="paint2_linear_209_1685" x1="26.5712" y1="5.15327" x2="28.3804" y2="16.622" gradientUnits="userSpaceOnUse">
<stop stop-color="#041620"/>
<stop offset="1" stop-color="#0889D2"/>
</linearGradient>
<linearGradient id="paint3_linear_209_1685" x1="43.2017" y1="5.17994" x2="42.1537" y2="16.5633" gradientUnits="userSpaceOnUse">
<stop stop-color="#041620"/>
<stop offset="1" stop-color="#0889D2"/>
</linearGradient>
<linearGradient id="paint4_linear_209_1685" x1="59.4812" y1="9.01511" x2="55.6633" y2="20.0018" gradientUnits="userSpaceOnUse">
<stop stop-color="#041620"/>
<stop offset="1" stop-color="#0889D2"/>
</linearGradient>
</defs>
</svg>
