<svg width="41" height="41" viewBox="0 0 41 41" fill="none" xmlns="http://www.w3.org/2000/svg">
<path fill-rule="evenodd" clip-rule="evenodd" d="M0.900647 0.900647C2.10151 -0.300216 4.04849 -0.300216 5.24935 0.900647L20.5 16.1513L35.7506 0.900647C36.9515 -0.300216 38.8985 -0.300216 40.0994 0.900647C41.3002 2.10151 41.3002 4.04849 40.0994 5.24935L24.8487 20.5L40.0994 35.7506C41.3002 36.9515 41.3002 38.8985 40.0994 40.0994C38.8985 41.3002 36.9515 41.3002 35.7506 40.0994L20.5 24.8487L5.24935 40.0994C4.04849 41.3002 2.10151 41.3002 0.900647 40.0994C-0.300216 38.8985 -0.300216 36.9515 0.900647 35.7506L16.1513 20.5L0.900647 5.24935C-0.300216 4.04849 -0.300216 2.10151 0.900647 0.900647Z" fill="white"/>
</svg>
