<svg width="45" height="57" viewBox="0 0 45 57" fill="none" xmlns="http://www.w3.org/2000/svg">
<path d="M33.373 47.0527H13.6279L17.5685 51.0192C20.568 54.0385 25.4065 54.1807 28.5782 51.3428L33.373 47.0527Z" stroke="white" stroke-width="3" stroke-linecap="round"/>
<path d="M21.9524 8.06278C0.562309 8.06278 2.54714 29.0556 6.7011 39.1442C6.84363 39.4903 6.78811 39.8816 6.55194 40.172L2.3261 45.3691C1.79476 46.0226 2.25977 47 3.10198 47H42.4961C43.3993 47 43.8397 45.8973 43.185 45.2751L37.8156 40.1724C37.5155 39.8873 37.4289 39.4324 37.5833 39.0484C47.6574 13.9954 31.6468 7.25852 21.9524 8.06278Z" stroke="white" stroke-width="3"/>
<path d="M13 9C16.1667 3.71763 24.4 -3.67768 32 9" stroke="white" stroke-width="3" stroke-linecap="round"/>
</svg>
