<svg width="49" height="47" viewBox="0 0 49 47" fill="none" xmlns="http://www.w3.org/2000/svg">
<path fill-rule="evenodd" clip-rule="evenodd" d="M47.5093 1.02559C48.1333 1.43199 48.4627 2.14078 48.3595 2.85538L43.0532 39.5965C42.9712 40.1648 42.6247 40.6672 42.1105 40.9637C41.5963 41.2602 40.9694 41.319 40.4046 41.1237L27.6689 36.7198L22.2267 45.3823C21.8105 46.0448 21.0159 46.4007 20.2165 46.2827C19.4171 46.1647 18.7721 45.5963 18.5847 44.8448L15.5111 32.5156L1.93451 27.8209C1.20254 27.5678 0.692342 26.9303 0.628748 26.1893C0.565154 25.4483 0.959847 24.7399 1.63889 24.3763L45.4152 0.938034C46.0741 0.585282 46.8853 0.6192 47.5093 1.02559ZM19.9879 34.0637L21.3256 39.4293L23.8561 35.4013L19.9879 34.0637ZM20.8041 30.3037L43.5927 8.04466L39.4469 36.7503L20.8041 30.3037ZM35.2929 10.7149L16.6934 28.8822L7.37789 25.6609L35.2929 10.7149Z" fill="white"/>
</svg>
