<svg width="57" height="53" viewBox="0 0 57 53" fill="none" xmlns="http://www.w3.org/2000/svg">
<rect x="1.5" y="1.5" width="54" height="50" stroke="white" stroke-width="3"/>
<rect x="0.75" y="16.75" width="55.5" height="1.5" stroke="white" stroke-width="1.5"/>
<path fill-rule="evenodd" clip-rule="evenodd" d="M37.5 10C38.3284 10 39 9.32843 39 8.5C39 7.67157 38.3284 7 37.5 7C36.6716 7 36 7.67157 36 8.5C36 9.32843 36.6716 10 37.5 10ZM45.75 8.5C45.75 9.32843 45.0784 10 44.25 10C43.4216 10 42.75 9.32843 42.75 8.5C42.75 7.67157 43.4216 7 44.25 7C45.0784 7 45.75 7.67157 45.75 8.5ZM51 10C51.8284 10 52.5 9.32843 52.5 8.5C52.5 7.67157 51.8284 7 51 7C50.1716 7 49.5 7.67157 49.5 8.5C49.5 9.32843 50.1716 10 51 10Z" fill="white"/>
</svg>
