<?xml version="1.0"?>
<svg width="100" height="100" xmlns="http://www.w3.org/2000/svg" xmlns:svg="http://www.w3.org/2000/svg">
 <style type="text/css">.st0{fill:#A85656;}
	.st1{fill:none;stroke:#FF6161;stroke-width:2;stroke-miterlimit:10;}
	.st2{fill:none;stroke:#FFD7D7;stroke-miterlimit:10;}
	.st3{fill:#FFFFFF;}
	.st4{fill:none;stroke:#FFFFFF;stroke-width:2.7473;stroke-linecap:round;stroke-miterlimit:10;}
	.st5{fill:none;stroke:#FFFFFF;stroke-width:2.5;stroke-miterlimit:10;}
	.st6{fill:none;stroke:#FFFFFF;stroke-width:0.6446;stroke-miterlimit:10;}
	.st7{fill:none;stroke:#FFFFFF;stroke-width:0.5785;stroke-linecap:round;stroke-miterlimit:10;}</style>

 <g class="layer">
  <title>Layer 1</title>
  <path class="st3" d="m59.295621,43.703614c-7.088387,0 -12.954637,6.641142 -12.954637,14.872418s5.784775,14.872418 12.954637,14.872418s12.954637,-6.641142 12.954637,-14.872418s-5.866251,-14.872418 -12.954637,-14.872418zm6.110678,14.77888c-2.118368,0 -3.829358,-1.964282 -3.829358,-4.396249c0,-2.431968 1.71099,-4.396249 3.829358,-4.396249c2.118368,0 3.829358,1.964282 3.829358,4.396249c0,2.431968 -1.71099,4.396249 -3.829358,4.396249z" fill="#ffffff" id="svg_5"/>
  <rect fill="#ffffff" height="0" id="svg_11" opacity="0.9" stroke-width="50" width="0.25" x="50.25" y="-11.25"/>
  <g id="svg_17">
   <rect fill="#ffffff" height="10" id="svg_9" opacity="0.9" rx="5" ry="5" stroke-width="50" width="38.5" x="10" y="7.5"/>
   <path class="st3" d="m88.568291,20.521827l-78.953038,0c-3.867088,0 -7.089661,3.678758 -7.089661,8.093268l0,55.303998c0,4.41451 3.222573,8.093268 7.089661,8.093268l78.953038,0c3.867088,0 7.089661,-3.678758 7.089661,-8.093268l0,-55.303998c0,-4.41451 -3.222573,-8.093268 -7.089661,-8.093268zm-63.055011,56.285c0,1.962004 -1.396448,3.556133 -3.115154,3.556133s-3.115154,-1.594129 -3.115154,-3.556133l0,-40.343715c0,-1.962004 1.396448,-3.556133 3.115154,-3.556133s3.115154,1.594129 3.115154,3.556133l0,40.343715zm33.40734,4.41451c-11.92352,0 -21.698658,-11.1589 -21.698658,-24.770305c0,-13.611405 9.775138,-24.770305 21.698658,-24.770305c11.92352,0 21.698658,11.1589 21.698658,24.770305c0,13.611405 -9.775138,24.770305 -21.698658,24.770305z" fill="#ffffff" id="svg_4"/>
  </g>
 </g>
</svg>