<svg width="28" height="26" viewBox="0 0 28 26" fill="none" xmlns="http://www.w3.org/2000/svg">
<circle cx="21" cy="8" r="1" fill="white"/>
<path fill-rule="evenodd" clip-rule="evenodd" d="M11.9269 0.000181459C11.9642 0.000270865 12.0013 0.000359823 12.0382 0.000359823H15.9618C15.9987 0.000359823 16.0358 0.000270865 16.0731 0.000181459C16.5155 -0.000878176 16.9878 -0.00200916 17.4263 0.143826C17.8077 0.270697 18.1551 0.477749 18.4434 0.750001C18.7748 1.06295 18.9849 1.47075 19.1818 1.85279C19.1984 1.88504 19.2149 1.9171 19.2314 1.9489L19.7766 3.00031L21.9029 3.00031C22.7338 3.0003 23.4273 3.00029 23.9939 3.04492C24.5849 3.09148 25.1397 3.19214 25.6643 3.44991C26.4692 3.84538 27.1236 4.47641 27.5337 5.25257C27.8011 5.75846 27.9055 6.29343 27.9537 6.86325C28 7.40959 28 8.07834 28 8.87955V18.1208C28 18.922 28 19.5907 27.9537 20.1371C27.9055 20.7069 27.8011 21.2419 27.5337 21.7477C27.1236 22.5239 26.4692 23.1549 25.6643 23.5504C25.1397 23.8082 24.5849 23.9088 23.9939 23.9554C23.4274 24 22.7338 24 21.9029 24H6.09707C5.26618 24 4.57265 24 4.00607 23.9554C3.41514 23.9088 2.86034 23.8082 2.33571 23.5504C1.53079 23.1549 0.876376 22.5239 0.466251 21.7477C0.198938 21.2419 0.0945432 20.7069 0.0462622 20.1371C-2.9693e-05 19.5907 -1.59712e-05 18.922 6.25346e-07 18.1207V8.87957C-1.59712e-05 8.07836 -2.9693e-05 7.40959 0.0462622 6.86325C0.0945432 6.29343 0.198938 5.75846 0.466251 5.25257C0.876376 4.47641 1.53079 3.84538 2.33571 3.44991C2.86034 3.19214 3.41514 3.09148 4.00607 3.04492C4.57265 3.00029 5.2662 3.0003 6.0971 3.00031L8.22341 3.00031L8.76859 1.9489C8.78508 1.9171 8.80161 1.88503 8.81822 1.85278C9.01509 1.47075 9.22523 1.06295 9.5566 0.750001C9.84487 0.477749 10.1923 0.270697 10.5737 0.143826C11.0122 -0.00200916 11.4845 -0.000878176 11.9269 0.000181459ZM11.3313 2.27178C11.3312 2.27176 11.3319 2.27154 11.3335 2.27115ZM11.4518 2.25839C11.3744 2.26305 11.342 2.26918 11.3335 2.27115C11.2797 2.2892 11.2308 2.31841 11.19 2.35676C11.1843 2.3632 11.1643 2.38828 11.1253 2.453C11.062 2.55809 10.9868 2.70214 10.8556 2.95512L9.98794 4.62841C9.79032 5.00953 9.38635 5.25028 8.94444 5.25028H6.14444C5.254 5.25028 4.65633 5.25116 4.19608 5.28742C3.74944 5.3226 3.53589 5.38543 3.39502 5.45464C3.02915 5.6344 2.73169 5.92124 2.54527 6.27403C2.47349 6.40987 2.40834 6.61579 2.37185 7.04647C2.33424 7.49028 2.33333 8.0666 2.33333 8.92523V18.0751C2.33333 18.9337 2.33424 19.51 2.37185 19.9538C2.40834 20.3845 2.47349 20.5904 2.54527 20.7263C2.73169 21.0791 3.02915 21.3659 3.39502 21.5457C3.53589 21.6149 3.74944 21.6777 4.19608 21.7129C4.65633 21.7492 5.254 21.75 6.14444 21.75H21.8556C22.746 21.75 23.3437 21.7492 23.8039 21.7129C24.2506 21.6777 24.4641 21.6149 24.605 21.5457C24.9708 21.3659 25.2683 21.0791 25.4547 20.7263C25.5265 20.5904 25.5917 20.3845 25.6282 19.9538C25.6658 19.51 25.6667 18.9337 25.6667 18.0751V8.92523C25.6667 8.0666 25.6658 7.49028 25.6282 7.04647C25.5917 6.61579 25.5265 6.40987 25.4547 6.27403C25.2683 5.92124 24.9708 5.6344 24.605 5.45464C24.4641 5.38543 24.2506 5.3226 23.8039 5.28742C23.3437 5.25116 22.746 5.25028 21.8556 5.25028H19.0556C18.6137 5.25028 18.2097 5.00953 18.0121 4.62841L17.1444 2.95512C17.0132 2.70214 16.938 2.5581 16.8747 2.453C16.8357 2.38826 16.8157 2.36319 16.81 2.35676C16.7692 2.31841 16.7202 2.28918 16.6663 2.27113C16.6678 2.2716 16.6687 2.2718 16.6687 2.27178M16.6663 2.27113C16.6579 2.26915 16.6256 2.26305 16.5481 2.25839C16.4224 2.25083 16.2551 2.25033 15.9618 2.25033H12.0382C11.7449 2.25033 11.5776 2.25083 11.4518 2.25839M16.8084 2.35497C16.8083 2.35492 16.8089 2.35552 16.81 2.35676ZM11.1916 2.35497C11.1916 2.35503 11.191 2.35575 11.19 2.35676ZM14 9.75021C11.8522 9.75021 10.1111 11.4291 10.1111 13.5002C10.1111 15.5712 11.8522 17.2501 14 17.2501C16.1478 17.2501 17.8889 15.5712 17.8889 13.5002C17.8889 11.4291 16.1478 9.75021 14 9.75021ZM7.77778 13.5002C7.77778 10.1865 10.5636 7.50025 14 7.50025C17.4364 7.50025 20.2222 10.1865 20.2222 13.5002C20.2222 16.8138 17.4364 19.5001 14 19.5001C10.5636 19.5001 7.77778 16.8138 7.77778 13.5002Z" fill="white"/>
</svg>
