<svg width="21" height="21" viewBox="0 0 21 21" fill="none" xmlns="http://www.w3.org/2000/svg">
<path fill-rule="evenodd" clip-rule="evenodd" d="M15.5654 1.87914C15.4816 1.87515 15.3774 1.8749 15.1084 1.8749C14.9907 1.8749 14.9459 1.87496 14.9038 1.87596C13.9743 1.89811 13.0865 2.26585 12.4137 2.90739C12.3832 2.93645 12.3514 2.96818 12.2682 3.05133L9.67228 5.64728C9.48208 5.83748 9.40852 5.9114 9.35211 5.97345C8.05634 7.39897 8.05634 9.57584 9.35211 11.0014C9.40851 11.0634 9.4821 11.1373 9.67228 11.3275L9.95978 11.615C10.2966 11.9518 10.2966 12.498 9.95978 12.8348C9.62296 13.1716 9.07685 13.1716 8.74002 12.8348L8.43384 12.5286C8.26856 12.3633 8.1634 12.2582 8.07565 12.1616C6.18183 10.0782 6.18183 6.89661 8.07565 4.81317C8.1634 4.71662 8.26853 4.6115 8.43384 4.4462L11.0485 1.83156L11.0565 1.82355C11.1292 1.75082 11.1762 1.70383 11.2233 1.65893C12.2067 0.721287 13.5043 0.183818 14.8627 0.151453C14.9279 0.1499 14.9943 0.149902 15.0975 0.149904L15.1349 0.149903C15.3687 0.149895 15.5172 0.149889 15.6475 0.156102C18.4599 0.29019 20.7096 2.53991 20.8437 5.35226C20.8499 5.48258 20.8499 5.63119 20.8499 5.86497V5.90232C20.8499 6.00555 20.8499 6.07196 20.8484 6.13713C20.816 7.49552 20.2785 8.79308 19.3409 9.77649C19.2959 9.82365 19.2489 9.87063 19.176 9.94355L19.1682 9.95132L17.7223 11.3973C17.3855 11.7341 16.8393 11.7341 16.5025 11.3973C16.1657 11.0605 16.1657 10.5144 16.5025 10.1775L17.9485 8.73156C18.0317 8.64839 18.0633 8.61662 18.0924 8.58613C18.734 7.91327 19.1017 7.02547 19.1238 6.09604C19.1248 6.05393 19.1249 6.00911 19.1249 5.89144C19.1249 5.62241 19.1247 5.51818 19.1207 5.43441C19.0289 3.51017 17.4896 1.97089 15.5654 1.87914ZM11.04 9.38478C10.7032 9.04796 10.7032 8.50185 11.04 8.16502C11.3769 7.8282 11.923 7.8282 12.2598 8.16502L12.566 8.47125C12.7313 8.63649 12.8364 8.74164 12.9242 8.83817C14.818 10.9216 14.818 14.1032 12.9242 16.1866C12.8364 16.2832 12.7313 16.3883 12.566 16.5536L9.95132 19.1682L9.9432 19.1764C9.87053 19.249 9.82357 19.296 9.77649 19.3409C8.79309 20.2785 7.49552 20.816 6.13713 20.8484C6.07196 20.8499 6.00554 20.8499 5.90232 20.8499H5.86497C5.63119 20.8499 5.48258 20.8499 5.35226 20.8437C2.53991 20.7096 0.29019 18.4599 0.156102 15.6476C0.149889 15.5172 0.149895 15.3687 0.149903 15.1349L0.149904 15.0975C0.149902 14.9943 0.1499 14.9279 0.151453 14.8627C0.183818 13.5043 0.721287 12.2067 1.65893 11.2233C1.70391 11.1761 1.75091 11.1291 1.82388 11.0562L3.27752 9.60252C3.61435 9.2657 4.16046 9.2657 4.49728 9.60252C4.83411 9.93935 4.83411 10.4855 4.49728 10.8223L3.05132 12.2682C2.96814 12.3514 2.93646 12.3832 2.90739 12.4137C2.26585 13.0865 1.89811 13.9743 1.87596 14.9038C1.87496 14.9459 1.8749 14.9907 1.8749 15.1084C1.8749 15.3774 1.87515 15.4816 1.87914 15.5654C1.97089 17.4896 3.51017 19.0289 5.43441 19.1207C5.51818 19.1247 5.62242 19.1249 5.89144 19.1249C6.00911 19.1249 6.05393 19.1248 6.09604 19.1238C7.02547 19.1017 7.91327 18.734 8.58613 18.0924C8.61661 18.0634 8.64841 18.0316 8.73157 17.9485L11.3275 15.3525C11.5177 15.1623 11.5913 15.0884 11.6477 15.0264C12.9435 13.6008 12.9435 11.424 11.6477 9.99845C11.5913 9.9364 11.5177 9.86246 11.3275 9.67228L11.04 9.38478Z" fill="white"/>
</svg>
