<svg width="64" height="73" viewBox="0 0 64 73" fill="none" xmlns="http://www.w3.org/2000/svg">
<path d="M0 2V13.894C0 14.9986 0.89543 15.894 2 15.894H36.7578C38.2469 15.894 39.2138 14.3249 38.5442 12.9947L32.557 1.10074C32.2173 0.425832 31.5262 0 30.7706 0H2C0.89543 0 0 0.895432 0 2Z" fill="#B7AB40"/>
<path d="M0 70.1265V10.5505C0 9.44597 0.89543 8.55054 2 8.55054H62.0058C63.1104 8.55054 64.0058 9.44597 64.0058 10.5505V70.1265C64.0058 71.2311 63.1104 72.1265 62.0058 72.1265H2C0.895431 72.1265 0 71.2311 0 70.1265Z" fill="#FFC700"/>
</svg>
