<svg width="59" height="56" viewBox="0 0 59 56" fill="none" xmlns="http://www.w3.org/2000/svg">
<path d="M10 49.6238C10 52.4665 7.9551 54.5 5.75 54.5C3.5449 54.5 1.5 52.4665 1.5 49.6238C1.5 46.7811 3.5449 44.7476 5.75 44.7476C7.9551 44.7476 10 46.7811 10 49.6238Z" stroke="white" stroke-width="3"/>
<path d="M9 6.65344H25L41 21.0693H9V35.4851H57V49.901H9" stroke="white" stroke-width="3"/>
<path d="M10 6.37624C10 9.21895 7.9551 11.2525 5.75 11.2525C3.5449 11.2525 1.5 9.21895 1.5 6.37624C1.5 3.53353 3.5449 1.5 5.75 1.5C7.9551 1.5 10 3.53353 10 6.37624Z" stroke="white" stroke-width="3"/>
</svg>
