<svg width="58" height="64" viewBox="0 0 58 64" fill="none" xmlns="http://www.w3.org/2000/svg">
<path d="M6 11V54H29V11H52V54" stroke="white" stroke-width="3"/>
<path d="M10 5.49363C10 7.63551 8.16242 9.48726 5.75 9.48726C3.33758 9.48726 1.5 7.63551 1.5 5.49363C1.5 3.35175 3.33758 1.5 5.75 1.5C8.16242 1.5 10 3.35175 10 5.49363Z" stroke="white" stroke-width="3"/>
<path d="M56 58.4936C56 60.6355 54.1624 62.4873 51.75 62.4873C49.3376 62.4873 47.5 60.6355 47.5 58.4936C47.5 56.3517 49.3376 54.5 51.75 54.5C54.1624 54.5 56 56.3517 56 58.4936Z" stroke="white" stroke-width="3"/>
</svg>
