<svg width="58" height="41" viewBox="0 0 58 41" fill="none" xmlns="http://www.w3.org/2000/svg">
<path d="M47 7H15C12.2386 7 10 9.23858 10 12V15.8667C10 18.6281 12.2386 20.8667 15 20.8667H42C44.7614 20.8667 47 23.1052 47 25.8667V28C47 30.7614 44.7614 33 42 33H10" stroke="white" stroke-width="3"/>
<path d="M56.2637 6.6718C56.2637 9.59162 54.0159 11.8436 51.3819 11.8436C48.7478 11.8436 46.5 9.59162 46.5 6.6718C46.5 3.75199 48.7478 1.5 51.3819 1.5C54.0159 1.5 56.2637 3.75199 56.2637 6.6718Z" stroke="white" stroke-width="3"/>
<path d="M11.2637 33.6718C11.2637 36.5916 9.01594 38.8436 6.38187 38.8436C3.7478 38.8436 1.5 36.5916 1.5 33.6718C1.5 30.752 3.7478 28.5 6.38187 28.5C9.01594 28.5 11.2637 30.752 11.2637 33.6718Z" stroke="white" stroke-width="3"/>
</svg>
