<svg width="729" height="245" viewBox="0 0 729 245" fill="none" xmlns="http://www.w3.org/2000/svg">
<path d="M624.542 149.484C624.542 180.588 600.241 205.739 570.34 205.739C540.438 205.739 516.137 180.588 516.137 149.484C516.137 118.381 540.438 93.2295 570.34 93.2295C600.241 93.2295 624.542 118.381 624.542 149.484Z" stroke="#A7A7A7" stroke-width="2"/>
<path d="M574.631 102.469L573.503 102.278L573.498 103.474L573.466 110.53C573.465 110.688 573.34 110.82 573.189 110.821L566.742 110.853C566.598 110.853 566.485 110.735 566.485 110.584L566.517 103.528L566.523 102.309L565.376 102.515L559.786 103.518C559.688 103.535 559.595 103.495 559.539 103.421C559.483 103.345 559.468 103.239 559.508 103.141L569.878 78.2306C569.923 78.1224 570.025 78.0539 570.132 78.0534C570.237 78.0529 570.328 78.1169 570.367 78.2132L580.512 103.021C580.549 103.111 580.537 103.221 580.473 103.307L581.242 103.938L580.473 103.307C580.409 103.393 580.307 103.433 580.212 103.417L574.631 102.469Z" fill="#FCA600" stroke="black" stroke-width="2"/>
<path d="M566.014 193.41L567.145 193.575L567.123 192.379L566.992 185.324C566.989 185.166 567.112 185.032 567.263 185.028L573.708 184.847C573.851 184.843 573.967 184.959 573.97 185.109L574.101 192.164L574.123 193.383L575.265 193.151L580.831 192.019C580.928 192 581.022 192.037 581.08 192.111C581.137 192.185 581.155 192.291 581.117 192.39L571.325 217.533C571.282 217.642 571.182 217.713 571.075 217.716C570.969 217.719 570.877 217.657 570.836 217.561L560.121 192.994C560.083 192.905 560.091 192.794 560.154 192.707L559.371 192.094L560.154 192.707C560.216 192.62 560.317 192.578 560.412 192.592L566.014 193.41Z" fill="#FCA600" stroke="black" stroke-width="2"/>
<path d="M524.034 144.685L523.776 145.975L525.034 145.917L531.771 145.603C531.844 145.6 531.882 145.625 531.9 145.645C531.919 145.665 531.944 145.704 531.94 145.78L531.654 152.532C531.646 152.722 531.469 152.907 531.288 152.915L524.55 153.229L523.495 153.278L523.624 154.376L524.306 160.182C524.317 160.272 524.278 160.415 524.153 160.519L524.763 161.318L524.153 160.519C524.03 160.622 523.91 160.618 523.855 160.595L500.573 150.959C500.545 150.947 500.527 150.93 500.515 150.909C500.502 150.888 500.488 150.851 500.491 150.795C500.496 150.671 500.582 150.518 500.73 150.446L524.923 138.599C525.052 138.536 525.139 138.573 525.169 138.596L525.715 137.848L525.169 138.596C525.185 138.61 525.2 138.629 525.209 138.658C525.219 138.687 525.225 138.733 525.213 138.792L524.034 144.685Z" fill="#FCA600" stroke="black" stroke-width="2"/>
<path d="M615.738 154.493L615.913 153.311L614.77 153.313L608.032 153.33C607.881 153.33 607.755 153.2 607.753 153.042L607.677 146.291C607.675 146.14 607.788 146.02 607.932 146.02L614.67 146.003L615.833 146.001L615.629 144.802L614.631 138.955C614.614 138.853 614.651 138.754 614.723 138.695C614.795 138.636 614.897 138.619 614.99 138.661L638.85 149.343C638.953 149.389 639.019 149.495 639.02 149.607C639.021 149.718 638.961 149.814 638.869 149.856L615.252 160.655C615.166 160.694 615.061 160.683 614.979 160.617L614.382 161.426L614.979 160.617C614.897 160.55 614.858 160.444 614.873 160.345L615.738 154.493Z" fill="#FCA600" stroke="black" stroke-width="2"/>
<ellipse cx="569.809" cy="149.484" rx="18.5779" ry="19.4555" fill="white"/>
<path d="M196.542 146.484C196.542 177.588 172.241 202.739 142.34 202.739C112.438 202.739 88.1367 177.588 88.1367 146.484C88.1367 115.381 112.438 90.2295 142.34 90.2295C172.241 90.2295 196.542 115.381 196.542 146.484Z" stroke="#A7A7A7" stroke-width="2"/>
<path d="M146.631 99.4694L145.503 99.278L145.498 100.474L145.466 107.53C145.465 107.688 145.34 107.82 145.189 107.821L138.742 107.853C138.598 107.853 138.485 107.735 138.485 107.584L138.517 100.528L138.523 99.3095L137.376 99.5152L131.786 100.518C131.688 100.535 131.595 100.495 131.539 100.421C131.483 100.345 131.468 100.239 131.508 100.141L141.878 75.2306C141.923 75.1224 142.025 75.0539 142.132 75.0534C142.237 75.0529 142.328 75.1169 142.367 75.2132L152.512 100.021C152.549 100.111 152.537 100.221 152.473 100.307L153.242 100.938L152.473 100.307C152.409 100.393 152.307 100.433 152.212 100.417L146.631 99.4694Z" fill="#FCA600" stroke="black" stroke-width="2"/>
<path d="M138.014 190.41L139.145 190.575L139.123 189.379L138.992 182.324C138.989 182.166 139.112 182.032 139.263 182.027L145.708 181.847C145.851 181.843 145.967 181.959 145.97 182.109L146.101 189.164L146.123 190.383L147.265 190.15L152.831 189.019C152.928 188.999 153.022 189.037 153.08 189.111C153.137 189.185 153.155 189.291 153.117 189.39L143.325 214.532C143.282 214.642 143.182 214.712 143.075 214.715C142.969 214.718 142.877 214.656 142.836 214.561L132.121 189.994C132.083 189.905 132.091 189.794 132.154 189.707L131.371 189.094L132.154 189.707C132.216 189.619 132.317 189.578 132.412 189.591L138.014 190.41Z" fill="#FCA600" stroke="black" stroke-width="2"/>
<path d="M96.0343 141.685L95.7761 142.975L97.0335 142.917L103.771 142.603C103.844 142.6 103.882 142.625 103.9 142.645C103.919 142.665 103.944 142.704 103.94 142.78L103.654 149.532C103.646 149.722 103.469 149.907 103.288 149.915L96.5497 150.229L95.4947 150.278L95.6237 151.376L96.3064 157.182C96.317 157.272 96.2777 157.415 96.1532 157.519L96.763 158.318L96.1532 157.519C96.0299 157.622 95.9098 157.618 95.8553 157.595L72.5735 147.959C72.5453 147.947 72.5274 147.93 72.5149 147.909C72.502 147.888 72.4884 147.851 72.4908 147.795C72.496 147.671 72.5817 147.518 72.7296 147.446L96.9233 135.599C97.0519 135.536 97.1391 135.573 97.1685 135.596L97.7149 134.848L97.1685 135.596C97.1852 135.61 97.1995 135.629 97.2092 135.658C97.2191 135.687 97.2254 135.733 97.2135 135.792L96.0343 141.685Z" fill="#FCA600" stroke="black" stroke-width="2"/>
<path d="M187.738 151.493L187.913 150.31L186.77 150.313L180.032 150.329C179.881 150.33 179.755 150.2 179.753 150.042L179.677 143.29C179.675 143.14 179.788 143.02 179.932 143.02L186.67 143.003L187.833 143L187.629 141.801L186.631 135.954C186.614 135.852 186.651 135.754 186.723 135.695C186.795 135.635 186.897 135.618 186.99 135.66L210.85 146.343C210.953 146.389 211.019 146.494 211.02 146.607C211.021 146.717 210.961 146.813 210.869 146.855L187.252 157.655C187.166 157.694 187.061 157.683 186.979 157.616L186.382 158.425L186.979 157.616C186.897 157.55 186.858 157.444 186.873 157.344L187.738 151.493Z" fill="#FCA600" stroke="black" stroke-width="2"/>
<ellipse cx="141.809" cy="146.484" rx="18.5779" ry="19.4555" fill="white"/>
<path d="M58.6557 22V7.85938H60.4136V20.4375H66.9761V22H58.6557ZM73.5581 22.2148C70.4917 22.2148 68.5972 20.0469 68.5972 16.7852C68.5972 13.5234 70.5112 11.2578 73.4018 11.2578C75.6284 11.2578 77.9722 12.625 77.9722 16.5508V17.2539H70.2768C70.355 19.5 71.6636 20.7305 73.5581 20.7305C74.8276 20.7305 75.6284 20.1836 76.019 19.5195H77.8159C77.3081 21.1211 75.7456 22.2148 73.5581 22.2148ZM70.2964 15.8281H76.2729C76.2729 14.0508 75.1401 12.7422 73.4018 12.7422C71.5659 12.7422 70.394 14.1875 70.2964 15.8281ZM84.9057 11.3945V12.8008H82.562V22H80.8628V12.8008H79.1636V11.3945H80.8628V9.94922C80.8628 8.23047 82.0151 7.19531 83.8901 7.19531C84.3003 7.19531 84.7886 7.25391 85.1401 7.3125V8.81641C84.7886 8.75781 84.4761 8.73828 84.2612 8.73828C83.0893 8.73828 82.562 9.22656 82.562 10.3203V11.3945H84.9057ZM91.5268 11.3945V12.8008H89.3003V18.9531C89.3003 20.3203 89.9643 20.5352 90.687 20.5352C90.9995 20.5352 91.4292 20.5156 91.6831 20.4961V22.0586C91.4292 22.0977 90.9995 22.1367 90.5112 22.1367C89.105 22.1367 87.6011 21.2578 87.6011 19.3828V12.8008H85.9995V11.3945H87.6011V8.85547H89.3003V11.3945H91.5268ZM108.578 12.3125C108.167 10.3594 106.488 9.30469 104.632 9.30469C102.074 9.30469 100.082 11.2773 100.082 14.9297C100.082 18.582 102.074 20.5547 104.632 20.5547C106.488 20.5547 108.148 19.5 108.578 17.5664H110.335C109.828 20.457 107.503 22.1953 104.632 22.1953C100.999 22.1953 98.3823 19.4023 98.3823 14.9297C98.3823 10.457 100.999 7.66406 104.632 7.66406C107.484 7.66406 109.808 9.38281 110.335 12.3125H108.578ZM116.917 22.2148C114.027 22.2148 112.074 20.0469 112.074 16.7461C112.074 13.4453 114.027 11.2578 116.917 11.2578C119.789 11.2578 121.722 13.4453 121.722 16.7461C121.722 20.0469 119.789 22.2148 116.917 22.2148ZM116.917 20.7305C119.046 20.7305 120.042 18.8555 120.042 16.7461C120.042 14.6367 119.046 12.7422 116.917 12.7422C114.749 12.7422 113.753 14.6367 113.753 16.7461C113.753 18.8555 114.749 20.7305 116.917 20.7305ZM123.929 22V11.3945H125.55V13.0547H125.687C126.136 11.9219 127.152 11.2578 128.539 11.2578C129.925 11.2578 130.863 11.9219 131.371 13.0547H131.488C132.035 11.9609 133.148 11.2578 134.671 11.2578C136.566 11.2578 137.914 12.4102 137.914 14.9102V22H136.234V14.9297C136.234 13.3672 135.238 12.7617 134.085 12.7617C132.601 12.7617 131.761 13.7578 131.761 15.1055V22H130.062V14.7539C130.062 13.5625 129.203 12.7617 127.992 12.7617C126.722 12.7617 125.609 13.8359 125.609 15.3789V22H123.929ZM140.609 22V11.3945H142.23V13.0547H142.367C142.816 11.9219 143.832 11.2578 145.218 11.2578C146.605 11.2578 147.542 11.9219 148.05 13.0547H148.167C148.714 11.9609 149.828 11.2578 151.351 11.2578C153.246 11.2578 154.593 12.4102 154.593 14.9102V22H152.914V14.9297C152.914 13.3672 151.917 12.7617 150.765 12.7617C149.281 12.7617 148.441 13.7578 148.441 15.1055V22H146.742V14.7539C146.742 13.5625 145.882 12.7617 144.671 12.7617C143.402 12.7617 142.289 13.8359 142.289 15.3789V22H140.609ZM156.781 18.9922C156.781 16.5508 158.929 16.0039 160.765 15.8672C161.439 15.8184 163.158 15.7305 163.636 15.7109V14.8516C163.636 13.5039 162.835 12.7227 161.234 12.7227C159.886 12.7227 159.085 13.3477 158.851 14.1484H157.093C157.308 12.4492 158.968 11.2578 161.312 11.2578C162.699 11.2578 165.296 11.668 165.296 15.0078V22H163.636V20.5547H163.558C163.207 21.2773 162.23 22.2539 160.394 22.2539C158.382 22.2539 156.781 21.0625 156.781 18.9922ZM158.46 19.0703C158.46 20.1836 159.398 20.75 160.687 20.75C162.582 20.75 163.636 19.4805 163.636 18.1523V17.0781C163.138 17.1172 161.468 17.2441 160.96 17.2734C159.437 17.3711 158.46 17.918 158.46 19.0703ZM169.671 15.6328V22H167.992V11.3945H169.613V13.0547H169.749C170.257 11.9805 171.234 11.2578 172.855 11.2578C175.003 11.2578 176.429 12.5664 176.429 15.2617V22H174.749V15.3789C174.749 13.7383 173.851 12.7617 172.347 12.7617C170.804 12.7617 169.671 13.7969 169.671 15.6328ZM183.128 22.2148C180.492 22.2148 178.617 20.0859 178.617 16.7266C178.617 13.3672 180.492 11.2578 183.148 11.2578C185.199 11.2578 185.863 12.5078 186.214 13.0742H186.332V7.85938H188.031V22H186.39V20.3789H186.214C185.843 20.9648 185.16 22.2148 183.128 22.2148ZM183.363 20.7109C185.296 20.7109 186.39 19.0703 186.39 16.6875C186.39 14.3438 185.335 12.7617 183.363 12.7617C181.332 12.7617 180.316 14.4805 180.316 16.6875C180.316 18.9531 181.351 20.7109 183.363 20.7109ZM203.89 11.4141C203.734 10.0273 202.464 9.22656 200.765 9.22656C198.89 9.22656 197.66 10.2031 197.66 11.5508C197.66 13.0352 199.32 13.582 200.394 13.8555L201.8 14.2461C203.324 14.6367 205.804 15.5156 205.804 18.1523C205.804 20.457 203.949 22.2539 200.667 22.2539C197.621 22.2539 195.726 20.6719 195.57 18.3281H197.367C197.523 19.9102 198.988 20.6523 200.667 20.6523C202.621 20.6523 204.085 19.6562 204.085 18.1133C204.085 16.7461 202.777 16.2188 201.292 15.7891L199.554 15.3203C197.328 14.6758 195.96 13.543 195.96 11.6289C195.96 9.24609 198.089 7.66406 200.824 7.66406C203.558 7.66406 205.531 9.26562 205.609 11.4141H203.89ZM212.738 11.3945V12.8008H210.511V18.9531C210.511 20.3203 211.175 20.5352 211.898 20.5352C212.21 20.5352 212.64 20.5156 212.894 20.4961V22.0586C212.64 22.0977 212.21 22.1367 211.722 22.1367C210.316 22.1367 208.812 21.2578 208.812 19.3828V12.8008H207.21V11.3945H208.812V8.85547H210.511V11.3945H212.738ZM214.906 22V11.3945H216.585V22H214.906ZM215.746 9.63672C215.101 9.63672 214.574 9.14844 214.574 8.52344C214.574 7.89844 215.101 7.41016 215.746 7.41016C216.39 7.41016 216.937 7.89844 216.937 8.52344C216.937 9.14844 216.39 9.63672 215.746 9.63672ZM223.597 22.2148C220.589 22.2148 218.753 19.9297 218.753 16.7461C218.753 13.5234 220.667 11.2578 223.558 11.2578C225.824 11.2578 227.503 12.5859 227.777 14.5977H226.097C225.863 13.6211 225.003 12.7422 223.597 12.7422C221.703 12.7422 220.433 14.3047 220.433 16.6875C220.433 19.1484 221.664 20.7109 223.597 20.7109C224.847 20.7109 225.804 20.0469 226.097 18.875H227.777C227.503 20.7695 225.96 22.2148 223.597 22.2148ZM229.847 22V7.85938H231.527V16.082H231.722L236.312 11.3945H238.382L233.91 15.9258L238.714 22H236.585L232.66 17L231.527 18.0352V22H229.847Z" fill="#FCA600"/>
<path d="M474.919 22V7.85938H479.723C483.044 7.85938 484.548 9.69531 484.548 12.2148C484.548 14.0801 483.708 15.5547 481.911 16.1797L485.095 22H483.044L480.095 16.4922C479.977 16.5117 479.86 16.5117 479.743 16.5117H476.677V22H474.919ZM476.677 14.9102H479.665C481.911 14.9102 482.809 13.8945 482.809 12.2148C482.809 10.5156 481.911 9.42188 479.645 9.42188H476.677V14.9102ZM486.872 22V11.3945H488.552V22H486.872ZM487.712 9.63672C487.067 9.63672 486.54 9.14844 486.54 8.52344C486.54 7.89844 487.067 7.41016 487.712 7.41016C488.356 7.41016 488.903 7.89844 488.903 8.52344C488.903 9.14844 488.356 9.63672 487.712 9.63672ZM495.524 26.1992C492.966 26.1992 491.227 25.0859 491.032 23.1133H492.79C493.024 24.1875 494.02 24.7344 495.524 24.7344C497.341 24.7344 498.454 23.9531 498.454 22.1953V20.0469H498.317C497.966 20.6328 497.282 21.8438 495.231 21.8438C492.653 21.8438 490.72 19.8906 490.72 16.5508C490.72 13.2891 492.595 11.2578 495.251 11.2578C497.302 11.2578 497.966 12.5078 498.356 13.0742H498.493V11.3945H500.134V22.293C500.134 25.0273 498.102 26.1992 495.524 26.1992ZM495.466 20.3398C497.399 20.3398 498.493 18.9531 498.493 16.6094C498.493 14.3438 497.438 12.7617 495.466 12.7617C493.434 12.7617 492.419 14.4805 492.419 16.6094C492.419 18.8164 493.454 20.3398 495.466 20.3398ZM504.489 15.6328V22H502.809V7.85938H504.489V13.0547H504.626C505.114 11.9609 506.071 11.2578 507.751 11.2578C509.919 11.2578 511.364 12.5469 511.364 15.2617V22H509.684V15.3789C509.684 13.7188 508.766 12.7617 507.243 12.7617C505.661 12.7617 504.489 13.7969 504.489 15.6328ZM518.688 11.3945V12.8008H516.462V18.9531C516.462 20.3203 517.126 20.5352 517.848 20.5352C518.161 20.5352 518.591 20.5156 518.845 20.4961V22.0586C518.591 22.0977 518.161 22.1367 517.673 22.1367C516.266 22.1367 514.762 21.2578 514.762 19.3828V12.8008H513.161V11.3945H514.762V8.85547H516.462V11.3945H518.688ZM535.739 12.3125C535.329 10.3594 533.649 9.30469 531.794 9.30469C529.235 9.30469 527.243 11.2773 527.243 14.9297C527.243 18.582 529.235 20.5547 531.794 20.5547C533.649 20.5547 535.309 19.5 535.739 17.5664H537.497C536.989 20.457 534.665 22.1953 531.794 22.1953C528.161 22.1953 525.544 19.4023 525.544 14.9297C525.544 10.457 528.161 7.66406 531.794 7.66406C534.645 7.66406 536.97 9.38281 537.497 12.3125H535.739ZM544.079 22.2148C541.188 22.2148 539.235 20.0469 539.235 16.7461C539.235 13.4453 541.188 11.2578 544.079 11.2578C546.95 11.2578 548.884 13.4453 548.884 16.7461C548.884 20.0469 546.95 22.2148 544.079 22.2148ZM544.079 20.7305C546.208 20.7305 547.204 18.8555 547.204 16.7461C547.204 14.6367 546.208 12.7422 544.079 12.7422C541.911 12.7422 540.915 14.6367 540.915 16.7461C540.915 18.8555 541.911 20.7305 544.079 20.7305ZM551.091 22V11.3945H552.712V13.0547H552.848C553.298 11.9219 554.313 11.2578 555.7 11.2578C557.087 11.2578 558.024 11.9219 558.532 13.0547H558.649C559.196 11.9609 560.309 11.2578 561.833 11.2578C563.727 11.2578 565.075 12.4102 565.075 14.9102V22H563.395V14.9297C563.395 13.3672 562.399 12.7617 561.247 12.7617C559.762 12.7617 558.923 13.7578 558.923 15.1055V22H557.223V14.7539C557.223 13.5625 556.364 12.7617 555.153 12.7617C553.884 12.7617 552.77 13.8359 552.77 15.3789V22H551.091ZM567.77 22V11.3945H569.391V13.0547H569.528C569.977 11.9219 570.993 11.2578 572.38 11.2578C573.766 11.2578 574.704 11.9219 575.212 13.0547H575.329C575.876 11.9609 576.989 11.2578 578.512 11.2578C580.407 11.2578 581.755 12.4102 581.755 14.9102V22H580.075V14.9297C580.075 13.3672 579.079 12.7617 577.927 12.7617C576.442 12.7617 575.602 13.7578 575.602 15.1055V22H573.903V14.7539C573.903 13.5625 573.044 12.7617 571.833 12.7617C570.563 12.7617 569.45 13.8359 569.45 15.3789V22H567.77ZM583.942 18.9922C583.942 16.5508 586.091 16.0039 587.927 15.8672C588.6 15.8184 590.319 15.7305 590.798 15.7109V14.8516C590.798 13.5039 589.997 12.7227 588.395 12.7227C587.048 12.7227 586.247 13.3477 586.012 14.1484H584.255C584.47 12.4492 586.13 11.2578 588.473 11.2578C589.86 11.2578 592.458 11.668 592.458 15.0078V22H590.798V20.5547H590.72C590.368 21.2773 589.391 22.2539 587.555 22.2539C585.544 22.2539 583.942 21.0625 583.942 18.9922ZM585.622 19.0703C585.622 20.1836 586.559 20.75 587.848 20.75C589.743 20.75 590.798 19.4805 590.798 18.1523V17.0781C590.3 17.1172 588.63 17.2441 588.122 17.2734C586.598 17.3711 585.622 17.918 585.622 19.0703ZM596.833 15.6328V22H595.153V11.3945H596.774V13.0547H596.911C597.419 11.9805 598.395 11.2578 600.016 11.2578C602.165 11.2578 603.591 12.5664 603.591 15.2617V22H601.911V15.3789C601.911 13.7383 601.012 12.7617 599.509 12.7617C597.966 12.7617 596.833 13.7969 596.833 15.6328ZM610.29 22.2148C607.653 22.2148 605.778 20.0859 605.778 16.7266C605.778 13.3672 607.653 11.2578 610.309 11.2578C612.36 11.2578 613.024 12.5078 613.376 13.0742H613.493V7.85938H615.192V22H613.552V20.3789H613.376C613.005 20.9648 612.321 22.2148 610.29 22.2148ZM610.524 20.7109C612.458 20.7109 613.552 19.0703 613.552 16.6875C613.552 14.3438 612.497 12.7617 610.524 12.7617C608.493 12.7617 607.477 14.4805 607.477 16.6875C607.477 18.9531 608.512 20.7109 610.524 20.7109ZM631.052 11.4141C630.895 10.0273 629.626 9.22656 627.927 9.22656C626.052 9.22656 624.821 10.2031 624.821 11.5508C624.821 13.0352 626.481 13.582 627.555 13.8555L628.962 14.2461C630.485 14.6367 632.966 15.5156 632.966 18.1523C632.966 20.457 631.11 22.2539 627.829 22.2539C624.782 22.2539 622.887 20.6719 622.731 18.3281H624.528C624.684 19.9102 626.149 20.6523 627.829 20.6523C629.782 20.6523 631.247 19.6562 631.247 18.1133C631.247 16.7461 629.938 16.2188 628.454 15.7891L626.716 15.3203C624.489 14.6758 623.122 13.543 623.122 11.6289C623.122 9.24609 625.251 7.66406 627.985 7.66406C630.72 7.66406 632.692 9.26562 632.77 11.4141H631.052ZM639.899 11.3945V12.8008H637.673V18.9531C637.673 20.3203 638.337 20.5352 639.059 20.5352C639.372 20.5352 639.802 20.5156 640.055 20.4961V22.0586C639.802 22.0977 639.372 22.1367 638.884 22.1367C637.477 22.1367 635.973 21.2578 635.973 19.3828V12.8008H634.372V11.3945H635.973V8.85547H637.673V11.3945H639.899ZM642.067 22V11.3945H643.747V22H642.067ZM642.907 9.63672C642.262 9.63672 641.735 9.14844 641.735 8.52344C641.735 7.89844 642.262 7.41016 642.907 7.41016C643.552 7.41016 644.098 7.89844 644.098 8.52344C644.098 9.14844 643.552 9.63672 642.907 9.63672ZM650.759 22.2148C647.751 22.2148 645.915 19.9297 645.915 16.7461C645.915 13.5234 647.829 11.2578 650.72 11.2578C652.985 11.2578 654.665 12.5859 654.938 14.5977H653.259C653.024 13.6211 652.165 12.7422 650.759 12.7422C648.864 12.7422 647.595 14.3047 647.595 16.6875C647.595 19.1484 648.825 20.7109 650.759 20.7109C652.009 20.7109 652.966 20.0469 653.259 18.875H654.938C654.665 20.7695 653.122 22.2148 650.759 22.2148ZM657.009 22V7.85938H658.688V16.082H658.884L663.473 11.3945H665.544L661.071 15.9258L665.876 22H663.747L659.821 17L658.688 18.0352V22H657.009Z" fill="#FCA600"/>
<path d="M100.574 69H98.7383L103.914 54.8594H105.77L110.945 69H109.09L107.684 65.0156H102L100.574 69ZM102.527 63.4727H107.137L104.891 57.1445H104.773L102.527 63.4727ZM114.617 54.8594V69H112.859V54.8594H114.617ZM122.156 58.3945V59.8008H119.93V65.9531C119.93 67.3203 120.594 67.5352 121.316 67.5352C121.629 67.5352 122.059 67.5156 122.312 67.4961V69.0586C122.059 69.0977 121.629 69.1367 121.141 69.1367C119.734 69.1367 118.23 68.2578 118.23 66.3828V59.8008H116.629V58.3945H118.23V55.8555H119.93V58.3945H122.156ZM124.324 69V58.3945H126.004V69H124.324ZM125.164 56.6367C124.52 56.6367 123.992 56.1484 123.992 55.5234C123.992 54.8984 124.52 54.4102 125.164 54.4102C125.809 54.4102 126.355 54.8984 126.355 55.5234C126.355 56.1484 125.809 56.6367 125.164 56.6367ZM133.309 58.3945V59.8008H131.082V65.9531C131.082 67.3203 131.746 67.5352 132.469 67.5352C132.781 67.5352 133.211 67.5156 133.465 67.4961V69.0586C133.211 69.0977 132.781 69.1367 132.293 69.1367C130.887 69.1367 129.383 68.2578 129.383 66.3828V59.8008H127.781V58.3945H129.383V55.8555H131.082V58.3945H133.309ZM142.176 64.6445V58.3945H143.836V69H142.176V67.2031H142.059C141.551 68.2773 140.516 69.1367 138.914 69.1367C136.902 69.1367 135.477 67.8281 135.477 65.1328V58.3945H137.156V65.0156C137.156 66.5391 138.113 67.5156 139.461 67.5156C140.652 67.5156 142.176 66.6172 142.176 64.6445ZM150.535 69.2148C147.898 69.2148 146.023 67.0859 146.023 63.7266C146.023 60.3672 147.898 58.2578 150.555 58.2578C152.605 58.2578 153.27 59.5078 153.621 60.0742H153.738V54.8594H155.438V69H153.797V67.3789H153.621C153.25 67.9648 152.566 69.2148 150.535 69.2148ZM150.77 67.7109C152.703 67.7109 153.797 66.0703 153.797 63.6875C153.797 61.3438 152.742 59.7617 150.77 59.7617C148.738 59.7617 147.723 61.4805 147.723 63.6875C147.723 65.9531 148.758 67.7109 150.77 67.7109ZM162.801 69.2148C159.734 69.2148 157.84 67.0469 157.84 63.7852C157.84 60.5234 159.754 58.2578 162.645 58.2578C164.871 58.2578 167.215 59.625 167.215 63.5508V64.2539H159.52C159.598 66.5 160.906 67.7305 162.801 67.7305C164.07 67.7305 164.871 67.1836 165.262 66.5195H167.059C166.551 68.1211 164.988 69.2148 162.801 69.2148ZM159.539 62.8281H165.516C165.516 61.0508 164.383 59.7422 162.645 59.7422C160.809 59.7422 159.637 61.1875 159.539 62.8281ZM178.543 68.043V64.2539H174.773V62.6719H178.543V58.9023H180.125V62.6719H183.914V64.2539H180.125V68.043H178.543Z" fill="white"/>
<path d="M102.518 237H100.682L105.857 222.859H107.713L112.889 237H111.033L109.627 233.016H103.943L102.518 237ZM104.471 231.473H109.08L106.834 225.145H106.717L104.471 231.473ZM116.561 222.859V237H114.803V222.859H116.561ZM124.1 226.395V227.801H121.873V233.953C121.873 235.32 122.537 235.535 123.26 235.535C123.572 235.535 124.002 235.516 124.256 235.496V237.059C124.002 237.098 123.572 237.137 123.084 237.137C121.678 237.137 120.174 236.258 120.174 234.383V227.801H118.572V226.395H120.174V223.855H121.873V226.395H124.1ZM126.268 237V226.395H127.947V237H126.268ZM127.107 224.637C126.463 224.637 125.936 224.148 125.936 223.523C125.936 222.898 126.463 222.41 127.107 222.41C127.752 222.41 128.299 222.898 128.299 223.523C128.299 224.148 127.752 224.637 127.107 224.637ZM135.252 226.395V227.801H133.025V233.953C133.025 235.32 133.689 235.535 134.412 235.535C134.725 235.535 135.154 235.516 135.408 235.496V237.059C135.154 237.098 134.725 237.137 134.236 237.137C132.83 237.137 131.326 236.258 131.326 234.383V227.801H129.725V226.395H131.326V223.855H133.025V226.395H135.252ZM144.119 232.645V226.395H145.779V237H144.119V235.203H144.002C143.494 236.277 142.459 237.137 140.857 237.137C138.846 237.137 137.42 235.828 137.42 233.133V226.395H139.1V233.016C139.1 234.539 140.057 235.516 141.404 235.516C142.596 235.516 144.119 234.617 144.119 232.645ZM152.479 237.215C149.842 237.215 147.967 235.086 147.967 231.727C147.967 228.367 149.842 226.258 152.498 226.258C154.549 226.258 155.213 227.508 155.564 228.074H155.682V222.859H157.381V237H155.74V235.379H155.564C155.193 235.965 154.51 237.215 152.479 237.215ZM152.713 235.711C154.646 235.711 155.74 234.07 155.74 231.688C155.74 229.344 154.686 227.762 152.713 227.762C150.682 227.762 149.666 229.48 149.666 231.688C149.666 233.953 150.701 235.711 152.713 235.711ZM164.744 237.215C161.678 237.215 159.783 235.047 159.783 231.785C159.783 228.523 161.697 226.258 164.588 226.258C166.814 226.258 169.158 227.625 169.158 231.551V232.254H161.463C161.541 234.5 162.85 235.73 164.744 235.73C166.014 235.73 166.814 235.184 167.205 234.52H169.002C168.494 236.121 166.932 237.215 164.744 237.215ZM161.482 230.828H167.459C167.459 229.051 166.326 227.742 164.588 227.742C162.752 227.742 161.58 229.188 161.482 230.828ZM182.439 230.184V231.727H176.248V230.184H182.439Z" fill="white"/>
<path d="M220.746 141V126.859H225.551C228.871 126.859 230.375 128.695 230.375 131.215C230.375 133.08 229.535 134.555 227.738 135.18L230.922 141H228.871L225.922 135.492C225.805 135.512 225.688 135.512 225.57 135.512H222.504V141H220.746ZM222.504 133.91H225.492C227.738 133.91 228.637 132.895 228.637 131.215C228.637 129.516 227.738 128.422 225.473 128.422H222.504V133.91ZM236.918 141.215C234.027 141.215 232.074 139.047 232.074 135.746C232.074 132.445 234.027 130.258 236.918 130.258C239.789 130.258 241.723 132.445 241.723 135.746C241.723 139.047 239.789 141.215 236.918 141.215ZM236.918 139.73C239.047 139.73 240.043 137.855 240.043 135.746C240.043 133.637 239.047 131.742 236.918 131.742C234.75 131.742 233.754 133.637 233.754 135.746C233.754 137.855 234.75 139.73 236.918 139.73ZM248.559 130.395V131.801H246.332V137.953C246.332 139.32 246.996 139.535 247.719 139.535C248.031 139.535 248.461 139.516 248.715 139.496V141.059C248.461 141.098 248.031 141.137 247.543 141.137C246.137 141.137 244.633 140.258 244.633 138.383V131.801H243.031V130.395H244.633V127.855H246.332V130.395H248.559ZM250.219 137.992C250.219 135.551 252.367 135.004 254.203 134.867C254.877 134.818 256.596 134.73 257.074 134.711V133.852C257.074 132.504 256.273 131.723 254.672 131.723C253.324 131.723 252.523 132.348 252.289 133.148H250.531C250.746 131.449 252.406 130.258 254.75 130.258C256.137 130.258 258.734 130.668 258.734 134.008V141H257.074V139.555H256.996C256.645 140.277 255.668 141.254 253.832 141.254C251.82 141.254 250.219 140.062 250.219 137.992ZM251.898 138.07C251.898 139.184 252.836 139.75 254.125 139.75C256.02 139.75 257.074 138.48 257.074 137.152V136.078C256.576 136.117 254.906 136.244 254.398 136.273C252.875 136.371 251.898 136.918 251.898 138.07ZM266.059 130.395V131.801H263.832V137.953C263.832 139.32 264.496 139.535 265.219 139.535C265.531 139.535 265.961 139.516 266.215 139.496V141.059C265.961 141.098 265.531 141.137 265.043 141.137C263.637 141.137 262.133 140.258 262.133 138.383V131.801H260.531V130.395H262.133V127.855H263.832V130.395H266.059ZM272.562 141.215C269.496 141.215 267.602 139.047 267.602 135.785C267.602 132.523 269.516 130.258 272.406 130.258C274.633 130.258 276.977 131.625 276.977 135.551V136.254H269.281C269.359 138.5 270.668 139.73 272.562 139.73C273.832 139.73 274.633 139.184 275.023 138.52H276.82C276.312 140.121 274.75 141.215 272.562 141.215ZM269.301 134.828H275.277C275.277 133.051 274.145 131.742 272.406 131.742C270.57 131.742 269.398 133.188 269.301 134.828ZM226.986 175V160.859H231.791C235.111 160.859 236.615 162.695 236.615 165.215C236.615 167.08 235.775 168.555 233.979 169.18L237.162 175H235.111L232.162 169.492C232.045 169.512 231.928 169.512 231.811 169.512H228.744V175H226.986ZM228.744 167.91H231.732C233.979 167.91 234.877 166.895 234.877 165.215C234.877 163.516 233.979 162.422 231.713 162.422H228.744V167.91ZM238.939 175V164.395H240.619V175H238.939ZM239.779 162.637C239.135 162.637 238.607 162.148 238.607 161.523C238.607 160.898 239.135 160.41 239.779 160.41C240.424 160.41 240.971 160.898 240.971 161.523C240.971 162.148 240.424 162.637 239.779 162.637ZM247.592 179.199C245.033 179.199 243.295 178.086 243.1 176.113H244.857C245.092 177.188 246.088 177.734 247.592 177.734C249.408 177.734 250.521 176.953 250.521 175.195V173.047H250.385C250.033 173.633 249.35 174.844 247.299 174.844C244.721 174.844 242.787 172.891 242.787 169.551C242.787 166.289 244.662 164.258 247.318 164.258C249.369 164.258 250.033 165.508 250.424 166.074H250.561V164.395H252.201V175.293C252.201 178.027 250.17 179.199 247.592 179.199ZM247.533 173.34C249.467 173.34 250.561 171.953 250.561 169.609C250.561 167.344 249.506 165.762 247.533 165.762C245.502 165.762 244.486 167.48 244.486 169.609C244.486 171.816 245.521 173.34 247.533 173.34ZM256.557 168.633V175H254.877V160.859H256.557V166.055H256.693C257.182 164.961 258.139 164.258 259.818 164.258C261.986 164.258 263.432 165.547 263.432 168.262V175H261.752V168.379C261.752 166.719 260.834 165.762 259.311 165.762C257.729 165.762 256.557 166.797 256.557 168.633ZM270.756 164.395V165.801H268.529V171.953C268.529 173.32 269.193 173.535 269.916 173.535C270.229 173.535 270.658 173.516 270.912 173.496V175.059C270.658 175.098 270.229 175.137 269.74 175.137C268.334 175.137 266.83 174.258 266.83 172.383V165.801H265.229V164.395H266.83V161.855H268.529V164.395H270.756Z" fill="white"/>
<path d="M7.74609 142V127.859H12.5508C15.8711 127.859 17.375 129.695 17.375 132.215C17.375 134.08 16.5352 135.555 14.7383 136.18L17.9219 142H15.8711L12.9219 136.492C12.8047 136.512 12.6875 136.512 12.5703 136.512H9.50391V142H7.74609ZM9.50391 134.91H12.4922C14.7383 134.91 15.6367 133.895 15.6367 132.215C15.6367 130.516 14.7383 129.422 12.4727 129.422H9.50391V134.91ZM23.918 142.215C21.0273 142.215 19.0742 140.047 19.0742 136.746C19.0742 133.445 21.0273 131.258 23.918 131.258C26.7891 131.258 28.7227 133.445 28.7227 136.746C28.7227 140.047 26.7891 142.215 23.918 142.215ZM23.918 140.73C26.0469 140.73 27.043 138.855 27.043 136.746C27.043 134.637 26.0469 132.742 23.918 132.742C21.75 132.742 20.7539 134.637 20.7539 136.746C20.7539 138.855 21.75 140.73 23.918 140.73ZM35.5586 131.395V132.801H33.332V138.953C33.332 140.32 33.9961 140.535 34.7188 140.535C35.0312 140.535 35.4609 140.516 35.7148 140.496V142.059C35.4609 142.098 35.0312 142.137 34.543 142.137C33.1367 142.137 31.6328 141.258 31.6328 139.383V132.801H30.0312V131.395H31.6328V128.855H33.332V131.395H35.5586ZM37.2188 138.992C37.2188 136.551 39.3672 136.004 41.2031 135.867C41.877 135.818 43.5957 135.73 44.0742 135.711V134.852C44.0742 133.504 43.2734 132.723 41.6719 132.723C40.3242 132.723 39.5234 133.348 39.2891 134.148H37.5312C37.7461 132.449 39.4062 131.258 41.75 131.258C43.1367 131.258 45.7344 131.668 45.7344 135.008V142H44.0742V140.555H43.9961C43.6445 141.277 42.668 142.254 40.832 142.254C38.8203 142.254 37.2188 141.062 37.2188 138.992ZM38.8984 139.07C38.8984 140.184 39.8359 140.75 41.125 140.75C43.0195 140.75 44.0742 139.48 44.0742 138.152V137.078C43.5762 137.117 41.9062 137.244 41.3984 137.273C39.875 137.371 38.8984 137.918 38.8984 139.07ZM53.0586 131.395V132.801H50.832V138.953C50.832 140.32 51.4961 140.535 52.2188 140.535C52.5312 140.535 52.9609 140.516 53.2148 140.496V142.059C52.9609 142.098 52.5312 142.137 52.043 142.137C50.6367 142.137 49.1328 141.258 49.1328 139.383V132.801H47.5312V131.395H49.1328V128.855H50.832V131.395H53.0586ZM59.5625 142.215C56.4961 142.215 54.6016 140.047 54.6016 136.785C54.6016 133.523 56.5156 131.258 59.4062 131.258C61.6328 131.258 63.9766 132.625 63.9766 136.551V137.254H56.2812C56.3594 139.5 57.668 140.73 59.5625 140.73C60.832 140.73 61.6328 140.184 62.0234 139.52H63.8203C63.3125 141.121 61.75 142.215 59.5625 142.215ZM56.3008 135.828H62.2773C62.2773 134.051 61.1445 132.742 59.4062 132.742C57.5703 132.742 56.3984 134.188 56.3008 135.828ZM19.4355 176V161.859H21.1934V174.438H27.7559V176H19.4355ZM34.3379 176.215C31.2715 176.215 29.377 174.047 29.377 170.785C29.377 167.523 31.291 165.258 34.1816 165.258C36.4082 165.258 38.752 166.625 38.752 170.551V171.254H31.0566C31.1348 173.5 32.4434 174.73 34.3379 174.73C35.6074 174.73 36.4082 174.184 36.7988 173.52H38.5957C38.0879 175.121 36.5254 176.215 34.3379 176.215ZM31.0762 169.828H37.0527C37.0527 168.051 35.9199 166.742 34.1816 166.742C32.3457 166.742 31.1738 168.188 31.0762 169.828ZM45.6855 165.395V166.801H43.3418V176H41.6426V166.801H39.9434V165.395H41.6426V163.949C41.6426 162.23 42.7949 161.195 44.6699 161.195C45.0801 161.195 45.5684 161.254 45.9199 161.312V162.816C45.5684 162.758 45.2559 162.738 45.041 162.738C43.8691 162.738 43.3418 163.227 43.3418 164.32V165.395H45.6855ZM52.3066 165.395V166.801H50.0801V172.953C50.0801 174.32 50.7441 174.535 51.4668 174.535C51.7793 174.535 52.209 174.516 52.4629 174.496V176.059C52.209 176.098 51.7793 176.137 51.291 176.137C49.8848 176.137 48.3809 175.258 48.3809 173.383V166.801H46.7793V165.395H48.3809V162.855H50.0801V165.395H52.3066Z" fill="white"/>
<path d="M534.775 75V60.8594H543.291V62.4219H536.533V67.1484H542.646V68.6914H536.533V75H534.775ZM549.248 75.2148C546.357 75.2148 544.404 73.0469 544.404 69.7461C544.404 66.4453 546.357 64.2578 549.248 64.2578C552.119 64.2578 554.053 66.4453 554.053 69.7461C554.053 73.0469 552.119 75.2148 549.248 75.2148ZM549.248 73.7305C551.377 73.7305 552.373 71.8555 552.373 69.7461C552.373 67.6367 551.377 65.7422 549.248 65.7422C547.08 65.7422 546.084 67.6367 546.084 69.7461C546.084 71.8555 547.08 73.7305 549.248 73.7305ZM556.26 75V64.3945H557.881V66.0156H557.998C558.389 64.9414 559.482 64.2188 560.732 64.2188C560.986 64.2188 561.416 64.2383 561.611 64.2578V65.957C561.494 65.918 561.025 65.8398 560.596 65.8398C559.072 65.8398 557.939 66.8945 557.939 68.3203V75H556.26ZM565.811 75L562.588 64.3945H564.365L566.631 72.4805H566.729L568.975 64.3945H570.771L572.979 72.4414H573.096L575.361 64.3945H577.119L573.896 75H572.236L569.932 66.9141H569.775L567.49 75H565.811ZM578.467 71.9922C578.467 69.5508 580.615 69.0039 582.451 68.8672C583.125 68.8184 584.844 68.7305 585.322 68.7109V67.8516C585.322 66.5039 584.521 65.7227 582.92 65.7227C581.572 65.7227 580.771 66.3477 580.537 67.1484H578.779C578.994 65.4492 580.654 64.2578 582.998 64.2578C584.385 64.2578 586.982 64.668 586.982 68.0078V75H585.322V73.5547H585.244C584.893 74.2773 583.916 75.2539 582.08 75.2539C580.068 75.2539 578.467 74.0625 578.467 71.9922ZM580.146 72.0703C580.146 73.1836 581.084 73.75 582.373 73.75C584.268 73.75 585.322 72.4805 585.322 71.1523V70.0781C584.824 70.1172 583.154 70.2441 582.646 70.2734C581.123 70.3711 580.146 70.918 580.146 72.0703ZM589.678 75V64.3945H591.299V66.0156H591.416C591.807 64.9414 592.9 64.2188 594.15 64.2188C594.404 64.2188 594.834 64.2383 595.029 64.2578V65.957C594.912 65.918 594.443 65.8398 594.014 65.8398C592.49 65.8398 591.357 66.8945 591.357 68.3203V75H589.678ZM600.322 75.2148C597.686 75.2148 595.811 73.0859 595.811 69.7266C595.811 66.3672 597.686 64.2578 600.342 64.2578C602.393 64.2578 603.057 65.5078 603.408 66.0742H603.525V60.8594H605.225V75H603.584V73.3789H603.408C603.037 73.9648 602.354 75.2148 600.322 75.2148ZM600.557 73.7109C602.49 73.7109 603.584 72.0703 603.584 69.6875C603.584 67.3438 602.529 65.7617 600.557 65.7617C598.525 65.7617 597.51 67.4805 597.51 69.6875C597.51 71.9531 598.545 73.7109 600.557 73.7109Z" fill="white"/>
<path d="M527.707 240V225.859H532.668C535.637 225.859 537.023 227.52 537.023 229.609C537.023 231.426 535.949 232.246 534.719 232.578V232.715C536.027 232.793 537.59 234.004 537.59 236.25C537.59 238.379 536.184 240 532.844 240H527.707ZM532.824 238.438C535.031 238.438 535.891 237.461 535.891 236.23C535.891 234.785 534.738 233.574 532.922 233.574H529.465V238.438H532.824ZM532.609 232.051C534.133 232.051 535.344 231.113 535.344 229.629C535.344 228.398 534.523 227.422 532.668 227.422H529.465V232.051H532.609ZM539.367 236.992C539.367 234.551 541.516 234.004 543.352 233.867C544.025 233.818 545.744 233.73 546.223 233.711V232.852C546.223 231.504 545.422 230.723 543.82 230.723C542.473 230.723 541.672 231.348 541.438 232.148H539.68C539.895 230.449 541.555 229.258 543.898 229.258C545.285 229.258 547.883 229.668 547.883 233.008V240H546.223V238.555H546.145C545.793 239.277 544.816 240.254 542.98 240.254C540.969 240.254 539.367 239.062 539.367 236.992ZM541.047 237.07C541.047 238.184 541.984 238.75 543.273 238.75C545.168 238.75 546.223 237.48 546.223 236.152V235.078C545.725 235.117 544.055 235.244 543.547 235.273C542.023 235.371 541.047 235.918 541.047 237.07ZM554.914 240.215C551.906 240.215 550.07 237.93 550.07 234.746C550.07 231.523 551.984 229.258 554.875 229.258C557.141 229.258 558.82 230.586 559.094 232.598H557.414C557.18 231.621 556.32 230.742 554.914 230.742C553.02 230.742 551.75 232.305 551.75 234.688C551.75 237.148 552.98 238.711 554.914 238.711C556.164 238.711 557.121 238.047 557.414 236.875H559.094C558.82 238.77 557.277 240.215 554.914 240.215ZM561.164 240V225.859H562.844V234.082H563.039L567.629 229.395H569.699L565.227 233.926L570.031 240H567.902L563.977 235L562.844 236.035V240H561.164ZM573.879 240L570.656 229.395H572.434L574.699 237.48H574.797L577.043 229.395H578.84L581.047 237.441H581.164L583.43 229.395H585.188L581.965 240H580.305L578 231.914H577.844L575.559 240H573.879ZM586.535 236.992C586.535 234.551 588.684 234.004 590.52 233.867C591.193 233.818 592.912 233.73 593.391 233.711V232.852C593.391 231.504 592.59 230.723 590.988 230.723C589.641 230.723 588.84 231.348 588.605 232.148H586.848C587.062 230.449 588.723 229.258 591.066 229.258C592.453 229.258 595.051 229.668 595.051 233.008V240H593.391V238.555H593.312C592.961 239.277 591.984 240.254 590.148 240.254C588.137 240.254 586.535 239.062 586.535 236.992ZM588.215 237.07C588.215 238.184 589.152 238.75 590.441 238.75C592.336 238.75 593.391 237.48 593.391 236.152V235.078C592.893 235.117 591.223 235.244 590.715 235.273C589.191 235.371 588.215 235.918 588.215 237.07ZM597.746 240V229.395H599.367V231.016H599.484C599.875 229.941 600.969 229.219 602.219 229.219C602.473 229.219 602.902 229.238 603.098 229.258V230.957C602.98 230.918 602.512 230.84 602.082 230.84C600.559 230.84 599.426 231.895 599.426 233.32V240H597.746ZM608.391 240.215C605.754 240.215 603.879 238.086 603.879 234.727C603.879 231.367 605.754 229.258 608.41 229.258C610.461 229.258 611.125 230.508 611.477 231.074H611.594V225.859H613.293V240H611.652V238.379H611.477C611.105 238.965 610.422 240.215 608.391 240.215ZM608.625 238.711C610.559 238.711 611.652 237.07 611.652 234.688C611.652 232.344 610.598 230.762 608.625 230.762C606.594 230.762 605.578 232.48 605.578 234.688C605.578 236.953 606.613 238.711 608.625 238.711Z" fill="white"/>
<path d="M648.986 157V142.859H653.791C657.111 142.859 658.615 144.695 658.615 147.215C658.615 149.08 657.775 150.555 655.979 151.18L659.162 157H657.111L654.162 151.492C654.045 151.512 653.928 151.512 653.811 151.512H650.744V157H648.986ZM650.744 149.91H653.732C655.979 149.91 656.877 148.895 656.877 147.215C656.877 145.516 655.979 144.422 653.713 144.422H650.744V149.91ZM660.939 157V146.395H662.619V157H660.939ZM661.779 144.637C661.135 144.637 660.607 144.148 660.607 143.523C660.607 142.898 661.135 142.41 661.779 142.41C662.424 142.41 662.971 142.898 662.971 143.523C662.971 144.148 662.424 144.637 661.779 144.637ZM669.592 161.199C667.033 161.199 665.295 160.086 665.1 158.113H666.857C667.092 159.188 668.088 159.734 669.592 159.734C671.408 159.734 672.521 158.953 672.521 157.195V155.047H672.385C672.033 155.633 671.35 156.844 669.299 156.844C666.721 156.844 664.787 154.891 664.787 151.551C664.787 148.289 666.662 146.258 669.318 146.258C671.369 146.258 672.033 147.508 672.424 148.074H672.561V146.395H674.201V157.293C674.201 160.027 672.17 161.199 669.592 161.199ZM669.533 155.34C671.467 155.34 672.561 153.953 672.561 151.609C672.561 149.344 671.506 147.762 669.533 147.762C667.502 147.762 666.486 149.48 666.486 151.609C666.486 153.816 667.521 155.34 669.533 155.34ZM678.557 150.633V157H676.877V142.859H678.557V148.055H678.693C679.182 146.961 680.139 146.258 681.818 146.258C683.986 146.258 685.432 147.547 685.432 150.262V157H683.752V150.379C683.752 148.719 682.834 147.762 681.311 147.762C679.729 147.762 678.557 148.797 678.557 150.633ZM692.756 146.395V147.801H690.529V153.953C690.529 155.32 691.193 155.535 691.916 155.535C692.229 155.535 692.658 155.516 692.912 155.496V157.059C692.658 157.098 692.229 157.137 691.74 157.137C690.334 157.137 688.83 156.258 688.83 154.383V147.801H687.229V146.395H688.83V143.855H690.529V146.395H692.756Z" fill="white"/>
<path d="M458.936 157V142.859H460.693V155.438H467.256V157H458.936ZM473.838 157.215C470.771 157.215 468.877 155.047 468.877 151.785C468.877 148.523 470.791 146.258 473.682 146.258C475.908 146.258 478.252 147.625 478.252 151.551V152.254H470.557C470.635 154.5 471.943 155.73 473.838 155.73C475.107 155.73 475.908 155.184 476.299 154.52H478.096C477.588 156.121 476.025 157.215 473.838 157.215ZM470.576 150.828H476.553C476.553 149.051 475.42 147.742 473.682 147.742C471.846 147.742 470.674 149.188 470.576 150.828ZM485.186 146.395V147.801H482.842V157H481.143V147.801H479.443V146.395H481.143V144.949C481.143 143.23 482.295 142.195 484.17 142.195C484.58 142.195 485.068 142.254 485.42 142.312V143.816C485.068 143.758 484.756 143.738 484.541 143.738C483.369 143.738 482.842 144.227 482.842 145.32V146.395H485.186ZM491.807 146.395V147.801H489.58V153.953C489.58 155.32 490.244 155.535 490.967 155.535C491.279 155.535 491.709 155.516 491.963 155.496V157.059C491.709 157.098 491.279 157.137 490.791 157.137C489.385 157.137 487.881 156.258 487.881 154.383V147.801H486.279V146.395H487.881V143.855H489.58V146.395H491.807Z" fill="white"/>
</svg>
