<svg width="68" height="68" viewBox="0 0 68 68" fill="none" xmlns="http://www.w3.org/2000/svg">
<g filter="url(#filter0_d_588_2119)">
<path d="M28.2612 18.6959L6.32 2.24C6.18815 2.14111 6 2.23519 6 2.4V49.4614C6 49.5448 6.05171 49.6194 6.12977 49.6487L28.3041 57.964C28.3643 57.9866 28.4317 57.9789 28.4852 57.9432L45.0891 46.874C45.1562 46.8292 45.2438 46.8292 45.3109 46.874L61.6891 57.7927C61.822 57.8813 62 57.786 62 57.6263V18.8828C62 18.8298 61.9789 18.7789 61.9414 18.7414L45.3414 2.14142C45.2633 2.06332 45.1367 2.06332 45.0586 2.14142L28.5227 18.6773C28.4523 18.7477 28.3409 18.7556 28.2612 18.6959Z" stroke="white" stroke-width="3" shape-rendering="crispEdges"/>
</g>
<path d="M26.8999 24.3999C26.8999 25.2283 27.5715 25.8999 28.3999 25.8999C29.2283 25.8999 29.8999 25.2283 29.8999 24.3999L26.8999 24.3999ZM29.8999 24.3999L29.8999 18.7999L26.8999 18.7999L26.8999 24.3999L29.8999 24.3999Z" fill="white"/>
<path d="M46.7002 41.2C46.7002 40.3715 46.0286 39.7 45.2002 39.7C44.3718 39.7 43.7002 40.3715 43.7002 41.2L46.7002 41.2ZM43.7002 41.2L43.7002 46.8L46.7002 46.8L46.7002 41.2L43.7002 41.2Z" fill="white"/>
<path d="M43.7002 18.8C43.7002 19.6285 44.3718 20.3 45.2002 20.3C46.0286 20.3 46.7002 19.6285 46.7002 18.8L43.7002 18.8ZM46.7002 18.8L46.7002 2.00005L43.7002 2.00005L43.7002 18.8L46.7002 18.8Z" fill="white"/>
<path d="M29.8999 46.8C29.8999 45.9716 29.2283 45.3 28.3999 45.3C27.5715 45.3 26.8999 45.9716 26.8999 46.8L29.8999 46.8ZM26.8999 46.8L26.8999 58L29.8999 58L29.8999 46.8L26.8999 46.8Z" fill="white"/>
<path d="M25.9173 32.2351C25.9173 32.8231 25.7586 33.3551 25.4413 33.8311C25.1239 34.3071 24.6619 34.6571 24.0553 34.8811L26.1973 38.9131H22.7253L21.0173 35.3991H19.8693V38.9131H16.7753V29.2811H22.6693C23.3599 29.2811 23.9479 29.4164 24.4333 29.6871C24.9279 29.9484 25.2966 30.3078 25.5393 30.7651C25.7913 31.2131 25.9173 31.7031 25.9173 32.2351ZM22.7673 32.3611C22.7673 32.1091 22.6833 31.8991 22.5153 31.7311C22.3473 31.5631 22.1419 31.4791 21.8993 31.4791H19.8693V33.2571H21.8993C22.1419 33.2571 22.3473 33.1731 22.5153 33.0051C22.6833 32.8278 22.7673 32.6131 22.7673 32.3611ZM27.6717 29.2811H36.0017V31.5911H30.7657V32.9211H35.2457V35.1331H30.7657V36.6031H36.0997V38.9131H27.6717V29.2811ZM42.3673 29.1131C43.7953 29.1131 44.9246 29.4724 45.7553 30.1911C46.5859 30.9004 47.0013 31.9178 47.0013 33.2431H44.0473C44.0473 32.6831 43.8979 32.2398 43.5993 31.9131C43.3099 31.5864 42.8946 31.4231 42.3533 31.4231C41.7279 31.4231 41.2659 31.6191 40.9673 32.0111C40.6779 32.4031 40.5333 32.9491 40.5333 33.6491V34.5451C40.5333 35.2358 40.6779 35.7818 40.9673 36.1831C41.2659 36.5751 41.7186 36.7711 42.3253 36.7711C42.9226 36.7711 43.3753 36.6171 43.6833 36.3091C43.9913 36.0011 44.1453 35.5671 44.1453 35.0071H47.0013C47.0013 36.3231 46.5953 37.3311 45.7833 38.0311C44.9806 38.7311 43.8419 39.0811 42.3673 39.0811C40.7246 39.0811 39.4786 38.6611 38.6293 37.8211C37.7893 36.9811 37.3693 35.7398 37.3693 34.0971C37.3693 32.4544 37.7893 31.2131 38.6293 30.3731C39.4786 29.5331 40.7246 29.1131 42.3673 29.1131Z" fill="white"/>
<path d="M53.4783 26.7392C53.4783 27.7477 52.6608 28.5653 51.6523 28.5653C50.6437 28.5653 49.8262 27.7477 49.8262 26.7392C49.8262 25.7307 50.6437 24.9131 51.6523 24.9131C52.6608 24.9131 53.4783 25.7307 53.4783 26.7392Z" fill="white"/>
<defs>
<filter id="filter0_d_588_2119" x="0.5" y="0.582825" width="67" height="66.8939" filterUnits="userSpaceOnUse" color-interpolation-filters="sRGB">
<feFlood flood-opacity="0" result="BackgroundImageFix"/>
<feColorMatrix in="SourceAlpha" type="matrix" values="0 0 0 0 0 0 0 0 0 0 0 0 0 0 0 0 0 0 127 0" result="hardAlpha"/>
<feOffset dy="4"/>
<feGaussianBlur stdDeviation="2"/>
<feComposite in2="hardAlpha" operator="out"/>
<feColorMatrix type="matrix" values="0 0 0 0 0 0 0 0 0 0 0 0 0 0 0 0 0 0 0.25 0"/>
<feBlend mode="normal" in2="BackgroundImageFix" result="effect1_dropShadow_588_2119"/>
<feBlend mode="normal" in="SourceGraphic" in2="effect1_dropShadow_588_2119" result="shape"/>
</filter>
</defs>
</svg>
