<svg width="80" height="80" viewBox="0 0 80 80" fill="none" xmlns="http://www.w3.org/2000/svg">
<path d="M80 40C80 62.0914 62.0914 80 40 80C17.9086 80 0 62.0914 0 40C0 17.9086 17.9086 0 40 0C62.0914 0 80 17.9086 80 40Z" fill="white"/>
<path d="M39.5 16C51.9264 16 62 25.9777 62 38.2857C62 47.5101 54.901 57.1783 41 67.5048C40.1111 68.1651 38.8889 68.1651 38 67.5048C24.099 57.1783 17 47.5101 17 38.2857C17 25.9777 27.0736 16 39.5 16ZM39.5 30.8571C35.3579 30.8571 32 34.183 32 38.2857C32 42.3884 35.3579 45.7143 39.5 45.7143C43.6421 45.7143 47 42.3884 47 38.2857C47 34.183 43.6421 30.8571 39.5 30.8571Z" fill="black"/>
</svg>
