<svg width="219" height="151" viewBox="0 0 219 151" fill="none" xmlns="http://www.w3.org/2000/svg">
<path d="M73.9294 86.9805V2.77002H139.912L155.508 29.0858V86.9805H73.9294Z" stroke="white" stroke-width="3"/>
<rect x="88.3269" y="2.77002" width="4.79876" height="18.4211" rx="1" fill="white"/>
<rect x="105.12" y="2.77002" width="4.79876" height="18.4211" rx="1" fill="white"/>
<rect x="121.916" y="2.77002" width="4.79876" height="18.4211" rx="1" fill="white"/>
<rect x="82.627" y="49.0081" width="64.1827" height="28.5789" rx="1.5" stroke="white" stroke-width="3"/>
<g filter="url(#filter0_d_609_87)">
<path d="M160 2L60 102" stroke="white" stroke-width="3" stroke-linecap="round"/>
</g>
<path d="M52.6787 122.789V144H50.1592L38.6748 127.477H38.4697V144H35.833V122.789H38.3818L49.8662 139.342H50.0713V122.789H52.6787ZM63.5479 144.322C59.2119 144.322 56.2822 141.07 56.2822 136.119C56.2822 131.168 59.2119 127.887 63.5479 127.887C67.8545 127.887 70.7549 131.168 70.7549 136.119C70.7549 141.07 67.8545 144.322 63.5479 144.322ZM63.5479 142.096C66.7412 142.096 68.2354 139.283 68.2354 136.119C68.2354 132.955 66.7412 130.113 63.5479 130.113C60.2959 130.113 58.8018 132.955 58.8018 136.119C58.8018 139.283 60.2959 142.096 63.5479 142.096ZM93.4893 128.121C93.2549 126.041 91.3506 124.84 88.8018 124.84C85.9893 124.84 84.1436 126.305 84.1436 128.326C84.1436 130.553 86.6338 131.373 88.2451 131.783L90.3545 132.369C92.6396 132.955 96.3604 134.273 96.3604 138.229C96.3604 141.686 93.5771 144.381 88.6553 144.381C84.085 144.381 81.2432 142.008 81.0088 138.492H83.7041C83.9385 140.865 86.1357 141.979 88.6553 141.979C91.585 141.979 93.7822 140.484 93.7822 138.17C93.7822 136.119 91.8193 135.328 89.5928 134.684L86.9854 133.98C83.6455 133.014 81.5947 131.314 81.5947 128.443C81.5947 124.869 84.7881 122.496 88.8896 122.496C92.9912 122.496 95.9502 124.898 96.0674 128.121H93.4893ZM106.731 144H100.14V122.789H106.995C113.177 122.789 116.839 126.773 116.839 133.365C116.839 139.986 113.177 144 106.731 144ZM102.776 141.656H106.556C111.771 141.656 114.261 138.521 114.261 133.365C114.261 128.238 111.771 125.133 106.819 125.133H102.776V141.656ZM134.417 144.322C129.905 144.322 127.151 140.895 127.151 136.119C127.151 131.285 130.022 127.887 134.358 127.887C137.757 127.887 140.276 129.879 140.687 132.896H138.167C137.815 131.432 136.526 130.113 134.417 130.113C131.575 130.113 129.671 132.457 129.671 136.031C129.671 139.723 131.517 142.066 134.417 142.066C136.292 142.066 137.728 141.07 138.167 139.312H140.687C140.276 142.154 137.962 144.322 134.417 144.322ZM143.03 139.488C143.03 135.826 146.253 135.006 149.007 134.801C150.018 134.728 152.596 134.596 153.313 134.566V133.277C153.313 131.256 152.112 130.084 149.71 130.084C147.688 130.084 146.487 131.021 146.136 132.223H143.499C143.821 129.674 146.312 127.887 149.827 127.887C151.907 127.887 155.804 128.502 155.804 133.512V144H153.313V141.832H153.196C152.669 142.916 151.204 144.381 148.45 144.381C145.433 144.381 143.03 142.594 143.03 139.488ZM145.55 139.605C145.55 141.275 146.956 142.125 148.89 142.125C151.731 142.125 153.313 140.221 153.313 138.229V136.617C152.566 136.676 150.062 136.866 149.3 136.91C147.015 137.057 145.55 137.877 145.55 139.605ZM159.847 144V128.092H162.278V130.523H162.454C163.04 128.912 164.681 127.828 166.556 127.828C166.937 127.828 167.581 127.857 167.874 127.887V130.436C167.698 130.377 166.995 130.26 166.351 130.26C164.065 130.26 162.366 131.842 162.366 133.98V144H159.847ZM175.813 144.322C171.858 144.322 169.046 141.129 169.046 136.09C169.046 131.051 171.858 127.887 175.843 127.887C178.919 127.887 179.915 129.762 180.442 130.611H180.618V122.789H183.167V144H180.706V141.568H180.442C179.886 142.447 178.86 144.322 175.813 144.322ZM176.165 142.066C179.065 142.066 180.706 139.605 180.706 136.031C180.706 132.516 179.124 130.143 176.165 130.143C173.118 130.143 171.595 132.721 171.595 136.031C171.595 139.43 173.147 142.066 176.165 142.066Z" fill="white"/>
<defs>
<filter id="filter0_d_609_87" x="54.5" y="0.5" width="111" height="111" filterUnits="userSpaceOnUse" color-interpolation-filters="sRGB">
<feFlood flood-opacity="0" result="BackgroundImageFix"/>
<feColorMatrix in="SourceAlpha" type="matrix" values="0 0 0 0 0 0 0 0 0 0 0 0 0 0 0 0 0 0 127 0" result="hardAlpha"/>
<feOffset dy="4"/>
<feGaussianBlur stdDeviation="2"/>
<feComposite in2="hardAlpha" operator="out"/>
<feColorMatrix type="matrix" values="0 0 0 0 0 0 0 0 0 0 0 0 0 0 0 0 0 0 0.25 0"/>
<feBlend mode="normal" in2="BackgroundImageFix" result="effect1_dropShadow_609_87"/>
<feBlend mode="normal" in="SourceGraphic" in2="effect1_dropShadow_609_87" result="shape"/>
</filter>
</defs>
</svg>
