<svg width="59" height="57" viewBox="0 0 59 57" fill="none" xmlns="http://www.w3.org/2000/svg">
<path d="M10 50.5099C10 53.4417 7.93166 55.5 5.75 55.5C3.56834 55.5 1.5 53.4417 1.5 50.5099C1.5 47.5781 3.56834 45.5198 5.75 45.5198C7.93166 45.5198 10 47.5781 10 50.5099Z" stroke="white" stroke-width="3"/>
<path d="M9 6.77222H25L41 21.4455H9V36.1188H57V50.792H9" stroke="white" stroke-width="3"/>
<path d="M10 6.4901C10 9.42192 7.93166 11.4802 5.75 11.4802C3.56834 11.4802 1.5 9.42192 1.5 6.4901C1.5 3.55828 3.56834 1.5 5.75 1.5C7.93166 1.5 10 3.55828 10 6.4901Z" stroke="white" stroke-width="3"/>
</svg>
