<svg width="57" height="57" viewBox="0 0 57 57" fill="none" xmlns="http://www.w3.org/2000/svg">
<path d="M5.94775 9.62988V47.274H28.7478V9.62988H51.5478V47.274" stroke="white" stroke-width="3"/>
<path d="M9.5 5.40517C9.5 7.53745 7.73384 9.31034 5.5 9.31034C3.26616 9.31034 1.5 7.53745 1.5 5.40517C1.5 3.27289 3.26616 1.5 5.5 1.5C7.73384 1.5 9.5 3.27289 9.5 5.40517Z" stroke="white" stroke-width="3"/>
<path d="M55.5 51.5949C55.5 53.7271 53.7338 55.5 51.5 55.5C49.2662 55.5 47.5 53.7271 47.5 51.5949C47.5 49.4626 49.2662 47.6897 51.5 47.6897C53.7338 47.6897 55.5 49.4626 55.5 51.5949Z" stroke="white" stroke-width="3"/>
</svg>
