<svg width="364" height="190" viewBox="0 0 364 190" fill="none" xmlns="http://www.w3.org/2000/svg">
<path d="M320.562 54.9741C315.649 54.9834 309.934 49.9011 307.692 47.3589L272.923 102.938C275.978 122.081 291.012 120.729 298.147 117.66L320.562 54.9741Z" fill="white" stroke="black" stroke-width="0.5"/>
<path d="M359.042 44.7619C359.042 69.344 339.016 89.2738 314.311 89.2738C289.605 89.2738 269.58 69.344 269.58 44.7619C269.58 20.1798 289.605 0.25 314.311 0.25C339.016 0.25 359.042 20.1798 359.042 44.7619Z" stroke="white" stroke-width="0.5"/>
<path d="M355.23 44.7622C355.23 67.2503 336.91 85.4817 314.31 85.4817C291.71 85.4817 273.391 67.2503 273.391 44.7622C273.391 22.274 291.71 4.04258 314.31 4.04258C336.91 4.04258 355.23 22.274 355.23 44.7622Z" stroke="white" stroke-width="0.3"/>
<path d="M343.396 44.7619C343.396 60.7453 330.375 73.7044 314.311 73.7044C298.246 73.7044 285.225 60.7453 285.225 44.7619C285.225 28.7785 298.246 15.8193 314.311 15.8193C330.375 15.8193 343.396 28.7785 343.396 44.7619Z" stroke="white" stroke-width="0.5"/>
<path d="M333.617 44.7615C333.617 55.3707 324.975 63.9732 314.31 63.9732C303.646 63.9732 295.003 55.3707 295.003 44.7615C295.003 34.1523 303.646 25.5498 314.31 25.5498C324.975 25.5498 333.617 34.1523 333.617 44.7615Z" fill="white" stroke="black" stroke-width="0.5"/>
<rect width="22.5073" height="106.692" transform="matrix(0.94973 0.319894 -0.38191 0.922024 298.206 46.4004)" fill="url(#paint0_linear_1837_18024)" fill-opacity="0.8"/>
<path d="M260.073 168.568L289.037 154.653L247.902 141.131L260.073 168.568Z" fill="url(#paint1_linear_1837_18024)" fill-opacity="0.8"/>
<path d="M43.4381 54.9741C48.3514 54.9834 54.0655 49.9011 56.3084 47.3589L91.0768 102.938C88.0224 122.081 72.9883 120.729 65.8531 117.66L43.4381 54.9741Z" fill="white" stroke="black" stroke-width="0.5"/>
<path d="M4.95829 44.7619C4.95829 69.344 24.9839 89.2738 49.6894 89.2738C74.3948 89.2738 94.4204 69.344 94.4204 44.7619C94.4204 20.1798 74.3948 0.25 49.6894 0.25C24.9839 0.25 4.95829 20.1798 4.95829 44.7619Z" stroke="white" stroke-width="0.5"/>
<path d="M8.76996 44.7622C8.76996 67.2503 27.0896 85.4817 49.6896 85.4817C72.2896 85.4817 90.6093 67.2503 90.6093 44.7622C90.6093 22.274 72.2896 4.04258 49.6896 4.04258C27.0896 4.04258 8.76996 22.274 8.76996 44.7622Z" stroke="white" stroke-width="0.3"/>
<path d="M20.604 44.7619C20.604 60.7453 33.6248 73.7044 49.6894 73.7044C65.754 73.7044 78.7749 60.7453 78.7749 44.7619C78.7749 28.7785 65.754 15.8193 49.6894 15.8193C33.6248 15.8193 20.604 28.7785 20.604 44.7619Z" stroke="white" stroke-width="0.5"/>
<path d="M30.3826 44.7615C30.3826 55.3707 39.0255 63.9732 49.6896 63.9732C60.3537 63.9732 68.9966 55.3707 68.9966 44.7615C68.9966 34.1523 60.3537 25.5498 49.6896 25.5498C39.0255 25.5498 30.3826 34.1523 30.3826 44.7615Z" fill="white" stroke="black" stroke-width="0.5"/>
<rect width="22.5073" height="106.692" transform="matrix(-0.94973 0.319894 0.38191 0.922024 65.7939 46.4004)" fill="url(#paint2_linear_1837_18024)" fill-opacity="0.8"/>
<path d="M103.927 168.568L74.9631 154.653L116.098 141.131L103.927 168.568Z" fill="url(#paint3_linear_1837_18024)" fill-opacity="0.8"/>
<defs>
<linearGradient id="paint0_linear_1837_18024" x1="11.2537" y1="0" x2="11.2537" y2="106.692" gradientUnits="userSpaceOnUse">
<stop stop-color="white"/>
<stop offset="1" stop-color="#00C2FF"/>
</linearGradient>
<linearGradient id="paint1_linear_1837_18024" x1="260.073" y1="168.568" x2="267.025" y2="147.417" gradientUnits="userSpaceOnUse">
<stop stop-color="white"/>
<stop offset="1" stop-color="#00C2FF"/>
</linearGradient>
<linearGradient id="paint2_linear_1837_18024" x1="11.2537" y1="0" x2="11.2537" y2="106.692" gradientUnits="userSpaceOnUse">
<stop stop-color="white"/>
<stop offset="1" stop-color="#00C2FF"/>
</linearGradient>
<linearGradient id="paint3_linear_1837_18024" x1="103.927" y1="168.568" x2="96.975" y2="147.417" gradientUnits="userSpaceOnUse">
<stop stop-color="white"/>
<stop offset="1" stop-color="#00C2FF"/>
</linearGradient>
</defs>
</svg>
