<svg width="57" height="57" viewBox="0 0 57 57" fill="none" xmlns="http://www.w3.org/2000/svg">
<path d="M46.5292 8.21313H16.3738C13.6124 8.21313 11.3738 10.4517 11.3738 13.2131V26.2098C11.3738 28.9713 13.6124 31.2098 16.3738 31.2098H41.5292C44.2906 31.2098 46.5292 33.4484 46.5292 36.2098V46.332C46.5292 49.0934 44.2906 51.332 41.5292 51.332H11.3738" stroke="white" stroke-width="3"/>
<path d="M55.5 6.53216C55.5 9.30942 53.245 11.5643 50.459 11.5643C47.673 11.5643 45.418 9.30942 45.418 6.53216C45.418 3.75489 47.673 1.5 50.459 1.5C53.245 1.5 55.5 3.75489 55.5 6.53216Z" stroke="white" stroke-width="3"/>
<path d="M11.582 50.4679C11.582 53.2452 9.32701 55.5001 6.54102 55.5001C3.75502 55.5001 1.5 53.2452 1.5 50.4679C1.5 47.6907 3.75502 45.4358 6.54102 45.4358C9.32701 45.4358 11.582 47.6907 11.582 50.4679Z" stroke="white" stroke-width="3"/>
</svg>
