<svg width="33" height="24" viewBox="0 0 33 24" fill="none" xmlns="http://www.w3.org/2000/svg">
<path d="M27.4468 11.1223H22.3856V7.0734H18.8428L24.9162 1L30.4835 7.0734H27.4468V11.1223Z" fill="#D9D9D9" stroke="#DFDFDF"/>
<path d="M27.9528 12.6406H21.8794V14.159H27.9528V12.6406Z" fill="#D9D9D9"/>
<path d="M21.8794 16.6902V15.1719H27.9528V16.6902H21.8794Z" fill="#D9D9D9"/>
<path d="M7.53664 6.56908L12.5978 6.56908L12.5978 10.618L16.1406 10.618L10.0672 16.6914L4.49995 10.618L7.53664 10.618L7.53664 6.56908Z" fill="#D9D9D9" stroke="#DFDFDF"/>
<path d="M7.03061 5.05078L13.104 5.05078L13.104 3.53243L7.03061 3.53243L7.03061 5.05078Z" fill="#D9D9D9"/>
<path d="M13.104 1.00118L13.104 2.51953L7.03061 2.51953L7.03061 1.00118L13.104 1.00118Z" fill="#D9D9D9"/>
<path d="M1 11V22.5H32V11" stroke="#D9D9D9" stroke-width="2"/>
</svg>
