<svg width="453" height="454" viewBox="0 0 453 454" fill="none" xmlns="http://www.w3.org/2000/svg">
<circle cx="226.5" cy="226.5" r="225.5" stroke="white" stroke-width="2"/>
<line x1="175.773" y1="401.388" x2="157.842" y2="439.368" stroke="white" stroke-width="2"/>
<line x1="239.967" y1="10.1678" x2="237.024" y2="39.0354" stroke="white" stroke-width="2"/>
<line x1="249.636" y1="12.1136" x2="247.36" y2="41.0414" stroke="white" stroke-width="2"/>
<line x1="260.531" y1="14.2774" x2="256.448" y2="43.006" stroke="white" stroke-width="2"/>
<line x1="270.761" y1="16.3286" x2="266.215" y2="44.9874" stroke="white" stroke-width="2"/>
<line x1="288.68" y1="15.2551" x2="277.967" y2="55.8659" stroke="white" stroke-width="2"/>
<line x1="299.911" y1="27.5617" x2="291.547" y2="55.3474" stroke="white" stroke-width="2"/>
<line x1="309.811" y1="32.3483" x2="299.932" y2="59.6319" stroke="white" stroke-width="2"/>
<line x1="319.515" y1="37.09" x2="308.516" y2="63.9417" stroke="white" stroke-width="2"/>
<line x1="329.126" y1="41.8058" x2="317.194" y2="68.2559" stroke="white" stroke-width="2"/>
<line x1="343.084" y1="35.5053" x2="321.862" y2="71.7496" stroke="white" stroke-width="2"/>
<line x1="350.599" y1="50.3746" x2="335.083" y2="74.8951" stroke="white" stroke-width="2"/>
<line x1="358.218" y1="57.1519" x2="342.702" y2="81.6725" stroke="white" stroke-width="2"/>
<line x1="365.837" y1="63.9331" x2="350.321" y2="88.4537" stroke="white" stroke-width="2"/>
<line x1="374.208" y1="71.304" x2="357.113" y2="94.7507" stroke="white" stroke-width="2"/>
<line x1="389.446" y1="71.6351" x2="362.773" y2="104.078" stroke="white" stroke-width="2"/>
<line x1="394.522" y1="87.5051" x2="375.332" y2="109.271" stroke="white" stroke-width="2"/>
<line x1="400.977" y1="95.3996" x2="381.787" y2="117.165" stroke="white" stroke-width="2"/>
<line x1="407.432" y1="103.294" x2="388.242" y2="125.06" stroke="white" stroke-width="2"/>
<line x1="415.328" y1="112.893" x2="393.034" y2="131.467" stroke="white" stroke-width="2"/>
<line x1="425.066" y1="124.846" x2="389.533" y2="147.238" stroke="white" stroke-width="2"/>
<line x1="424.885" y1="141.508" x2="399.816" y2="156.123" stroke="white" stroke-width="2"/>
<line x1="428.527" y1="151.036" x2="403.459" y2="165.651" stroke="white" stroke-width="2"/>
<line x1="432.757" y1="161.926" x2="406.327" y2="173.905" stroke="white" stroke-width="2"/>
<line x1="436.898" y1="173.098" x2="409.24" y2="181.873" stroke="white" stroke-width="2"/>
<line y1="-1" x2="42.0168" y2="-1" transform="matrix(-0.997912 0.0645909 -0.0522344 -0.998635 449.893 190)" stroke="white" stroke-width="2"/>
<line y1="-1" x2="29.0238" y2="-1" transform="matrix(-0.99883 -0.0483595 0.0390957 -0.999235 444.709 207.211)" stroke="white" stroke-width="2"/>
<line y1="-1" x2="29.0182" y2="-1" transform="matrix(-0.999743 -0.0226837 0.0183326 -0.999832 443.305 218.074)" stroke="white" stroke-width="2"/>
<line y1="-1" x2="29.0409" y2="-1" transform="matrix(-0.995739 -0.092211 0.0746269 -0.997211 441.842 230.316)" stroke="white" stroke-width="2"/>
<line y1="-1" x2="29.051" y2="-1" transform="matrix(-0.993926 -0.110055 0.0891239 -0.996021 440.404 241.812)" stroke="white" stroke-width="2"/>
<line x1="447.224" y1="260.11" x2="400.787" y2="249.976" stroke="white" stroke-width="2"/>
<line y1="-1" x2="29.2023" y2="-1" transform="matrix(-0.966523 -0.256579 0.209753 -0.977754 436.838 275.41)" stroke="white" stroke-width="2"/>
<line y1="-1" x2="29.2963" y2="-1" transform="matrix(-0.949315 -0.314327 0.25848 -0.966017 432.686 286.73)" stroke="white" stroke-width="2"/>
<line y1="-1" x2="29.3781" y2="-1" transform="matrix(-0.934209 -0.356726 0.294857 -0.955541 428.557 297.828)" stroke="white" stroke-width="2"/>
<line y1="-1" x2="29.4545" y2="-1" transform="matrix(-0.920019 -0.391875 0.325468 -0.945553 424.439 308.82)" stroke="white" stroke-width="2"/>
<line y1="-1" x2="43.0168" y2="-1" transform="matrix(-0.869795 -0.493414 0.416721 -0.909034 426.637 323.961)" stroke="white" stroke-width="2"/>
<line y1="-1" x2="29.8157" y2="-1" transform="matrix(-0.851244 -0.524771 0.44591 -0.895078 414.258 334.281)" stroke="white" stroke-width="2"/>
<line y1="-1" x2="29.8157" y2="-1" transform="matrix(-0.851244 -0.524771 0.44591 -0.895078 407.936 343.184)" stroke="white" stroke-width="2"/>
<line y1="-1" x2="29.8157" y2="-1" transform="matrix(-0.851244 -0.524771 0.44591 -0.895078 401.609 352.082)" stroke="white" stroke-width="2"/>
<line y1="-1" x2="30.0094" y2="-1" transform="matrix(-0.813082 -0.582149 0.500805 -0.86556 394.795 361.891)" stroke="white" stroke-width="2"/>
<line y1="-1" x2="43.6965" y2="-1" transform="matrix(-0.776657 -0.629923 0.54818 -0.836361 392.396 376.871)" stroke="white" stroke-width="2"/>
<line y1="-1" x2="30.2989" y2="-1" transform="matrix(-0.753944 -0.656938 0.57573 -0.81764 376.875 380.559)" stroke="white" stroke-width="2"/>
<line y1="-1" x2="30.2989" y2="-1" transform="matrix(-0.753944 -0.656938 0.57573 -0.81764 369.367 388.234)" stroke="white" stroke-width="2"/>
<line y1="-1" x2="30.2989" y2="-1" transform="matrix(-0.687067 -0.726594 0.651907 -0.758299 360.846 396.969)" stroke="white" stroke-width="2"/>
<line y1="-1" x2="30.7976" y2="-1" transform="matrix(-0.644134 -0.764913 0.692395 -0.721518 352.85 405.422)" stroke="white" stroke-width="2"/>
<line y1="-1" x2="45.1806" y2="-1" transform="matrix(-0.540449 -0.841377 0.782826 -0.622241 341.568 417.121)" stroke="white" stroke-width="2"/>
<line y1="-1" x2="31.3177" y2="-1" transform="matrix(-0.512373 -0.858763 0.80449 -0.593967 324.943 418.027)" stroke="white" stroke-width="2"/>
<line y1="-1" x2="31.3177" y2="-1" transform="matrix(-0.512373 -0.858763 0.80449 -0.593967 315.645 422.688)" stroke="white" stroke-width="2"/>
<line y1="-1" x2="31.3177" y2="-1" transform="matrix(-0.512373 -0.858763 0.80449 -0.593967 306.346 427.344)" stroke="white" stroke-width="2"/>
<line y1="-1" x2="31.3177" y2="-1" transform="matrix(-0.512373 -0.858763 0.80449 -0.593967 297.047 432)" stroke="white" stroke-width="2"/>
<line y1="-1" x2="45.1806" y2="-1" transform="matrix(-0.347327 -0.937744 0.898107 -0.439777 283.58 441.367)" stroke="white" stroke-width="2"/>
<line y1="-1" x2="31.3177" y2="-1" transform="matrix(-0.189311 -0.981917 0.958673 -0.284511 265.533 441.219)" stroke="white" stroke-width="2"/>
<line y1="-1" x2="31.3177" y2="-1" transform="matrix(-0.189311 -0.981917 0.958673 -0.284511 255.203 442.434)" stroke="white" stroke-width="2"/>
<line y1="-1" x2="31.3177" y2="-1" transform="matrix(-0.189311 -0.981917 0.958673 -0.284511 244.873 443.645)" stroke="white" stroke-width="2"/>
<line y1="-1" x2="31.3177" y2="-1" transform="matrix(-0.189311 -0.981917 0.958673 -0.284511 234.545 444.855)" stroke="white" stroke-width="2"/>
<line y1="-1" x2="45.1806" y2="-1" transform="matrix(0.0385197 -0.999258 0.998072 -0.0620619 219.629 453.242)" stroke="white" stroke-width="2"/>
<line y1="-1" x2="31.3177" y2="-1" transform="matrix(0.242235 -0.970218 0.989268 0.146109 206.379 446.043)" stroke="white" stroke-width="2"/>
<line y1="-1" x2="31.3177" y2="-1" transform="matrix(0.29302 -0.956106 0.980196 0.198031 195.574 442.988)" stroke="white" stroke-width="2"/>
<line y1="-1" x2="31.3177" y2="-1" transform="matrix(0.343144 -0.939283 0.968359 0.249561 184.785 439.883)" stroke="white" stroke-width="2"/>
<line y1="-1" x2="31.3177" y2="-1" transform="matrix(0.422168 -0.906517 0.943486 0.331413 173.543 436.531)" stroke="white" stroke-width="2"/>
<line y1="-1" x2="41" y2="-1" transform="matrix(0 1 1 0 225 3)" stroke="white" stroke-width="2"/>
<line y1="-1" x2="28.5105" y2="-1" transform="matrix(0.101441 0.994842 0.994842 -0.101441 210.289 10.6445)" stroke="white" stroke-width="2"/>
<line y1="-1" x2="28.5105" y2="-1" transform="matrix(0.0784332 0.996919 0.996919 -0.0784332 200.791 12.582)" stroke="white" stroke-width="2"/>
<line y1="-1" x2="28.5105" y2="-1" transform="matrix(0.140708 0.990051 0.990051 -0.140708 190.08 14.6445)" stroke="white" stroke-width="2"/>
<line y1="-1" x2="28.5105" y2="-1" transform="matrix(0.156683 0.987649 0.987649 -0.156683 180.025 16.6445)" stroke="white" stroke-width="2"/>
<line y1="-1" x2="41.2665" y2="-1" transform="matrix(0.25506 0.966925 0.966925 -0.25506 164.348 13.5469)" stroke="white" stroke-width="2"/>
<line y1="-1" x2="28.5105" y2="-1" transform="matrix(0.288231 0.957561 0.957561 -0.288231 153.303 25.6055)" stroke="white" stroke-width="2"/>
<line y1="-1" x2="28.5105" y2="-1" transform="matrix(0.340473 0.940254 0.940254 -0.340473 143.559 30.2578)" stroke="white" stroke-width="2"/>
<line y1="-1" x2="28.5105" y2="-1" transform="matrix(0.37906 0.925372 0.925372 -0.37906 134.01 34.875)" stroke="white" stroke-width="2"/>
<line y1="-1" x2="28.5105" y2="-1" transform="matrix(0.411227 0.911533 0.911533 -0.411227 124.553 39.4766)" stroke="white" stroke-width="2"/>
<line y1="-1" x2="41.2665" y2="-1" transform="matrix(0.505273 0.86296 0.86296 -0.505273 110.791 33.1953)" stroke="white" stroke-width="2"/>
<line y1="-1" x2="28.5105" y2="-1" transform="matrix(0.534712 0.845034 0.845034 -0.534712 103.391 47.7773)" stroke="white" stroke-width="2"/>
<line y1="-1" x2="28.5105" y2="-1" transform="matrix(0.534712 0.845034 0.845034 -0.534712 95.9043 54.4375)" stroke="white" stroke-width="2"/>
<line y1="-1" x2="28.5105" y2="-1" transform="matrix(0.534712 0.845034 0.845034 -0.534712 88.418 61.0977)" stroke="white" stroke-width="2"/>
<line y1="-1" x2="28.5105" y2="-1" transform="matrix(0.589147 0.808026 0.808026 -0.589147 80.1562 68.2852)" stroke="white" stroke-width="2"/>
<line y1="-1" x2="41.2665" y2="-1" transform="matrix(0.635084 0.772443 0.772443 -0.635084 65.1504 68.5664)" stroke="white" stroke-width="2"/>
<line y1="-1" x2="28.5105" y2="-1" transform="matrix(0.661327 0.750098 0.750098 -0.661327 60.1406 84.1328)" stroke="white" stroke-width="2"/>
<line y1="-1" x2="28.5105" y2="-1" transform="matrix(0.661327 0.750098 0.750098 -0.661327 53.7988 91.8906)" stroke="white" stroke-width="2"/>
<line y1="-1" x2="28.5105" y2="-1" transform="matrix(0.661327 0.750098 0.750098 -0.661327 47.457 99.6484)" stroke="white" stroke-width="2"/>
<line y1="-1" x2="28.5105" y2="-1" transform="matrix(0.768286 0.640107 0.640107 -0.768286 39.5898 108.977)" stroke="white" stroke-width="2"/>
<line y1="-1" x2="41.2665" y2="-1" transform="matrix(0.846031 0.533134 0.533134 -0.846031 29.916 120.641)" stroke="white" stroke-width="2"/>
<line y1="-1" x2="28.5105" y2="-1" transform="matrix(0.863901 0.503661 0.503661 -0.863901 30.0664 136.992)" stroke="white" stroke-width="2"/>
<line y1="-1" x2="28.5105" y2="-1" transform="matrix(0.863901 0.503661 0.503661 -0.863901 26.4863 146.355)" stroke="white" stroke-width="2"/>
<line y1="-1" x2="28.5105" y2="-1" transform="matrix(0.91082 0.412803 0.412803 -0.91082 22.2422 157.008)" stroke="white" stroke-width="2"/>
<line y1="-1" x2="28.5105" y2="-1" transform="matrix(0.953173 0.302425 0.302425 -0.953173 18.0645 167.945)" stroke="white" stroke-width="2"/>
<line y1="-1" x2="41.283" y2="-1" transform="matrix(0.997912 0.0645909 0.0522344 -0.998635 5 185.488)" stroke="white" stroke-width="2"/>
<line y1="-1" x2="28.5169" y2="-1" transform="matrix(0.99883 -0.0483595 -0.0390957 -0.999235 10.041 202.402)" stroke="white" stroke-width="2"/>
<line y1="-1" x2="28.5115" y2="-1" transform="matrix(0.999743 -0.0226837 -0.0183326 -0.999832 11.4199 213.074)" stroke="white" stroke-width="2"/>
<line y1="-1" x2="28.5338" y2="-1" transform="matrix(0.995739 -0.092211 -0.0746269 -0.997211 12.8574 225.102)" stroke="white" stroke-width="2"/>
<line y1="-1" x2="28.5437" y2="-1" transform="matrix(0.993926 -0.110055 -0.0891239 -0.996021 14.2695 236.395)" stroke="white" stroke-width="2"/>
<line y1="-1" x2="45.5639" y2="-1" transform="matrix(0.97935 -0.202173 -0.194817 -0.98084 2 252.211)" stroke="white" stroke-width="2"/>
<line y1="-1" x2="31.4884" y2="-1" transform="matrix(0.971657 -0.236393 -0.22792 -0.97368 14.5762 262.398)" stroke="white" stroke-width="2"/>
<line y1="-1" x2="31.5054" y2="-1" transform="matrix(0.956913 -0.290374 -0.280263 -0.959923 19.0742 273.648)" stroke="white" stroke-width="2"/>
<line y1="-1" x2="31.5202" y2="-1" transform="matrix(0.943873 -0.330307 -0.319102 -0.94772 23.5527 284.672)" stroke="white" stroke-width="2"/>
<line y1="-1" x2="31.5341" y2="-1" transform="matrix(0.931541 -0.363636 -0.351604 -0.936149 28.0156 295.59)" stroke="white" stroke-width="2"/>
<line y1="-1" x2="45.713" y2="-1" transform="matrix(0.887258 -0.461273 -0.447363 -0.894352 20.2129 313.633)" stroke="white" stroke-width="2"/>
<line y1="-1" x2="31.6001" y2="-1" transform="matrix(0.870653 -0.491897 -0.477591 -0.878583 35.8008 322.895)" stroke="white" stroke-width="2"/>
<line y1="-1" x2="31.6001" y2="-1" transform="matrix(0.870653 -0.491897 -0.477591 -0.878583 42.6543 331.738)" stroke="white" stroke-width="2"/>
<line y1="-1" x2="31.6001" y2="-1" transform="matrix(0.870653 -0.491897 -0.477591 -0.878583 49.5098 340.578)" stroke="white" stroke-width="2"/>
<line y1="-1" x2="31.6358" y2="-1" transform="matrix(0.83608 -0.548607 -0.533843 -0.845583 56.8984 350.324)" stroke="white" stroke-width="2"/>
<line y1="-1" x2="45.8384" y2="-1" transform="matrix(0.802569 -0.59656 -0.58172 -0.813389 56.2461 367.195)" stroke="white" stroke-width="2"/>
<line y1="-1" x2="31.6895" y2="-1" transform="matrix(0.781423 -0.624001 -0.609258 -0.792972 73.0703 373.836)" stroke="white" stroke-width="2"/>
<line y1="-1" x2="31.6895" y2="-1" transform="matrix(0.781423 -0.624001 -0.609258 -0.792972 81.2109 381.465)" stroke="white" stroke-width="2"/>
<line y1="-1" x2="31.6895" y2="-1" transform="matrix(0.781423 -0.624001 -0.609258 -0.792972 89.3496 389.09)" stroke="white" stroke-width="2"/>
<line y1="-1" x2="31.7829" y2="-1" transform="matrix(0.676603 -0.736348 -0.723189 -0.69065 99.1152 398.535)" stroke="white" stroke-width="2"/>
<line y1="-1" x2="46.1176" y2="-1" transform="matrix(0.573952 -0.818889 -0.808279 -0.5888 106 415.766)" stroke="white" stroke-width="2"/>
<line y1="-1" x2="31.8817" y2="-1" transform="matrix(0.545593 -0.83805 -0.82822 -0.560403 119.023 416.664)" stroke="white" stroke-width="2"/>
<line y1="-1" x2="31.8817" y2="-1" transform="matrix(0.545593 -0.83805 -0.82822 -0.560403 128.104 421.297)" stroke="white" stroke-width="2"/>
<line y1="-1" x2="31.8817" y2="-1" transform="matrix(0.545593 -0.83805 -0.82822 -0.560403 137.182 425.922)" stroke="white" stroke-width="2"/>
<line y1="-1" x2="31.8817" y2="-1" transform="matrix(0.545593 -0.83805 -0.82822 -0.560403 146.262 430.547)" stroke="white" stroke-width="2"/>
<path d="M214.64 63.54H217.04L227.78 79.77H227.84C227.8 79.19 227.77 78.57 227.75 77.91C227.71 77.35 227.68 76.71 227.66 75.99C227.66 75.25 227.66 74.5 227.66 73.74V63.54H230.06V84H227.66L216.92 67.71H216.86C216.88 68.31 216.91 68.94 216.95 69.6C216.97 70.18 216.99 70.83 217.01 71.55C217.03 72.27 217.04 73.01 217.04 73.77V84H214.64V63.54Z" fill="#F9BA1A"/>
<path d="M263.11 374.36C262.63 374.24 262.13 374.13 261.61 374.03C261.15 373.93 260.62 373.85 260.02 373.79C259.44 373.71 258.83 373.67 258.19 373.67C256.71 373.67 255.65 373.9 255.01 374.36C254.37 374.8 254.05 375.49 254.05 376.43C254.07 377.17 254.34 377.8 254.86 378.32C255.38 378.82 256.03 379.29 256.81 379.73C257.59 380.15 258.44 380.57 259.36 380.99C260.3 381.39 261.16 381.86 261.94 382.4C262.72 382.92 263.37 383.54 263.89 384.26C264.43 384.96 264.7 385.82 264.7 386.84C264.7 388.02 264.44 388.97 263.92 389.69C263.42 390.41 262.78 390.97 262 391.37C261.22 391.77 260.36 392.04 259.42 392.18C258.5 392.32 257.62 392.39 256.78 392.39C255.98 392.39 255.25 392.34 254.59 392.24C253.93 392.14 253.36 392.03 252.88 391.91C252.32 391.77 251.81 391.61 251.35 391.43L251.95 389C252.41 389.2 252.9 389.37 253.42 389.51C253.88 389.63 254.39 389.74 254.95 389.84C255.53 389.94 256.14 389.99 256.78 389.99C257.56 389.99 258.27 389.94 258.91 389.84C259.57 389.74 260.14 389.58 260.62 389.36C261.1 389.14 261.47 388.85 261.73 388.49C262.01 388.13 262.15 387.69 262.15 387.17C262.13 386.39 261.87 385.76 261.37 385.28C260.89 384.78 260.24 384.31 259.42 383.87C258.62 383.41 257.75 382.97 256.81 382.55C255.89 382.13 255.04 381.65 254.26 381.11C253.48 380.57 252.82 379.93 252.28 379.19C251.76 378.45 251.5 377.53 251.5 376.43C251.5 375.79 251.61 375.16 251.83 374.54C252.05 373.92 252.42 373.37 252.94 372.89C253.48 372.41 254.17 372.02 255.01 371.72C255.87 371.42 256.93 371.27 258.19 371.27C258.91 371.27 259.59 371.31 260.23 371.39C260.89 371.45 261.46 371.52 261.94 371.6C262.5 371.7 263.03 371.81 263.53 371.93L263.11 374.36Z" fill="#F9BA1A"/>
<path d="M394.918 191.502L396.468 203.946L394.176 204.231L392.937 194.288L386.447 195.097L387.597 204.325L385.364 204.603L384.215 195.375L377.219 196.246L378.494 206.487L376.202 206.772L374.615 194.031L394.918 191.502Z" fill="#F9BA1A"/>
<path d="M63.5755 249.278L62.6013 246.922L77.7785 236.362L77.767 236.335L59.0712 238.383L57.8563 235.444L72.5636 223.748L72.5521 223.72L54.3606 226.988L53.3864 224.631L74.0939 221.167L75.3087 224.106L60.7094 235.985L60.7209 236.013L79.4577 234.142L80.6726 237.081L63.5755 249.278Z" fill="#F9BA1A"/>
<path d="M317.37 80.28C318.27 80.28 319.11 80.4 319.89 80.64C320.61 80.86 321.27 81.24 321.87 81.78C322.43 82.28 322.86 82.86 323.16 83.52C323.48 84.22 323.64 84.96 323.64 85.74C323.64 86.42 323.55 87.03 323.37 87.57C323.19 88.09 322.94 88.56 322.62 88.98C322.34 89.34 321.94 89.68 321.42 90C321 90.26 320.48 90.49 319.86 90.69C321.26 91.05 322.32 91.67 323.04 92.55C323.74 93.39 324.09 94.48 324.09 95.82C324.09 96.78 323.9 97.67 323.52 98.49C323.14 99.33 322.64 100 322.02 100.5C321.32 101.08 320.56 101.51 319.74 101.79C318.88 102.09 317.95 102.24 316.95 102.24C315.77 102.24 314.8 102.1 314.04 101.82C313.22 101.52 312.53 101.12 311.97 100.62C311.41 100.12 310.95 99.53 310.59 98.85C310.21 98.11 309.9 97.36 309.66 96.6L310.8 96.12C310.98 96.04 311.2 96 311.46 96C311.66 96 311.83 96.04 311.97 96.12C312.13 96.22 312.24 96.36 312.3 96.54C312.3 96.56 312.31 96.58 312.33 96.6C312.35 96.62 312.36 96.64 312.36 96.66C312.36 96.68 312.37 96.71 312.39 96.75C312.41 96.77 312.42 96.79 312.42 96.81C312.46 96.91 312.62 97.24 312.9 97.8C313.1 98.2 313.37 98.54 313.71 98.82C314.03 99.08 314.46 99.34 315 99.6C315.52 99.84 316.14 99.96 316.86 99.96C317.62 99.96 318.28 99.84 318.84 99.6C319.44 99.34 319.92 99.02 320.28 98.64C320.66 98.22 320.94 97.78 321.12 97.32C321.32 96.78 321.42 96.31 321.42 95.91C321.42 95.37 321.34 94.84 321.18 94.32C321.02 93.82 320.74 93.4 320.34 93.06C319.94 92.72 319.38 92.46 318.66 92.28C317.86 92.08 316.94 91.98 315.9 91.98V90.03C316.66 90.03 317.44 89.92 318.24 89.7C318.82 89.54 319.34 89.28 319.8 88.92C320.24 88.58 320.54 88.19 320.7 87.75C320.88 87.27 320.97 86.76 320.97 86.22C320.97 85.62 320.88 85.08 320.7 84.6C320.54 84.18 320.26 83.8 319.86 83.46C319.5 83.16 319.1 82.94 318.66 82.8C318.14 82.64 317.64 82.56 317.16 82.56C316.58 82.56 316.08 82.64 315.66 82.8C315.12 83 314.71 83.22 314.43 83.46C314.05 83.78 313.75 84.12 313.53 84.48C313.29 84.88 313.11 85.31 312.99 85.77C312.93 86.07 312.81 86.28 312.63 86.4C312.45 86.52 312.24 86.58 312 86.58H311.64L310.26 86.34C310.38 85.34 310.65 84.47 311.07 83.73C311.49 82.99 312 82.36 312.6 81.84C313.18 81.34 313.88 80.95 314.7 80.67C315.46 80.41 316.32 80.28 317.28 80.28H317.37Z" fill="white"/>
<path d="M120.366 95.1683C121.006 94.5351 121.687 94.0295 122.411 93.6513C123.077 93.3011 123.813 93.1068 124.62 93.0685C125.37 93.0298 126.083 93.1395 126.761 93.3975C127.481 93.6698 128.115 94.0832 128.664 94.6375C129.142 95.1208 129.507 95.6176 129.759 96.128C129.997 96.6242 130.15 97.1341 130.218 97.6577C130.272 98.1105 130.227 98.6335 130.083 99.2268C129.967 99.707 129.76 100.236 129.46 100.815C130.708 100.086 131.897 99.7804 133.028 99.8993C134.117 100.004 135.132 100.532 136.075 101.485C136.75 102.167 137.241 102.933 137.548 103.783C137.869 104.647 137.985 105.475 137.896 106.267C137.807 107.171 137.569 108.012 137.184 108.788C136.783 109.606 136.228 110.367 135.517 111.07C134.679 111.9 133.891 112.483 133.154 112.819C132.36 113.183 131.588 113.384 130.838 113.422C130.089 113.461 129.347 113.365 128.612 113.135C127.822 112.877 127.074 112.562 126.369 112.191L126.841 111.048C126.913 110.864 127.041 110.681 127.226 110.498C127.368 110.357 127.517 110.266 127.673 110.224C127.857 110.183 128.033 110.205 128.203 110.291C128.217 110.305 128.238 110.312 128.266 110.312C128.294 110.312 128.316 110.32 128.33 110.334C128.344 110.348 128.372 110.362 128.414 110.377C128.443 110.377 128.464 110.384 128.478 110.398C128.577 110.441 128.922 110.563 129.515 110.764C129.939 110.908 130.37 110.959 130.809 110.919C131.219 110.879 131.708 110.761 132.274 110.566C132.813 110.371 133.338 110.02 133.849 109.513C134.389 108.978 134.774 108.429 135.003 107.864C135.247 107.257 135.363 106.692 135.351 106.169C135.326 105.603 135.215 105.094 135.019 104.64C134.782 104.116 134.522 103.711 134.241 103.427C133.861 103.043 133.431 102.723 132.952 102.466C132.486 102.223 131.992 102.121 131.468 102.161C130.945 102.201 130.364 102.41 129.725 102.789C129.016 103.21 128.292 103.786 127.553 104.517L126.181 103.132C126.721 102.597 127.198 101.97 127.612 101.251C127.912 100.729 128.098 100.178 128.172 99.599C128.245 99.0478 128.184 98.5596 127.988 98.1343C127.779 97.6665 127.484 97.2408 127.104 96.857C126.682 96.4306 126.238 96.1102 125.772 95.8957C125.363 95.7098 124.897 95.6367 124.373 95.6765C123.906 95.7165 123.467 95.8416 123.056 96.0517C122.574 96.3038 122.162 96.5987 121.821 96.9364C121.409 97.3444 121.11 97.753 120.924 98.1622C120.681 98.6843 120.544 99.129 120.514 99.4966C120.469 99.9914 120.495 100.444 120.592 100.855C120.703 101.308 120.878 101.74 121.116 102.151C121.284 102.407 121.347 102.64 121.303 102.852C121.26 103.064 121.153 103.255 120.982 103.423L120.726 103.677L119.577 104.477C118.959 103.682 118.538 102.874 118.316 102.052C118.094 101.231 118.013 100.424 118.074 99.6328C118.134 98.8694 118.358 98.0997 118.743 97.3239C119.101 96.6044 119.62 95.907 120.302 95.2316L120.366 95.1683ZM131.672 83.9765C132.312 83.3434 132.993 82.8377 133.716 82.4595C134.383 82.1093 135.119 81.915 135.925 81.8767C136.675 81.8381 137.389 81.9477 138.066 82.2057C138.786 82.4781 139.42 82.8914 139.969 83.4457C140.448 83.929 140.813 84.4258 141.065 84.9362C141.303 85.4324 141.456 85.9423 141.524 86.4659C141.578 86.9187 141.533 87.4418 141.388 88.035C141.273 88.5153 141.065 89.0446 140.765 89.6229C142.013 88.8938 143.203 88.5887 144.334 88.7075C145.422 88.812 146.438 89.3404 147.38 90.2927C148.056 90.975 148.547 91.7411 148.854 92.5912C149.175 93.4555 149.291 94.2835 149.202 95.075C149.112 95.9796 148.875 96.8199 148.489 97.5958C148.089 98.414 147.534 99.1749 146.823 99.8784C145.984 100.709 145.196 101.291 144.459 101.627C143.666 101.991 142.894 102.192 142.144 102.231C141.394 102.269 140.652 102.174 139.918 101.944C139.127 101.685 138.379 101.37 137.674 100.999L138.147 99.8557C138.218 99.6723 138.347 99.4891 138.531 99.3061C138.673 99.1654 138.822 99.0743 138.978 99.0326C139.162 98.9911 139.339 99.0132 139.508 99.0989C139.522 99.1132 139.543 99.1203 139.572 99.1205C139.6 99.1206 139.621 99.1278 139.635 99.142C139.649 99.1562 139.677 99.1705 139.72 99.1849C139.748 99.185 139.769 99.1922 139.783 99.2064C139.882 99.2493 140.228 99.3713 140.821 99.5723C141.245 99.7158 141.676 99.7675 142.114 99.7273C142.525 99.687 143.013 99.5692 143.58 99.3741C144.118 99.1788 144.643 98.8279 145.155 98.3214C145.695 97.7867 146.08 97.2371 146.309 96.6726C146.552 96.0657 146.668 95.5006 146.657 94.9772C146.631 94.4114 146.521 93.9017 146.325 93.4482C146.087 92.9237 145.828 92.5194 145.546 92.2351C145.166 91.8513 144.737 91.531 144.257 91.274C143.792 91.0312 143.297 90.9297 142.774 90.9695C142.25 91.0093 141.669 91.2185 141.031 91.5971C140.322 92.0178 139.598 92.5939 138.859 93.3256L137.487 91.9398C138.027 91.4051 138.504 90.7782 138.917 90.059C139.217 89.5373 139.404 88.9867 139.477 88.4072C139.551 87.856 139.49 87.3678 139.294 86.9425C139.084 86.4748 138.789 86.049 138.409 85.6653C137.987 85.2388 137.543 84.9184 137.078 84.7039C136.669 84.518 136.202 84.4449 135.679 84.4847C135.212 84.5248 134.773 84.6498 134.362 84.8599C133.88 85.112 133.468 85.4069 133.127 85.7446C132.715 86.1526 132.416 86.5613 132.23 86.9705C131.987 87.4925 131.85 87.9373 131.82 88.3048C131.775 88.7996 131.801 89.2523 131.898 89.6629C132.009 90.116 132.183 90.5482 132.422 90.9596C132.59 91.215 132.652 91.4486 132.609 91.6605C132.565 91.8725 132.458 92.0628 132.288 92.2317L132.032 92.485L130.882 93.2853C130.264 92.4902 129.844 91.6819 129.622 90.8605C129.4 90.0392 129.319 89.2326 129.38 88.441C129.44 87.6776 129.663 86.908 130.049 86.1321C130.406 85.4126 130.926 84.7152 131.608 84.0398L131.672 83.9765Z" fill="white"/>
<path d="M375.864 158.176C376.236 159.018 376.438 159.825 376.473 160.596C376.515 161.386 376.41 162.165 376.158 162.932C375.927 163.646 375.504 164.346 374.888 165.033C374.377 165.608 373.618 166.118 372.612 166.562C371.697 166.965 370.782 167.172 369.868 167.181C368.91 167.189 368.031 167.03 367.232 166.705C366.372 166.341 365.6 165.829 364.915 165.169C364.223 164.491 363.654 163.648 363.21 162.642C362.775 161.654 362.544 160.684 362.518 159.734C362.487 158.72 362.627 157.85 362.94 157.122C363.304 156.262 363.815 155.512 364.473 154.872C365.149 154.224 366.008 153.67 367.051 153.21C367.911 152.831 368.92 152.615 370.078 152.564C371.172 152.518 372.486 152.671 374.018 153.023L382.934 155.025C383.103 155.06 383.307 155.178 383.548 155.377C383.755 155.549 383.927 155.79 384.064 156.101L385.021 158.269L373.399 155.263C373.931 155.575 374.404 155.979 374.818 156.473C375.268 156.997 375.63 157.569 375.904 158.191L375.864 158.176ZM367.653 155.764C367.104 156.006 366.577 156.348 366.072 156.789C365.633 157.18 365.292 157.647 365.051 158.191C364.869 158.621 364.775 159.176 364.769 159.856C364.769 160.402 364.923 161.023 365.23 161.719C365.512 162.359 365.884 162.905 366.346 163.357C366.842 163.838 367.327 164.171 367.802 164.355C368.303 164.549 368.871 164.648 369.507 164.652C370.098 164.654 370.704 164.517 371.327 164.243C371.985 163.952 372.523 163.584 372.938 163.139C373.419 162.643 373.733 162.165 373.88 161.707C374.077 161.161 374.158 160.601 374.123 160.026C374.096 159.47 373.941 158.871 373.659 158.231C373.368 157.572 372.992 157.016 372.531 156.564C372.111 156.159 371.612 155.844 371.032 155.619C370.504 155.414 369.94 155.324 369.339 155.349C368.782 155.376 368.22 155.514 367.653 155.764Z" fill="white"/>
<path d="M59.8901 162.504C60.2168 161.666 60.6336 160.927 61.1404 160.287C61.6067 159.696 62.2004 159.219 62.9214 158.856C63.5906 158.516 64.2871 158.325 65.011 158.285C65.7794 158.241 66.527 158.361 67.2538 158.644C67.8874 158.891 68.4231 159.196 68.8609 159.56C69.2801 159.917 69.6273 160.32 69.9025 160.771C70.1363 161.162 70.3079 161.658 70.4173 162.259C70.507 162.745 70.5326 163.313 70.4939 163.963C71.3375 162.789 72.3 162.027 73.3814 161.675C74.4182 161.328 75.5609 161.398 76.8095 161.884C77.704 162.233 78.4643 162.733 79.0904 163.385C79.7352 164.044 80.1779 164.753 80.4187 165.512C80.7051 166.375 80.8298 167.239 80.793 168.105C80.7604 169.015 80.5625 169.936 80.1995 170.868C79.7711 171.967 79.2885 172.82 78.7517 173.427C78.1745 174.082 77.5513 174.58 76.8821 174.92C76.213 175.26 75.4962 175.475 74.7319 175.563C73.9044 175.649 73.0931 175.665 72.2978 175.613L72.2644 174.376C72.2552 174.18 72.2978 173.96 72.3922 173.718C72.4648 173.531 72.5638 173.388 72.6891 173.286C72.8404 173.173 73.0108 173.122 73.2003 173.131C73.2189 173.138 73.2412 173.136 73.2671 173.125C73.293 173.114 73.3152 173.112 73.3339 173.119C73.3525 173.126 73.3841 173.128 73.4286 173.124C73.4545 173.112 73.4768 173.11 73.4954 173.117C73.6031 173.116 73.9687 173.087 74.5921 173.03C75.0375 172.988 75.4523 172.86 75.8366 172.645C76.195 172.441 76.5934 172.135 77.0317 171.726C77.4441 171.329 77.781 170.795 78.0424 170.124C78.3183 169.416 78.4461 168.757 78.4257 168.148C78.4013 167.495 78.2774 166.931 78.054 166.458C77.8006 165.951 77.4922 165.531 77.129 165.196C76.6984 164.814 76.2968 164.55 75.9241 164.405C75.4209 164.209 74.898 164.091 74.3554 164.051C73.8314 164.019 73.3384 164.127 72.8764 164.376C72.4144 164.626 71.9689 165.053 71.5398 165.659C71.063 166.331 70.6358 167.152 70.2583 168.121L68.4413 167.413C68.7172 166.705 68.8979 165.939 68.9833 165.113C69.0448 164.515 68.9913 163.936 68.8228 163.377C68.6658 162.843 68.4113 162.422 68.0594 162.113C67.6775 161.771 67.2349 161.502 66.7318 161.306C66.1727 161.088 65.6369 160.976 65.1243 160.97C64.6748 160.966 64.2191 161.089 63.7571 161.339C63.3469 161.565 62.9967 161.858 62.7065 162.217C62.3686 162.644 62.1126 163.08 61.9383 163.528C61.7278 164.068 61.6208 164.563 61.6174 165.012C61.6077 165.588 61.6639 166.05 61.7859 166.398C61.9461 166.868 62.154 167.271 62.4096 167.607C62.6951 167.976 63.0305 168.3 63.4155 168.578C63.6733 168.743 63.8254 168.931 63.8718 169.143C63.9183 169.354 63.898 169.571 63.8109 169.795L63.6802 170.13L62.9556 171.329C62.0673 170.854 61.3547 170.287 60.8177 169.627C60.2806 168.967 59.8787 168.263 59.612 167.515C59.3567 166.793 59.2474 165.999 59.2842 165.134C59.3179 164.331 59.5089 163.483 59.8574 162.588L59.8901 162.504ZM78.8911 143.98C80.6988 144.684 82.1449 145.463 83.2297 146.314C84.4304 147.254 85.2929 148.181 85.8174 149.093C86.4173 150.143 86.7403 151.159 86.7863 152.143C86.8333 153.235 86.668 154.265 86.2904 155.234C85.9129 156.203 85.3376 157.074 84.5646 157.846C83.8652 158.539 82.9396 159.069 81.7878 159.436C80.7841 159.753 79.5222 159.852 78.0021 159.732C76.6269 159.626 75.0355 159.22 73.2279 158.516C71.4202 157.812 69.974 157.034 68.8893 156.182C67.6886 155.242 66.8261 154.315 66.3016 153.403C65.7016 152.353 65.3787 151.337 65.3327 150.353C65.2857 149.261 65.451 148.231 65.8286 147.262C66.2061 146.293 66.7814 145.422 67.5544 144.65C68.2538 143.957 69.1794 143.427 70.3312 143.06C71.3349 142.743 72.5968 142.644 74.1169 142.764C75.5552 142.874 77.1503 143.27 78.902 143.952L78.8911 143.98ZM77.9171 146.563C76.4449 145.989 75.1175 145.622 73.935 145.462C72.7339 145.295 71.761 145.313 71.0163 145.516C70.1825 145.728 69.5299 146.053 69.0584 146.492C68.5611 146.942 68.1926 147.475 67.953 148.09C67.7062 148.723 67.6136 149.374 67.6753 150.042C67.7257 150.684 67.9862 151.365 68.4569 152.085C68.8563 152.713 69.5549 153.372 70.5527 154.061C71.5319 154.743 72.7576 155.371 74.2298 155.944C75.7207 156.525 77.0574 156.896 78.2399 157.056C79.4856 157.219 80.4548 157.21 81.1477 157.03C81.937 156.822 82.5803 156.493 83.0776 156.043C83.575 155.593 83.9471 155.051 84.1939 154.417C84.4408 153.784 84.5334 153.133 84.4716 152.465C84.4213 151.823 84.1608 151.142 83.69 150.422C83.2907 149.794 82.5921 149.135 81.5942 148.446C80.615 147.764 79.3893 147.136 77.9171 146.563Z" fill="white"/>
<path d="M371.783 257.063C371.652 257.318 371.442 257.406 371.152 257.328L369.994 257.015L372.997 245.893L374.156 246.206C374.445 246.284 374.583 246.467 374.568 246.752L373.762 250.885L387.896 254.703C388.475 254.859 388.907 254.986 389.191 255.084L387.035 250.524C386.928 250.308 386.905 250.085 386.968 249.853C387.041 249.583 387.202 249.409 387.451 249.331L388.799 248.825L392.462 256.433L391.899 258.519L373.074 253.434L371.783 257.063ZM369.658 258.256L370.527 258.49C370.682 258.532 370.864 258.623 371.075 258.763C371.233 258.867 371.376 259.03 371.503 259.251L376.365 267.711C376.877 268.575 377.282 269.223 377.58 269.656C377.948 270.211 378.365 270.738 378.831 271.236C379.202 271.627 379.678 272.014 380.257 272.398C380.732 272.713 381.278 272.954 381.896 273.121C382.436 273.267 382.993 273.314 383.567 273.261C384.102 273.199 384.558 273.042 384.937 272.792C385.35 272.489 385.679 272.154 385.923 271.785C386.173 271.396 386.371 270.932 386.517 270.391C386.669 269.831 386.722 269.328 386.677 268.881C386.624 268.307 386.519 267.854 386.36 267.521C386.15 267.071 385.9 266.692 385.61 266.386C385.32 266.08 384.959 265.806 384.527 265.565C384.233 265.424 384.052 265.251 383.983 265.046C383.915 264.841 383.914 264.613 383.982 264.362L384.013 264.246L384.097 264.051L384.696 262.752C385.592 263.118 386.359 263.616 386.997 264.244C387.602 264.842 388.07 265.486 388.401 266.177C388.742 266.911 388.943 267.701 389.004 268.546C389.057 269.347 388.961 270.202 388.716 271.109C388.466 272.036 388.116 272.833 387.667 273.499C387.218 274.164 386.654 274.717 385.976 275.155C385.299 275.594 384.58 275.876 383.821 276.002C383.062 276.129 382.209 276.064 381.263 275.809C380.471 275.595 379.788 275.286 379.214 274.882C378.572 274.419 378.028 273.941 377.581 273.447C377.106 272.904 376.643 272.282 376.19 271.58C375.752 270.902 375.321 270.195 374.898 269.46L370.816 262.484C370.815 262.794 370.785 263.211 370.727 263.734C370.675 264.155 370.603 264.539 370.509 264.887L368.976 270.563C369.448 270.732 369.814 270.873 370.074 270.984C370.334 271.096 370.502 271.162 370.58 271.183C370.724 271.263 370.828 271.374 370.893 271.516C370.959 271.658 370.973 271.797 370.937 271.932L370.553 273.351L367.715 272.585L365.927 272.071L369.658 258.256Z" fill="white"/>
<path d="M186.58 374.246C186.339 374.091 186.271 373.874 186.376 373.593L186.797 372.469L197.585 376.508L197.165 377.632C197.059 377.913 196.865 378.032 196.582 377.99L192.543 376.799L187.41 390.509C187.2 391.071 187.033 391.489 186.909 391.763L191.651 390.047C191.876 389.96 192.101 389.959 192.326 390.043C192.588 390.141 192.746 390.318 192.8 390.573L193.176 391.963L185.257 394.893L183.234 394.135L190.071 375.873L186.58 374.246ZM185.593 372.018L185.277 372.861C185.221 373.011 185.114 373.184 184.955 373.381C184.835 373.529 184.66 373.655 184.428 373.761L175.547 377.803C174.639 378.232 173.955 378.574 173.497 378.83C172.909 379.144 172.345 379.509 171.805 379.926C171.381 380.259 170.951 380.695 170.514 381.236C170.156 381.679 169.864 382.2 169.64 382.799C169.444 383.324 169.345 383.874 169.343 384.45C169.354 384.988 169.467 385.457 169.68 385.858C169.943 386.298 170.246 386.657 170.59 386.935C170.953 387.22 171.397 387.461 171.921 387.658C172.465 387.861 172.961 387.961 173.41 387.959C173.986 387.961 174.447 387.899 174.794 387.772C175.262 387.606 175.662 387.392 175.994 387.132C176.326 386.872 176.633 386.539 176.914 386.131C177.082 385.852 177.272 385.689 177.482 385.639C177.693 385.59 177.92 385.611 178.163 385.702L178.276 385.744L178.462 385.846L179.698 386.565C179.249 387.422 178.682 388.139 177.996 388.715C177.344 389.261 176.658 389.666 175.94 389.931C175.177 390.2 174.371 390.326 173.524 390.308C172.721 390.285 171.879 390.109 170.999 389.779C170.1 389.442 169.34 389.019 168.72 388.509C168.099 387.999 167.603 387.386 167.23 386.67C166.857 385.954 166.644 385.212 166.59 384.444C166.535 383.677 166.68 382.834 167.024 381.916C167.311 381.148 167.683 380.497 168.139 379.963C168.661 379.368 169.189 378.872 169.722 378.473C170.307 378.052 170.97 377.649 171.712 377.265C172.428 376.892 173.173 376.53 173.945 376.178L181.274 372.772C180.965 372.742 180.553 372.673 180.038 372.566C179.624 372.475 179.248 372.366 178.911 372.24L173.404 370.178C173.192 370.632 173.017 370.983 172.882 371.232C172.746 371.48 172.664 371.641 172.636 371.716C172.543 371.852 172.422 371.946 172.275 371.997C172.127 372.049 171.988 372.05 171.857 372.001L170.48 371.486L171.511 368.732L172.191 367.001L185.593 372.018Z" fill="white"/>
<path d="M126.923 332.027L126.213 332.581C126.087 332.679 125.905 332.77 125.666 332.855C125.488 332.918 125.272 332.934 125.019 332.903L115.335 331.705C114.337 331.595 113.575 331.53 113.051 331.508C112.386 331.468 111.714 331.485 111.036 331.557C110.501 331.619 109.905 331.767 109.249 331.999C108.713 332.189 108.192 332.481 107.688 332.874C107.246 333.219 106.874 333.636 106.571 334.126C106.3 334.591 106.15 335.05 106.123 335.502C106.116 336.014 106.187 336.479 106.335 336.897C106.495 337.33 106.747 337.767 107.092 338.209C107.448 338.666 107.819 339.011 108.203 339.244C108.693 339.547 109.119 339.735 109.48 339.808C109.966 339.911 110.419 339.938 110.838 339.891C111.257 339.843 111.693 339.718 112.145 339.518C112.434 339.368 112.682 339.328 112.887 339.396C113.092 339.464 113.275 339.601 113.435 339.806L113.509 339.9L113.614 340.084L114.292 341.344C113.461 341.84 112.603 342.154 111.717 342.286C110.875 342.41 110.079 342.397 109.328 342.247C108.537 342.078 107.785 341.764 107.072 341.305C106.399 340.866 105.774 340.276 105.196 339.534C104.606 338.777 104.18 338.019 103.917 337.26C103.655 336.501 103.552 335.719 103.609 334.913C103.666 334.108 103.872 333.364 104.227 332.681C104.583 331.999 105.147 331.356 105.92 330.753C106.566 330.249 107.224 329.889 107.892 329.672C108.647 329.438 109.357 329.29 110.02 329.23C110.739 329.176 111.515 329.18 112.348 329.24C113.153 329.297 113.977 329.378 114.819 329.482L122.848 330.411C122.601 330.224 122.285 329.95 121.902 329.589C121.597 329.295 121.333 329.006 121.112 328.722L117.496 324.085C117.077 324.361 116.745 324.569 116.5 324.71C116.255 324.85 116.1 324.945 116.037 324.994C115.886 325.061 115.735 325.078 115.582 325.045C115.429 325.012 115.31 324.94 115.224 324.83L114.32 323.67L116.639 321.862L118.124 320.742L126.923 332.027ZM102.283 310.526C102.377 310.452 102.511 310.412 102.682 310.404C102.826 310.394 102.96 310.467 103.083 310.625L104.725 312.73L109.172 309.262L110.63 311.131L106.182 314.599L112.03 322.099C112.153 322.257 112.21 322.428 112.201 322.612C112.193 322.796 112.144 322.961 112.055 323.107L111.114 324.145L93.7643 324.434L92.2331 322.471L103.068 314.022L101.076 311.467L102.283 310.526ZM96.8422 321.844C96.6056 322.029 96.3506 322.189 96.0771 322.326L109.248 321.947L104.526 315.891L97.5231 321.351L96.8422 321.844Z" fill="white"/>
<path d="M323.189 337.887C322.934 338.018 322.712 337.967 322.522 337.735L321.763 336.805L330.684 329.517L331.443 330.446C331.633 330.678 331.639 330.906 331.46 331.13L328.397 334.02L337.66 345.357C338.039 345.822 338.316 346.176 338.491 346.421L339.395 341.46C339.434 341.222 339.546 341.027 339.731 340.875C339.948 340.698 340.18 340.65 340.428 340.732L341.819 341.107L340.363 349.424L338.69 350.791L326.353 335.69L323.189 337.887ZM323.609 361.485C323.381 361.206 323.284 360.898 323.318 360.56C323.352 360.223 323.586 359.877 324.02 359.522L329.27 355.233L326.445 350.258C325.714 351.165 324.992 351.91 324.28 352.492C323.413 353.2 322.538 353.695 321.657 353.976C320.761 354.269 319.918 354.376 319.13 354.297C318.343 354.218 317.559 353.954 316.78 353.506C316.054 353.092 315.394 352.52 314.799 351.792C314.052 350.879 313.562 349.962 313.327 349.043C313.061 348.021 312.987 347.062 313.106 346.164C313.227 345.238 313.538 344.338 314.039 343.465C314.52 342.632 315.203 341.855 316.086 341.134C316.566 340.742 317.076 340.402 317.617 340.115C318.188 339.803 318.708 339.586 319.175 339.462C319.745 339.306 320.253 339.201 320.699 339.147C321.289 339.078 321.76 339.055 322.113 339.076L322.207 340.471C322.23 340.815 322.132 341.075 321.915 341.252C321.761 341.379 321.532 341.462 321.229 341.503C320.855 341.55 320.515 341.608 320.21 341.677C319.758 341.788 319.325 341.922 318.911 342.079C318.407 342.285 317.908 342.59 317.412 342.994C316.823 343.475 316.373 343.998 316.06 344.564C315.763 345.117 315.589 345.71 315.539 346.345C315.493 346.952 315.572 347.571 315.779 348.203C315.963 348.776 316.32 349.387 316.852 350.038C317.269 350.549 317.719 350.957 318.2 351.261C318.668 351.55 319.191 351.716 319.77 351.76C320.376 351.807 320.945 351.729 321.478 351.527C322.053 351.315 322.651 350.956 323.27 350.45C323.72 350.083 324.128 349.697 324.495 349.294C324.767 348.994 325.137 348.499 325.605 347.807L327.228 347.139L332.22 355.999L324.321 362.452L323.6 361.57L323.609 361.485Z" fill="white"/>
<path d="M323.189 337.887C322.934 338.018 322.712 337.967 322.522 337.735L321.763 336.805L330.684 329.517L331.443 330.446C331.633 330.678 331.639 330.906 331.46 331.13L328.397 334.02L337.66 345.357C338.039 345.822 338.316 346.176 338.491 346.421L339.395 341.46C339.434 341.222 339.546 341.027 339.731 340.875C339.948 340.698 340.18 340.65 340.428 340.732L341.819 341.107L340.363 349.424L338.69 350.791L326.353 335.69L323.189 337.887ZM323.609 361.485C323.381 361.206 323.284 360.898 323.318 360.56C323.352 360.223 323.586 359.877 324.02 359.522L329.27 355.233L326.445 350.258C325.714 351.165 324.992 351.91 324.28 352.492C323.413 353.2 322.538 353.695 321.657 353.976C320.761 354.269 319.918 354.376 319.13 354.297C318.343 354.218 317.559 353.954 316.78 353.506C316.054 353.092 315.394 352.52 314.799 351.792C314.052 350.879 313.562 349.962 313.327 349.043C313.061 348.021 312.987 347.062 313.106 346.164C313.227 345.238 313.538 344.338 314.039 343.465C314.52 342.632 315.203 341.855 316.086 341.134C316.566 340.742 317.076 340.402 317.617 340.115C318.188 339.803 318.708 339.586 319.175 339.462C319.745 339.306 320.253 339.201 320.699 339.147C321.289 339.078 321.76 339.055 322.113 339.076L322.207 340.471C322.23 340.815 322.132 341.075 321.915 341.252C321.761 341.379 321.532 341.462 321.229 341.503C320.855 341.55 320.515 341.608 320.21 341.677C319.758 341.788 319.325 341.922 318.911 342.079C318.407 342.285 317.908 342.59 317.412 342.994C316.823 343.475 316.373 343.998 316.06 344.564C315.763 345.117 315.589 345.71 315.539 346.345C315.493 346.952 315.572 347.571 315.779 348.203C315.963 348.776 316.32 349.387 316.852 350.038C317.269 350.549 317.719 350.957 318.2 351.261C318.668 351.55 319.191 351.716 319.77 351.76C320.376 351.807 320.945 351.729 321.478 351.527C322.053 351.315 322.651 350.956 323.27 350.45C323.72 350.083 324.128 349.697 324.495 349.294C324.767 348.994 325.137 348.499 325.605 347.807L327.228 347.139L332.22 355.999L324.321 362.452L323.6 361.57L323.609 361.485Z" fill="white"/>
</svg>
