<svg width="71" height="87" viewBox="0 0 71 87" fill="none" xmlns="http://www.w3.org/2000/svg">
<rect x="70.0518" y="87" width="70.0519" height="57.6234" transform="rotate(-180 70.0518 87)" fill="url(#paint0_linear_219_4046)"/>
<path d="M17.2389 27.1382L33.6327 1.30549C34.0215 0.692884 34.9128 0.685213 35.312 1.29104L43.7826 14.1443L51.7537 27.17C52.2309 27.9497 51.4981 28.908 50.6206 28.6519L34.7413 24.0182C34.5584 23.9649 34.364 23.9649 34.1811 24.0182L18.3634 28.634C17.4782 28.8923 16.7448 27.9167 17.2389 27.1382Z" fill="#727272"/>
<path fill-rule="evenodd" clip-rule="evenodd" d="M35.0256 54.9769C40.3223 54.9769 45.4617 53.479 48.6575 50.6702C49.2054 50.1887 50.0382 50.2444 50.5176 50.7947C50.997 51.3451 50.9415 52.1816 50.3936 52.6631C46.5591 56.0333 40.7137 57.625 35.0256 57.625C29.3374 57.625 23.492 56.0333 19.6576 52.6631C19.1097 52.1815 19.0542 51.345 19.5336 50.7947C20.013 50.2444 20.8457 50.1886 21.3936 50.6701C24.5894 53.479 29.7289 54.9769 35.0256 54.9769ZM35.0256 47.9152C38.4996 47.9152 41.8941 46.7828 44.2409 44.6221C44.7776 44.128 45.6114 44.1644 46.1033 44.7034C46.5953 45.2425 46.559 46.0801 46.0223 46.5742C43.0964 49.2682 39.0212 50.5633 35.0256 50.5633C31.0299 50.5633 26.9547 49.2683 24.0288 46.5742C23.4921 46.08 23.4559 45.2425 23.9478 44.7034C24.4397 44.1644 25.2736 44.128 25.8102 44.6221C28.157 46.7829 31.5515 47.9152 35.0256 47.9152ZM35.0256 40.8535C36.9154 40.8535 38.8008 40.1896 40.3091 38.864C40.8569 38.3825 41.6897 38.4382 42.1691 38.9886C42.6485 39.5389 42.593 40.3754 42.0451 40.8569C40.0382 42.6208 37.5297 43.5016 35.0256 43.5016C32.5215 43.5016 30.0129 42.6207 28.006 40.8568C27.4581 40.3753 27.4026 39.5388 27.882 38.9885C28.3614 38.4382 29.1942 38.3824 29.7421 38.8639C31.2504 40.1896 33.1357 40.8535 35.0256 40.8535ZM35.0256 33.7918C35.5109 33.7918 35.9044 33.3966 35.9044 32.9091C35.9044 32.4216 35.5109 32.0264 35.0256 32.0264C34.5402 32.0264 34.1468 32.4216 34.1468 32.9091C34.1468 33.3966 34.5402 33.7918 35.0256 33.7918ZM38.5407 32.9091C38.5407 34.8591 36.9669 36.4399 35.0256 36.4399C33.0842 36.4399 31.5104 34.8591 31.5104 32.9091C31.5104 30.9591 33.0842 29.3782 35.0256 29.3782C36.9669 29.3782 38.5407 30.9591 38.5407 32.9091Z" fill="url(#paint1_linear_219_4046)"/>
<path d="M10.7897 75.3093L17.1889 56.8152L30.0057 71.6041L10.7897 75.3093Z" fill="#468BCC"/>
<path d="M22.5876 61.9183L26.9355 66.7457L31.6169 65.1902L24.8115 57.6344L22.5876 61.9183Z" fill="#468BCC"/>
<path d="M44.8627 77.3948C51.4009 66.8597 48.267 58.687 43.5396 56.4922L35.2467 57.6221L39.5741 60.1545C47.4584 66.2324 39.5741 72.3104 37.05 75.7C34.6463 80.2195 34.442 83.9597 36.1246 86.9987H47.8663C44.0203 83.7571 44.7025 79.2519 44.8627 77.3948Z" fill="#468BCC"/>
<defs>
<linearGradient id="paint0_linear_219_4046" x1="105.078" y1="87" x2="105.078" y2="144.623" gradientUnits="userSpaceOnUse">
<stop stop-color="#1F7DD4"/>
<stop offset="0.67" stop-color="#20252B"/>
<stop offset="1" stop-color="#201F1F"/>
</linearGradient>
<linearGradient id="paint1_linear_219_4046" x1="35.0256" y1="29.3782" x2="35.0256" y2="57.625" gradientUnits="userSpaceOnUse">
<stop stop-color="#2074C3"/>
<stop offset="1" stop-color="#404F5E"/>
</linearGradient>
</defs>
</svg>
