<svg width="25" height="25" viewBox="0 0 25 25" fill="none" xmlns="http://www.w3.org/2000/svg">
<path fill-rule="evenodd" clip-rule="evenodd" d="M11.1806 0V13.8889H13.8194V0H11.1806ZM2.82837 10.5762C3.20887 8.66332 4.14805 6.90624 5.52715 5.52714L3.66117 3.66116C1.91302 5.40932 0.722506 7.6366 0.24019 10.0614C-0.242126 12.4861 0.00541541 14.9995 0.95151 17.2835C1.8976 19.5676 3.49976 21.5198 5.55537 22.8934C7.61099 24.2669 10.0277 25 12.5 25C14.9723 25 17.389 24.2669 19.4446 22.8934C21.5002 21.5199 23.1024 19.5676 24.0485 17.2835C24.9946 14.9995 25.2421 12.4861 24.7598 10.0614C24.2775 7.63661 23.087 5.40932 21.3388 3.66116L19.4729 5.52714C20.852 6.90624 21.7911 8.66332 22.1716 10.5762C22.5521 12.4891 22.3568 14.4718 21.6105 16.2737C20.8641 18.0756 19.6002 19.6157 17.9785 20.6992C16.3569 21.7828 14.4503 22.3611 12.5 22.3611C10.5497 22.3611 8.64311 21.7828 7.02146 20.6992C5.39981 19.6157 4.13589 18.0756 3.38952 16.2737C2.64316 14.4718 2.44788 12.4891 2.82837 10.5762Z" fill="white"/>
</svg>
