<svg width="28" height="22" viewBox="0 0 28 22" fill="none" xmlns="http://www.w3.org/2000/svg">
<path fill-rule="evenodd" clip-rule="evenodd" d="M0.547658 9.84284C1.01763 10.2264 1.72518 10.1745 2.12802 9.72711L4.63941 6.93763L4.63941 10.8111C4.63941 16.7042 9.65734 21.4816 15.8473 21.4816C22.0372 21.4816 27.0551 16.7042 27.0551 10.8111C27.0551 4.91796 22.0372 0.140626 15.8473 0.140626C14.9928 0.140626 14.1594 0.231846 13.3577 0.405048C12.754 0.535455 12.3757 1.10706 12.5127 1.68176C12.6497 2.25647 13.2501 2.61664 13.8537 2.48623C14.4938 2.34795 15.1609 2.27472 15.8473 2.27472C20.7992 2.27472 24.8135 6.09658 24.8135 10.8111C24.8135 15.5256 20.7992 19.3475 15.8473 19.3475C10.8953 19.3475 6.88098 15.5256 6.88098 10.8111L6.88098 6.93763L9.39237 9.72711C9.79521 10.1745 10.5028 10.2264 10.9727 9.84284C11.4427 9.45932 11.4971 8.7857 11.0943 8.33826L6.61116 3.35871C6.39823 3.1222 6.08738 2.98608 5.7602 2.98608C5.43301 2.98608 5.12216 3.1222 4.90923 3.35871L0.426092 8.33826C0.0232565 8.7857 0.0776835 9.45932 0.547658 9.84284Z" fill="#D9D9D9"/>
</svg>
