<svg width="27" height="22" viewBox="0 0 27 22" fill="none" xmlns="http://www.w3.org/2000/svg">
<path fill-rule="evenodd" clip-rule="evenodd" d="M26.5075 9.84285C26.0375 10.2264 25.33 10.1745 24.9272 9.72711L22.4158 6.93763L22.4158 10.8111C22.4158 16.7042 17.3978 21.4816 11.2079 21.4816C5.01799 21.4816 6.21603e-05 16.7042 6.24386e-05 10.8111C6.27169e-05 4.91796 5.01799 0.140624 11.2079 0.140624C12.0623 0.140624 12.8958 0.231845 13.6975 0.405047C14.3011 0.535454 14.6795 1.10706 14.5425 1.68176C14.4055 2.25647 13.8051 2.61664 13.2015 2.48623C12.5614 2.34795 11.8943 2.27472 11.2079 2.27472C6.25597 2.27472 2.24163 6.09658 2.24163 10.8111C2.24163 15.5256 6.25597 19.3475 11.2079 19.3475C16.1599 19.3475 20.1742 15.5256 20.1742 10.8111L20.1742 6.93763L17.6628 9.72711C17.26 10.1745 16.5524 10.2264 16.0824 9.84285C15.6125 9.45933 15.558 8.7857 15.9609 8.33826L20.444 3.35871C20.6569 3.1222 20.9678 2.98608 21.295 2.98608C21.6222 2.98608 21.933 3.1222 22.1459 3.35871L26.6291 8.33826C27.0319 8.7857 26.9775 9.45933 26.5075 9.84285Z" fill="#D9D9D9"/>
</svg>
