<svg width="66" height="75" viewBox="0 0 66 75" fill="none" xmlns="http://www.w3.org/2000/svg">
<path fill-rule="evenodd" clip-rule="evenodd" d="M34.0157 6.2931C33.3452 6.15209 32.6547 6.15209 31.9843 6.2931C31.3358 6.42951 30.6572 6.77465 28.1506 8.19735L8.0332 19.6158C7.38069 19.9861 7.01096 20.1975 6.74154 20.373C6.53734 20.506 6.48662 20.5585 6.4876 20.5582C6.48776 20.5581 6.48937 20.5566 6.49193 20.5537C6.38638 20.6711 6.30162 20.8159 6.24856 20.9806C6.22366 21.0579 6.18817 21.2029 6.18817 22.8701V35.8357C6.18817 45.3604 10.9733 54.17 18.7782 59.1537L31.1844 67.0756C31.8482 67.4994 32.2269 67.7395 32.5217 67.9025C32.6937 67.9975 32.7741 68.0299 32.7973 68.0382C32.9312 68.0683 33.0688 68.0683 33.2027 68.0382C33.2259 68.0299 33.3063 67.9975 33.4783 67.9025C33.7731 67.7395 34.1518 67.4994 34.8156 67.0756L47.2218 59.1537C55.0267 54.17 59.8118 45.3604 59.8118 35.8357V22.8701C59.8118 21.2029 59.7763 21.0579 59.7514 20.9806C59.6984 20.8159 59.6136 20.6711 59.5081 20.5538C59.4922 20.5387 59.4286 20.4838 59.2585 20.373C58.989 20.1975 58.6193 19.9861 57.9668 19.6158L37.8494 8.19735C35.3428 6.77465 34.6642 6.42951 34.0157 6.2931ZM33.1953 68.0405C33.1953 68.0405 33.1974 68.0397 33.2013 68.0386L33.1953 68.0405ZM32.8047 68.0406C32.8046 68.0406 32.8027 68.04 32.7987 68.0386L32.8047 68.0406ZM30.7108 0.238233C32.2211 -0.079411 33.7789 -0.079411 35.2892 0.238233C37.0036 0.598812 38.5701 1.48961 40.5497 2.61527C40.6662 2.6815 40.7841 2.74855 40.9036 2.81635L61.021 14.2348C61.1024 14.281 61.1844 14.3272 61.2668 14.3738C62.2552 14.9317 63.3075 15.5257 64.1083 16.4159C64.8026 17.1879 65.3234 18.0982 65.6408 19.0836C66.0047 20.2133 66.0021 21.4206 65.9996 22.5836C65.9994 22.6794 65.9992 22.775 65.9992 22.8701V35.8357C65.9992 47.4198 60.1806 58.2202 50.5517 64.3686L38.1455 72.2904C38.0615 72.3441 37.977 72.3983 37.8919 72.453C36.8961 73.0925 35.8236 73.7813 34.6094 74.0635C33.5501 74.3097 32.4499 74.3097 31.3906 74.0635C30.1764 73.7813 29.1039 73.0925 28.108 72.4529C28.023 72.3983 27.9385 72.3441 27.8545 72.2904L15.4483 64.3686C5.81944 58.2202 0.000827574 47.4198 0.000827574 35.8357V22.8701C0.000827574 22.775 0.000622032 22.6794 0.000415753 22.5836C-0.00208787 21.4206 -0.00468639 20.2133 0.35921 19.0836C0.67661 18.0982 1.19738 17.1879 1.89172 16.4159C2.69251 15.5257 3.74482 14.9317 4.7332 14.3738C4.81565 14.3272 4.89764 14.2809 4.97901 14.2348L25.0964 2.81635C25.2159 2.74855 25.3338 2.6815 25.4503 2.61527C27.4299 1.48961 28.9964 0.598811 30.7108 0.238233Z" fill="white"/>
<path fill-rule="evenodd" clip-rule="evenodd" d="M27.448 43.8638L19.1173 35.5331L16.3416 38.3089L27.4446 49.412L27.4483 49.4083L27.4517 49.4116L49.6579 27.2055L46.8821 24.4297L27.448 43.8638Z" fill="white"/>
</svg>
