<svg width="23" height="23" viewBox="0 0 23 23" fill="none" xmlns="http://www.w3.org/2000/svg">
<path fill-rule="evenodd" clip-rule="evenodd" d="M16.5654 2.87914C16.4816 2.87515 16.3774 2.8749 16.1084 2.8749C15.9907 2.8749 15.9459 2.87496 15.9038 2.87596C14.9743 2.89811 14.0865 3.26585 13.4137 3.90739C13.3832 3.93645 13.3514 3.96818 13.2682 4.05133L10.6723 6.64728C10.4821 6.83748 10.4085 6.9114 10.3521 6.97345C9.05634 8.39897 9.05634 10.5758 10.3521 12.0014C10.4085 12.0634 10.4821 12.1373 10.6723 12.3275L10.9598 12.615C11.2966 12.9518 11.2966 13.498 10.9598 13.8348C10.623 14.1716 10.0769 14.1716 9.74002 13.8348L9.43384 13.5286C9.26856 13.3633 9.1634 13.2582 9.07565 13.1616C7.18183 11.0782 7.18183 7.89661 9.07565 5.81317C9.1634 5.71662 9.26853 5.6115 9.43384 5.4462L12.0485 2.83156L12.0565 2.82355C12.1292 2.75082 12.1762 2.70383 12.2233 2.65893C13.2067 1.72129 14.5043 1.18382 15.8627 1.15145C15.9279 1.1499 15.9943 1.1499 16.0975 1.1499L16.1349 1.1499C16.3687 1.14989 16.5172 1.14989 16.6475 1.1561C19.4599 1.29019 21.7096 3.53991 21.8437 6.35226C21.8499 6.48258 21.8499 6.63119 21.8499 6.86497V6.90232C21.8499 7.00555 21.8499 7.07196 21.8484 7.13713C21.816 8.49552 21.2785 9.79308 20.3409 10.7765C20.2959 10.8237 20.2489 10.8706 20.176 10.9435L20.1682 10.9513L18.7223 12.3973C18.3855 12.7341 17.8393 12.7341 17.5025 12.3973C17.1657 12.0605 17.1657 11.5144 17.5025 11.1775L18.9485 9.73156C19.0317 9.64839 19.0633 9.61662 19.0924 9.58613C19.734 8.91327 20.1017 8.02547 20.1238 7.09604C20.1248 7.05393 20.1249 7.00911 20.1249 6.89144C20.1249 6.62241 20.1247 6.51818 20.1207 6.43441C20.0289 4.51017 18.4896 2.97089 16.5654 2.87914ZM12.04 10.3848C11.7032 10.048 11.7032 9.50185 12.04 9.16502C12.3769 8.8282 12.923 8.8282 13.2598 9.16502L13.566 9.47125C13.7313 9.63649 13.8364 9.74164 13.9242 9.83817C15.818 11.9216 15.818 15.1032 13.9242 17.1866C13.8364 17.2832 13.7313 17.3883 13.566 17.5536L10.9513 20.1682L10.9432 20.1764C10.8705 20.249 10.8236 20.296 10.7765 20.3409C9.79309 21.2785 8.49552 21.816 7.13713 21.8484C7.07196 21.8499 7.00554 21.8499 6.90232 21.8499H6.86497C6.63119 21.8499 6.48258 21.8499 6.35226 21.8437C3.53991 21.7096 1.29019 19.4599 1.1561 16.6476C1.14989 16.5172 1.14989 16.3687 1.1499 16.1349L1.1499 16.0975C1.1499 15.9943 1.1499 15.9279 1.15145 15.8627C1.18382 14.5043 1.72129 13.2067 2.65893 12.2233C2.70391 12.1761 2.75091 12.1291 2.82388 12.0562L4.27752 10.6025C4.61435 10.2657 5.16046 10.2657 5.49728 10.6025C5.83411 10.9394 5.83411 11.4855 5.49728 11.8223L4.05132 13.2682C3.96814 13.3514 3.93646 13.3832 3.90739 13.4137C3.26585 14.0865 2.89811 14.9743 2.87596 15.9038C2.87496 15.9459 2.8749 15.9907 2.8749 16.1084C2.8749 16.3774 2.87515 16.4816 2.87914 16.5654C2.97089 18.4896 4.51017 20.0289 6.43441 20.1207C6.51818 20.1247 6.62242 20.1249 6.89144 20.1249C7.00911 20.1249 7.05393 20.1248 7.09604 20.1238C8.02547 20.1017 8.91327 19.734 9.58613 19.0924C9.61661 19.0634 9.64841 19.0316 9.73157 18.9485L12.3275 16.3525C12.5177 16.1623 12.5913 16.0884 12.6477 16.0264C13.9435 14.6008 13.9435 12.424 12.6477 10.9985C12.5913 10.9364 12.5177 10.8625 12.3275 10.6723L12.04 10.3848Z" fill="white"/>
</svg>
