<svg width="27" height="27" viewBox="0 0 27 27" fill="none" xmlns="http://www.w3.org/2000/svg">
<path fill-rule="evenodd" clip-rule="evenodd" d="M17.3173 4.96103C15.2087 2.84645 11.7911 2.84645 9.68254 4.96103C7.57236 7.07719 7.57236 10.5093 9.68254 12.6255L13.4999 16.4537L17.3173 12.6255C19.4275 10.5093 19.4275 7.07719 17.3173 4.96103ZM14.2175 18.6019L12.7829 18.6025L8.24863 14.0554C5.35034 11.1489 5.35034 6.43767 8.24863 3.53116C11.1485 0.623076 15.8513 0.623076 18.7512 3.53116C21.6495 6.43767 21.6495 11.1489 18.7512 14.0554C18.7512 14.0554 15.988 16.8264 14.2175 18.6019ZM14.2175 18.6019C14.0277 18.7926 13.7689 18.9001 13.4999 18.9001C13.2309 18.9001 12.9729 18.793 12.7829 18.6025L14.2175 18.6019ZM11.4749 8.7751C11.4749 7.65672 12.3815 6.7501 13.4999 6.7501C14.6183 6.7501 15.5249 7.65672 15.5249 8.7751C15.5249 9.89347 14.6183 10.8001 13.4999 10.8001C12.3815 10.8001 11.4749 9.89347 11.4749 8.7751ZM3.42499 14.863C3.97708 14.9518 4.35262 15.4713 4.2638 16.0234L3.65271 19.8215C3.51179 20.6974 3.41781 21.2876 3.38602 21.7435C3.35498 22.1886 3.39392 22.3946 3.44579 22.5247C3.58908 22.8839 3.86297 23.1948 4.23152 23.3952C4.37687 23.4742 4.60429 23.5452 5.07942 23.5844C5.56277 23.6243 6.19408 23.6251 7.11838 23.6251H19.8814C20.8057 23.6251 21.437 23.6243 21.9204 23.5844C22.3955 23.5452 22.6229 23.4742 22.7683 23.3952C23.1368 23.1948 23.4107 22.8839 23.554 22.5247C23.6059 22.3946 23.6448 22.1886 23.6138 21.7435C23.582 21.2876 23.488 20.6974 23.3471 19.8215L22.736 16.0234C22.6472 15.4713 23.0227 14.9518 23.5748 14.863C24.1269 14.7741 24.6465 15.1497 24.7353 15.7018L25.3538 19.5456C25.4854 20.364 25.595 21.0448 25.6339 21.6027C25.6743 22.1817 25.6491 22.7379 25.4349 23.2749C25.1111 24.0867 24.5064 24.7551 23.7356 25.1742C23.2319 25.4481 22.6812 25.5535 22.0869 25.6026C21.5104 25.6501 20.7951 25.6501 19.9246 25.6501H7.07518C6.20475 25.6501 5.48947 25.6501 4.91292 25.6026C4.31863 25.5535 3.76793 25.4481 3.26421 25.1742C2.49337 24.7551 1.88872 24.0867 1.5649 23.2749C1.35068 22.7379 1.32554 22.1817 1.36592 21.6027C1.40482 21.0448 1.51437 20.364 1.64606 19.5456L2.26451 15.7018C2.35334 15.1497 2.8729 14.7741 3.42499 14.863Z" fill="white"/>
</svg>
