<svg width="22" height="28" viewBox="0 0 22 28" fill="none" xmlns="http://www.w3.org/2000/svg">
<path fill-rule="evenodd" clip-rule="evenodd" d="M11 2.33333C8.83031 2.33333 7.07143 4.07445 7.07143 6.22222C7.07143 8.37 8.83031 10.1111 11 10.1111C13.1697 10.1111 14.9286 8.37 14.9286 6.22222C14.9286 4.07445 13.1697 2.33333 11 2.33333ZM4.71429 6.22222C4.71429 2.78578 7.5285 0 11 0C14.4715 0 17.2857 2.78578 17.2857 6.22222C17.2857 9.65866 14.4715 12.4444 11 12.4444C7.5285 12.4444 4.71429 9.65866 4.71429 6.22222ZM0 24.3056C0 19.4731 3.95748 15.5556 8.83929 15.5556H13.1607C18.0425 15.5556 22 19.4731 22 24.3056C22 26.3459 20.3291 28 18.2679 28H3.73214C1.67094 28 0 26.3459 0 24.3056ZM8.83929 17.8889C5.2593 17.8889 2.35714 20.7617 2.35714 24.3056C2.35714 25.0573 2.97275 25.6667 3.73214 25.6667H18.2679C19.0272 25.6667 19.6429 25.0573 19.6429 24.3056C19.6429 20.7617 16.7407 17.8889 13.1607 17.8889H8.83929Z" fill="black"/>
</svg>
