<svg width="97" height="81" viewBox="0 0 97 81" fill="none" xmlns="http://www.w3.org/2000/svg">
<rect width="97" height="81" rx="5" fill="#636363" fill-opacity="0.8"/>
<path fill-rule="evenodd" clip-rule="evenodd" d="M65.3611 20.1667C63.4435 20.1667 61.8889 21.7212 61.8889 23.6389C61.8889 25.5565 63.4435 27.1111 65.3611 27.1111C67.2788 27.1111 68.8333 25.5565 68.8333 23.6389C68.8333 21.7212 67.2788 20.1667 65.3611 20.1667ZM58.0098 21.5556C58.9166 18.3493 61.8645 16 65.3611 16C69.58 16 73 19.42 73 23.6389C73 27.8577 69.58 31.2778 65.3611 31.2778C61.8645 31.2778 58.9166 28.9285 58.0098 25.7222H25.0833C23.9327 25.7222 23 24.7895 23 23.6389C23 22.4883 23.9327 21.5556 25.0833 21.5556H58.0098ZM36.8889 37.5278C34.9712 37.5278 33.4167 39.0823 33.4167 41C33.4167 42.9177 34.9712 44.4722 36.8889 44.4722C38.8065 44.4722 40.3611 42.9177 40.3611 41C40.3611 39.0823 38.8065 37.5278 36.8889 37.5278ZM29.5375 38.9167C30.4444 35.7104 33.3923 33.3611 36.8889 33.3611C40.3855 33.3611 43.3334 35.7104 44.2402 38.9167H70.9167C72.0673 38.9167 73 39.8494 73 41C73 42.1506 72.0673 43.0833 70.9167 43.0833H44.2402C43.3334 46.2896 40.3855 48.6389 36.8889 48.6389C33.3923 48.6389 30.4444 46.2896 29.5375 43.0833H25.0833C23.9327 43.0833 23 42.1506 23 41C23 39.8494 23.9327 38.9167 25.0833 38.9167H29.5375ZM52.8611 54.8889C50.9435 54.8889 49.3889 56.4435 49.3889 58.3611C49.3889 60.2788 50.9435 61.8333 52.8611 61.8333C54.7788 61.8333 56.3333 60.2788 56.3333 58.3611C56.3333 56.4435 54.7788 54.8889 52.8611 54.8889ZM45.5098 56.2778C46.4166 53.0715 49.3645 50.7222 52.8611 50.7222C56.3577 50.7222 59.3056 53.0715 60.2125 56.2778H70.9167C72.0673 56.2778 73 57.2105 73 58.3611C73 59.5117 72.0673 60.4444 70.9167 60.4444H60.2125C59.3056 63.6507 56.3577 66 52.8611 66C49.3645 66 46.4166 63.6507 45.5098 60.4444H25.0833C23.9327 60.4444 23 59.5117 23 58.3611C23 57.2105 23.9327 56.2778 25.0833 56.2778H45.5098Z" fill="white"/>
</svg>
