<svg width="67" height="67" viewBox="0 0 67 67" fill="none" xmlns="http://www.w3.org/2000/svg">
<rect width="67" height="67" rx="2" fill="#3D71D7"/>
<path fill-rule="evenodd" clip-rule="evenodd" d="M13.9006 13.9006C15.1015 12.6998 17.0485 12.6998 18.2494 13.9006L33.5 29.1513L48.7506 13.9006C49.9515 12.6998 51.8985 12.6998 53.0994 13.9006C54.3002 15.1015 54.3002 17.0485 53.0994 18.2494L37.8487 33.5L53.0994 48.7506C54.3002 49.9515 54.3002 51.8985 53.0994 53.0994C51.8985 54.3002 49.9515 54.3002 48.7506 53.0994L33.5 37.8487L18.2494 53.0994C17.0485 54.3002 15.1015 54.3002 13.9006 53.0994C12.6998 51.8985 12.6998 49.9515 13.9006 48.7506L29.1513 33.5L13.9006 18.2494C12.6998 17.0485 12.6998 15.1015 13.9006 13.9006Z" fill="white"/>
</svg>
