<svg width="58" height="62" viewBox="0 0 58 62" fill="none" xmlns="http://www.w3.org/2000/svg">
<path d="M23.304 26.3461C2.02181 26.3461 -13.7171 47.4353 26.4321 47.4353" stroke="white" stroke-width="2"/>
<path d="M39.5921 25.6273C62.9468 27.9849 61.4237 47.4348 35.4996 48.8376" stroke="white" stroke-width="2"/>
<path d="M9.13062 60.4029L31.1993 5L52.7936 60.4029" stroke="white" stroke-width="3" stroke-linecap="round"/>
<path fill-rule="evenodd" clip-rule="evenodd" d="M41.7812 51.7402C41.7499 52.0738 41.5587 52.3582 41.2874 52.4742L27.3417 58.4416C27.126 58.5339 26.8859 58.5081 26.6884 58.3715C26.491 58.2349 26.3572 58.0021 26.3245 57.7379L25.5866 51.7812L21.5434 51.5453C21.2342 51.5272 20.9652 51.2937 20.8628 50.9545C20.7605 50.6153 20.8452 50.238 21.0772 50L24.8822 46.0947L24.0956 39.7447C24.0532 39.4024 24.1867 39.0628 24.4372 38.8755C24.6877 38.6883 25.0093 38.6879 25.2602 38.8744L41.4348 50.9002C41.6782 51.0812 41.8124 51.4066 41.7812 51.7402ZM25.1416 48.1886L23.4856 49.8882L25.3657 49.9979L25.1416 48.1886ZM26.618 47.685L38.5939 51.7423L27.6981 56.4046L26.618 47.685ZM36.1543 49.0739L26.3798 45.7624L25.8401 41.4053L36.1543 49.0739Z" fill="white"/>
</svg>
