<svg width="68" height="68" viewBox="0 0 68 68" fill="none" xmlns="http://www.w3.org/2000/svg">
<path fill-rule="evenodd" clip-rule="evenodd" d="M16.15 8.49844C13.8028 8.49844 11.9 10.4012 11.9 12.7484V39.0984H53.5014L43.0217 25.3438C42.3262 24.431 42.3262 23.1659 43.0217 22.253L53.5014 8.49844H16.15ZM11.9 44.1984V62.0484C11.9 63.4568 10.7584 64.5984 9.35005 64.5984C7.94172 64.5984 6.80005 63.4568 6.80005 62.0484V12.7484C6.80005 7.58458 10.9862 3.39844 16.15 3.39844H58.6501C59.6194 3.39844 60.5049 3.94804 60.9351 4.81669C61.3654 5.68534 61.2659 6.7228 60.6784 7.49385L48.2559 23.7984L60.6784 40.103C61.2659 40.8741 61.3654 41.9115 60.9351 42.7802C60.5049 43.6488 59.6194 44.1984 58.6501 44.1984H11.9Z" fill="black"/>
</svg>
