<svg width="433" height="94" viewBox="0 0 433 94" fill="none" xmlns="http://www.w3.org/2000/svg">
<rect x="67" width="300" height="94" rx="5" fill="#3D71D7"/>
<path d="M95.7773 45.2969C95.3086 43.5391 93.9805 42.3672 91.4805 42.3672C88.8633 42.3672 86.9883 43.7734 86.9883 45.5703C86.9883 46.9766 88.1211 47.9531 90.6211 48.5391L93.7852 49.3203C97.5742 50.2188 99.4492 52.0938 99.4492 55.0625C99.4492 58.7344 96.4414 61.4297 91.1289 61.4297C86.3633 61.4297 83.5117 59.3203 82.9648 55.4531H86.4805C86.8711 57.5234 88.3945 58.5 91.0508 58.5C94.0586 58.5 95.9727 57.25 95.9727 55.2578C95.9727 53.7734 94.918 52.7578 92.4961 52.2109L89.293 51.4688C85.582 50.6094 83.6289 48.5781 83.6289 45.7656C83.6289 42.1328 86.793 39.5156 91.4805 39.5156C95.8555 39.5156 98.6289 41.8594 99.0586 45.2969H95.7773ZM112.73 61.4297C106.598 61.4297 102.809 57.0938 102.809 50.5703C102.809 44.0469 106.637 39.5156 112.418 39.5156C116.871 39.5156 121.559 42.25 121.559 50.1016V51.5078H106.168C106.324 56 108.941 58.4609 112.73 58.4609C115.27 58.4609 116.871 57.3672 117.652 56.0391H121.246C120.23 59.2422 117.105 61.4297 112.73 61.4297ZM106.207 48.6562H118.16C118.16 45.1016 115.895 42.4844 112.418 42.4844C108.746 42.4844 106.402 45.375 106.207 48.6562ZM135.191 39.7891V42.6016H130.738V54.9062C130.738 57.6406 132.066 58.0703 133.512 58.0703C134.137 58.0703 134.996 58.0312 135.504 57.9922V61.1172C134.996 61.1953 134.137 61.2734 133.16 61.2734C130.348 61.2734 127.34 59.5156 127.34 55.7656V42.6016H124.137V39.7891H127.34V34.7109H130.738V39.7891H135.191ZM169.293 41.625C168.473 37.7188 165.113 35.6094 161.402 35.6094C156.285 35.6094 152.301 39.5547 152.301 46.8594C152.301 54.1641 156.285 58.1094 161.402 58.1094C165.113 58.1094 168.434 56 169.293 52.1328H172.809C171.793 57.9141 167.145 61.3906 161.402 61.3906C154.137 61.3906 148.902 55.8047 148.902 46.8594C148.902 37.9141 154.137 32.3281 161.402 32.3281C167.105 32.3281 171.754 35.7656 172.809 41.625H169.293ZM180.66 48.2656V61H177.301V32.7188H180.66V43.1094H180.934C181.91 40.9219 183.824 39.5156 187.184 39.5156C191.52 39.5156 194.41 42.0938 194.41 47.5234V61H191.051V47.7578C191.051 44.4375 189.215 42.5234 186.168 42.5234C183.004 42.5234 180.66 44.5938 180.66 48.2656ZM208.707 61.4297C202.574 61.4297 198.785 57.0938 198.785 50.5703C198.785 44.0469 202.613 39.5156 208.395 39.5156C212.848 39.5156 217.535 42.25 217.535 50.1016V51.5078H202.145C202.301 56 204.918 58.4609 208.707 58.4609C211.246 58.4609 212.848 57.3672 213.629 56.0391H217.223C216.207 59.2422 213.082 61.4297 208.707 61.4297ZM202.184 48.6562H214.137C214.137 45.1016 211.871 42.4844 208.395 42.4844C204.723 42.4844 202.379 45.375 202.184 48.6562ZM220.895 54.9844C220.895 50.1016 225.191 49.0078 228.863 48.7344C230.211 48.6367 233.648 48.4609 234.605 48.4219V46.7031C234.605 44.0078 233.004 42.4453 229.801 42.4453C227.105 42.4453 225.504 43.6953 225.035 45.2969H221.52C221.949 41.8984 225.27 39.5156 229.957 39.5156C232.73 39.5156 237.926 40.3359 237.926 47.0156V61H234.605V58.1094H234.449C233.746 59.5547 231.793 61.5078 228.121 61.5078C224.098 61.5078 220.895 59.125 220.895 54.9844ZM224.254 55.1406C224.254 57.3672 226.129 58.5 228.707 58.5C232.496 58.5 234.605 55.9609 234.605 53.3047V51.1562C233.609 51.2344 230.27 51.4883 229.254 51.5469C226.207 51.7422 224.254 52.8359 224.254 55.1406ZM243.316 61V32.7188H246.676V49.1641H247.066L256.246 39.7891H260.387L251.441 48.8516L261.051 61H256.793L248.941 51L246.676 53.0703V61H243.316ZM263.98 68.9688V39.7891H267.223V43.1484H267.613C268.316 42.0156 269.645 39.5156 273.746 39.5156C279.059 39.5156 282.77 43.7344 282.77 50.4531C282.77 57.1719 279.059 61.4297 273.785 61.4297C269.723 61.4297 268.316 58.9297 267.613 57.7578H267.34V68.9688H263.98ZM267.262 50.375C267.262 55.1406 269.41 58.4219 273.316 58.4219C277.34 58.4219 279.41 54.9062 279.41 50.375C279.41 45.9609 277.379 42.5234 273.316 42.5234C269.332 42.5234 267.262 45.6875 267.262 50.375ZM295.816 61.4297C290.035 61.4297 286.129 57.0938 286.129 50.4922C286.129 43.8906 290.035 39.5156 295.816 39.5156C301.559 39.5156 305.426 43.8906 305.426 50.4922C305.426 57.0938 301.559 61.4297 295.816 61.4297ZM295.816 58.4609C300.074 58.4609 302.066 54.7109 302.066 50.4922C302.066 46.2734 300.074 42.4844 295.816 42.4844C291.48 42.4844 289.488 46.2734 289.488 50.4922C289.488 54.7109 291.48 58.4609 295.816 58.4609ZM309.84 61V39.7891H313.199V61H309.84ZM311.52 36.2734C310.23 36.2734 309.176 35.2969 309.176 34.0469C309.176 32.7969 310.23 31.8203 311.52 31.8203C312.809 31.8203 313.902 32.7969 313.902 34.0469C313.902 35.2969 312.809 36.2734 311.52 36.2734ZM321.91 48.2656V61H318.551V39.7891H321.793V43.1094H322.066C323.082 40.9609 325.035 39.5156 328.277 39.5156C332.574 39.5156 335.426 42.1328 335.426 47.5234V61H332.066V47.7578C332.066 44.4766 330.27 42.5234 327.262 42.5234C324.176 42.5234 321.91 44.5938 321.91 48.2656ZM350.074 39.7891V42.6016H345.621V54.9062C345.621 57.6406 346.949 58.0703 348.395 58.0703C349.02 58.0703 349.879 58.0312 350.387 57.9922V61.1172C349.879 61.1953 349.02 61.2734 348.043 61.2734C345.23 61.2734 342.223 59.5156 342.223 55.7656V42.6016H339.02V39.7891H342.223V34.7109H345.621V39.7891H350.074Z" fill="white"/>
</svg>
