<svg width="53" height="53" viewBox="0 0 53 53" fill="none" xmlns="http://www.w3.org/2000/svg">
<mask id="path-1-inside-1_1028_9257" fill="white">
<path fill-rule="evenodd" clip-rule="evenodd" d="M29.4206 8.92657L29.823 11.7186L32.4208 12.8179C33.5405 13.2917 34.5913 13.8966 35.5535 14.6136L37.7935 16.2828L40.3893 15.2502L44.1598 13.7503L46.4759 17.7262L43.3414 20.1646L41.1081 21.902L41.4477 24.7111C41.5183 25.2957 41.5549 25.8926 41.5549 26.5001C41.5549 27.1069 41.5184 27.7032 41.4479 28.2872L41.1087 31.0959L43.3417 32.833L46.4786 35.2734L44.1625 39.2492L40.3908 37.7488L37.7948 36.7161L35.5546 38.3857C34.5921 39.1031 33.5409 39.7083 32.4208 40.1823L29.8229 41.2817L29.4205 44.0737L28.8545 48H24.1472L23.5812 44.0736L23.1788 41.2816L20.581 40.1823C19.4614 39.7085 18.4107 39.1036 17.4485 38.3867L15.2085 36.7175L12.6128 37.7501L8.84086 39.2506L6.52474 35.2748L9.66046 32.8353L11.8937 31.098L11.5542 28.2889C11.4836 27.7044 11.447 27.1075 11.447 26.5001C11.447 25.8936 11.4835 25.2976 11.5539 24.7138L11.8929 21.9053L9.66005 20.1683L6.52142 17.7266L8.83754 13.7508L12.6106 15.2517L15.2067 16.2845L17.4469 14.6147C18.4095 13.8973 19.4608 13.292 20.581 12.8179L23.1788 11.7186L23.5812 8.92663L24.1472 5H28.8546L29.4206 8.92657ZM52.9973 18.9877L46.3126 7.51278L38.5411 10.6044C37.2608 9.65034 35.8616 8.84471 34.3694 8.21323L33.1855 0H19.8162L18.6323 8.21329C17.1394 8.84509 15.7395 9.65121 14.4588 10.6059L6.68466 7.51325L0 18.9881L6.58993 24.1148C6.49554 24.8968 6.44698 25.6928 6.44698 26.5001C6.44698 27.3085 6.49569 28.1057 6.59034 28.8889L0.00331668 34.0132L6.68797 45.4881L14.461 42.396C15.7411 43.3499 17.1403 44.1555 18.6323 44.7869L19.8162 53H33.1855L34.3694 44.787C35.8622 44.1553 37.262 43.3492 38.5426 42.3947L46.3153 45.4868L53 34.0119L46.4118 28.8866C46.5063 28.1042 46.5549 27.3078 46.5549 26.5001C46.5549 25.6916 46.5062 24.8943 46.4115 24.1111L52.9973 18.9877ZM32.1967 26.4999C32.1967 29.5506 29.6891 32.0999 26.5013 32.0999C23.3134 32.0999 20.8058 29.5506 20.8058 26.4999C20.8058 23.4492 23.3134 20.8998 26.5013 20.8998C29.6891 20.8998 32.1967 23.4492 32.1967 26.4999ZM37.1967 26.4999C37.1967 32.3541 32.4082 37.0999 26.5013 37.0999C20.5943 37.0999 15.8058 32.3541 15.8058 26.4999C15.8058 20.6456 20.5943 15.8998 26.5013 15.8998C32.4082 15.8998 37.1967 20.6456 37.1967 26.4999Z"/>
</mask>
<path d="M29.823 11.7186L24.8742 12.4319L25.2766 15.2239L27.8744 16.3232L29.823 11.7186ZM29.4206 8.92657L34.3694 8.21323L34.3694 8.21323L29.4206 8.92657ZM32.4208 12.8179L34.3694 8.21324L34.3694 8.21323L32.4208 12.8179ZM35.5535 14.6136L38.5411 10.6044L38.5411 10.6043L35.5535 14.6136ZM37.7935 16.2828L34.8059 20.2921L37.0459 21.9613L39.6417 20.9287L37.7935 16.2828ZM40.3893 15.2502L42.2374 19.8961L42.2374 19.8961L40.3893 15.2502ZM44.1598 13.7503L48.4801 11.2335L46.3126 7.51278L42.3116 9.10442L44.1598 13.7503ZM46.4759 17.7262L49.546 21.6726L52.9973 18.9877L50.7963 15.2093L46.4759 17.7262ZM43.3414 20.1646L46.4115 24.1111L46.4115 24.1111L43.3414 20.1646ZM41.1081 21.902L38.038 17.9556L35.8047 19.693L36.1442 22.502L41.1081 21.902ZM41.4477 24.7111L46.4115 24.1111L46.4115 24.1111L41.4477 24.7111ZM41.4479 28.2872L36.4839 27.6879L36.4839 27.6879L41.4479 28.2872ZM41.1087 31.0959L36.1448 30.4965L35.8057 33.3052L38.0386 35.0424L41.1087 31.0959ZM43.3417 32.833L46.4118 28.8866L46.4118 28.8866L43.3417 32.833ZM46.4786 35.2734L50.799 37.7902L53 34.0119L49.5487 31.3269L46.4786 35.2734ZM44.1625 39.2492L42.3143 43.8951L46.3153 45.4867L48.4828 41.766L44.1625 39.2492ZM40.3908 37.7488L42.239 33.1029L42.239 33.1029L40.3908 37.7488ZM37.7948 36.7161L39.6429 32.0702L37.0469 31.0375L34.8068 32.7071L37.7948 36.7161ZM35.5546 38.3857L38.5426 42.3947L38.5426 42.3947L35.5546 38.3857ZM32.4208 40.1823L30.4722 35.5777L30.4722 35.5777L32.4208 40.1823ZM29.8229 41.2817L27.8744 36.677L25.2765 37.7763L24.8741 40.5683L29.8229 41.2817ZM29.4205 44.0737L24.4716 43.3603L24.4716 43.3603L29.4205 44.0737ZM28.8545 48V53H33.1855L33.8034 48.7133L28.8545 48ZM24.1472 48L19.1983 48.7133L19.8162 53H24.1472V48ZM23.5812 44.0736L18.6323 44.7869L18.6323 44.7869L23.5812 44.0736ZM23.1788 41.2816L28.1276 40.5683L27.7252 37.7763L25.1274 36.677L23.1788 41.2816ZM20.581 40.1823L22.5296 35.5776L22.5296 35.5776L20.581 40.1823ZM17.4485 38.3867L14.461 42.396L14.461 42.396L17.4485 38.3867ZM15.2085 36.7175L18.1961 32.7082L15.9561 31.039L13.3603 32.0716L15.2085 36.7175ZM12.6128 37.7501L14.461 42.396L14.461 42.396L12.6128 37.7501ZM8.84086 39.2506L4.52048 41.7674L6.68797 45.4881L10.689 43.8965L8.84086 39.2506ZM6.52474 35.2748L3.45462 31.3283L0.00331678 34.0132L2.20436 37.7916L6.52474 35.2748ZM9.66046 32.8353L6.59034 28.8889L6.59034 28.8889L9.66046 32.8353ZM11.8937 31.098L14.9638 35.0444L17.1971 33.307L16.8576 30.498L11.8937 31.098ZM11.5542 28.2889L16.5181 27.689L16.5181 27.689L11.5542 28.2889ZM11.5539 24.7138L6.58993 24.1148L6.58993 24.1148L11.5539 24.7138ZM11.8929 21.9053L16.8568 22.5044L17.1958 19.6959L14.963 17.9589L11.8929 21.9053ZM9.66005 20.1683L6.58992 24.1148L6.58993 24.1148L9.66005 20.1683ZM6.52142 17.7266L2.20105 15.2098L-2.91779e-07 18.9881L3.4513 21.6731L6.52142 17.7266ZM8.83754 13.7508L10.6857 9.1049L6.68466 7.51325L4.51717 11.234L8.83754 13.7508ZM12.6106 15.2517L10.7624 19.8976L10.7624 19.8976L12.6106 15.2517ZM15.2067 16.2845L13.3586 20.9304L15.9547 21.9631L18.1948 20.2934L15.2067 16.2845ZM17.4469 14.6147L20.435 18.6236L20.435 18.6236L17.4469 14.6147ZM20.581 12.8179L22.5296 17.4226L22.5296 17.4226L20.581 12.8179ZM23.1788 11.7186L25.1274 16.3232L27.7252 15.2239L28.1276 12.4319L23.1788 11.7186ZM23.5812 8.92663L18.6323 8.21329L18.6323 8.21329L23.5812 8.92663ZM24.1472 5V0H19.8162L19.1983 4.28666L24.1472 5ZM28.8546 5L33.8034 4.28666L33.1855 0H28.8546V5ZM46.3126 7.51278L50.633 4.99596L48.4655 1.27524L44.4645 2.86689L46.3126 7.51278ZM52.9973 18.9877L56.0674 22.9341L59.5187 20.2492L57.3177 16.4709L52.9973 18.9877ZM38.5411 10.6044L35.5535 14.6136L37.7935 16.2828L40.3893 15.2502L38.5411 10.6044ZM34.3694 8.21323L29.4206 8.92657L29.823 11.7186L32.4208 12.8179L34.3694 8.21323ZM33.1855 0L38.1344 -0.71334L37.5165 -5H33.1855V0ZM19.8162 0V-5H15.4853L14.8674 -0.713342L19.8162 0ZM18.6323 8.21329L20.581 12.8179L23.1788 11.7186L23.5812 8.92663L18.6323 8.21329ZM14.4588 10.6059L12.6106 15.2517L15.2067 16.2845L17.4469 14.6147L14.4588 10.6059ZM6.68466 7.51325L8.53282 2.86736L4.53177 1.27571L2.36428 4.99643L6.68466 7.51325ZM0 18.9881L-4.32037 16.4713L-6.52142 20.2497L-3.07012 22.9346L0 18.9881ZM6.58993 24.1148L11.5539 24.7138L11.8929 21.9053L9.66005 20.1683L6.58993 24.1148ZM6.59034 28.8889L9.66046 32.8353L11.8937 31.098L11.5542 28.2889L6.59034 28.8889ZM0.00331668 34.0132L-3.0668 30.0668L-6.5181 32.7517L-4.31706 36.5301L0.00331668 34.0132ZM6.68797 45.4881L2.3676 48.005L4.53509 51.7257L8.53614 50.134L6.68797 45.4881ZM14.461 42.396L17.4485 38.3867L15.2085 36.7175L12.6128 37.7501L14.461 42.396ZM18.6323 44.7869L23.5812 44.0736L23.1788 41.2816L20.581 40.1823L18.6323 44.7869ZM19.8162 53L14.8673 53.7133L15.4852 58H19.8162V53ZM33.1855 53V58H37.5165L38.1344 53.7133L33.1855 53ZM34.3694 44.787L32.4208 40.1823L29.8229 41.2817L29.4205 44.0737L34.3694 44.787ZM38.5426 42.3947L40.3908 37.7488L37.7948 36.7161L35.5546 38.3857L38.5426 42.3947ZM46.3153 45.4868L44.4672 50.1326L48.4682 51.7243L50.6357 48.0036L46.3153 45.4868ZM53 34.0119L57.3204 36.5287L59.5214 32.7504L56.0701 30.0654L53 34.0119ZM46.4118 28.8866L41.4479 28.2872L41.1087 31.0959L43.3417 32.833L46.4118 28.8866ZM46.4115 24.1111L43.3414 20.1646L41.1081 21.902L41.4477 24.7111L46.4115 24.1111ZM34.7719 11.0052L34.3694 8.21323L24.4717 9.63991L24.8742 12.4319L34.7719 11.0052ZM34.3694 8.21323L31.7716 7.11389L27.8744 16.3232L30.4722 17.4226L34.3694 8.21323ZM38.5411 10.6043C37.2608 9.65033 35.8616 8.84471 34.3694 8.21324L30.4722 17.4226C31.2193 17.7387 31.9218 18.1429 32.5659 18.6229L38.5411 10.6043ZM40.7811 12.2736L38.5411 10.6044L32.5659 18.6229L34.8059 20.2921L40.7811 12.2736ZM38.5411 10.6044L35.9454 11.637L39.6417 20.9287L42.2374 19.8961L38.5411 10.6044ZM42.3116 9.10442L38.5411 10.6044L42.2374 19.8961L46.0079 18.3962L42.3116 9.10442ZM50.7963 15.2093L48.4801 11.2335L39.8394 16.2671L42.1555 20.243L50.7963 15.2093ZM46.4115 24.1111L49.546 21.6726L43.4058 13.7797L40.2713 16.2182L46.4115 24.1111ZM44.1782 25.8485L46.4115 24.1111L40.2713 16.2182L38.038 17.9556L44.1782 25.8485ZM46.4115 24.1111L46.072 21.302L36.1442 22.502L36.4838 25.3111L46.4115 24.1111ZM46.5549 26.5001C46.5549 25.6916 46.5062 24.8943 46.4115 24.1111L36.4838 25.3111C36.5304 25.6971 36.5549 26.0936 36.5549 26.5001H46.5549ZM46.4118 28.8866C46.5063 28.1042 46.5549 27.3078 46.5549 26.5001H36.5549C36.5549 26.9061 36.5305 27.3022 36.4839 27.6879L46.4118 28.8866ZM46.0727 31.6953L46.4118 28.8866L36.4839 27.6879L36.1448 30.4965L46.0727 31.6953ZM46.4118 28.8866L44.1789 27.1495L38.0386 35.0424L40.2716 36.7795L46.4118 28.8866ZM49.5487 31.3269L46.4118 28.8866L40.2716 36.7795L43.4085 39.2198L49.5487 31.3269ZM48.4828 41.766L50.799 37.7902L42.1582 32.7565L39.8421 36.7324L48.4828 41.766ZM38.5426 42.3947L42.3143 43.8951L46.0106 34.6033L42.239 33.1029L38.5426 42.3947ZM35.9466 41.362L38.5426 42.3947L42.239 33.1029L39.6429 32.0702L35.9466 41.362ZM38.5426 42.3947L40.7828 40.7251L34.8068 32.7071L32.5666 34.3768L38.5426 42.3947ZM34.3693 44.787C35.8622 44.1553 37.2619 43.3492 38.5426 42.3947L32.5666 34.3768C31.9223 34.857 31.2196 35.2614 30.4722 35.5777L34.3693 44.787ZM31.7715 45.8863L34.3694 44.787L30.4722 35.5777L27.8744 36.677L31.7715 45.8863ZM34.3694 44.787L34.7718 41.995L24.8741 40.5683L24.4716 43.3603L34.3694 44.787ZM33.8034 48.7133L34.3694 44.787L24.4716 43.3603L23.9057 47.2867L33.8034 48.7133ZM24.1472 53H28.8545V43H24.1472V53ZM18.6323 44.7869L19.1983 48.7133L29.096 47.2867L28.53 43.3602L18.6323 44.7869ZM18.2299 41.995L18.6323 44.7869L28.53 43.3602L28.1276 40.5683L18.2299 41.995ZM18.6323 44.7869L21.2301 45.8863L25.1274 36.677L22.5296 35.5776L18.6323 44.7869ZM14.461 42.396C15.7411 43.3499 17.1403 44.1555 18.6323 44.7869L22.5296 35.5776C21.7826 35.2615 21.0802 34.8573 20.4361 34.3774L14.461 42.396ZM12.2209 40.7268L14.461 42.396L20.4361 34.3774L18.1961 32.7082L12.2209 40.7268ZM14.461 42.396L17.0567 41.3634L13.3603 32.0716L10.7646 33.1042L14.461 42.396ZM10.689 43.8965L14.461 42.396L10.7646 33.1042L6.99269 34.6047L10.689 43.8965ZM2.20436 37.7916L4.52048 41.7674L13.1612 36.7338L10.8451 32.7579L2.20436 37.7916ZM6.59034 28.8889L3.45462 31.3283L9.59486 39.2212L12.7306 36.7818L6.59034 28.8889ZM8.82361 27.1515L6.59034 28.8889L12.7306 36.7818L14.9638 35.0444L8.82361 27.1515ZM6.59034 28.8889L6.92985 31.6979L16.8576 30.498L16.5181 27.689L6.59034 28.8889ZM6.44698 26.5001C6.44698 27.3085 6.49569 28.1057 6.59034 28.8889L16.5181 27.689C16.4714 27.303 16.447 26.9065 16.447 26.5001H6.44698ZM6.58993 24.1148C6.49554 24.8968 6.44698 25.6928 6.44698 26.5001H16.447C16.447 26.0943 16.4714 25.6984 16.5179 25.3129L6.58993 24.1148ZM6.92887 21.3063L6.58993 24.1148L16.5179 25.3129L16.8568 22.5044L6.92887 21.3063ZM6.58993 24.1148L8.82273 25.8518L14.963 17.9589L12.7302 16.2219L6.58993 24.1148ZM3.4513 21.6731L6.58992 24.1148L12.7302 16.2219L9.59154 13.7802L3.4513 21.6731ZM4.51717 11.234L2.20105 15.2098L10.8418 20.2435L13.1579 16.2676L4.51717 11.234ZM14.4588 10.6059L10.6857 9.1049L6.98937 18.3967L10.7624 19.8976L14.4588 10.6059ZM17.0549 11.6386L14.4588 10.6059L10.7624 19.8976L13.3586 20.9304L17.0549 11.6386ZM14.4588 10.6059L12.2186 12.2756L18.1948 20.2934L20.435 18.6236L14.4588 10.6059ZM18.6323 8.21329C17.1394 8.84508 15.7395 9.65121 14.4588 10.6059L20.435 18.6236C21.0794 18.1433 21.7821 17.7389 22.5296 17.4226L18.6323 8.21329ZM21.2301 7.11394L18.6323 8.21329L22.5296 17.4226L25.1274 16.3232L21.2301 7.11394ZM18.6323 8.21329L18.2299 11.0052L28.1276 12.4319L28.53 9.63997L18.6323 8.21329ZM19.1983 4.28666L18.6323 8.21329L28.53 9.63997L29.096 5.71334L19.1983 4.28666ZM28.8546 0H24.1472V10H28.8546V0ZM34.3694 8.21323L33.8034 4.28666L23.9057 5.71334L24.4717 9.63992L34.3694 8.21323ZM41.9923 10.0296L48.6769 21.5045L57.3177 16.4709L50.633 4.99596L41.9923 10.0296ZM40.3893 15.2502L48.1608 12.1587L44.4645 2.86689L36.6929 5.95846L40.3893 15.2502ZM32.4208 12.8179C33.5405 13.2917 34.5913 13.8966 35.5535 14.6136L41.5287 6.59509C39.9304 5.40405 38.1828 4.3977 36.318 3.60857L32.4208 12.8179ZM28.2367 0.71334L29.4206 8.92657L39.3183 7.49989L38.1344 -0.71334L28.2367 0.71334ZM19.8162 5H33.1855V-5H19.8162V5ZM23.5812 8.92663L24.7651 0.713342L14.8674 -0.713342L13.6835 7.49995L23.5812 8.92663ZM17.4469 14.6147C18.4095 13.8973 19.4608 13.292 20.581 12.8179L16.6837 3.60864C14.818 4.39817 13.0696 5.40515 11.4707 6.59697L17.4469 14.6147ZM4.83649 12.1591L12.6106 15.2517L16.3069 5.95997L8.53282 2.86736L4.83649 12.1591ZM4.32037 21.505L11.005 10.0301L2.36428 4.99643L-4.32037 16.4713L4.32037 21.505ZM9.66005 20.1683L3.07012 15.0417L-3.07012 22.9346L3.5198 28.0612L9.66005 20.1683ZM11.447 26.5001C11.447 25.8936 11.4835 25.2976 11.5539 24.7138L1.62594 23.5157C1.50763 24.4961 1.44698 25.4921 1.44698 26.5001H11.447ZM11.5542 28.2889C11.4836 27.7044 11.447 27.1075 11.447 26.5001H1.44698C1.44698 27.5095 1.50781 28.5071 1.62647 29.4888L11.5542 28.2889ZM3.07344 37.9597L9.66046 32.8353L3.52022 24.9425L-3.0668 30.0668L3.07344 37.9597ZM11.0083 42.9713L4.32369 31.4964L-4.31706 36.5301L2.3676 48.005L11.0083 42.9713ZM12.6128 37.7501L4.83981 40.8423L8.53614 50.134L16.3091 47.0419L12.6128 37.7501ZM20.581 40.1823C19.4614 39.7085 18.4107 39.1036 17.4485 38.3867L11.4734 46.4053C13.0716 47.5962 14.8191 48.6025 16.6837 49.3916L20.581 40.1823ZM24.7651 52.2867L23.5812 44.0736L13.6835 45.5003L14.8673 53.7133L24.7651 52.2867ZM33.1855 48H19.8162V58H33.1855V48ZM29.4205 44.0737L28.2367 52.2867L38.1344 53.7133L39.3182 45.5003L29.4205 44.0737ZM35.5546 38.3857C34.5921 39.1031 33.5409 39.7083 32.4208 40.1823L36.3179 49.3917C38.1835 48.6022 39.9318 47.5954 41.5306 46.4037L35.5546 38.3857ZM48.1635 40.8409L40.3908 37.7488L36.6945 47.0406L44.4672 50.1326L48.1635 40.8409ZM48.6796 31.495L41.995 42.9699L50.6357 48.0036L57.3204 36.5287L48.6796 31.495ZM43.3417 32.833L49.9299 37.9583L56.0701 30.0654L49.4819 24.9402L43.3417 32.833ZM41.5549 26.5001C41.5549 27.1069 41.5184 27.7032 41.4479 28.2872L51.3758 29.486C51.4942 28.5051 51.5549 27.5086 51.5549 26.5001H41.5549ZM41.4477 24.7111C41.5183 25.2957 41.5549 25.8926 41.5549 26.5001H51.5549C51.5549 25.4905 51.4941 24.4929 51.3754 23.511L41.4477 24.7111ZM49.9272 15.0412L43.3414 20.1646L49.4816 28.0575L56.0674 22.9341L49.9272 15.0412ZM26.5013 37.0999C32.4195 37.0999 37.1967 32.3429 37.1967 26.4999H27.1967C27.1967 26.7583 26.9586 27.0999 26.5013 27.0999V37.0999ZM15.8058 26.4999C15.8058 32.3429 20.583 37.0999 26.5013 37.0999V27.0999C26.0439 27.0999 25.8058 26.7583 25.8058 26.4999H15.8058ZM26.5013 15.8998C20.583 15.8998 15.8058 20.6569 15.8058 26.4999H25.8058C25.8058 26.2415 26.0439 25.8998 26.5013 25.8998V15.8998ZM37.1967 26.4999C37.1967 20.6569 32.4195 15.8998 26.5013 15.8998V25.8998C26.9586 25.8998 27.1967 26.2415 27.1967 26.4999H37.1967ZM26.5013 42.0999C35.1273 42.0999 42.1967 35.1577 42.1967 26.4999H32.1967C32.1967 29.5506 29.6891 32.0999 26.5013 32.0999V42.0999ZM10.8058 26.4999C10.8058 35.1577 17.8752 42.0999 26.5013 42.0999V32.0999C23.3134 32.0999 20.8058 29.5506 20.8058 26.4999H10.8058ZM26.5013 10.8998C17.8752 10.8998 10.8058 17.8421 10.8058 26.4999H20.8058C20.8058 23.4492 23.3134 20.8998 26.5013 20.8998V10.8998ZM42.1967 26.4999C42.1967 17.8421 35.1273 10.8998 26.5013 10.8998V20.8998C29.6891 20.8998 32.1967 23.4492 32.1967 26.4999H42.1967Z" fill="white" mask="url(#path-1-inside-1_1028_9257)"/>
</svg>
