<svg width="221" height="214" viewBox="0 0 221 214" fill="none" xmlns="http://www.w3.org/2000/svg">
<path d="M163.499 2C206.275 6.34574 258.692 24.7351 156.027 63.5266C74.4314 86.6277 -90.7577 139.28 69.9983 165.08L126.564 174" stroke="url(#paint0_linear_588_2098)" stroke-width="3"/>
<path d="M149.563 64.1625L157.036 52.7236L163.206 64.9149L149.563 64.1625Z" fill="#D9D9D9"/>
<path d="M33.5063 163.337L41.5724 146.708L51.9402 162.008L33.5063 163.337Z" fill="#D9D9D9"/>
<path fill-rule="evenodd" clip-rule="evenodd" d="M219.369 170.786C219.409 171.927 218.803 172.986 217.802 173.52L166.382 200.992C165.586 201.417 164.639 201.456 163.803 201.1C162.968 200.744 162.334 200.03 162.078 199.157L156.312 179.471L140.449 180.81C139.236 180.913 138.074 180.268 137.511 179.179C136.948 178.089 137.095 176.773 137.883 175.848L150.807 160.679L144.66 139.693C144.328 138.562 144.683 137.347 145.568 136.584C146.453 135.821 147.705 135.649 148.773 136.146L217.612 168.138C218.648 168.619 219.329 169.645 219.369 170.786ZM152.834 167.599L147.209 174.2L154.585 173.578L152.834 167.599ZM158.34 165.122L206.956 172.475L166.781 193.939L158.34 165.122ZM196.158 164.77L156.479 158.768L152.261 144.369L196.158 164.77Z" fill="white"/>
<defs>
<linearGradient id="paint0_linear_588_2098" x1="88.4985" y1="2" x2="88.4985" y2="174" gradientUnits="userSpaceOnUse">
<stop stop-color="#1A1B1B"/>
<stop offset="0.49" stop-color="white"/>
</linearGradient>
</defs>
</svg>
