<svg width="141" height="142" viewBox="0 0 141 142" fill="none" xmlns="http://www.w3.org/2000/svg">
<path d="M124.184 71.9012C124.184 103.393 99.5789 128.86 69.3026 128.86C39.0264 128.86 14.4209 103.393 14.4209 71.9012C14.4209 40.409 39.0264 14.9424 69.3026 14.9424C99.5789 14.9424 124.184 40.409 124.184 71.9012Z" stroke="#959494" stroke-width="2"/>
<path d="M73.5613 26.8598L72.4338 26.6685L72.4284 27.8646L72.3961 35.0076L73.3727 35.0125L72.3961 35.0076C72.3953 35.1745 72.2629 35.3132 72.1035 35.314L72.1081 36.3368L72.1035 35.314L65.5769 35.3464C65.4248 35.3471 65.3048 35.2215 65.3056 35.0622L65.3379 27.9192L65.3434 26.7005L64.1963 26.9062L58.5375 27.9212C58.4343 27.9397 58.3356 27.8976 58.2763 27.818C58.2168 27.7381 58.2006 27.6253 58.2437 27.5218L68.7407 2.30556C68.7881 2.19152 68.8954 2.11918 69.009 2.11862C69.1204 2.11807 69.2166 2.18583 69.2583 2.288L79.5277 27.4012C79.5666 27.4963 79.5545 27.6129 79.4868 27.7033C79.4189 27.794 79.3116 27.8357 79.2112 27.8187L73.5613 26.8598Z" fill="#FFC700" stroke="black" stroke-width="2"/>
<path d="M63.8785 115.092L65.1104 115.362L65.0545 114.046L64.7514 106.903C64.748 106.822 64.7739 106.779 64.7954 106.756C64.8169 106.734 64.858 106.707 64.935 106.71L71.4616 107.014C71.6514 107.023 71.8354 107.216 71.8438 107.414L72.147 114.557L72.1939 115.662L73.242 115.527L78.8545 114.803L78.7351 113.788L78.8545 114.803C78.9463 114.791 79.0879 114.835 79.191 114.97L79.954 114.332L79.191 114.97C79.2932 115.104 79.2901 115.236 79.2665 115.299L69.9514 139.98C69.9392 140.013 69.921 140.034 69.8988 140.048C69.876 140.063 69.8381 140.078 69.7814 140.076C69.6568 140.07 69.5055 139.976 69.4337 139.815L57.9824 114.167C57.9198 114.027 57.9553 113.929 57.981 113.894C57.9954 113.875 58.0156 113.858 58.0456 113.847C58.0763 113.836 58.1225 113.829 58.1823 113.842L63.8785 115.092Z" fill="#FFC700" stroke="black" stroke-width="2"/>
<path d="M25.6634 67.0445L25.4053 68.3346L26.6627 68.2761L33.4835 67.9586C33.5605 67.955 33.6016 67.9821 33.6231 68.0046C33.6446 68.0272 33.6705 68.0702 33.6671 68.1509L33.377 74.9857C33.3686 75.1845 33.1846 75.3772 32.9948 75.386L26.174 75.7035L25.119 75.7526L25.248 76.8503L25.9391 82.7279L26.9084 82.6029L25.9391 82.7279C25.9504 82.824 25.9087 82.9723 25.7796 83.0803C25.6517 83.1874 25.5257 83.184 25.4661 83.1594L1.898 73.4042C1.86703 73.3914 1.84697 73.3724 1.83296 73.3492C1.81858 73.3253 1.80415 73.2856 1.80667 73.2262C1.81221 73.0957 1.90176 72.9372 2.05538 72.862L26.5465 60.8698C26.6804 60.8043 26.7735 60.8414 26.8072 60.8684C26.826 60.8834 26.8419 60.9046 26.8524 60.936C26.8631 60.9682 26.8697 61.0165 26.8572 61.0792L25.6634 67.0445Z" fill="#FFC700" stroke="black" stroke-width="2"/>
<path d="M115.5 76.9978L115.674 75.8151L114.531 75.8179L107.711 75.8348C107.552 75.8352 107.418 75.6978 107.417 75.5312L107.339 68.6968L106.363 68.7082L107.339 68.6968C107.338 68.5372 107.457 68.4102 107.609 68.4099L114.43 68.393L115.593 68.3902L115.389 67.1911L114.38 61.2723C114.361 61.1644 114.401 61.0605 114.476 60.9975C114.553 60.9344 114.66 60.9168 114.759 60.961L138.912 71.7747C139.021 71.8234 139.091 71.9349 139.092 72.0537C139.093 72.1705 139.029 72.272 138.931 72.3167L115.024 83.249C114.934 83.2906 114.822 83.2786 114.736 83.2086L114.139 84.0176L114.736 83.2086C114.649 83.1384 114.608 83.0267 114.624 82.9212L115.5 76.9978Z" fill="#FFC700" stroke="black" stroke-width="2"/>
<ellipse cx="68.7648" cy="71.9008" rx="18.8064" ry="19.6947" fill="white"/>
</svg>
