<svg width="59" height="32" viewBox="0 0 59 32" fill="none" xmlns="http://www.w3.org/2000/svg">
<rect x="1.5" y="1.5" width="56" height="29" stroke="white" stroke-width="3"/>
<path d="M6.7383 9.724H8.1783L14.6223 19.462H14.6583C14.6343 19.114 14.6163 18.742 14.6043 18.346C14.5803 18.01 14.5623 17.626 14.5503 17.194C14.5503 16.75 14.5503 16.3 14.5503 15.844V9.724H15.9903V22H14.5503L8.1063 12.226H8.0703C8.0823 12.586 8.1003 12.964 8.1243 13.36C8.1363 13.708 8.1483 14.098 8.1603 14.53C8.1723 14.962 8.1783 15.406 8.1783 15.862V22H6.7383V9.724ZM18.5 15.862C18.5 14.698 18.68 13.714 19.04 12.91C19.412 12.106 19.88 11.458 20.444 10.966C21.02 10.474 21.656 10.12 22.352 9.904C23.06 9.676 23.75 9.562 24.422 9.562C25.094 9.562 25.778 9.658 26.474 9.85C27.182 10.03 27.818 10.36 28.382 10.84C28.958 11.308 29.426 11.95 29.786 12.766C30.158 13.582 30.344 14.62 30.344 15.88C30.344 17.056 30.158 18.046 29.786 18.85C29.426 19.654 28.958 20.308 28.382 20.812C27.818 21.316 27.182 21.682 26.474 21.91C25.778 22.126 25.094 22.234 24.422 22.234C23.75 22.234 23.06 22.126 22.352 21.91C21.656 21.694 21.02 21.34 20.444 20.848C19.88 20.356 19.412 19.702 19.04 18.886C18.68 18.07 18.5 17.062 18.5 15.862ZM28.634 15.952C28.634 14.332 28.256 13.102 27.5 12.262C26.756 11.422 25.754 11.002 24.494 11.002C23.858 11.002 23.276 11.104 22.748 11.308C22.232 11.5 21.782 11.794 21.398 12.19C21.026 12.586 20.732 13.084 20.516 13.684C20.312 14.272 20.21 14.968 20.21 15.772C20.21 17.392 20.582 18.634 21.326 19.498C22.082 20.362 23.09 20.794 24.35 20.794C24.974 20.794 25.55 20.698 26.078 20.506C26.606 20.302 27.056 19.996 27.428 19.588C27.812 19.18 28.106 18.676 28.31 18.076C28.526 17.476 28.634 16.768 28.634 15.952ZM32.8418 9.724H34.2818L40.7258 19.462H40.7618C40.7378 19.114 40.7198 18.742 40.7078 18.346C40.6838 18.01 40.6658 17.626 40.6538 17.194C40.6538 16.75 40.6538 16.3 40.6538 15.844V9.724H42.0938V22H40.6538L34.2098 12.226H34.1738C34.1858 12.586 34.2038 12.964 34.2278 13.36C34.2398 13.708 34.2518 14.098 34.2638 14.53C34.2758 14.962 34.2818 15.406 34.2818 15.862V22H32.8418V9.724ZM45.2695 9.724H52.7935V11.11H46.7815V15.034H52.3615V16.384H46.7815V20.614H52.9735V22H45.2695V9.724Z" fill="white"/>
</svg>
