<svg width="39" height="38" viewBox="0 0 39 38" fill="none" xmlns="http://www.w3.org/2000/svg">
<path d="M37 28.7158L37 35.0204" stroke="#CECCCC" stroke-width="4" stroke-linecap="round"/>
<path d="M6 14.1L7.36721 11.0238C7.66311 10.358 8.54882 10.222 9.03086 10.7683L10.0753 11.952C10.5288 12.466 11.3533 12.3817 11.6934 11.7865L14.2048 7.39159C14.5718 6.74937 15.4848 6.71404 15.9004 7.32598L20.5 14.1" stroke="#CECCCC" stroke-width="2" stroke-linecap="round"/>
<path d="M4.8046 29.1552L13.6379 19.8802C13.835 19.6733 14.165 19.6733 14.3621 19.8802L23.1954 29.1552C23.4986 29.4735 23.2729 30 22.8333 30H5.16667C4.72707 30 4.50143 29.4735 4.8046 29.1552Z" stroke="#CECCCC" stroke-width="2" stroke-linecap="round"/>
<path d="M20.5 19H24.5C25.0523 19 25.5 18.5523 25.5 18V2C25.5 1.44772 25.0523 1 24.5 1H2C1.44771 1 1 1.44772 1 2V18C1 18.5523 1.44772 19 2 19H7.5" stroke="#CECCCC" stroke-width="2" stroke-linecap="round"/>
<circle cx="5.5" cy="5.5" r="1.5" fill="#CECCCC"/>
</svg>
