<svg width="27" height="31" viewBox="0 0 27 31" fill="none" xmlns="http://www.w3.org/2000/svg">
<rect x="20.5" y="6.5" width="4" height="1" transform="rotate(90 20.5 6.5)" fill="#D9D9D9" stroke="#E0DFDF"/>
<rect x="20.5" y="24.5" width="4" height="1" transform="rotate(90 20.5 24.5)" fill="#D9D9D9" stroke="#E0DFDF"/>
<circle cx="19.5" cy="17.5" r="6.5" stroke="#E0DFDF" stroke-width="2"/>
<path d="M21 30H1V5.35H5.53725V1H16.4491V5.35H21" stroke="#E0DFDF" stroke-width="2"/>
<path d="M5 10.5C5 10.2239 5.22386 10 5.5 10H11.5C11.7761 10 12 10.2239 12 10.5C12 10.7761 11.7761 11 11.5 11H5.5C5.22386 11 5 10.7761 5 10.5ZM5 18C5 17.7239 5.22386 17.5 5.5 17.5H9.51002C9.42859 17.6443 9.37231 17.724 9.33517 17.7646C8.87622 18.2666 8.46174 18.5 8.19553 18.5H5.5C5.22386 18.5 5 18.2761 5 18ZM5 24.5C5 24.2239 5.22386 24 5.5 24H11.5C11.7761 24 12 24.2239 12 24.5C12 24.7761 11.7761 25 11.5 25H5.5C5.22386 25 5 24.7761 5 24.5Z" stroke="#E0DFDF" stroke-width="2"/>
<path d="M16.15 14.455H17.47L19.3 19.78L19.63 20.965H19.645L19.99 19.78L21.94 14.455H23.2L20.275 22H18.925L16.15 14.455Z" fill="#E0DFDF"/>
</svg>
