<svg width="59" height="49" viewBox="0 0 59 49" fill="none" xmlns="http://www.w3.org/2000/svg">
<path d="M40 45C44.3333 46.6667 60.5 42 56 29.5" stroke="white" stroke-width="3" stroke-linecap="round"/>
<path d="M21.237 2L16.0736 9.46341H8V36H51.1219V9.46341H44.1123L37.8849 2H29.561H21.237Z" stroke="white" stroke-width="4" stroke-linecap="round"/>
<path fill-rule="evenodd" clip-rule="evenodd" d="M3.72985 36.3178C4.68937 36.3721 5.18335 36.7556 4.8332 37.1744C4.24071 37.8831 3.95036 38.622 4.02988 39.3573C4.1094 40.0926 4.55099 40.7523 5.2813 41.318C6.03894 41.9049 7.10905 42.3917 8.41251 42.7558C9.71591 43.1198 11.2503 43.3603 12.9346 43.4555C14.5582 43.5472 16.3245 43.5041 18.1651 43.3051L18.4408 43.2752L16.3242 42.8426C15.4998 42.6741 15.3204 42.2236 15.9235 41.8363C16.5265 41.4491 17.6837 41.2717 18.508 41.4402L24.8799 42.7425C25.3334 42.8352 25.6115 43.0197 25.6357 43.2439C25.66 43.4682 25.4277 43.7078 25.0046 43.8953L19.0585 46.5298C18.2892 46.8706 17.1208 46.9448 16.4489 46.6954C15.777 46.446 15.856 45.9675 16.6253 45.6266L18.6004 44.7515L18.3248 44.7814C15.9899 45.0339 13.7389 45.0893 11.6666 44.9723C9.51959 44.8509 7.56799 44.5446 5.91237 44.0823C4.25668 43.6199 2.89466 43.0007 1.92889 42.2526C0.996743 41.5306 0.435355 40.6897 0.334483 39.757C0.23361 38.8242 0.602243 37.8827 1.35849 36.9781C1.70864 36.5592 2.77034 36.2636 3.72985 36.3178Z" fill="white"/>
<path fill-rule="evenodd" clip-rule="evenodd" d="M32.9717 12.3164C32.8989 12.7242 32.5093 12.9957 32.1015 12.9229C30.2203 12.5869 28.2136 12.9648 26.5184 14.1367C23.1111 16.4921 22.2584 21.1637 24.6138 24.5709C26.9692 27.9782 31.6408 28.8309 35.048 26.4755C36.7433 25.3035 37.8057 23.5597 38.1561 21.6812C38.232 21.274 38.6236 21.0054 39.0308 21.0814C39.438 21.1573 39.7066 21.549 39.6306 21.9561C39.2107 24.208 37.9349 26.3033 35.901 27.7094C31.8123 30.5358 26.2064 29.5126 23.3799 25.4239C20.5535 21.3352 21.5767 15.7293 25.6654 12.9029C27.6993 11.4968 30.1103 11.0435 32.3652 11.4462C32.773 11.5191 33.0445 11.9087 32.9717 12.3164Z" fill="white" stroke="white" stroke-width="3" stroke-linecap="round" stroke-linejoin="round"/>
</svg>
