<svg width="73" height="75" viewBox="0 0 73 75" fill="none" xmlns="http://www.w3.org/2000/svg">
<rect x="55" y="75" width="16" height="3" transform="rotate(-90 55 75)" fill="#A5A5A5"/>
<rect x="62" y="75" width="16" height="3" transform="rotate(-90 62 75)" fill="#A5A5A5"/>
<rect x="70" y="75" width="16" height="3" transform="rotate(-90 70 75)" fill="#A5A5A5"/>
<rect width="16.6098" height="3.11805" transform="matrix(0.410385 -0.911912 0.93978 0.34178 37.8823 71.5088)" fill="#A5A5A5"/>
<rect width="16.3908" height="3.15291" transform="matrix(0.180872 -0.983507 0.989136 0.147005 47 73.8545)" fill="#A5A5A5"/>
<rect width="17.4267" height="2.98015" transform="matrix(0.793823 -0.608149 0.687982 0.725728 22.8677 60.5664)" fill="#A5A5A5"/>
<rect width="16.9392" height="3.06397" transform="matrix(0.602226 -0.798326 0.853846 0.520525 29.98 67.043)" fill="#A5A5A5"/>
<rect width="17.5709" height="2.95442" transform="matrix(0.839688 -0.54307 0.62484 0.780753 14.7939 50.5078)" fill="#A5A5A5"/>
<rect width="17.5" height="2.96713" transform="matrix(0.817597 -0.57579 0.656987 0.753902 18.9165 55.7832)" fill="#A5A5A5"/>
<rect width="17.6682" height="2.93682" transform="matrix(0.868659 -0.495411 0.576595 0.81703 11.8042 45.2246)" fill="#A5A5A5"/>
<rect width="17.9562" height="2.88351" transform="matrix(0.946783 -0.321873 0.387765 0.921758 5.48242 33.7266)" fill="#A5A5A5"/>
<rect width="17.9815" height="2.87874" transform="matrix(0.953165 -0.30245 0.365484 0.930818 3.07568 27.8613)" fill="#A5A5A5"/>
<rect width="18.0825" height="2.85954" transform="matrix(0.977991 -0.208645 0.255247 0.966876 1 21.4814)" fill="#A5A5A5"/>
<rect width="18.1702" height="2.84267" transform="matrix(0.998733 -0.0503292 0.0622365 0.998062 1 13.915)" fill="#A5A5A5"/>
<rect width="18.1702" height="2.84267" transform="matrix(1 0 0.011926 0.999929 1.06006 6.4541)" fill="#A5A5A5"/>
<rect width="18.1702" height="2.84267" transform="matrix(1 0 0.011926 0.999929 0 0)" fill="#A5A5A5"/>
<rect width="17.808" height="2.91116" transform="matrix(0.907907 -0.419171 0.496057 0.86829 8.64307 39.6738)" fill="#A5A5A5"/>
</svg>
