<svg width="78" height="32" viewBox="0 0 78 32" fill="none" xmlns="http://www.w3.org/2000/svg">
<rect x="23.5703" y="2.46094" width="3.69251" height="6.64652" fill="white"/>
<rect x="23.5703" y="21.6611" width="3.69251" height="6.64652" fill="white"/>
<rect x="35.3711" y="7.26367" width="3.69251" height="6.64652" transform="rotate(56.2404 35.3711 7.26367)" fill="white"/>
<rect x="13.5371" y="10.1533" width="3.69251" height="6.64652" transform="rotate(-56.4251 13.5371 10.1533)" fill="white"/>
<rect x="37.8203" y="19.2881" width="3.69251" height="6.64652" transform="rotate(118.436 37.8203 19.2881)" fill="white"/>
<rect x="19.2" y="17.9034" width="2.69251" height="5.64652" transform="rotate(57.0565 19.2 17.9034)" stroke="white"/>
<rect x="1" y="1" width="75.5432" height="30.002" rx="1" stroke="white" stroke-width="2"/>
<path d="M50.8067 6.95H52.8067L61.7567 20.475H61.8067C61.7734 19.9917 61.7484 19.475 61.7317 18.925C61.6984 18.4583 61.6734 17.925 61.6567 17.325C61.6567 16.7083 61.6567 16.0833 61.6567 15.45V6.95H63.6567V24H61.6567L52.7067 10.425H52.6567C52.6734 10.925 52.6984 11.45 52.7317 12C52.7484 12.4833 52.7651 13.025 52.7817 13.625C52.7984 14.225 52.8067 14.8417 52.8067 15.475V24H50.8067V6.95Z" fill="white"/>
</svg>
