<svg width="78" height="32" viewBox="0 0 78 32" fill="none" xmlns="http://www.w3.org/2000/svg">
<rect x="23.5703" y="2.46094" width="3.69251" height="6.64652" fill="white"/>
<rect x="23.5703" y="21.6611" width="3.69251" height="6.64652" fill="white"/>
<rect x="35.3711" y="7.26367" width="3.69251" height="6.64652" transform="rotate(56.2404 35.3711 7.26367)" fill="white"/>
<rect x="13.5371" y="10.1533" width="3.69251" height="6.64652" transform="rotate(-56.4251 13.5371 10.1533)" fill="white"/>
<rect x="37.8203" y="19.2881" width="3.69251" height="6.64652" transform="rotate(118.436 37.8203 19.2881)" fill="white"/>
<rect x="19.2" y="17.9034" width="2.69251" height="5.64652" transform="rotate(57.0565 19.2 17.9034)" stroke="white"/>
<rect x="1" y="1" width="75.5432" height="30.002" rx="1" stroke="white" stroke-width="2"/>
<path d="M61.5825 9.3C61.1825 9.2 60.7659 9.10833 60.3325 9.025C59.9492 8.94167 59.5075 8.875 59.0075 8.825C58.5242 8.75833 58.0159 8.725 57.4825 8.725C56.2492 8.725 55.3659 8.91667 54.8325 9.3C54.2992 9.66667 54.0325 10.2417 54.0325 11.025C54.0492 11.6417 54.2742 12.1667 54.7075 12.6C55.1409 13.0167 55.6825 13.4083 56.3325 13.775C56.9825 14.125 57.6909 14.475 58.4575 14.825C59.2409 15.1583 59.9575 15.55 60.6075 16C61.2575 16.4333 61.7992 16.95 62.2325 17.55C62.6825 18.1333 62.9075 18.85 62.9075 19.7C62.9075 20.6833 62.6909 21.475 62.2575 22.075C61.8409 22.675 61.3075 23.1417 60.6575 23.475C60.0075 23.8083 59.2909 24.0333 58.5075 24.15C57.7409 24.2667 57.0075 24.325 56.3075 24.325C55.6409 24.325 55.0325 24.2833 54.4825 24.2C53.9325 24.1167 53.4575 24.025 53.0575 23.925C52.5909 23.8083 52.1659 23.675 51.7825 23.525L52.2825 21.5C52.6659 21.6667 53.0742 21.8083 53.5075 21.925C53.8909 22.025 54.3159 22.1167 54.7825 22.2C55.2659 22.2833 55.7742 22.325 56.3075 22.325C56.9575 22.325 57.5492 22.2833 58.0825 22.2C58.6325 22.1167 59.1075 21.9833 59.5075 21.8C59.9075 21.6167 60.2159 21.375 60.4325 21.075C60.6659 20.775 60.7825 20.4083 60.7825 19.975C60.7659 19.325 60.5492 18.8 60.1325 18.4C59.7325 17.9833 59.1909 17.5917 58.5075 17.225C57.8409 16.8417 57.1159 16.475 56.3325 16.125C55.5659 15.775 54.8575 15.375 54.2075 14.925C53.5575 14.475 53.0075 13.9417 52.5575 13.325C52.1242 12.7083 51.9075 11.9417 51.9075 11.025C51.9075 10.4917 51.9992 9.96667 52.1825 9.45C52.3659 8.93333 52.6742 8.475 53.1075 8.075C53.5575 7.675 54.1325 7.35 54.8325 7.1C55.5492 6.85 56.4325 6.725 57.4825 6.725C58.0825 6.725 58.6492 6.75833 59.1825 6.825C59.7325 6.875 60.2075 6.93333 60.6075 7C61.0742 7.08333 61.5159 7.175 61.9325 7.275L61.5825 9.3Z" fill="white"/>
</svg>
