<svg width="27" height="34" viewBox="0 0 27 34" fill="none" xmlns="http://www.w3.org/2000/svg">
<path fill-rule="evenodd" clip-rule="evenodd" d="M8.67857 0L6.75 1.88889H1.92857H0V3.4V3.77778V5.28889H1.92857H25.0714H27V3.77778V3.4V1.88889H25.0714H20.25L18.3214 0H8.67857ZM21.6 10.0068H5.4V30.6H21.6V10.0068ZM5.4 6.60679H1.92857V10.0068V30.6V34H5.4H21.6H25.0714V30.6V10.0068V6.60679H21.6H5.4ZM10.0289 10.8593H7.3289V29.7481H10.0289V10.8593ZM12.1489 10.8593H14.8489V29.7481H12.1489V10.8593ZM19.6715 10.8593H16.9715V29.7481H19.6715V10.8593Z" fill="#7B7B7B"/>
</svg>
