<svg width="40" height="62" viewBox="0 0 40 62" fill="none" xmlns="http://www.w3.org/2000/svg">
<path d="M2 60L5.23469 56.3032C6.15251 55.2543 6.98477 54.1335 7.72348 52.9515L8.56094 51.6116C9.45416 50.1824 10.1173 48.6218 10.526 46.9868L10.5736 46.7966C11.0059 45.0673 11.1265 43.2747 10.9296 41.5031V41.5031C10.6915 39.3596 9.99379 37.2927 8.88418 35.4433L8.17231 34.2569C7.14088 32.5378 6.41266 30.6542 6.0195 28.6884L6.00145 28.5982C5.53591 26.2705 5.56144 23.8713 6.07638 21.554V21.554C6.43268 19.9507 7.01874 18.4072 7.8164 16.9714L8.51663 15.711C9.44233 14.0447 10.542 12.4812 11.7972 11.0467L12.0397 10.7695C13.6888 8.88493 15.564 7.21094 17.623 5.78551L23.0909 2" stroke="black" stroke-width="3" stroke-linecap="round"/>
<path d="M17.8168 59.3423L19.7031 54.0015M15.8396 15.1832L18.4759 11.8878M21.7714 48.7969L22.2363 47.1778C22.3651 46.7291 22.4305 46.2646 22.4305 45.7978V44.1832M17.2031 32.0015L15.1805 29.0241M21.7714 40.2287C21.2031 37.5015 19.7031 36.0015 19.7031 36.0015M13.8623 24.4105L13.7468 22.6623C13.7178 22.2237 13.7468 21.7831 13.833 21.3521L14.2031 19.5015M21.7714 7.93324L25.0668 5.29688" stroke="black" stroke-linecap="round"/>
<path d="M30.9986 59.9993L34.294 52.0902L34.7363 50.874C36.137 47.0221 35.8921 42.7636 34.0591 39.0976V39.0976C33.3416 37.6627 32.3975 36.3528 31.2631 35.2183L27.7031 31.6584L23.7224 27.6777C23.3015 27.2568 22.9232 26.7953 22.593 26.2999V26.2999C21.226 24.2496 20.7554 21.73 21.29 19.3244L21.4261 18.7116C21.6549 17.682 22.0374 16.6927 22.5607 15.7769L23.0369 14.9435C23.9447 13.3549 25.1051 11.9248 26.4726 10.7092L27.4941 9.80123C29.3803 8.12461 31.5078 6.74098 33.8052 5.69668L37.5895 3.97656" stroke="black" stroke-width="3" stroke-linecap="round"/>
</svg>
