<svg width="50" height="50" viewBox="0 0 50 50" fill="none" xmlns="http://www.w3.org/2000/svg">
<path fill-rule="evenodd" clip-rule="evenodd" d="M42.3611 4.16667C40.4435 4.16667 38.8889 5.72123 38.8889 7.63889C38.8889 9.55654 40.4435 11.1111 42.3611 11.1111C44.2788 11.1111 45.8333 9.55654 45.8333 7.63889C45.8333 5.72123 44.2788 4.16667 42.3611 4.16667ZM35.0098 5.55556C35.9166 2.3493 38.8645 0 42.3611 0C46.58 0 50 3.42005 50 7.63889C50 11.8577 46.58 15.2778 42.3611 15.2778C38.8645 15.2778 35.9166 12.9285 35.0098 9.72222H2.08333C0.93274 9.72222 0 8.78948 0 7.63889C0 6.4883 0.93274 5.55556 2.08333 5.55556H35.0098ZM13.8889 21.5278C11.9712 21.5278 10.4167 23.0823 10.4167 25C10.4167 26.9177 11.9712 28.4722 13.8889 28.4722C15.8065 28.4722 17.3611 26.9177 17.3611 25C17.3611 23.0823 15.8065 21.5278 13.8889 21.5278ZM6.53754 22.9167C7.44439 19.7104 10.3923 17.3611 13.8889 17.3611C17.3855 17.3611 20.3334 19.7104 21.2402 22.9167H47.9167C49.0673 22.9167 50 23.8494 50 25C50 26.1506 49.0673 27.0833 47.9167 27.0833H21.2402C20.3334 30.2896 17.3855 32.6389 13.8889 32.6389C10.3923 32.6389 7.44439 30.2896 6.53754 27.0833H2.08333C0.93274 27.0833 0 26.1506 0 25C0 23.8494 0.93274 22.9167 2.08333 22.9167H6.53754ZM29.8611 38.8889C27.9435 38.8889 26.3889 40.4435 26.3889 42.3611C26.3889 44.2788 27.9435 45.8333 29.8611 45.8333C31.7788 45.8333 33.3333 44.2788 33.3333 42.3611C33.3333 40.4435 31.7788 38.8889 29.8611 38.8889ZM22.5098 40.2778C23.4166 37.0715 26.3645 34.7222 29.8611 34.7222C33.3577 34.7222 36.3056 37.0715 37.2125 40.2778H47.9167C49.0673 40.2778 50 41.2105 50 42.3611C50 43.5117 49.0673 44.4444 47.9167 44.4444H37.2125C36.3056 47.6507 33.3577 50 29.8611 50C26.3645 50 23.4166 47.6507 22.5098 44.4444H2.08333C0.93274 44.4444 0 43.5117 0 42.3611C0 41.2105 0.93274 40.2778 2.08333 40.2778H22.5098Z" fill="white"/>
</svg>
