<svg width="260" height="158" viewBox="0 0 260 158" fill="none" xmlns="http://www.w3.org/2000/svg">
<path d="M37.9984 0L5.54076 12.1037L32.2517 34.161L37.9984 0ZM37.9984 157.5L32.5609 123.288L5.65156 145.103L37.9984 157.5ZM18.2904 19.186C-4.95709 55.1086 -5.99091 100.142 18.4712 138.148L23.5165 134.901C0.350515 98.9084 1.34045 56.4209 23.3276 22.4459L18.2904 19.186Z" fill="white" fill-opacity="0.8"/>
<path d="M222 0L254.533 11.9005L227.96 34.1244L222 0ZM222 158L227.648 123.823L254.423 145.803L222 158ZM241.827 19.0615C265.555 55.1841 266.616 100.538 241.648 138.767L236.624 135.486C260.266 99.2875 259.251 56.5155 236.812 22.3556L241.827 19.0615Z" fill="white" fill-opacity="0.8"/>
</svg>
