<svg width="59" height="60" viewBox="0 0 59 60" fill="none" xmlns="http://www.w3.org/2000/svg">
<circle cx="28.9895" cy="29.4993" r="9.53055" stroke="white" stroke-opacity="0.8" stroke-width="3"/>
<rect x="26.166" y="8.20703" width="6.15659" height="11.2871" fill="white" fill-opacity="0.8"/>
<path d="M29.2431 0L34.1306 8.46531H24.3557L29.2431 0Z" fill="white" fill-opacity="0.8"/>
<rect x="50.2793" y="26.6777" width="6.15659" height="11.2871" transform="rotate(90 50.2793 26.6777)" fill="white" fill-opacity="0.8"/>
<path d="M58.4922 29.7549L50.0269 34.6423L50.0269 24.8674L58.4922 29.7549Z" fill="white" fill-opacity="0.8"/>
<rect x="32.3223" y="51.3066" width="6.15659" height="11.2871" transform="rotate(-180 32.3223 51.3066)" fill="white" fill-opacity="0.8"/>
<path d="M29.2451 59.5137L24.3577 51.0484L34.1326 51.0484L29.2451 59.5137Z" fill="white" fill-opacity="0.8"/>
<rect x="8.21289" y="32.834" width="6.15659" height="11.2871" transform="rotate(-90 8.21289 32.834)" fill="white" fill-opacity="0.8"/>
<path d="M-2.46687e-07 29.7569L8.46531 24.8694L8.46531 34.6443L-2.46687e-07 29.7569Z" fill="white" fill-opacity="0.8"/>
</svg>
