<svg width="60" height="70" viewBox="0 0 60 70" fill="none" xmlns="http://www.w3.org/2000/svg">
<path d="M16 17.7637L16 49.7637C16 52.5251 18.2386 54.7637 21 54.7637L24.8667 54.7637C27.6281 54.7637 29.8667 52.5251 29.8667 49.7637L29.8667 22.7637C29.8667 20.0022 32.1052 17.7637 34.8667 17.7637L37 17.7637C39.7614 17.7637 42 20.0022 42 22.7637L42 54.7637" stroke="black" stroke-width="4"/>
<path d="M15.6718 8.99993C18.3366 8.99993 20.3436 11.0446 20.3436 13.3818C20.3436 15.719 18.3366 17.7637 15.6718 17.7637C13.007 17.7637 11 15.719 11 13.3818C11 11.0446 13.007 8.99993 15.6718 8.99993Z" stroke="black" stroke-width="4"/>
<path d="M42.6718 53.9999C45.3366 53.9999 47.3436 56.0446 47.3436 58.3818C47.3436 60.719 45.3366 62.7637 42.6718 62.7637C40.007 62.7637 38 60.719 38 58.3818C38 56.0446 40.007 53.9999 42.6718 53.9999Z" stroke="black" stroke-width="4"/>
<rect x="2" y="2" width="56" height="66" rx="2" stroke="black" stroke-width="4"/>
</svg>
