<svg width="67" height="67" viewBox="0 0 67 67" fill="none" xmlns="http://www.w3.org/2000/svg">
<rect width="67" height="67" rx="2" fill="#3D71D7"/>
<path fill-rule="evenodd" clip-rule="evenodd" d="M13.9006 11.9006C15.1015 10.6998 17.0485 10.6998 18.2494 11.9006L33.5 27.1513L48.7506 11.9006C49.9515 10.6998 51.8985 10.6998 53.0994 11.9006C54.3002 13.1015 54.3002 15.0485 53.0994 16.2494L37.8487 31.5L53.0994 46.7506C54.3002 47.9515 54.3002 49.8985 53.0994 51.0994C51.8985 52.3002 49.9515 52.3002 48.7506 51.0994L33.5 35.8487L18.2494 51.0994C17.0485 52.3002 15.1015 52.3002 13.9006 51.0994C12.6998 49.8985 12.6998 47.9515 13.9006 46.7506L29.1513 31.5L13.9006 16.2494C12.6998 15.0485 12.6998 13.1015 13.9006 11.9006Z" fill="white"/>
</svg>
