<svg width="40" height="60" viewBox="0 0 40 60" fill="none" xmlns="http://www.w3.org/2000/svg">
<path d="M2 21C2 10.4135 10.1497 2 20 2C29.8503 2 38 10.4135 38 21C38 26.2918 35.6937 32.6828 31.9986 39.3835C28.7098 45.3475 24.4184 51.3838 20 56.8481C15.5816 51.3838 11.2902 45.3475 8.00136 39.3835C4.30626 32.6828 2 26.2918 2 21Z" fill="black" stroke="black" stroke-width="4"/>
<path d="M22.3267 26.5889V20.8469H16.9807V26.5889H12.1187V11.4529H16.9807V16.9749H22.3267V11.4529H27.1887V26.5889H22.3267Z" fill="white"/>
<path d="M33.4948 18.8809C33.4948 26.4883 27.3277 32.6554 19.7203 32.6554C12.1128 32.6554 5.9458 26.4883 5.9458 18.8809C5.9458 11.2735 12.1128 5.10645 19.7203 5.10645C27.3277 5.10645 33.4948 11.2735 33.4948 18.8809Z" stroke="white" stroke-width="3.5"/>
</svg>
