<svg width="48" height="93" viewBox="0 0 48 93" fill="none" xmlns="http://www.w3.org/2000/svg">
<path d="M8.92906 76.9557H11.0691L14.1491 85.0757C14.3224 85.5424 14.4824 85.9757 14.6291 86.3757C14.7757 86.7624 14.9024 87.109 15.0091 87.4157C15.1424 87.7624 15.2557 88.0824 15.3491 88.3757H15.3891C15.4691 88.0824 15.5691 87.7624 15.6891 87.4157C15.7957 87.109 15.9157 86.7624 16.0491 86.3757C16.1824 85.9757 16.3424 85.5424 16.5291 85.0757L19.6691 76.9557H21.8091L22.5091 90.5957H20.8091L20.4691 83.0957C20.4424 82.4424 20.4224 81.889 20.4091 81.4357C20.3957 80.9824 20.3891 80.609 20.3891 80.3157V79.4757H20.3491C20.2691 79.6757 20.1691 79.949 20.0491 80.2957C19.9424 80.589 19.8024 80.969 19.6291 81.4357C19.4691 81.889 19.2691 82.4424 19.0291 83.0957L16.2091 90.5957H14.5091L11.6691 83.0957C11.4157 82.4557 11.2091 81.909 11.0491 81.4557C10.8891 80.989 10.7557 80.609 10.6491 80.3157C10.5291 79.969 10.4357 79.689 10.3691 79.4757H10.3291C10.3424 79.689 10.3557 79.969 10.3691 80.3157C10.3824 80.8757 10.3624 81.8024 10.3091 83.0957L9.90906 90.5957H8.20906L8.92906 76.9557ZM34.7003 90.3557C34.3936 90.449 34.0736 90.529 33.7403 90.5957C33.4203 90.6624 33.0603 90.7224 32.6603 90.7757C32.2736 90.829 31.867 90.8557 31.4403 90.8557C30.7736 90.8557 30.1536 90.7624 29.5803 90.5757C29.007 90.389 28.507 90.089 28.0803 89.6757C27.6536 89.2624 27.3136 88.729 27.0603 88.0757C26.8203 87.409 26.7003 86.5957 26.7003 85.6357C26.7003 84.769 26.8203 84.009 27.0603 83.3557C27.3003 82.689 27.627 82.1357 28.0403 81.6957C28.467 81.2424 28.9603 80.9024 29.5203 80.6757C30.0936 80.449 30.7136 80.3357 31.3803 80.3357C32.0336 80.3357 32.6003 80.4624 33.0803 80.7157C33.5603 80.969 33.9536 81.3157 34.2603 81.7557C34.5803 82.1824 34.8136 82.689 34.9603 83.2757C35.1203 83.849 35.2003 84.4557 35.2003 85.0957L34.9003 85.9757H28.4403C28.4403 86.389 28.4936 86.8024 28.6003 87.2157C28.707 87.629 28.887 88.0024 29.1403 88.3357C29.407 88.669 29.747 88.9424 30.1603 89.1557C30.587 89.3557 31.1136 89.4557 31.7403 89.4557C32.1403 89.4557 32.507 89.4357 32.8403 89.3957C33.1736 89.3424 33.4603 89.289 33.7003 89.2357C33.9536 89.169 34.187 89.0957 34.4003 89.0157L34.7003 90.3557ZM33.5403 84.6957C33.5403 84.6024 33.5203 84.3957 33.4803 84.0757C33.4403 83.7557 33.347 83.4224 33.2003 83.0757C33.0536 82.729 32.827 82.4224 32.5203 82.1557C32.2136 81.8757 31.807 81.7357 31.3003 81.7357C30.7403 81.7357 30.2803 81.8557 29.9203 82.0957C29.5603 82.3224 29.2736 82.5957 29.0603 82.9157C28.847 83.2357 28.7003 83.5624 28.6203 83.8957C28.5403 84.229 28.5003 84.4957 28.5003 84.6957H33.5403Z" fill="#535050"/>
<path d="M33.07 24.666H1.15771V45.7002L6.78929 55.6638V67.8415H27.4384V55.6638C20.6805 45.036 28.377 34.9986 33.07 31.3084V24.666Z" fill="#535050" stroke="#535050"/>
<circle cx="17.1141" cy="10.5873" r="10.3246" fill="#535050"/>
<path fill-rule="evenodd" clip-rule="evenodd" d="M28 45.15C28 39.5443 32.4772 35 38 35C43.5228 35 48 39.5443 48 45.15C48 50.7557 43 58.2 38 64C33 58.2 28 50.7557 28 45.15Z" fill="#696767"/>
<circle cx="38" cy="46" r="5" fill="white"/>
</svg>
