<svg width="30" height="44" viewBox="0 0 30 44" fill="none" xmlns="http://www.w3.org/2000/svg">
<path d="M0.95 15.4C0.95 7.39576 7.26381 0.95 15 0.95C22.7362 0.95 29.05 7.39576 29.05 15.4C29.05 19.4063 27.2711 24.1828 24.485 29.1228C21.8915 33.7213 18.4788 38.369 15 42.5275C11.5212 38.369 8.10848 33.7213 5.51497 29.1228C2.72889 24.1828 0.95 19.4063 0.95 15.4Z" fill="white" stroke="white" stroke-width="1.9"/>
<path d="M22.8758 16.4979C22.8758 20.7006 19.382 24.1647 15.0007 24.1647C10.6194 24.1647 7.12549 20.7006 7.12549 16.4979C7.12549 12.2952 10.6194 8.83105 15.0007 8.83105C19.382 8.83105 22.8758 12.2952 22.8758 16.4979Z" stroke="#3C3737" stroke-width="3"/>
<ellipse cx="15.0001" cy="16.5001" rx="5.6251" ry="5.5001" fill="white"/>
</svg>
