<svg width="52" height="67" viewBox="0 0 52 67" fill="none" xmlns="http://www.w3.org/2000/svg">
<path d="M22.7612 32.5H9.48016C5.34898 32.5 2 35.849 2 39.9802V39.9802C2 44.1113 5.34898 47.4603 9.48015 47.4603H22.7612" stroke="black" stroke-width="3" stroke-linecap="round"/>
<path d="M23.2803 47.46V47.46C25.2588 47.46 26.8833 49.0241 26.9582 51.0012L27.1521 56.1201C27.3304 60.8278 31.1088 64.6016 35.8167 64.7742L41.9654 64.9996" stroke="black" stroke-width="3" stroke-linecap="round"/>
<path fill-rule="evenodd" clip-rule="evenodd" d="M6.67139 9.74999C6.67139 4.36522 10.8542 0 16.0139 0C21.1737 0 25.3565 4.36522 25.3565 9.74999C25.3565 15.1348 20.6852 22.2857 16.0139 27.8571C11.3427 22.2857 6.67139 15.1348 6.67139 9.74999Z" fill="black"/>
<ellipse cx="16.0139" cy="10.4461" rx="5.8391" ry="5.80357" fill="white"/>
<ellipse cx="16.0142" cy="10.446" rx="3.50346" ry="3.48214" fill="black"/>
<path fill-rule="evenodd" clip-rule="evenodd" d="M32.623 43.1267C32.623 37.5425 36.9608 33.0156 42.3116 33.0156C47.6625 33.0156 52.0002 37.5425 52.0002 43.1267C52.0002 48.7109 47.1559 56.1267 42.3116 61.9045C37.4673 56.1267 32.623 48.7109 32.623 43.1267Z" fill="black"/>
<ellipse cx="42.3112" cy="43.8476" rx="6.05536" ry="6.01851" fill="white"/>
<ellipse cx="42.3114" cy="43.8494" rx="3.63322" ry="3.61111" fill="black"/>
</svg>
