<svg width="40" height="60" viewBox="0 0 40 60" fill="none" xmlns="http://www.w3.org/2000/svg">
<path d="M2 21C2 10.4135 10.1497 2 20 2C29.8503 2 38 10.4135 38 21C38 26.2918 35.6937 32.6828 31.9986 39.3835C28.7098 45.3475 24.4184 51.3838 20 56.8481C15.5816 51.3838 11.2902 45.3475 8.00136 39.3835C4.30626 32.6828 2 26.2918 2 21Z" fill="black" stroke="black" stroke-width="4"/>
<path d="M20.2205 3.80273L24.181 15.3241H36.9976L26.6288 22.4446L30.5893 33.966L20.2205 26.8454L9.85172 33.966L13.8122 22.4446L3.44346 15.3241H16.26L20.2205 3.80273Z" fill="white"/>
</svg>
