<svg width="61" height="61" viewBox="0 0 61 61" fill="none" xmlns="http://www.w3.org/2000/svg">
<path d="M22.4118 30.8678C22.4118 36.439 17.8615 40.9729 12.2266 40.9729C6.59181 40.9729 2.0415 36.439 2.0415 30.8678C2.0415 25.2966 6.59181 20.7627 12.2266 20.7627C17.8615 20.7627 22.4118 25.2966 22.4118 30.8678Z" stroke="black" stroke-width="3"/>
<path d="M14.512 28.4873C14.2776 27.6084 13.6136 27.0225 12.3636 27.0225C11.055 27.0225 10.1175 27.7256 10.1175 28.624C10.1175 29.3271 10.6839 29.8154 11.9339 30.1084L13.5159 30.499C15.4104 30.9482 16.3479 31.8857 16.3479 33.3701C16.3479 35.2061 14.844 36.5537 12.1878 36.5537C9.80497 36.5537 8.37919 35.499 8.10575 33.5654H9.86356C10.0589 34.6006 10.8206 35.0889 12.1487 35.0889C13.6526 35.0889 14.6097 34.4639 14.6097 33.4678C14.6097 32.7256 14.0823 32.2178 12.8714 31.9443L11.2698 31.5732C9.41434 31.1436 8.43778 30.1279 8.43778 28.7217C8.43778 26.9053 10.0198 25.5967 12.3636 25.5967C14.5511 25.5967 15.9378 26.7686 16.1526 28.4873H14.512Z" fill="black"/>
<path d="M59.0412 30.527C59.0412 36.0982 54.4909 40.6321 48.856 40.6321C43.2212 40.6321 38.6709 36.0982 38.6709 30.527C38.6709 24.9558 43.2212 20.4219 48.856 20.4219C54.4909 20.4219 59.0412 24.9558 59.0412 30.527Z" stroke="black" stroke-width="3"/>
<path d="M49.1297 36.2139C46.0633 36.2139 44.1687 34.0459 44.1687 30.7842C44.1687 27.5225 46.0828 25.2568 48.9734 25.2568C51.2 25.2568 53.5437 26.624 53.5437 30.5498V31.2529H45.8484C45.9265 33.499 47.2351 34.7295 49.1297 34.7295C50.3992 34.7295 51.2 34.1826 51.5906 33.5186H53.3875C52.8797 35.1201 51.3172 36.2139 49.1297 36.2139ZM45.868 29.8271H51.8445C51.8445 28.0498 50.7117 26.7412 48.9734 26.7412C47.1375 26.7412 45.9656 28.1865 45.868 29.8271Z" fill="black"/>
<path d="M26.7272 56.76L26.4286 58.2299L26.7272 56.76ZM26.0955 56.6316L26.394 55.1616L26.0955 56.6316ZM15.1043 49.8656L16.282 48.9369L15.1043 49.8656ZM10.9421 42.8749C10.1194 42.7776 9.37368 43.3656 9.27649 44.1883L7.69263 57.5947C7.59543 58.4174 8.18358 59.1633 9.00629 59.2606C9.82899 59.3579 10.5747 58.7699 10.6719 57.9472L12.0798 46.0303L23.9969 47.4402C24.8196 47.5375 25.5654 46.9495 25.6626 46.1268C25.7598 45.3041 25.1716 44.5583 24.3489 44.461L10.9421 42.8749ZM27.0257 55.29L26.394 55.1616L25.7969 58.1015L26.4286 58.2299L27.0257 55.29ZM16.282 48.9369L11.9439 43.4358L9.58835 45.2932L13.9265 50.7943L16.282 48.9369ZM26.394 55.1616C22.3932 54.3485 18.8102 52.1429 16.282 48.9369L13.9265 50.7943C16.8943 54.5578 21.1004 57.1469 25.7969 58.1015L26.394 55.1616ZM46.1342 43.9252C43.6412 52.0683 35.372 56.9864 27.0257 55.29L26.4286 58.2299C36.2887 60.234 46.0576 54.4239 49.0028 44.8038L46.1342 43.9252Z" fill="black"/>
<path d="M32.3696 4.01965L32.071 5.48959L32.071 5.48959L32.3696 4.01965ZM32.9965 4.14708L33.2951 2.67714L33.2951 2.67714L32.9965 4.14708ZM43.9051 10.8622L42.7273 11.7909L43.9051 10.8622ZM48.0346 17.8115C48.8573 17.9089 49.6031 17.3209 49.7003 16.4982L51.2841 3.09169C51.3813 2.269 50.7932 1.52318 49.9705 1.42585C49.1477 1.32852 48.402 1.91654 48.3048 2.73923L46.897 14.6561L34.9798 13.2463C34.1571 13.1489 33.4114 13.7369 33.3142 14.5596C33.217 15.3823 33.8051 16.1281 34.6278 16.2255L48.0346 17.8115ZM32.071 5.48959L32.698 5.61702L33.2951 2.67714L32.6681 2.54971L32.071 5.48959ZM42.7273 11.7909L47.0328 17.2506L49.3884 15.3932L45.0829 9.93346L42.7273 11.7909ZM32.698 5.61702C36.6661 6.42355 40.2198 8.61115 42.7273 11.7909L45.0829 9.93346C42.1358 6.19624 37.9589 3.62508 33.2951 2.67714L32.698 5.61702ZM13.1192 16.7613C15.5919 8.68489 23.7932 3.80711 32.071 5.48959L32.6681 2.54971C22.8765 0.559561 13.1754 6.32933 10.2506 15.8826L13.1192 16.7613Z" fill="black"/>
</svg>
