<svg width="40" height="62" viewBox="0 0 40 62" fill="none" xmlns="http://www.w3.org/2000/svg">
<path d="M2.51367 21.5338C2.51367 10.6106 10.4401 2.12305 19.7876 2.12305C29.1351 2.12305 37.0615 10.6106 37.0615 21.5338C37.0615 26.9665 34.8259 33.5052 31.2649 40.3372C28.1155 46.3793 24.0141 52.4922 19.7876 58.0326C15.561 52.4922 11.4597 46.3793 8.31031 40.3372C4.74923 33.5052 2.51367 26.9665 2.51367 21.5338Z" fill="black" stroke="black" stroke-width="4"/>
<path d="M20 4L23.8167 15.7467L36.168 15.7467L26.1756 23.0066L29.9923 34.7533L20 27.4934L10.0077 34.7533L13.8244 23.0066L3.83204 15.7467L16.1833 15.7467L20 4Z" fill="white"/>
</svg>
