<svg width="54" height="70" viewBox="0 0 54 70" fill="none" xmlns="http://www.w3.org/2000/svg">
<path d="M23.6786 34.3896H10.093C5.82657 34.3896 2.36792 37.8483 2.36792 42.1148V42.1148C2.36792 46.3812 5.82657 49.8399 10.093 49.8399H23.6786" stroke="black" stroke-width="3" stroke-linecap="round"/>
<path d="M24.2114 49.8398V49.8398C26.2421 49.8398 27.9094 51.4455 27.9858 53.4748L28.1857 58.7846C28.3688 63.6459 32.2695 67.5437 37.131 67.723L43.391 67.9539" stroke="black" stroke-width="3" stroke-linecap="round"/>
<path fill-rule="evenodd" clip-rule="evenodd" d="M7.16284 10.8945C7.16284 5.33337 11.4563 0.825195 16.7526 0.825195C22.0489 0.825195 26.3424 5.33337 26.3424 10.8945C26.3424 16.4556 21.5475 23.8407 16.7526 29.5946C11.9577 23.8407 7.16284 16.4556 7.16284 10.8945Z" fill="black"/>
<circle cx="16.7527" cy="11.6137" r="5.99362" fill="white"/>
<circle cx="16.7527" cy="11.6138" r="3.59617" fill="black"/>
<path fill-rule="evenodd" clip-rule="evenodd" d="M33.8013 45.3641C33.8013 39.597 38.2538 34.9219 43.7462 34.9219C49.2387 34.9219 53.6912 39.597 53.6912 45.3641C53.6912 51.1312 48.7187 58.7898 43.7462 64.7568C38.7738 58.7898 33.8013 51.1312 33.8013 45.3641Z" fill="black"/>
<circle cx="43.7461" cy="46.1092" r="6.21561" fill="white"/>
<circle cx="43.7462" cy="46.1102" r="3.72937" fill="black"/>
</svg>
