<svg width="67" height="68" viewBox="0 0 67 68" fill="none" xmlns="http://www.w3.org/2000/svg">
<circle cx="13.448" cy="34.2835" r="11.4065" stroke="black" stroke-width="3"/>
<path d="M13.4932 42.2654C12.8112 42.2654 12.1658 42.1848 11.5572 42.0234C10.9558 41.8621 10.4278 41.6531 9.97317 41.3964C9.5185 41.1398 9.15917 40.8721 8.89517 40.5934L10.0172 38.2834C10.1858 38.5034 10.4425 38.7381 10.7872 38.9874C11.1318 39.2368 11.5242 39.4494 11.9642 39.6254C12.4115 39.8014 12.8552 39.8894 13.2952 39.8894C13.8745 39.8894 14.3585 39.7318 14.7472 39.4164C15.1432 39.0938 15.3412 38.6428 15.3412 38.0634C15.3412 37.6894 15.2495 37.3668 15.0662 37.0954C14.8902 36.8168 14.6518 36.5711 14.3512 36.3584C14.0578 36.1384 13.6032 35.8414 12.9872 35.4674C12.1438 34.9541 11.4838 34.5178 11.0072 34.1584C10.5305 33.7918 10.1162 33.3151 9.76417 32.7284C9.4195 32.1344 9.24717 31.4194 9.24717 30.5834C9.24717 29.7694 9.4195 29.0508 9.76417 28.4274C10.1162 27.7968 10.6332 27.3054 11.3152 26.9534C11.9972 26.6014 12.8185 26.4254 13.7792 26.4254C15.3412 26.4254 16.6465 26.9021 17.6952 27.8554L16.4632 30.0994C16.3385 29.9234 16.1515 29.7328 15.9022 29.5274C15.6528 29.3148 15.3522 29.1351 15.0002 28.9884C14.6482 28.8344 14.2778 28.7574 13.8892 28.7574C13.3245 28.7574 12.8845 28.9224 12.5692 29.2524C12.2612 29.5751 12.1072 29.9821 12.1072 30.4734C12.1072 30.8474 12.1988 31.1811 12.3822 31.4744C12.5728 31.7604 12.8185 32.0171 13.1192 32.2444C13.4272 32.4718 13.8378 32.7394 14.3512 33.0474C15.2825 33.5974 15.9938 34.0594 16.4852 34.4334C16.9765 34.8074 17.3872 35.2841 17.7172 35.8634C18.0545 36.4354 18.2232 37.1394 18.2232 37.9754C18.2232 38.8628 18.0325 39.6291 17.6512 40.2744C17.2698 40.9198 16.7235 41.4148 16.0122 41.7594C15.3008 42.0968 14.4612 42.2654 13.4932 42.2654Z" fill="black"/>
<circle cx="53.9065" cy="33.9065" r="11.4065" stroke="black" stroke-width="3"/>
<path d="M58.5722 39.1605V41.6465H50.1242V26.3125H58.1322V28.7105H52.8742V32.2965H57.0542V34.6285H52.8742V39.1605H58.5722Z" fill="black"/>
<path d="M29.3585 63.058L29.0578 64.5276L29.3585 63.058ZM28.7636 62.9363L29.0643 61.4668L28.7636 62.9363ZM16.6466 55.4383L15.4657 56.3632L16.6466 55.4383ZM11.8345 49.2941L14.2653 66.4432L27.9015 55.7635L11.8345 49.2941ZM29.6593 61.5885L29.0643 61.4668L28.4628 64.4058L29.0578 64.5276L29.6593 61.5885ZM29.0643 61.4668C24.6124 60.5556 20.6295 58.091 17.8275 54.5134L15.4657 56.3632C18.7066 60.5013 23.3134 63.352 28.4628 64.4058L29.0643 61.4668ZM51.0486 48.8577C48.2732 57.9857 39.0062 63.5014 29.6593 61.5885L29.0578 64.5276C39.9218 66.7509 50.6929 60.3401 53.9189 49.7304L51.0486 48.8577Z" fill="black"/>
<path d="M35.8007 4.44626L35.5 5.91581L35.8007 4.44626ZM36.3912 4.5671L36.6919 3.09756L36.6919 3.09756L36.3912 4.5671ZM48.4171 12.0087L49.598 11.0838L49.598 11.0838L48.4171 12.0087ZM53.193 18.1067L50.7622 0.957649L37.126 11.6373L53.193 18.1067ZM35.5 5.91581L36.0905 6.03664L36.6919 3.09756L36.1015 2.97672L35.5 5.91581ZM36.0905 6.03664C40.5063 6.94036 44.4569 9.38499 47.2361 12.9336L49.598 11.0838C46.3798 6.97475 41.8053 4.14402 36.6919 3.09756L36.0905 6.03664ZM14.2845 18.5431C17.0374 9.48928 26.2291 4.01848 35.5 5.91581L36.1015 2.97672C25.3134 0.768918 14.6177 7.13497 11.4143 17.6704L14.2845 18.5431Z" fill="black"/>
</svg>
